G04 EAGLE Gerber RS-274X export*
G75*
%MOMM*%
%FSLAX34Y34*%
%LPD*%
%IN*%
%IPPOS*%
%AMOC8*
5,1,8,0,0,1.08239X$1,22.5*%
G01*
%ADD10C,0.152400*%
%ADD11C,0.000000*%
%ADD12C,0.254000*%


D10*
X0Y0D02*
X0Y762000D01*
X863600Y762000D01*
X863600Y0D01*
X0Y0D01*
D11*
X36800Y609600D02*
X36804Y609944D01*
X36817Y610287D01*
X36838Y610630D01*
X36867Y610972D01*
X36905Y611314D01*
X36952Y611654D01*
X37006Y611993D01*
X37069Y612331D01*
X37140Y612667D01*
X37220Y613002D01*
X37307Y613334D01*
X37403Y613664D01*
X37507Y613992D01*
X37618Y614316D01*
X37738Y614639D01*
X37866Y614958D01*
X38001Y615273D01*
X38144Y615586D01*
X38295Y615895D01*
X38453Y616200D01*
X38619Y616501D01*
X38792Y616797D01*
X38972Y617090D01*
X39159Y617378D01*
X39354Y617661D01*
X39555Y617940D01*
X39763Y618213D01*
X39978Y618482D01*
X40199Y618744D01*
X40427Y619002D01*
X40661Y619254D01*
X40901Y619499D01*
X41146Y619739D01*
X41398Y619973D01*
X41656Y620201D01*
X41918Y620422D01*
X42187Y620637D01*
X42460Y620845D01*
X42739Y621046D01*
X43022Y621241D01*
X43310Y621428D01*
X43603Y621608D01*
X43899Y621781D01*
X44200Y621947D01*
X44505Y622105D01*
X44814Y622256D01*
X45127Y622399D01*
X45442Y622534D01*
X45761Y622662D01*
X46084Y622782D01*
X46408Y622893D01*
X46736Y622997D01*
X47066Y623093D01*
X47398Y623180D01*
X47733Y623260D01*
X48069Y623331D01*
X48407Y623394D01*
X48746Y623448D01*
X49086Y623495D01*
X49428Y623533D01*
X49770Y623562D01*
X50113Y623583D01*
X50456Y623596D01*
X50800Y623600D01*
X51144Y623596D01*
X51487Y623583D01*
X51830Y623562D01*
X52172Y623533D01*
X52514Y623495D01*
X52854Y623448D01*
X53193Y623394D01*
X53531Y623331D01*
X53867Y623260D01*
X54202Y623180D01*
X54534Y623093D01*
X54864Y622997D01*
X55192Y622893D01*
X55516Y622782D01*
X55839Y622662D01*
X56158Y622534D01*
X56473Y622399D01*
X56786Y622256D01*
X57095Y622105D01*
X57400Y621947D01*
X57701Y621781D01*
X57997Y621608D01*
X58290Y621428D01*
X58578Y621241D01*
X58861Y621046D01*
X59140Y620845D01*
X59413Y620637D01*
X59682Y620422D01*
X59944Y620201D01*
X60202Y619973D01*
X60454Y619739D01*
X60699Y619499D01*
X60939Y619254D01*
X61173Y619002D01*
X61401Y618744D01*
X61622Y618482D01*
X61837Y618213D01*
X62045Y617940D01*
X62246Y617661D01*
X62441Y617378D01*
X62628Y617090D01*
X62808Y616797D01*
X62981Y616501D01*
X63147Y616200D01*
X63305Y615895D01*
X63456Y615586D01*
X63599Y615273D01*
X63734Y614958D01*
X63862Y614639D01*
X63982Y614316D01*
X64093Y613992D01*
X64197Y613664D01*
X64293Y613334D01*
X64380Y613002D01*
X64460Y612667D01*
X64531Y612331D01*
X64594Y611993D01*
X64648Y611654D01*
X64695Y611314D01*
X64733Y610972D01*
X64762Y610630D01*
X64783Y610287D01*
X64796Y609944D01*
X64800Y609600D01*
X64796Y609256D01*
X64783Y608913D01*
X64762Y608570D01*
X64733Y608228D01*
X64695Y607886D01*
X64648Y607546D01*
X64594Y607207D01*
X64531Y606869D01*
X64460Y606533D01*
X64380Y606198D01*
X64293Y605866D01*
X64197Y605536D01*
X64093Y605208D01*
X63982Y604884D01*
X63862Y604561D01*
X63734Y604242D01*
X63599Y603927D01*
X63456Y603614D01*
X63305Y603305D01*
X63147Y603000D01*
X62981Y602699D01*
X62808Y602403D01*
X62628Y602110D01*
X62441Y601822D01*
X62246Y601539D01*
X62045Y601260D01*
X61837Y600987D01*
X61622Y600718D01*
X61401Y600456D01*
X61173Y600198D01*
X60939Y599946D01*
X60699Y599701D01*
X60454Y599461D01*
X60202Y599227D01*
X59944Y598999D01*
X59682Y598778D01*
X59413Y598563D01*
X59140Y598355D01*
X58861Y598154D01*
X58578Y597959D01*
X58290Y597772D01*
X57997Y597592D01*
X57701Y597419D01*
X57400Y597253D01*
X57095Y597095D01*
X56786Y596944D01*
X56473Y596801D01*
X56158Y596666D01*
X55839Y596538D01*
X55516Y596418D01*
X55192Y596307D01*
X54864Y596203D01*
X54534Y596107D01*
X54202Y596020D01*
X53867Y595940D01*
X53531Y595869D01*
X53193Y595806D01*
X52854Y595752D01*
X52514Y595705D01*
X52172Y595667D01*
X51830Y595638D01*
X51487Y595617D01*
X51144Y595604D01*
X50800Y595600D01*
X50456Y595604D01*
X50113Y595617D01*
X49770Y595638D01*
X49428Y595667D01*
X49086Y595705D01*
X48746Y595752D01*
X48407Y595806D01*
X48069Y595869D01*
X47733Y595940D01*
X47398Y596020D01*
X47066Y596107D01*
X46736Y596203D01*
X46408Y596307D01*
X46084Y596418D01*
X45761Y596538D01*
X45442Y596666D01*
X45127Y596801D01*
X44814Y596944D01*
X44505Y597095D01*
X44200Y597253D01*
X43899Y597419D01*
X43603Y597592D01*
X43310Y597772D01*
X43022Y597959D01*
X42739Y598154D01*
X42460Y598355D01*
X42187Y598563D01*
X41918Y598778D01*
X41656Y598999D01*
X41398Y599227D01*
X41146Y599461D01*
X40901Y599701D01*
X40661Y599946D01*
X40427Y600198D01*
X40199Y600456D01*
X39978Y600718D01*
X39763Y600987D01*
X39555Y601260D01*
X39354Y601539D01*
X39159Y601822D01*
X38972Y602110D01*
X38792Y602403D01*
X38619Y602699D01*
X38453Y603000D01*
X38295Y603305D01*
X38144Y603614D01*
X38001Y603927D01*
X37866Y604242D01*
X37738Y604561D01*
X37618Y604884D01*
X37507Y605208D01*
X37403Y605536D01*
X37307Y605866D01*
X37220Y606198D01*
X37140Y606533D01*
X37069Y606869D01*
X37006Y607207D01*
X36952Y607546D01*
X36905Y607886D01*
X36867Y608228D01*
X36838Y608570D01*
X36817Y608913D01*
X36804Y609256D01*
X36800Y609600D01*
X290800Y711200D02*
X290804Y711544D01*
X290817Y711887D01*
X290838Y712230D01*
X290867Y712572D01*
X290905Y712914D01*
X290952Y713254D01*
X291006Y713593D01*
X291069Y713931D01*
X291140Y714267D01*
X291220Y714602D01*
X291307Y714934D01*
X291403Y715264D01*
X291507Y715592D01*
X291618Y715916D01*
X291738Y716239D01*
X291866Y716558D01*
X292001Y716873D01*
X292144Y717186D01*
X292295Y717495D01*
X292453Y717800D01*
X292619Y718101D01*
X292792Y718397D01*
X292972Y718690D01*
X293159Y718978D01*
X293354Y719261D01*
X293555Y719540D01*
X293763Y719813D01*
X293978Y720082D01*
X294199Y720344D01*
X294427Y720602D01*
X294661Y720854D01*
X294901Y721099D01*
X295146Y721339D01*
X295398Y721573D01*
X295656Y721801D01*
X295918Y722022D01*
X296187Y722237D01*
X296460Y722445D01*
X296739Y722646D01*
X297022Y722841D01*
X297310Y723028D01*
X297603Y723208D01*
X297899Y723381D01*
X298200Y723547D01*
X298505Y723705D01*
X298814Y723856D01*
X299127Y723999D01*
X299442Y724134D01*
X299761Y724262D01*
X300084Y724382D01*
X300408Y724493D01*
X300736Y724597D01*
X301066Y724693D01*
X301398Y724780D01*
X301733Y724860D01*
X302069Y724931D01*
X302407Y724994D01*
X302746Y725048D01*
X303086Y725095D01*
X303428Y725133D01*
X303770Y725162D01*
X304113Y725183D01*
X304456Y725196D01*
X304800Y725200D01*
X305144Y725196D01*
X305487Y725183D01*
X305830Y725162D01*
X306172Y725133D01*
X306514Y725095D01*
X306854Y725048D01*
X307193Y724994D01*
X307531Y724931D01*
X307867Y724860D01*
X308202Y724780D01*
X308534Y724693D01*
X308864Y724597D01*
X309192Y724493D01*
X309516Y724382D01*
X309839Y724262D01*
X310158Y724134D01*
X310473Y723999D01*
X310786Y723856D01*
X311095Y723705D01*
X311400Y723547D01*
X311701Y723381D01*
X311997Y723208D01*
X312290Y723028D01*
X312578Y722841D01*
X312861Y722646D01*
X313140Y722445D01*
X313413Y722237D01*
X313682Y722022D01*
X313944Y721801D01*
X314202Y721573D01*
X314454Y721339D01*
X314699Y721099D01*
X314939Y720854D01*
X315173Y720602D01*
X315401Y720344D01*
X315622Y720082D01*
X315837Y719813D01*
X316045Y719540D01*
X316246Y719261D01*
X316441Y718978D01*
X316628Y718690D01*
X316808Y718397D01*
X316981Y718101D01*
X317147Y717800D01*
X317305Y717495D01*
X317456Y717186D01*
X317599Y716873D01*
X317734Y716558D01*
X317862Y716239D01*
X317982Y715916D01*
X318093Y715592D01*
X318197Y715264D01*
X318293Y714934D01*
X318380Y714602D01*
X318460Y714267D01*
X318531Y713931D01*
X318594Y713593D01*
X318648Y713254D01*
X318695Y712914D01*
X318733Y712572D01*
X318762Y712230D01*
X318783Y711887D01*
X318796Y711544D01*
X318800Y711200D01*
X318796Y710856D01*
X318783Y710513D01*
X318762Y710170D01*
X318733Y709828D01*
X318695Y709486D01*
X318648Y709146D01*
X318594Y708807D01*
X318531Y708469D01*
X318460Y708133D01*
X318380Y707798D01*
X318293Y707466D01*
X318197Y707136D01*
X318093Y706808D01*
X317982Y706484D01*
X317862Y706161D01*
X317734Y705842D01*
X317599Y705527D01*
X317456Y705214D01*
X317305Y704905D01*
X317147Y704600D01*
X316981Y704299D01*
X316808Y704003D01*
X316628Y703710D01*
X316441Y703422D01*
X316246Y703139D01*
X316045Y702860D01*
X315837Y702587D01*
X315622Y702318D01*
X315401Y702056D01*
X315173Y701798D01*
X314939Y701546D01*
X314699Y701301D01*
X314454Y701061D01*
X314202Y700827D01*
X313944Y700599D01*
X313682Y700378D01*
X313413Y700163D01*
X313140Y699955D01*
X312861Y699754D01*
X312578Y699559D01*
X312290Y699372D01*
X311997Y699192D01*
X311701Y699019D01*
X311400Y698853D01*
X311095Y698695D01*
X310786Y698544D01*
X310473Y698401D01*
X310158Y698266D01*
X309839Y698138D01*
X309516Y698018D01*
X309192Y697907D01*
X308864Y697803D01*
X308534Y697707D01*
X308202Y697620D01*
X307867Y697540D01*
X307531Y697469D01*
X307193Y697406D01*
X306854Y697352D01*
X306514Y697305D01*
X306172Y697267D01*
X305830Y697238D01*
X305487Y697217D01*
X305144Y697204D01*
X304800Y697200D01*
X304456Y697204D01*
X304113Y697217D01*
X303770Y697238D01*
X303428Y697267D01*
X303086Y697305D01*
X302746Y697352D01*
X302407Y697406D01*
X302069Y697469D01*
X301733Y697540D01*
X301398Y697620D01*
X301066Y697707D01*
X300736Y697803D01*
X300408Y697907D01*
X300084Y698018D01*
X299761Y698138D01*
X299442Y698266D01*
X299127Y698401D01*
X298814Y698544D01*
X298505Y698695D01*
X298200Y698853D01*
X297899Y699019D01*
X297603Y699192D01*
X297310Y699372D01*
X297022Y699559D01*
X296739Y699754D01*
X296460Y699955D01*
X296187Y700163D01*
X295918Y700378D01*
X295656Y700599D01*
X295398Y700827D01*
X295146Y701061D01*
X294901Y701301D01*
X294661Y701546D01*
X294427Y701798D01*
X294199Y702056D01*
X293978Y702318D01*
X293763Y702587D01*
X293555Y702860D01*
X293354Y703139D01*
X293159Y703422D01*
X292972Y703710D01*
X292792Y704003D01*
X292619Y704299D01*
X292453Y704600D01*
X292295Y704905D01*
X292144Y705214D01*
X292001Y705527D01*
X291866Y705842D01*
X291738Y706161D01*
X291618Y706484D01*
X291507Y706808D01*
X291403Y707136D01*
X291307Y707466D01*
X291220Y707798D01*
X291140Y708133D01*
X291069Y708469D01*
X291006Y708807D01*
X290952Y709146D01*
X290905Y709486D01*
X290867Y709828D01*
X290838Y710170D01*
X290817Y710513D01*
X290804Y710856D01*
X290800Y711200D01*
X290800Y457200D02*
X290804Y457544D01*
X290817Y457887D01*
X290838Y458230D01*
X290867Y458572D01*
X290905Y458914D01*
X290952Y459254D01*
X291006Y459593D01*
X291069Y459931D01*
X291140Y460267D01*
X291220Y460602D01*
X291307Y460934D01*
X291403Y461264D01*
X291507Y461592D01*
X291618Y461916D01*
X291738Y462239D01*
X291866Y462558D01*
X292001Y462873D01*
X292144Y463186D01*
X292295Y463495D01*
X292453Y463800D01*
X292619Y464101D01*
X292792Y464397D01*
X292972Y464690D01*
X293159Y464978D01*
X293354Y465261D01*
X293555Y465540D01*
X293763Y465813D01*
X293978Y466082D01*
X294199Y466344D01*
X294427Y466602D01*
X294661Y466854D01*
X294901Y467099D01*
X295146Y467339D01*
X295398Y467573D01*
X295656Y467801D01*
X295918Y468022D01*
X296187Y468237D01*
X296460Y468445D01*
X296739Y468646D01*
X297022Y468841D01*
X297310Y469028D01*
X297603Y469208D01*
X297899Y469381D01*
X298200Y469547D01*
X298505Y469705D01*
X298814Y469856D01*
X299127Y469999D01*
X299442Y470134D01*
X299761Y470262D01*
X300084Y470382D01*
X300408Y470493D01*
X300736Y470597D01*
X301066Y470693D01*
X301398Y470780D01*
X301733Y470860D01*
X302069Y470931D01*
X302407Y470994D01*
X302746Y471048D01*
X303086Y471095D01*
X303428Y471133D01*
X303770Y471162D01*
X304113Y471183D01*
X304456Y471196D01*
X304800Y471200D01*
X305144Y471196D01*
X305487Y471183D01*
X305830Y471162D01*
X306172Y471133D01*
X306514Y471095D01*
X306854Y471048D01*
X307193Y470994D01*
X307531Y470931D01*
X307867Y470860D01*
X308202Y470780D01*
X308534Y470693D01*
X308864Y470597D01*
X309192Y470493D01*
X309516Y470382D01*
X309839Y470262D01*
X310158Y470134D01*
X310473Y469999D01*
X310786Y469856D01*
X311095Y469705D01*
X311400Y469547D01*
X311701Y469381D01*
X311997Y469208D01*
X312290Y469028D01*
X312578Y468841D01*
X312861Y468646D01*
X313140Y468445D01*
X313413Y468237D01*
X313682Y468022D01*
X313944Y467801D01*
X314202Y467573D01*
X314454Y467339D01*
X314699Y467099D01*
X314939Y466854D01*
X315173Y466602D01*
X315401Y466344D01*
X315622Y466082D01*
X315837Y465813D01*
X316045Y465540D01*
X316246Y465261D01*
X316441Y464978D01*
X316628Y464690D01*
X316808Y464397D01*
X316981Y464101D01*
X317147Y463800D01*
X317305Y463495D01*
X317456Y463186D01*
X317599Y462873D01*
X317734Y462558D01*
X317862Y462239D01*
X317982Y461916D01*
X318093Y461592D01*
X318197Y461264D01*
X318293Y460934D01*
X318380Y460602D01*
X318460Y460267D01*
X318531Y459931D01*
X318594Y459593D01*
X318648Y459254D01*
X318695Y458914D01*
X318733Y458572D01*
X318762Y458230D01*
X318783Y457887D01*
X318796Y457544D01*
X318800Y457200D01*
X318796Y456856D01*
X318783Y456513D01*
X318762Y456170D01*
X318733Y455828D01*
X318695Y455486D01*
X318648Y455146D01*
X318594Y454807D01*
X318531Y454469D01*
X318460Y454133D01*
X318380Y453798D01*
X318293Y453466D01*
X318197Y453136D01*
X318093Y452808D01*
X317982Y452484D01*
X317862Y452161D01*
X317734Y451842D01*
X317599Y451527D01*
X317456Y451214D01*
X317305Y450905D01*
X317147Y450600D01*
X316981Y450299D01*
X316808Y450003D01*
X316628Y449710D01*
X316441Y449422D01*
X316246Y449139D01*
X316045Y448860D01*
X315837Y448587D01*
X315622Y448318D01*
X315401Y448056D01*
X315173Y447798D01*
X314939Y447546D01*
X314699Y447301D01*
X314454Y447061D01*
X314202Y446827D01*
X313944Y446599D01*
X313682Y446378D01*
X313413Y446163D01*
X313140Y445955D01*
X312861Y445754D01*
X312578Y445559D01*
X312290Y445372D01*
X311997Y445192D01*
X311701Y445019D01*
X311400Y444853D01*
X311095Y444695D01*
X310786Y444544D01*
X310473Y444401D01*
X310158Y444266D01*
X309839Y444138D01*
X309516Y444018D01*
X309192Y443907D01*
X308864Y443803D01*
X308534Y443707D01*
X308202Y443620D01*
X307867Y443540D01*
X307531Y443469D01*
X307193Y443406D01*
X306854Y443352D01*
X306514Y443305D01*
X306172Y443267D01*
X305830Y443238D01*
X305487Y443217D01*
X305144Y443204D01*
X304800Y443200D01*
X304456Y443204D01*
X304113Y443217D01*
X303770Y443238D01*
X303428Y443267D01*
X303086Y443305D01*
X302746Y443352D01*
X302407Y443406D01*
X302069Y443469D01*
X301733Y443540D01*
X301398Y443620D01*
X301066Y443707D01*
X300736Y443803D01*
X300408Y443907D01*
X300084Y444018D01*
X299761Y444138D01*
X299442Y444266D01*
X299127Y444401D01*
X298814Y444544D01*
X298505Y444695D01*
X298200Y444853D01*
X297899Y445019D01*
X297603Y445192D01*
X297310Y445372D01*
X297022Y445559D01*
X296739Y445754D01*
X296460Y445955D01*
X296187Y446163D01*
X295918Y446378D01*
X295656Y446599D01*
X295398Y446827D01*
X295146Y447061D01*
X294901Y447301D01*
X294661Y447546D01*
X294427Y447798D01*
X294199Y448056D01*
X293978Y448318D01*
X293763Y448587D01*
X293555Y448860D01*
X293354Y449139D01*
X293159Y449422D01*
X292972Y449710D01*
X292792Y450003D01*
X292619Y450299D01*
X292453Y450600D01*
X292295Y450905D01*
X292144Y451214D01*
X292001Y451527D01*
X291866Y451842D01*
X291738Y452161D01*
X291618Y452484D01*
X291507Y452808D01*
X291403Y453136D01*
X291307Y453466D01*
X291220Y453798D01*
X291140Y454133D01*
X291069Y454469D01*
X291006Y454807D01*
X290952Y455146D01*
X290905Y455486D01*
X290867Y455828D01*
X290838Y456170D01*
X290817Y456513D01*
X290804Y456856D01*
X290800Y457200D01*
X798800Y50800D02*
X798804Y51144D01*
X798817Y51487D01*
X798838Y51830D01*
X798867Y52172D01*
X798905Y52514D01*
X798952Y52854D01*
X799006Y53193D01*
X799069Y53531D01*
X799140Y53867D01*
X799220Y54202D01*
X799307Y54534D01*
X799403Y54864D01*
X799507Y55192D01*
X799618Y55516D01*
X799738Y55839D01*
X799866Y56158D01*
X800001Y56473D01*
X800144Y56786D01*
X800295Y57095D01*
X800453Y57400D01*
X800619Y57701D01*
X800792Y57997D01*
X800972Y58290D01*
X801159Y58578D01*
X801354Y58861D01*
X801555Y59140D01*
X801763Y59413D01*
X801978Y59682D01*
X802199Y59944D01*
X802427Y60202D01*
X802661Y60454D01*
X802901Y60699D01*
X803146Y60939D01*
X803398Y61173D01*
X803656Y61401D01*
X803918Y61622D01*
X804187Y61837D01*
X804460Y62045D01*
X804739Y62246D01*
X805022Y62441D01*
X805310Y62628D01*
X805603Y62808D01*
X805899Y62981D01*
X806200Y63147D01*
X806505Y63305D01*
X806814Y63456D01*
X807127Y63599D01*
X807442Y63734D01*
X807761Y63862D01*
X808084Y63982D01*
X808408Y64093D01*
X808736Y64197D01*
X809066Y64293D01*
X809398Y64380D01*
X809733Y64460D01*
X810069Y64531D01*
X810407Y64594D01*
X810746Y64648D01*
X811086Y64695D01*
X811428Y64733D01*
X811770Y64762D01*
X812113Y64783D01*
X812456Y64796D01*
X812800Y64800D01*
X813144Y64796D01*
X813487Y64783D01*
X813830Y64762D01*
X814172Y64733D01*
X814514Y64695D01*
X814854Y64648D01*
X815193Y64594D01*
X815531Y64531D01*
X815867Y64460D01*
X816202Y64380D01*
X816534Y64293D01*
X816864Y64197D01*
X817192Y64093D01*
X817516Y63982D01*
X817839Y63862D01*
X818158Y63734D01*
X818473Y63599D01*
X818786Y63456D01*
X819095Y63305D01*
X819400Y63147D01*
X819701Y62981D01*
X819997Y62808D01*
X820290Y62628D01*
X820578Y62441D01*
X820861Y62246D01*
X821140Y62045D01*
X821413Y61837D01*
X821682Y61622D01*
X821944Y61401D01*
X822202Y61173D01*
X822454Y60939D01*
X822699Y60699D01*
X822939Y60454D01*
X823173Y60202D01*
X823401Y59944D01*
X823622Y59682D01*
X823837Y59413D01*
X824045Y59140D01*
X824246Y58861D01*
X824441Y58578D01*
X824628Y58290D01*
X824808Y57997D01*
X824981Y57701D01*
X825147Y57400D01*
X825305Y57095D01*
X825456Y56786D01*
X825599Y56473D01*
X825734Y56158D01*
X825862Y55839D01*
X825982Y55516D01*
X826093Y55192D01*
X826197Y54864D01*
X826293Y54534D01*
X826380Y54202D01*
X826460Y53867D01*
X826531Y53531D01*
X826594Y53193D01*
X826648Y52854D01*
X826695Y52514D01*
X826733Y52172D01*
X826762Y51830D01*
X826783Y51487D01*
X826796Y51144D01*
X826800Y50800D01*
X826796Y50456D01*
X826783Y50113D01*
X826762Y49770D01*
X826733Y49428D01*
X826695Y49086D01*
X826648Y48746D01*
X826594Y48407D01*
X826531Y48069D01*
X826460Y47733D01*
X826380Y47398D01*
X826293Y47066D01*
X826197Y46736D01*
X826093Y46408D01*
X825982Y46084D01*
X825862Y45761D01*
X825734Y45442D01*
X825599Y45127D01*
X825456Y44814D01*
X825305Y44505D01*
X825147Y44200D01*
X824981Y43899D01*
X824808Y43603D01*
X824628Y43310D01*
X824441Y43022D01*
X824246Y42739D01*
X824045Y42460D01*
X823837Y42187D01*
X823622Y41918D01*
X823401Y41656D01*
X823173Y41398D01*
X822939Y41146D01*
X822699Y40901D01*
X822454Y40661D01*
X822202Y40427D01*
X821944Y40199D01*
X821682Y39978D01*
X821413Y39763D01*
X821140Y39555D01*
X820861Y39354D01*
X820578Y39159D01*
X820290Y38972D01*
X819997Y38792D01*
X819701Y38619D01*
X819400Y38453D01*
X819095Y38295D01*
X818786Y38144D01*
X818473Y38001D01*
X818158Y37866D01*
X817839Y37738D01*
X817516Y37618D01*
X817192Y37507D01*
X816864Y37403D01*
X816534Y37307D01*
X816202Y37220D01*
X815867Y37140D01*
X815531Y37069D01*
X815193Y37006D01*
X814854Y36952D01*
X814514Y36905D01*
X814172Y36867D01*
X813830Y36838D01*
X813487Y36817D01*
X813144Y36804D01*
X812800Y36800D01*
X812456Y36804D01*
X812113Y36817D01*
X811770Y36838D01*
X811428Y36867D01*
X811086Y36905D01*
X810746Y36952D01*
X810407Y37006D01*
X810069Y37069D01*
X809733Y37140D01*
X809398Y37220D01*
X809066Y37307D01*
X808736Y37403D01*
X808408Y37507D01*
X808084Y37618D01*
X807761Y37738D01*
X807442Y37866D01*
X807127Y38001D01*
X806814Y38144D01*
X806505Y38295D01*
X806200Y38453D01*
X805899Y38619D01*
X805603Y38792D01*
X805310Y38972D01*
X805022Y39159D01*
X804739Y39354D01*
X804460Y39555D01*
X804187Y39763D01*
X803918Y39978D01*
X803656Y40199D01*
X803398Y40427D01*
X803146Y40661D01*
X802901Y40901D01*
X802661Y41146D01*
X802427Y41398D01*
X802199Y41656D01*
X801978Y41918D01*
X801763Y42187D01*
X801555Y42460D01*
X801354Y42739D01*
X801159Y43022D01*
X800972Y43310D01*
X800792Y43603D01*
X800619Y43899D01*
X800453Y44200D01*
X800295Y44505D01*
X800144Y44814D01*
X800001Y45127D01*
X799866Y45442D01*
X799738Y45761D01*
X799618Y46084D01*
X799507Y46408D01*
X799403Y46736D01*
X799307Y47066D01*
X799220Y47398D01*
X799140Y47733D01*
X799069Y48069D01*
X799006Y48407D01*
X798952Y48746D01*
X798905Y49086D01*
X798867Y49428D01*
X798838Y49770D01*
X798817Y50113D01*
X798804Y50456D01*
X798800Y50800D01*
X798800Y711200D02*
X798804Y711544D01*
X798817Y711887D01*
X798838Y712230D01*
X798867Y712572D01*
X798905Y712914D01*
X798952Y713254D01*
X799006Y713593D01*
X799069Y713931D01*
X799140Y714267D01*
X799220Y714602D01*
X799307Y714934D01*
X799403Y715264D01*
X799507Y715592D01*
X799618Y715916D01*
X799738Y716239D01*
X799866Y716558D01*
X800001Y716873D01*
X800144Y717186D01*
X800295Y717495D01*
X800453Y717800D01*
X800619Y718101D01*
X800792Y718397D01*
X800972Y718690D01*
X801159Y718978D01*
X801354Y719261D01*
X801555Y719540D01*
X801763Y719813D01*
X801978Y720082D01*
X802199Y720344D01*
X802427Y720602D01*
X802661Y720854D01*
X802901Y721099D01*
X803146Y721339D01*
X803398Y721573D01*
X803656Y721801D01*
X803918Y722022D01*
X804187Y722237D01*
X804460Y722445D01*
X804739Y722646D01*
X805022Y722841D01*
X805310Y723028D01*
X805603Y723208D01*
X805899Y723381D01*
X806200Y723547D01*
X806505Y723705D01*
X806814Y723856D01*
X807127Y723999D01*
X807442Y724134D01*
X807761Y724262D01*
X808084Y724382D01*
X808408Y724493D01*
X808736Y724597D01*
X809066Y724693D01*
X809398Y724780D01*
X809733Y724860D01*
X810069Y724931D01*
X810407Y724994D01*
X810746Y725048D01*
X811086Y725095D01*
X811428Y725133D01*
X811770Y725162D01*
X812113Y725183D01*
X812456Y725196D01*
X812800Y725200D01*
X813144Y725196D01*
X813487Y725183D01*
X813830Y725162D01*
X814172Y725133D01*
X814514Y725095D01*
X814854Y725048D01*
X815193Y724994D01*
X815531Y724931D01*
X815867Y724860D01*
X816202Y724780D01*
X816534Y724693D01*
X816864Y724597D01*
X817192Y724493D01*
X817516Y724382D01*
X817839Y724262D01*
X818158Y724134D01*
X818473Y723999D01*
X818786Y723856D01*
X819095Y723705D01*
X819400Y723547D01*
X819701Y723381D01*
X819997Y723208D01*
X820290Y723028D01*
X820578Y722841D01*
X820861Y722646D01*
X821140Y722445D01*
X821413Y722237D01*
X821682Y722022D01*
X821944Y721801D01*
X822202Y721573D01*
X822454Y721339D01*
X822699Y721099D01*
X822939Y720854D01*
X823173Y720602D01*
X823401Y720344D01*
X823622Y720082D01*
X823837Y719813D01*
X824045Y719540D01*
X824246Y719261D01*
X824441Y718978D01*
X824628Y718690D01*
X824808Y718397D01*
X824981Y718101D01*
X825147Y717800D01*
X825305Y717495D01*
X825456Y717186D01*
X825599Y716873D01*
X825734Y716558D01*
X825862Y716239D01*
X825982Y715916D01*
X826093Y715592D01*
X826197Y715264D01*
X826293Y714934D01*
X826380Y714602D01*
X826460Y714267D01*
X826531Y713931D01*
X826594Y713593D01*
X826648Y713254D01*
X826695Y712914D01*
X826733Y712572D01*
X826762Y712230D01*
X826783Y711887D01*
X826796Y711544D01*
X826800Y711200D01*
X826796Y710856D01*
X826783Y710513D01*
X826762Y710170D01*
X826733Y709828D01*
X826695Y709486D01*
X826648Y709146D01*
X826594Y708807D01*
X826531Y708469D01*
X826460Y708133D01*
X826380Y707798D01*
X826293Y707466D01*
X826197Y707136D01*
X826093Y706808D01*
X825982Y706484D01*
X825862Y706161D01*
X825734Y705842D01*
X825599Y705527D01*
X825456Y705214D01*
X825305Y704905D01*
X825147Y704600D01*
X824981Y704299D01*
X824808Y704003D01*
X824628Y703710D01*
X824441Y703422D01*
X824246Y703139D01*
X824045Y702860D01*
X823837Y702587D01*
X823622Y702318D01*
X823401Y702056D01*
X823173Y701798D01*
X822939Y701546D01*
X822699Y701301D01*
X822454Y701061D01*
X822202Y700827D01*
X821944Y700599D01*
X821682Y700378D01*
X821413Y700163D01*
X821140Y699955D01*
X820861Y699754D01*
X820578Y699559D01*
X820290Y699372D01*
X819997Y699192D01*
X819701Y699019D01*
X819400Y698853D01*
X819095Y698695D01*
X818786Y698544D01*
X818473Y698401D01*
X818158Y698266D01*
X817839Y698138D01*
X817516Y698018D01*
X817192Y697907D01*
X816864Y697803D01*
X816534Y697707D01*
X816202Y697620D01*
X815867Y697540D01*
X815531Y697469D01*
X815193Y697406D01*
X814854Y697352D01*
X814514Y697305D01*
X814172Y697267D01*
X813830Y697238D01*
X813487Y697217D01*
X813144Y697204D01*
X812800Y697200D01*
X812456Y697204D01*
X812113Y697217D01*
X811770Y697238D01*
X811428Y697267D01*
X811086Y697305D01*
X810746Y697352D01*
X810407Y697406D01*
X810069Y697469D01*
X809733Y697540D01*
X809398Y697620D01*
X809066Y697707D01*
X808736Y697803D01*
X808408Y697907D01*
X808084Y698018D01*
X807761Y698138D01*
X807442Y698266D01*
X807127Y698401D01*
X806814Y698544D01*
X806505Y698695D01*
X806200Y698853D01*
X805899Y699019D01*
X805603Y699192D01*
X805310Y699372D01*
X805022Y699559D01*
X804739Y699754D01*
X804460Y699955D01*
X804187Y700163D01*
X803918Y700378D01*
X803656Y700599D01*
X803398Y700827D01*
X803146Y701061D01*
X802901Y701301D01*
X802661Y701546D01*
X802427Y701798D01*
X802199Y702056D01*
X801978Y702318D01*
X801763Y702587D01*
X801555Y702860D01*
X801354Y703139D01*
X801159Y703422D01*
X800972Y703710D01*
X800792Y704003D01*
X800619Y704299D01*
X800453Y704600D01*
X800295Y704905D01*
X800144Y705214D01*
X800001Y705527D01*
X799866Y705842D01*
X799738Y706161D01*
X799618Y706484D01*
X799507Y706808D01*
X799403Y707136D01*
X799307Y707466D01*
X799220Y707798D01*
X799140Y708133D01*
X799069Y708469D01*
X799006Y708807D01*
X798952Y709146D01*
X798905Y709486D01*
X798867Y709828D01*
X798838Y710170D01*
X798817Y710513D01*
X798804Y710856D01*
X798800Y711200D01*
X290800Y50800D02*
X290804Y51144D01*
X290817Y51487D01*
X290838Y51830D01*
X290867Y52172D01*
X290905Y52514D01*
X290952Y52854D01*
X291006Y53193D01*
X291069Y53531D01*
X291140Y53867D01*
X291220Y54202D01*
X291307Y54534D01*
X291403Y54864D01*
X291507Y55192D01*
X291618Y55516D01*
X291738Y55839D01*
X291866Y56158D01*
X292001Y56473D01*
X292144Y56786D01*
X292295Y57095D01*
X292453Y57400D01*
X292619Y57701D01*
X292792Y57997D01*
X292972Y58290D01*
X293159Y58578D01*
X293354Y58861D01*
X293555Y59140D01*
X293763Y59413D01*
X293978Y59682D01*
X294199Y59944D01*
X294427Y60202D01*
X294661Y60454D01*
X294901Y60699D01*
X295146Y60939D01*
X295398Y61173D01*
X295656Y61401D01*
X295918Y61622D01*
X296187Y61837D01*
X296460Y62045D01*
X296739Y62246D01*
X297022Y62441D01*
X297310Y62628D01*
X297603Y62808D01*
X297899Y62981D01*
X298200Y63147D01*
X298505Y63305D01*
X298814Y63456D01*
X299127Y63599D01*
X299442Y63734D01*
X299761Y63862D01*
X300084Y63982D01*
X300408Y64093D01*
X300736Y64197D01*
X301066Y64293D01*
X301398Y64380D01*
X301733Y64460D01*
X302069Y64531D01*
X302407Y64594D01*
X302746Y64648D01*
X303086Y64695D01*
X303428Y64733D01*
X303770Y64762D01*
X304113Y64783D01*
X304456Y64796D01*
X304800Y64800D01*
X305144Y64796D01*
X305487Y64783D01*
X305830Y64762D01*
X306172Y64733D01*
X306514Y64695D01*
X306854Y64648D01*
X307193Y64594D01*
X307531Y64531D01*
X307867Y64460D01*
X308202Y64380D01*
X308534Y64293D01*
X308864Y64197D01*
X309192Y64093D01*
X309516Y63982D01*
X309839Y63862D01*
X310158Y63734D01*
X310473Y63599D01*
X310786Y63456D01*
X311095Y63305D01*
X311400Y63147D01*
X311701Y62981D01*
X311997Y62808D01*
X312290Y62628D01*
X312578Y62441D01*
X312861Y62246D01*
X313140Y62045D01*
X313413Y61837D01*
X313682Y61622D01*
X313944Y61401D01*
X314202Y61173D01*
X314454Y60939D01*
X314699Y60699D01*
X314939Y60454D01*
X315173Y60202D01*
X315401Y59944D01*
X315622Y59682D01*
X315837Y59413D01*
X316045Y59140D01*
X316246Y58861D01*
X316441Y58578D01*
X316628Y58290D01*
X316808Y57997D01*
X316981Y57701D01*
X317147Y57400D01*
X317305Y57095D01*
X317456Y56786D01*
X317599Y56473D01*
X317734Y56158D01*
X317862Y55839D01*
X317982Y55516D01*
X318093Y55192D01*
X318197Y54864D01*
X318293Y54534D01*
X318380Y54202D01*
X318460Y53867D01*
X318531Y53531D01*
X318594Y53193D01*
X318648Y52854D01*
X318695Y52514D01*
X318733Y52172D01*
X318762Y51830D01*
X318783Y51487D01*
X318796Y51144D01*
X318800Y50800D01*
X318796Y50456D01*
X318783Y50113D01*
X318762Y49770D01*
X318733Y49428D01*
X318695Y49086D01*
X318648Y48746D01*
X318594Y48407D01*
X318531Y48069D01*
X318460Y47733D01*
X318380Y47398D01*
X318293Y47066D01*
X318197Y46736D01*
X318093Y46408D01*
X317982Y46084D01*
X317862Y45761D01*
X317734Y45442D01*
X317599Y45127D01*
X317456Y44814D01*
X317305Y44505D01*
X317147Y44200D01*
X316981Y43899D01*
X316808Y43603D01*
X316628Y43310D01*
X316441Y43022D01*
X316246Y42739D01*
X316045Y42460D01*
X315837Y42187D01*
X315622Y41918D01*
X315401Y41656D01*
X315173Y41398D01*
X314939Y41146D01*
X314699Y40901D01*
X314454Y40661D01*
X314202Y40427D01*
X313944Y40199D01*
X313682Y39978D01*
X313413Y39763D01*
X313140Y39555D01*
X312861Y39354D01*
X312578Y39159D01*
X312290Y38972D01*
X311997Y38792D01*
X311701Y38619D01*
X311400Y38453D01*
X311095Y38295D01*
X310786Y38144D01*
X310473Y38001D01*
X310158Y37866D01*
X309839Y37738D01*
X309516Y37618D01*
X309192Y37507D01*
X308864Y37403D01*
X308534Y37307D01*
X308202Y37220D01*
X307867Y37140D01*
X307531Y37069D01*
X307193Y37006D01*
X306854Y36952D01*
X306514Y36905D01*
X306172Y36867D01*
X305830Y36838D01*
X305487Y36817D01*
X305144Y36804D01*
X304800Y36800D01*
X304456Y36804D01*
X304113Y36817D01*
X303770Y36838D01*
X303428Y36867D01*
X303086Y36905D01*
X302746Y36952D01*
X302407Y37006D01*
X302069Y37069D01*
X301733Y37140D01*
X301398Y37220D01*
X301066Y37307D01*
X300736Y37403D01*
X300408Y37507D01*
X300084Y37618D01*
X299761Y37738D01*
X299442Y37866D01*
X299127Y38001D01*
X298814Y38144D01*
X298505Y38295D01*
X298200Y38453D01*
X297899Y38619D01*
X297603Y38792D01*
X297310Y38972D01*
X297022Y39159D01*
X296739Y39354D01*
X296460Y39555D01*
X296187Y39763D01*
X295918Y39978D01*
X295656Y40199D01*
X295398Y40427D01*
X295146Y40661D01*
X294901Y40901D01*
X294661Y41146D01*
X294427Y41398D01*
X294199Y41656D01*
X293978Y41918D01*
X293763Y42187D01*
X293555Y42460D01*
X293354Y42739D01*
X293159Y43022D01*
X292972Y43310D01*
X292792Y43603D01*
X292619Y43899D01*
X292453Y44200D01*
X292295Y44505D01*
X292144Y44814D01*
X292001Y45127D01*
X291866Y45442D01*
X291738Y45761D01*
X291618Y46084D01*
X291507Y46408D01*
X291403Y46736D01*
X291307Y47066D01*
X291220Y47398D01*
X291140Y47733D01*
X291069Y48069D01*
X291006Y48407D01*
X290952Y48746D01*
X290905Y49086D01*
X290867Y49428D01*
X290838Y49770D01*
X290817Y50113D01*
X290804Y50456D01*
X290800Y50800D01*
D12*
X0Y0D02*
X863600Y0D01*
X863600Y762000D01*
X0Y762000D01*
X0Y0D01*
X64800Y609100D02*
X64729Y608103D01*
X64586Y607113D01*
X64374Y606136D01*
X64092Y605176D01*
X63743Y604239D01*
X63327Y603329D01*
X62848Y602452D01*
X62307Y601610D01*
X61708Y600810D01*
X61053Y600054D01*
X60346Y599347D01*
X59590Y598692D01*
X58790Y598093D01*
X57948Y597552D01*
X57071Y597073D01*
X56161Y596657D01*
X55224Y596308D01*
X54265Y596026D01*
X53287Y595814D01*
X52298Y595671D01*
X51300Y595600D01*
X50300Y595600D01*
X49303Y595671D01*
X48313Y595814D01*
X47336Y596026D01*
X46376Y596308D01*
X45439Y596657D01*
X44529Y597073D01*
X43652Y597552D01*
X42810Y598093D01*
X42010Y598692D01*
X41254Y599347D01*
X40547Y600054D01*
X39892Y600810D01*
X39293Y601610D01*
X38752Y602452D01*
X38273Y603329D01*
X37857Y604239D01*
X37508Y605176D01*
X37226Y606136D01*
X37014Y607113D01*
X36871Y608103D01*
X36800Y609100D01*
X36800Y610100D01*
X36871Y611098D01*
X37014Y612087D01*
X37226Y613065D01*
X37508Y614024D01*
X37857Y614961D01*
X38273Y615871D01*
X38752Y616748D01*
X39293Y617590D01*
X39892Y618390D01*
X40547Y619146D01*
X41254Y619853D01*
X42010Y620508D01*
X42810Y621107D01*
X43652Y621648D01*
X44529Y622127D01*
X45439Y622543D01*
X46376Y622892D01*
X47336Y623174D01*
X48313Y623386D01*
X49303Y623529D01*
X50300Y623600D01*
X51300Y623600D01*
X52298Y623529D01*
X53287Y623386D01*
X54265Y623174D01*
X55224Y622892D01*
X56161Y622543D01*
X57071Y622127D01*
X57948Y621648D01*
X58790Y621107D01*
X59590Y620508D01*
X60346Y619853D01*
X61053Y619146D01*
X61708Y618390D01*
X62307Y617590D01*
X62848Y616748D01*
X63327Y615871D01*
X63743Y614961D01*
X64092Y614024D01*
X64374Y613065D01*
X64586Y612087D01*
X64729Y611098D01*
X64800Y610100D01*
X64800Y609100D01*
X318800Y710700D02*
X318729Y709703D01*
X318586Y708713D01*
X318374Y707736D01*
X318092Y706776D01*
X317743Y705839D01*
X317327Y704929D01*
X316848Y704052D01*
X316307Y703210D01*
X315708Y702410D01*
X315053Y701654D01*
X314346Y700947D01*
X313590Y700292D01*
X312790Y699693D01*
X311948Y699152D01*
X311071Y698673D01*
X310161Y698257D01*
X309224Y697908D01*
X308265Y697626D01*
X307287Y697414D01*
X306298Y697271D01*
X305300Y697200D01*
X304300Y697200D01*
X303303Y697271D01*
X302313Y697414D01*
X301336Y697626D01*
X300376Y697908D01*
X299439Y698257D01*
X298529Y698673D01*
X297652Y699152D01*
X296810Y699693D01*
X296010Y700292D01*
X295254Y700947D01*
X294547Y701654D01*
X293892Y702410D01*
X293293Y703210D01*
X292752Y704052D01*
X292273Y704929D01*
X291857Y705839D01*
X291508Y706776D01*
X291226Y707736D01*
X291014Y708713D01*
X290871Y709703D01*
X290800Y710700D01*
X290800Y711700D01*
X290871Y712698D01*
X291014Y713687D01*
X291226Y714665D01*
X291508Y715624D01*
X291857Y716561D01*
X292273Y717471D01*
X292752Y718348D01*
X293293Y719190D01*
X293892Y719990D01*
X294547Y720746D01*
X295254Y721453D01*
X296010Y722108D01*
X296810Y722707D01*
X297652Y723248D01*
X298529Y723727D01*
X299439Y724143D01*
X300376Y724492D01*
X301336Y724774D01*
X302313Y724986D01*
X303303Y725129D01*
X304300Y725200D01*
X305300Y725200D01*
X306298Y725129D01*
X307287Y724986D01*
X308265Y724774D01*
X309224Y724492D01*
X310161Y724143D01*
X311071Y723727D01*
X311948Y723248D01*
X312790Y722707D01*
X313590Y722108D01*
X314346Y721453D01*
X315053Y720746D01*
X315708Y719990D01*
X316307Y719190D01*
X316848Y718348D01*
X317327Y717471D01*
X317743Y716561D01*
X318092Y715624D01*
X318374Y714665D01*
X318586Y713687D01*
X318729Y712698D01*
X318800Y711700D01*
X318800Y710700D01*
X318800Y456700D02*
X318729Y455703D01*
X318586Y454713D01*
X318374Y453736D01*
X318092Y452776D01*
X317743Y451839D01*
X317327Y450929D01*
X316848Y450052D01*
X316307Y449210D01*
X315708Y448410D01*
X315053Y447654D01*
X314346Y446947D01*
X313590Y446292D01*
X312790Y445693D01*
X311948Y445152D01*
X311071Y444673D01*
X310161Y444257D01*
X309224Y443908D01*
X308265Y443626D01*
X307287Y443414D01*
X306298Y443271D01*
X305300Y443200D01*
X304300Y443200D01*
X303303Y443271D01*
X302313Y443414D01*
X301336Y443626D01*
X300376Y443908D01*
X299439Y444257D01*
X298529Y444673D01*
X297652Y445152D01*
X296810Y445693D01*
X296010Y446292D01*
X295254Y446947D01*
X294547Y447654D01*
X293892Y448410D01*
X293293Y449210D01*
X292752Y450052D01*
X292273Y450929D01*
X291857Y451839D01*
X291508Y452776D01*
X291226Y453736D01*
X291014Y454713D01*
X290871Y455703D01*
X290800Y456700D01*
X290800Y457700D01*
X290871Y458698D01*
X291014Y459687D01*
X291226Y460665D01*
X291508Y461624D01*
X291857Y462561D01*
X292273Y463471D01*
X292752Y464348D01*
X293293Y465190D01*
X293892Y465990D01*
X294547Y466746D01*
X295254Y467453D01*
X296010Y468108D01*
X296810Y468707D01*
X297652Y469248D01*
X298529Y469727D01*
X299439Y470143D01*
X300376Y470492D01*
X301336Y470774D01*
X302313Y470986D01*
X303303Y471129D01*
X304300Y471200D01*
X305300Y471200D01*
X306298Y471129D01*
X307287Y470986D01*
X308265Y470774D01*
X309224Y470492D01*
X310161Y470143D01*
X311071Y469727D01*
X311948Y469248D01*
X312790Y468707D01*
X313590Y468108D01*
X314346Y467453D01*
X315053Y466746D01*
X315708Y465990D01*
X316307Y465190D01*
X316848Y464348D01*
X317327Y463471D01*
X317743Y462561D01*
X318092Y461624D01*
X318374Y460665D01*
X318586Y459687D01*
X318729Y458698D01*
X318800Y457700D01*
X318800Y456700D01*
X826800Y50300D02*
X826729Y49303D01*
X826586Y48313D01*
X826374Y47336D01*
X826092Y46376D01*
X825743Y45439D01*
X825327Y44529D01*
X824848Y43652D01*
X824307Y42810D01*
X823708Y42010D01*
X823053Y41254D01*
X822346Y40547D01*
X821590Y39892D01*
X820790Y39293D01*
X819948Y38752D01*
X819071Y38273D01*
X818161Y37857D01*
X817224Y37508D01*
X816265Y37226D01*
X815287Y37014D01*
X814298Y36871D01*
X813300Y36800D01*
X812300Y36800D01*
X811303Y36871D01*
X810313Y37014D01*
X809336Y37226D01*
X808376Y37508D01*
X807439Y37857D01*
X806529Y38273D01*
X805652Y38752D01*
X804810Y39293D01*
X804010Y39892D01*
X803254Y40547D01*
X802547Y41254D01*
X801892Y42010D01*
X801293Y42810D01*
X800752Y43652D01*
X800273Y44529D01*
X799857Y45439D01*
X799508Y46376D01*
X799226Y47336D01*
X799014Y48313D01*
X798871Y49303D01*
X798800Y50300D01*
X798800Y51300D01*
X798871Y52298D01*
X799014Y53287D01*
X799226Y54265D01*
X799508Y55224D01*
X799857Y56161D01*
X800273Y57071D01*
X800752Y57948D01*
X801293Y58790D01*
X801892Y59590D01*
X802547Y60346D01*
X803254Y61053D01*
X804010Y61708D01*
X804810Y62307D01*
X805652Y62848D01*
X806529Y63327D01*
X807439Y63743D01*
X808376Y64092D01*
X809336Y64374D01*
X810313Y64586D01*
X811303Y64729D01*
X812300Y64800D01*
X813300Y64800D01*
X814298Y64729D01*
X815287Y64586D01*
X816265Y64374D01*
X817224Y64092D01*
X818161Y63743D01*
X819071Y63327D01*
X819948Y62848D01*
X820790Y62307D01*
X821590Y61708D01*
X822346Y61053D01*
X823053Y60346D01*
X823708Y59590D01*
X824307Y58790D01*
X824848Y57948D01*
X825327Y57071D01*
X825743Y56161D01*
X826092Y55224D01*
X826374Y54265D01*
X826586Y53287D01*
X826729Y52298D01*
X826800Y51300D01*
X826800Y50300D01*
X826800Y710700D02*
X826729Y709703D01*
X826586Y708713D01*
X826374Y707736D01*
X826092Y706776D01*
X825743Y705839D01*
X825327Y704929D01*
X824848Y704052D01*
X824307Y703210D01*
X823708Y702410D01*
X823053Y701654D01*
X822346Y700947D01*
X821590Y700292D01*
X820790Y699693D01*
X819948Y699152D01*
X819071Y698673D01*
X818161Y698257D01*
X817224Y697908D01*
X816265Y697626D01*
X815287Y697414D01*
X814298Y697271D01*
X813300Y697200D01*
X812300Y697200D01*
X811303Y697271D01*
X810313Y697414D01*
X809336Y697626D01*
X808376Y697908D01*
X807439Y698257D01*
X806529Y698673D01*
X805652Y699152D01*
X804810Y699693D01*
X804010Y700292D01*
X803254Y700947D01*
X802547Y701654D01*
X801892Y702410D01*
X801293Y703210D01*
X800752Y704052D01*
X800273Y704929D01*
X799857Y705839D01*
X799508Y706776D01*
X799226Y707736D01*
X799014Y708713D01*
X798871Y709703D01*
X798800Y710700D01*
X798800Y711700D01*
X798871Y712698D01*
X799014Y713687D01*
X799226Y714665D01*
X799508Y715624D01*
X799857Y716561D01*
X800273Y717471D01*
X800752Y718348D01*
X801293Y719190D01*
X801892Y719990D01*
X802547Y720746D01*
X803254Y721453D01*
X804010Y722108D01*
X804810Y722707D01*
X805652Y723248D01*
X806529Y723727D01*
X807439Y724143D01*
X808376Y724492D01*
X809336Y724774D01*
X810313Y724986D01*
X811303Y725129D01*
X812300Y725200D01*
X813300Y725200D01*
X814298Y725129D01*
X815287Y724986D01*
X816265Y724774D01*
X817224Y724492D01*
X818161Y724143D01*
X819071Y723727D01*
X819948Y723248D01*
X820790Y722707D01*
X821590Y722108D01*
X822346Y721453D01*
X823053Y720746D01*
X823708Y719990D01*
X824307Y719190D01*
X824848Y718348D01*
X825327Y717471D01*
X825743Y716561D01*
X826092Y715624D01*
X826374Y714665D01*
X826586Y713687D01*
X826729Y712698D01*
X826800Y711700D01*
X826800Y710700D01*
X318800Y50300D02*
X318729Y49303D01*
X318586Y48313D01*
X318374Y47336D01*
X318092Y46376D01*
X317743Y45439D01*
X317327Y44529D01*
X316848Y43652D01*
X316307Y42810D01*
X315708Y42010D01*
X315053Y41254D01*
X314346Y40547D01*
X313590Y39892D01*
X312790Y39293D01*
X311948Y38752D01*
X311071Y38273D01*
X310161Y37857D01*
X309224Y37508D01*
X308265Y37226D01*
X307287Y37014D01*
X306298Y36871D01*
X305300Y36800D01*
X304300Y36800D01*
X303303Y36871D01*
X302313Y37014D01*
X301336Y37226D01*
X300376Y37508D01*
X299439Y37857D01*
X298529Y38273D01*
X297652Y38752D01*
X296810Y39293D01*
X296010Y39892D01*
X295254Y40547D01*
X294547Y41254D01*
X293892Y42010D01*
X293293Y42810D01*
X292752Y43652D01*
X292273Y44529D01*
X291857Y45439D01*
X291508Y46376D01*
X291226Y47336D01*
X291014Y48313D01*
X290871Y49303D01*
X290800Y50300D01*
X290800Y51300D01*
X290871Y52298D01*
X291014Y53287D01*
X291226Y54265D01*
X291508Y55224D01*
X291857Y56161D01*
X292273Y57071D01*
X292752Y57948D01*
X293293Y58790D01*
X293892Y59590D01*
X294547Y60346D01*
X295254Y61053D01*
X296010Y61708D01*
X296810Y62307D01*
X297652Y62848D01*
X298529Y63327D01*
X299439Y63743D01*
X300376Y64092D01*
X301336Y64374D01*
X302313Y64586D01*
X303303Y64729D01*
X304300Y64800D01*
X305300Y64800D01*
X306298Y64729D01*
X307287Y64586D01*
X308265Y64374D01*
X309224Y64092D01*
X310161Y63743D01*
X311071Y63327D01*
X311948Y62848D01*
X312790Y62307D01*
X313590Y61708D01*
X314346Y61053D01*
X315053Y60346D01*
X315708Y59590D01*
X316307Y58790D01*
X316848Y57948D01*
X317327Y57071D01*
X317743Y56161D01*
X318092Y55224D01*
X318374Y54265D01*
X318586Y53287D01*
X318729Y52298D01*
X318800Y51300D01*
X318800Y50300D01*
M02*
