G04 EAGLE Gerber RS-274X export*
G75*
%MOMM*%
%FSLAX34Y34*%
%LPD*%
%INSoldermask Bottom*%
%IPPOS*%
%AMOC8*
5,1,8,0,0,1.08239X$1,22.5*%
G01*
%ADD10R,19.994881X0.030481*%
%ADD11R,19.994881X0.030475*%
%ADD12R,7.741919X0.030481*%
%ADD13R,5.425438X0.030481*%
%ADD14R,5.699756X0.030481*%
%ADD15R,3.383281X0.030475*%
%ADD16R,2.164075X0.030475*%
%ADD17R,2.651756X0.030475*%
%ADD18R,1.920238X0.030475*%
%ADD19R,5.577838X0.030475*%
%ADD20R,3.383281X0.030481*%
%ADD21R,2.072637X0.030481*%
%ADD22R,2.560319X0.030481*%
%ADD23R,1.828800X0.030481*%
%ADD24R,5.455919X0.030481*%
%ADD25R,2.011675X0.030475*%
%ADD26R,2.499356X0.030475*%
%ADD27R,1.737356X0.030475*%
%ADD28R,5.394956X0.030475*%
%ADD29R,1.950719X0.030481*%
%ADD30R,2.438400X0.030481*%
%ADD31R,1.676400X0.030481*%
%ADD32R,5.334000X0.030481*%
%ADD33R,1.920238X0.030481*%
%ADD34R,2.377438X0.030481*%
%ADD35R,1.645919X0.030481*%
%ADD36R,5.273038X0.030481*%
%ADD37R,1.859275X0.030475*%
%ADD38R,2.346956X0.030475*%
%ADD39R,1.615438X0.030475*%
%ADD40R,5.212081X0.030475*%
%ADD41R,2.316481X0.030481*%
%ADD42R,5.181600X0.030481*%
%ADD43R,1.798319X0.030475*%
%ADD44R,2.286000X0.030475*%
%ADD45R,1.645919X0.030475*%
%ADD46R,5.120637X0.030475*%
%ADD47R,1.767838X0.030481*%
%ADD48R,2.255519X0.030481*%
%ADD49R,5.090156X0.030481*%
%ADD50R,1.737356X0.030481*%
%ADD51R,2.225038X0.030481*%
%ADD52R,5.059681X0.030481*%
%ADD53R,1.706875X0.030475*%
%ADD54R,2.194556X0.030475*%
%ADD55R,5.029200X0.030475*%
%ADD56R,2.164081X0.030481*%
%ADD57R,1.706875X0.030481*%
%ADD58R,4.998719X0.030481*%
%ADD59R,2.133600X0.030475*%
%ADD60R,4.968237X0.030475*%
%ADD61R,2.103119X0.030481*%
%ADD62R,4.937756X0.030481*%
%ADD63R,3.413756X0.030481*%
%ADD64R,1.615438X0.030481*%
%ADD65R,4.907281X0.030481*%
%ADD66R,3.444238X0.030475*%
%ADD67R,1.584956X0.030475*%
%ADD68R,2.072637X0.030475*%
%ADD69R,0.091438X0.030475*%
%ADD70R,4.876800X0.030475*%
%ADD71R,3.505200X0.030481*%
%ADD72R,1.584956X0.030481*%
%ADD73R,0.213356X0.030481*%
%ADD74R,2.042156X0.030481*%
%ADD75R,1.798319X0.030481*%
%ADD76R,0.518156X0.030481*%
%ADD77R,4.876800X0.030481*%
%ADD78R,3.535681X0.030475*%
%ADD79R,2.712719X0.030475*%
%ADD80R,0.396238X0.030475*%
%ADD81R,2.042156X0.030475*%
%ADD82R,1.828800X0.030475*%
%ADD83R,0.701037X0.030475*%
%ADD84R,4.846319X0.030475*%
%ADD85R,3.566156X0.030481*%
%ADD86R,2.651763X0.030481*%
%ADD87R,0.487675X0.030481*%
%ADD88R,2.011681X0.030481*%
%ADD89R,0.853438X0.030481*%
%ADD90R,4.815838X0.030481*%
%ADD91R,3.596638X0.030481*%
%ADD92R,2.621281X0.030481*%
%ADD93R,0.579119X0.030481*%
%ADD94R,2.804156X0.030481*%
%ADD95R,3.627119X0.030475*%
%ADD96R,2.590800X0.030475*%
%ADD97R,0.640081X0.030475*%
%ADD98R,1.981200X0.030475*%
%ADD99R,2.865119X0.030475*%
%ADD100R,4.785356X0.030475*%
%ADD101R,3.657600X0.030481*%
%ADD102R,2.529838X0.030481*%
%ADD103R,0.701037X0.030481*%
%ADD104R,1.981200X0.030481*%
%ADD105R,2.895600X0.030481*%
%ADD106R,4.785356X0.030481*%
%ADD107R,3.688081X0.030475*%
%ADD108R,0.762000X0.030475*%
%ADD109R,1.950719X0.030475*%
%ADD110R,2.926075X0.030475*%
%ADD111R,4.754881X0.030475*%
%ADD112R,3.718556X0.030481*%
%ADD113R,0.792475X0.030481*%
%ADD114R,2.956556X0.030481*%
%ADD115R,4.754881X0.030481*%
%ADD116R,3.749038X0.030481*%
%ADD117R,2.407919X0.030481*%
%ADD118R,0.822956X0.030481*%
%ADD119R,4.724400X0.030481*%
%ADD120R,3.779519X0.030475*%
%ADD121R,0.853438X0.030475*%
%ADD122R,2.987038X0.030475*%
%ADD123R,4.724400X0.030475*%
%ADD124R,3.810000X0.030481*%
%ADD125R,2.286000X0.030481*%
%ADD126R,0.883919X0.030481*%
%ADD127R,3.017519X0.030481*%
%ADD128R,3.840481X0.030475*%
%ADD129R,2.255519X0.030475*%
%ADD130R,0.914400X0.030475*%
%ADD131R,3.017519X0.030475*%
%ADD132R,4.693919X0.030475*%
%ADD133R,3.870956X0.030481*%
%ADD134R,0.914400X0.030481*%
%ADD135R,1.889756X0.030481*%
%ADD136R,3.048000X0.030481*%
%ADD137R,4.693919X0.030481*%
%ADD138R,3.901438X0.030481*%
%ADD139R,2.164075X0.030481*%
%ADD140R,0.944881X0.030481*%
%ADD141R,3.931919X0.030475*%
%ADD142R,0.975356X0.030475*%
%ADD143R,1.889756X0.030475*%
%ADD144R,3.078475X0.030475*%
%ADD145R,4.663438X0.030475*%
%ADD146R,3.962400X0.030481*%
%ADD147R,0.975356X0.030481*%
%ADD148R,3.078475X0.030481*%
%ADD149R,4.663438X0.030481*%
%ADD150R,3.992881X0.030475*%
%ADD151R,1.005837X0.030475*%
%ADD152R,4.023356X0.030481*%
%ADD153R,1.005837X0.030481*%
%ADD154R,1.859281X0.030481*%
%ADD155R,3.108956X0.030481*%
%ADD156R,4.084319X0.030481*%
%ADD157R,2.011675X0.030481*%
%ADD158R,1.036319X0.030481*%
%ADD159R,2.194556X0.030481*%
%ADD160R,0.396238X0.030481*%
%ADD161R,4.114800X0.030475*%
%ADD162R,1.036319X0.030475*%
%ADD163R,1.859281X0.030475*%
%ADD164R,0.274319X0.030475*%
%ADD165R,4.632956X0.030475*%
%ADD166R,4.145281X0.030481*%
%ADD167R,4.632956X0.030481*%
%ADD168R,4.175756X0.030475*%
%ADD169R,1.889763X0.030475*%
%ADD170R,0.152400X0.030475*%
%ADD171R,4.206238X0.030481*%
%ADD172R,0.091438X0.030481*%
%ADD173R,4.236719X0.030481*%
%ADD174R,1.859275X0.030481*%
%ADD175R,4.267200X0.030475*%
%ADD176R,1.066800X0.030475*%
%ADD177R,0.060963X0.030475*%
%ADD178R,4.297681X0.030481*%
%ADD179R,1.066800X0.030481*%
%ADD180R,4.328156X0.030475*%
%ADD181R,1.737363X0.030475*%
%ADD182R,4.358638X0.030481*%
%ADD183R,1.706881X0.030481*%
%ADD184R,4.389119X0.030481*%
%ADD185R,4.419600X0.030475*%
%ADD186R,1.676400X0.030475*%
%ADD187R,4.450081X0.030481*%
%ADD188R,4.480556X0.030475*%
%ADD189R,4.511038X0.030481*%
%ADD190R,1.584963X0.030481*%
%ADD191R,4.541519X0.030481*%
%ADD192R,0.304800X0.030481*%
%ADD193R,4.572000X0.030475*%
%ADD194R,1.554481X0.030475*%
%ADD195R,0.487681X0.030475*%
%ADD196R,4.602481X0.030481*%
%ADD197R,1.554481X0.030481*%
%ADD198R,1.554475X0.030481*%
%ADD199R,1.524000X0.030475*%
%ADD200R,1.554475X0.030475*%
%ADD201R,0.670556X0.030475*%
%ADD202R,1.524000X0.030481*%
%ADD203R,0.731519X0.030481*%
%ADD204R,0.792481X0.030481*%
%ADD205R,0.792481X0.030475*%
%ADD206R,1.493519X0.030481*%
%ADD207R,1.493519X0.030475*%
%ADD208R,0.944881X0.030475*%
%ADD209R,3.718556X0.030475*%
%ADD210R,0.822956X0.030475*%
%ADD211R,0.944875X0.030481*%
%ADD212R,3.596638X0.030475*%
%ADD213R,0.883919X0.030475*%
%ADD214R,0.731519X0.030475*%
%ADD215R,0.640081X0.030481*%
%ADD216R,3.474719X0.030475*%
%ADD217R,0.579119X0.030475*%
%ADD218R,2.011681X0.030475*%
%ADD219R,0.365756X0.030475*%
%ADD220R,3.322319X0.030481*%
%ADD221R,0.182875X0.030481*%
%ADD222R,0.548638X0.030481*%
%ADD223R,3.291838X0.030481*%
%ADD224R,0.426719X0.030481*%
%ADD225R,3.291838X0.030475*%
%ADD226R,1.767838X0.030475*%
%ADD227R,0.213363X0.030475*%
%ADD228R,4.846319X0.030481*%
%ADD229R,3.352800X0.030475*%
%ADD230R,3.352800X0.030481*%
%ADD231R,1.889763X0.030481*%
%ADD232R,3.413756X0.030475*%
%ADD233R,3.444238X0.030481*%
%ADD234R,3.505200X0.030475*%
%ADD235R,2.103119X0.030475*%
%ADD236R,3.535681X0.030481*%
%ADD237R,5.151119X0.030475*%
%ADD238R,3.688081X0.030481*%
%ADD239R,2.468881X0.030481*%
%ADD240R,5.212081X0.030481*%
%ADD241R,3.749038X0.030475*%
%ADD242R,2.560319X0.030475*%
%ADD243R,5.273038X0.030475*%
%ADD244R,3.840481X0.030481*%
%ADD245R,2.712719X0.030481*%
%ADD246R,3.931919X0.030481*%
%ADD247R,2.865119X0.030481*%
%ADD248R,4.084319X0.030475*%
%ADD249R,3.108963X0.030475*%
%ADD250R,5.669281X0.030475*%
%ADD251R,5.547356X0.030475*%
%ADD252R,14.112238X0.030475*%
%ADD253R,13.868400X0.030481*%
%ADD254R,4.328156X0.030481*%
%ADD255R,13.685519X0.030475*%
%ADD256R,13.533119X0.030481*%
%ADD257R,13.380719X0.030481*%
%ADD258R,13.289281X0.030475*%
%ADD259R,0.304800X0.030475*%
%ADD260R,2.956562X0.030475*%
%ADD261R,2.834637X0.030481*%
%ADD262R,0.335281X0.030481*%
%ADD263R,2.743200X0.030481*%
%ADD264R,3.261356X0.030481*%
%ADD265R,0.335281X0.030475*%
%ADD266R,4.815838X0.030475*%
%ADD267R,2.682238X0.030475*%
%ADD268R,3.169919X0.030475*%
%ADD269R,2.590800X0.030481*%
%ADD270R,3.078481X0.030481*%
%ADD271R,2.529838X0.030475*%
%ADD272R,2.926081X0.030481*%
%ADD273R,0.365756X0.030481*%
%ADD274R,2.316475X0.030475*%
%ADD275R,2.773681X0.030475*%
%ADD276R,2.468881X0.030475*%
%ADD277R,0.426719X0.030475*%
%ADD278R,4.785363X0.030475*%
%ADD279R,4.785363X0.030481*%
%ADD280R,0.457200X0.030481*%
%ADD281R,0.457200X0.030475*%
%ADD282R,1.706881X0.030475*%
%ADD283R,1.463037X0.030481*%
%ADD284R,1.432562X0.030475*%
%ADD285R,1.371600X0.030481*%
%ADD286R,0.487681X0.030481*%
%ADD287R,1.341119X0.030481*%
%ADD288R,1.310638X0.030475*%
%ADD289R,1.280156X0.030481*%
%ADD290R,1.249681X0.030475*%
%ADD291R,1.219200X0.030481*%
%ADD292R,1.158238X0.030481*%
%ADD293R,0.518156X0.030475*%
%ADD294R,1.127756X0.030475*%
%ADD295R,1.097275X0.030481*%
%ADD296R,0.548638X0.030475*%
%ADD297R,1.432556X0.030475*%
%ADD298R,1.402075X0.030481*%
%ADD299R,1.402081X0.030481*%
%ADD300R,1.463037X0.030475*%
%ADD301R,1.341119X0.030475*%
%ADD302R,0.792475X0.030475*%
%ADD303R,1.402081X0.030475*%
%ADD304R,1.310638X0.030481*%
%ADD305R,0.609600X0.030481*%
%ADD306R,1.280163X0.030481*%
%ADD307R,0.609600X0.030475*%
%ADD308R,1.371600X0.030475*%
%ADD309R,0.670563X0.030475*%
%ADD310R,1.249681X0.030481*%
%ADD311R,1.249675X0.030475*%
%ADD312R,1.188719X0.030481*%
%ADD313R,1.280156X0.030475*%
%ADD314R,1.188719X0.030475*%
%ADD315R,1.219200X0.030475*%
%ADD316R,1.158238X0.030475*%
%ADD317R,1.127756X0.030481*%
%ADD318R,0.670556X0.030481*%
%ADD319R,1.097281X0.030475*%
%ADD320R,1.097281X0.030481*%
%ADD321R,0.274319X0.030481*%
%ADD322R,0.243838X0.030481*%
%ADD323R,0.243838X0.030475*%
%ADD324R,0.213356X0.030475*%
%ADD325R,0.762000X0.030481*%
%ADD326R,0.152400X0.030481*%
%ADD327R,0.822963X0.030475*%
%ADD328R,0.121919X0.030475*%
%ADD329R,0.121919X0.030481*%
%ADD330R,2.042162X0.030481*%
%ADD331R,0.060956X0.030475*%
%ADD332R,0.060956X0.030481*%
%ADD333R,2.225038X0.030475*%
%ADD334R,2.346956X0.030481*%
%ADD335R,2.377438X0.030475*%
%ADD336R,2.438400X0.030475*%
%ADD337R,2.499356X0.030481*%
%ADD338R,2.621281X0.030475*%
%ADD339R,2.651756X0.030481*%
%ADD340R,0.365762X0.030481*%
%ADD341R,0.335275X0.030481*%
%ADD342R,2.743200X0.030475*%
%ADD343R,2.773675X0.030481*%
%ADD344R,2.804156X0.030475*%
%ADD345R,1.432556X0.030481*%
%ADD346R,0.182881X0.030475*%
%ADD347R,2.834637X0.030475*%
%ADD348R,2.895600X0.030475*%
%ADD349R,0.030475X0.030481*%
%ADD350R,0.030475X0.030475*%
%ADD351R,0.030481X0.030481*%
%ADD352R,2.926081X0.030475*%
%ADD353R,2.956562X0.030481*%
%ADD354R,0.030481X0.030475*%
%ADD355R,0.182881X0.030481*%
%ADD356R,2.956556X0.030475*%
%ADD357R,2.987038X0.030481*%
%ADD358R,6.614156X0.030475*%
%ADD359R,6.583681X0.030481*%
%ADD360R,6.583681X0.030475*%
%ADD361R,6.553200X0.030475*%
%ADD362R,6.553200X0.030481*%
%ADD363R,6.522719X0.030475*%
%ADD364R,6.522719X0.030481*%
%ADD365R,6.492237X0.030481*%
%ADD366R,6.492237X0.030475*%
%ADD367R,6.461756X0.030481*%
%ADD368R,6.461756X0.030475*%
%ADD369R,6.431281X0.030481*%
%ADD370R,6.431281X0.030475*%
%ADD371R,6.400800X0.030481*%
%ADD372R,6.400800X0.030475*%
%ADD373R,6.370319X0.030481*%
%ADD374R,6.339838X0.030475*%
%ADD375R,6.309356X0.030481*%
%ADD376R,6.309356X0.030475*%
%ADD377R,6.278881X0.030481*%
%ADD378R,6.248400X0.030475*%
%ADD379R,6.217919X0.030481*%
%ADD380R,6.217919X0.030475*%
%ADD381R,3.474719X0.030481*%
%ADD382R,3.230875X0.030475*%
%ADD383R,3.169919X0.030481*%
%ADD384R,2.926075X0.030481*%
%ADD385R,2.682238X0.030481*%
%ADD386R,2.621275X0.030475*%
%ADD387R,2.407919X0.030475*%
%ADD388R,2.316475X0.030481*%
%ADD389R,2.621275X0.030481*%
%ADD390R,2.773675X0.030475*%
%ADD391R,3.139438X0.030475*%
%ADD392R,3.200400X0.030481*%
%ADD393R,3.261356X0.030475*%
%ADD394R,0.182875X0.030475*%
%ADD395R,3.322319X0.030475*%
%ADD396R,3.413763X0.030481*%
%ADD397R,3.413763X0.030475*%
%ADD398R,3.535675X0.030481*%
%ADD399R,3.627119X0.030481*%
%ADD400R,3.688075X0.030475*%
%ADD401R,3.779519X0.030481*%
%ADD402R,0.518162X0.030475*%
%ADD403R,3.870963X0.030475*%
%ADD404R,3.962400X0.030475*%
%ADD405R,3.992875X0.030481*%
%ADD406R,4.053838X0.030475*%
%ADD407R,4.114800X0.030481*%
%ADD408R,4.145275X0.030475*%
%ADD409R,4.175756X0.030481*%
%ADD410R,4.236719X0.030475*%
%ADD411R,4.267200X0.030481*%
%ADD412R,4.328163X0.030475*%
%ADD413R,4.419600X0.030481*%
%ADD414R,4.480556X0.030481*%
%ADD415R,4.511038X0.030475*%
%ADD416R,4.572000X0.030481*%
%ADD417R,4.602475X0.030475*%
%ADD418R,1.280163X0.030475*%
%ADD419R,4.602475X0.030481*%
%ADD420R,4.937756X0.030475*%
%ADD421R,4.968237X0.030481*%
%ADD422R,5.029200X0.030481*%
%ADD423R,5.059675X0.030475*%
%ADD424R,5.120637X0.030481*%
%ADD425R,14.234156X0.030481*%
%ADD426R,14.386556X0.030475*%
%ADD427R,14.508481X0.030481*%
%ADD428R,14.691356X0.030475*%
%ADD429R,3.078481X0.030475*%
%ADD430R,14.874238X0.030481*%
%ADD431R,15.179038X0.030481*%
%ADD432C,1.219200*%
%ADD433C,2.082800*%
%ADD434C,1.879600*%
%ADD435C,2.717800*%
%ADD436C,3.003200*%
%ADD437C,2.743200*%
%ADD438P,2.556822X8X112.500000*%
%ADD439C,0.959600*%
%ADD440C,0.863600*%


D10*
X121158Y45720D03*
D11*
X121158Y46025D03*
D10*
X121158Y46330D03*
X121158Y46634D03*
D11*
X121158Y46939D03*
D10*
X121158Y47244D03*
D11*
X121158Y47549D03*
D10*
X121158Y47854D03*
X121158Y48158D03*
D11*
X121158Y48463D03*
D10*
X121158Y48768D03*
D11*
X121158Y49073D03*
D10*
X121158Y49378D03*
X121158Y49682D03*
D11*
X121158Y49987D03*
D10*
X121158Y50292D03*
D11*
X121158Y50597D03*
D10*
X121158Y50902D03*
D12*
X182423Y51206D03*
D13*
X111404Y51206D03*
D14*
X49682Y51206D03*
D15*
X204216Y51511D03*
D16*
X155753Y51511D03*
D17*
X124358Y51511D03*
D18*
X95402Y51511D03*
D19*
X49073Y51511D03*
D20*
X204216Y51816D03*
D21*
X156210Y51816D03*
D22*
X123901Y51816D03*
D23*
X95860Y51816D03*
D24*
X48463Y51816D03*
D15*
X204216Y52121D03*
D25*
X156515Y52121D03*
D26*
X123596Y52121D03*
D27*
X96317Y52121D03*
D28*
X48158Y52121D03*
D20*
X204216Y52426D03*
D29*
X156820Y52426D03*
D30*
X123292Y52426D03*
D31*
X96622Y52426D03*
D32*
X47854Y52426D03*
D20*
X204216Y52730D03*
D33*
X156972Y52730D03*
D34*
X122987Y52730D03*
D35*
X96774Y52730D03*
D36*
X47549Y52730D03*
D15*
X204216Y53035D03*
D37*
X157277Y53035D03*
D38*
X122834Y53035D03*
D39*
X96926Y53035D03*
D40*
X47244Y53035D03*
D20*
X204216Y53340D03*
D23*
X157429Y53340D03*
D41*
X122682Y53340D03*
D35*
X96774Y53340D03*
D42*
X47092Y53340D03*
D15*
X204216Y53645D03*
D43*
X157582Y53645D03*
D44*
X122530Y53645D03*
D45*
X96774Y53645D03*
D46*
X46787Y53645D03*
D20*
X204216Y53950D03*
D47*
X157734Y53950D03*
D48*
X122377Y53950D03*
D31*
X96622Y53950D03*
D49*
X46634Y53950D03*
D20*
X204216Y54254D03*
D50*
X157886Y54254D03*
D51*
X122225Y54254D03*
D31*
X96622Y54254D03*
D52*
X46482Y54254D03*
D15*
X204216Y54559D03*
D53*
X158039Y54559D03*
D54*
X122072Y54559D03*
D53*
X96469Y54559D03*
D55*
X46330Y54559D03*
D20*
X204216Y54864D03*
D31*
X158191Y54864D03*
D56*
X121920Y54864D03*
D57*
X96469Y54864D03*
D58*
X46177Y54864D03*
D15*
X204216Y55169D03*
D45*
X158344Y55169D03*
D59*
X121768Y55169D03*
D27*
X96317Y55169D03*
D60*
X46025Y55169D03*
D20*
X204216Y55474D03*
D35*
X158344Y55474D03*
D61*
X121615Y55474D03*
D47*
X96164Y55474D03*
D62*
X45872Y55474D03*
D63*
X204064Y55778D03*
D64*
X158496Y55778D03*
D61*
X121615Y55778D03*
D47*
X96164Y55778D03*
D65*
X45720Y55778D03*
D66*
X203911Y56083D03*
D67*
X158648Y56083D03*
D68*
X121463Y56083D03*
D43*
X96012Y56083D03*
D69*
X81382Y56083D03*
D70*
X45568Y56083D03*
D71*
X203606Y56388D03*
D72*
X158648Y56388D03*
D73*
X141122Y56388D03*
D74*
X121310Y56388D03*
D75*
X96012Y56388D03*
D76*
X81382Y56388D03*
D77*
X45568Y56388D03*
D78*
X203454Y56693D03*
D79*
X164592Y56693D03*
D80*
X141122Y56693D03*
D81*
X121310Y56693D03*
D82*
X95860Y56693D03*
D83*
X81686Y56693D03*
D84*
X45415Y56693D03*
D85*
X203302Y56998D03*
D86*
X164592Y56998D03*
D87*
X141275Y56998D03*
D88*
X121158Y56998D03*
D23*
X95860Y56998D03*
D89*
X81534Y56998D03*
D90*
X45263Y56998D03*
D91*
X203149Y57302D03*
D92*
X164440Y57302D03*
D93*
X141122Y57302D03*
D88*
X121158Y57302D03*
D94*
X90983Y57302D03*
D90*
X45263Y57302D03*
D95*
X202997Y57607D03*
D96*
X164287Y57607D03*
D97*
X141122Y57607D03*
D98*
X121006Y57607D03*
D99*
X90678Y57607D03*
D100*
X45110Y57607D03*
D101*
X202844Y57912D03*
D102*
X164287Y57912D03*
D103*
X141122Y57912D03*
D104*
X121006Y57912D03*
D105*
X90526Y57912D03*
D106*
X45110Y57912D03*
D107*
X202692Y58217D03*
D26*
X164135Y58217D03*
D108*
X141122Y58217D03*
D109*
X120853Y58217D03*
D110*
X90373Y58217D03*
D111*
X44958Y58217D03*
D112*
X202540Y58522D03*
D30*
X164135Y58522D03*
D113*
X141275Y58522D03*
D29*
X120853Y58522D03*
D114*
X90221Y58522D03*
D115*
X44958Y58522D03*
D116*
X202387Y58826D03*
D117*
X163982Y58826D03*
D118*
X141122Y58826D03*
D29*
X120853Y58826D03*
D114*
X90221Y58826D03*
D119*
X44806Y58826D03*
D120*
X202235Y59131D03*
D38*
X163678Y59131D03*
D121*
X141275Y59131D03*
D18*
X120701Y59131D03*
D122*
X90068Y59131D03*
D123*
X44806Y59131D03*
D124*
X202082Y59436D03*
D125*
X163678Y59436D03*
D126*
X141122Y59436D03*
D33*
X120701Y59436D03*
D127*
X89916Y59436D03*
D119*
X44806Y59436D03*
D128*
X201930Y59741D03*
D129*
X163525Y59741D03*
D130*
X141275Y59741D03*
D18*
X120701Y59741D03*
D131*
X89916Y59741D03*
D132*
X44653Y59741D03*
D133*
X201778Y60046D03*
D51*
X163373Y60046D03*
D134*
X141275Y60046D03*
D135*
X120548Y60046D03*
D136*
X89764Y60046D03*
D137*
X44653Y60046D03*
D138*
X201625Y60350D03*
D139*
X163373Y60350D03*
D140*
X141122Y60350D03*
D135*
X120548Y60350D03*
D136*
X89764Y60350D03*
D137*
X44653Y60350D03*
D141*
X201473Y60655D03*
D59*
X163220Y60655D03*
D142*
X141275Y60655D03*
D143*
X120548Y60655D03*
D144*
X89611Y60655D03*
D145*
X44501Y60655D03*
D146*
X201320Y60960D03*
D61*
X163068Y60960D03*
D147*
X141275Y60960D03*
D135*
X120548Y60960D03*
D148*
X89611Y60960D03*
D149*
X44501Y60960D03*
D150*
X201168Y61265D03*
D68*
X162916Y61265D03*
D151*
X141122Y61265D03*
D143*
X120548Y61265D03*
D144*
X89611Y61265D03*
D145*
X44501Y61265D03*
D152*
X201016Y61570D03*
D74*
X162763Y61570D03*
D153*
X141122Y61570D03*
D154*
X120396Y61570D03*
D155*
X89459Y61570D03*
D149*
X44501Y61570D03*
D156*
X200711Y61874D03*
D157*
X162611Y61874D03*
D158*
X141275Y61874D03*
D154*
X120396Y61874D03*
D159*
X94031Y61874D03*
D160*
X75895Y61874D03*
D149*
X44501Y61874D03*
D161*
X200558Y62179D03*
D109*
X162611Y62179D03*
D162*
X141275Y62179D03*
D163*
X120396Y62179D03*
D68*
X94640Y62179D03*
D164*
X75286Y62179D03*
D165*
X44348Y62179D03*
D166*
X200406Y62484D03*
D33*
X162458Y62484D03*
D158*
X141275Y62484D03*
D154*
X120396Y62484D03*
D157*
X94945Y62484D03*
D73*
X74981Y62484D03*
D167*
X44348Y62484D03*
D168*
X200254Y62789D03*
D169*
X162306Y62789D03*
D162*
X141275Y62789D03*
D163*
X120396Y62789D03*
D109*
X95250Y62789D03*
D170*
X74676Y62789D03*
D165*
X44348Y62789D03*
D171*
X200101Y63094D03*
D154*
X162154Y63094D03*
D158*
X141275Y63094D03*
D154*
X120396Y63094D03*
D135*
X95555Y63094D03*
D172*
X74371Y63094D03*
D167*
X44348Y63094D03*
D173*
X199949Y63398D03*
D23*
X162001Y63398D03*
D158*
X141275Y63398D03*
D154*
X120396Y63398D03*
D174*
X95707Y63398D03*
D172*
X74066Y63398D03*
D167*
X44348Y63398D03*
D175*
X199796Y63703D03*
D43*
X161849Y63703D03*
D176*
X141122Y63703D03*
D163*
X120396Y63703D03*
D43*
X96012Y63703D03*
D177*
X73914Y63703D03*
D165*
X44348Y63703D03*
D178*
X199644Y64008D03*
D47*
X161696Y64008D03*
D179*
X141122Y64008D03*
D154*
X120396Y64008D03*
D47*
X96164Y64008D03*
D167*
X44348Y64008D03*
D180*
X199492Y64313D03*
D181*
X161544Y64313D03*
D176*
X141122Y64313D03*
D163*
X120396Y64313D03*
D27*
X96317Y64313D03*
D165*
X44348Y64313D03*
D182*
X199339Y64618D03*
D183*
X161392Y64618D03*
D179*
X141122Y64618D03*
D154*
X120396Y64618D03*
D57*
X96469Y64618D03*
D167*
X44348Y64618D03*
D184*
X199187Y64922D03*
D31*
X161239Y64922D03*
D179*
X141122Y64922D03*
D154*
X120396Y64922D03*
D31*
X96622Y64922D03*
D167*
X44348Y64922D03*
D185*
X199034Y65227D03*
D45*
X161087Y65227D03*
D176*
X141122Y65227D03*
D163*
X120396Y65227D03*
D186*
X96622Y65227D03*
D165*
X44348Y65227D03*
D187*
X198882Y65532D03*
D35*
X161087Y65532D03*
D179*
X141122Y65532D03*
D154*
X120396Y65532D03*
D35*
X96774Y65532D03*
D167*
X44348Y65532D03*
D188*
X198730Y65837D03*
D39*
X160934Y65837D03*
D176*
X141122Y65837D03*
D163*
X120396Y65837D03*
D39*
X96926Y65837D03*
D165*
X44348Y65837D03*
D189*
X198577Y66142D03*
D190*
X160782Y66142D03*
D179*
X141122Y66142D03*
D154*
X120396Y66142D03*
D64*
X96926Y66142D03*
D167*
X44348Y66142D03*
D191*
X198425Y66446D03*
D190*
X160782Y66446D03*
D179*
X141122Y66446D03*
D154*
X120396Y66446D03*
D72*
X97079Y66446D03*
D192*
X79096Y66446D03*
D167*
X44348Y66446D03*
D193*
X198272Y66751D03*
D194*
X160630Y66751D03*
D162*
X141275Y66751D03*
D163*
X120396Y66751D03*
D67*
X97079Y66751D03*
D195*
X79096Y66751D03*
D165*
X44348Y66751D03*
D196*
X198120Y67056D03*
D197*
X160630Y67056D03*
D158*
X141275Y67056D03*
D154*
X120396Y67056D03*
D198*
X97231Y67056D03*
D93*
X79248Y67056D03*
D167*
X44348Y67056D03*
D165*
X197968Y67361D03*
D199*
X160477Y67361D03*
D162*
X141275Y67361D03*
D163*
X120396Y67361D03*
D200*
X97231Y67361D03*
D201*
X79096Y67361D03*
D165*
X44348Y67361D03*
D167*
X197968Y67666D03*
D202*
X160477Y67666D03*
D158*
X141275Y67666D03*
D154*
X120396Y67666D03*
D198*
X97231Y67666D03*
D203*
X79096Y67666D03*
D167*
X44348Y67666D03*
D149*
X197815Y67970D03*
D202*
X160477Y67970D03*
D158*
X141275Y67970D03*
D154*
X120396Y67970D03*
D202*
X97384Y67970D03*
D204*
X79096Y67970D03*
D167*
X44348Y67970D03*
D132*
X197663Y68275D03*
D199*
X160172Y68275D03*
D151*
X141122Y68275D03*
D163*
X120396Y68275D03*
D199*
X97384Y68275D03*
D205*
X79096Y68275D03*
D165*
X44348Y68275D03*
D137*
X197663Y68580D03*
D202*
X160172Y68580D03*
D153*
X141122Y68580D03*
D154*
X120396Y68580D03*
D202*
X97384Y68580D03*
D89*
X79096Y68580D03*
D167*
X44348Y68580D03*
D132*
X197663Y68885D03*
D199*
X160172Y68885D03*
D151*
X141122Y68885D03*
D143*
X120548Y68885D03*
D199*
X97384Y68885D03*
D121*
X79096Y68885D03*
D165*
X44348Y68885D03*
D119*
X197510Y69190D03*
D202*
X160172Y69190D03*
D147*
X141275Y69190D03*
D135*
X120548Y69190D03*
D202*
X97384Y69190D03*
D134*
X79096Y69190D03*
D167*
X44348Y69190D03*
D119*
X197510Y69494D03*
D206*
X160020Y69494D03*
D147*
X141275Y69494D03*
D135*
X120548Y69494D03*
D202*
X97384Y69494D03*
D134*
X79096Y69494D03*
D149*
X44501Y69494D03*
D123*
X197510Y69799D03*
D207*
X160020Y69799D03*
D208*
X141122Y69799D03*
D143*
X120548Y69799D03*
D199*
X97384Y69799D03*
D130*
X79096Y69799D03*
D145*
X44501Y69799D03*
D119*
X197510Y70104D03*
D202*
X159868Y70104D03*
D134*
X141275Y70104D03*
D135*
X120548Y70104D03*
D202*
X97384Y70104D03*
D134*
X79096Y70104D03*
D149*
X44501Y70104D03*
D123*
X197510Y70409D03*
D199*
X159868Y70409D03*
D130*
X141275Y70409D03*
D18*
X120701Y70409D03*
D199*
X97384Y70409D03*
D130*
X79096Y70409D03*
D145*
X44501Y70409D03*
D119*
X197510Y70714D03*
D202*
X159868Y70714D03*
D126*
X141122Y70714D03*
D33*
X120701Y70714D03*
D202*
X97384Y70714D03*
D134*
X79096Y70714D03*
D149*
X44501Y70714D03*
D119*
X197510Y71018D03*
D198*
X159715Y71018D03*
D89*
X141275Y71018D03*
D33*
X120701Y71018D03*
D202*
X97384Y71018D03*
D134*
X79096Y71018D03*
D137*
X44653Y71018D03*
D209*
X202540Y71323D03*
D142*
X178765Y71323D03*
D200*
X159715Y71323D03*
D210*
X141122Y71323D03*
D109*
X120853Y71323D03*
D199*
X97384Y71323D03*
D130*
X79096Y71323D03*
D132*
X44653Y71323D03*
D101*
X202844Y71628D03*
D211*
X178613Y71628D03*
D198*
X159715Y71628D03*
D113*
X141275Y71628D03*
D29*
X120853Y71628D03*
D202*
X97384Y71628D03*
D134*
X79096Y71628D03*
D137*
X44653Y71628D03*
D212*
X203149Y71933D03*
D213*
X178613Y71933D03*
D67*
X159563Y71933D03*
D214*
X141275Y71933D03*
D109*
X120853Y71933D03*
D199*
X97384Y71933D03*
D121*
X79096Y71933D03*
D123*
X44806Y71933D03*
D85*
X203302Y72238D03*
D89*
X178460Y72238D03*
D72*
X159563Y72238D03*
D103*
X141122Y72238D03*
D104*
X121006Y72238D03*
D202*
X97384Y72238D03*
D89*
X79096Y72238D03*
D119*
X44806Y72238D03*
D71*
X203606Y72542D03*
D204*
X178460Y72542D03*
D64*
X159410Y72542D03*
D215*
X141122Y72542D03*
D104*
X121006Y72542D03*
D198*
X97231Y72542D03*
D204*
X79096Y72542D03*
D115*
X44958Y72542D03*
D216*
X203759Y72847D03*
D214*
X178460Y72847D03*
D39*
X159410Y72847D03*
D217*
X141122Y72847D03*
D218*
X121158Y72847D03*
D200*
X97231Y72847D03*
D205*
X79096Y72847D03*
D111*
X44958Y72847D03*
D63*
X204064Y73152D03*
D215*
X178308Y73152D03*
D31*
X159410Y73152D03*
D87*
X141275Y73152D03*
D88*
X121158Y73152D03*
D198*
X97231Y73152D03*
D203*
X79096Y73152D03*
D115*
X44958Y73152D03*
D15*
X204216Y73457D03*
D195*
X178156Y73457D03*
D186*
X159410Y73457D03*
D219*
X141275Y73457D03*
D81*
X121310Y73457D03*
D67*
X97079Y73457D03*
D201*
X79096Y73457D03*
D100*
X45110Y73457D03*
D220*
X204521Y73762D03*
D192*
X178156Y73762D03*
D183*
X159258Y73762D03*
D221*
X141275Y73762D03*
D206*
X124054Y73762D03*
D72*
X97079Y73762D03*
D222*
X79096Y73762D03*
D90*
X45263Y73762D03*
D223*
X204673Y74066D03*
D50*
X159410Y74066D03*
D202*
X124206Y74066D03*
D64*
X96926Y74066D03*
D224*
X79096Y74066D03*
D90*
X45263Y74066D03*
D225*
X204673Y74371D03*
D226*
X159258Y74371D03*
D194*
X124358Y74371D03*
D39*
X96926Y74371D03*
D227*
X79248Y74371D03*
D84*
X45415Y74371D03*
D220*
X204521Y74676D03*
D23*
X159258Y74676D03*
D197*
X124358Y74676D03*
D35*
X96774Y74676D03*
D228*
X45415Y74676D03*
D229*
X204368Y74981D03*
D82*
X159258Y74981D03*
D67*
X124511Y74981D03*
D45*
X96774Y74981D03*
D70*
X45568Y74981D03*
D230*
X204368Y75286D03*
D231*
X159258Y75286D03*
D64*
X124663Y75286D03*
D31*
X96622Y75286D03*
D65*
X45720Y75286D03*
D20*
X204216Y75590D03*
D29*
X159258Y75590D03*
D35*
X124816Y75590D03*
D57*
X96469Y75590D03*
D62*
X45872Y75590D03*
D232*
X204064Y75895D03*
D98*
X159106Y75895D03*
D186*
X124968Y75895D03*
D27*
X96317Y75895D03*
D60*
X46025Y75895D03*
D233*
X203911Y76200D03*
D74*
X159106Y76200D03*
D183*
X125120Y76200D03*
D47*
X96164Y76200D03*
D58*
X46177Y76200D03*
D234*
X203606Y76505D03*
D235*
X159106Y76505D03*
D27*
X125273Y76505D03*
D43*
X96012Y76505D03*
D55*
X46330Y76505D03*
D236*
X203454Y76810D03*
D56*
X159106Y76810D03*
D47*
X125425Y76810D03*
D23*
X95860Y76810D03*
D52*
X46482Y76810D03*
D91*
X203149Y77114D03*
D125*
X159106Y77114D03*
D75*
X125578Y77114D03*
D174*
X95707Y77114D03*
D49*
X46634Y77114D03*
D95*
X202997Y77419D03*
D38*
X159106Y77419D03*
D163*
X125882Y77419D03*
D18*
X95402Y77419D03*
D237*
X46939Y77419D03*
D238*
X202692Y77724D03*
D239*
X159106Y77724D03*
D135*
X126035Y77724D03*
D29*
X95250Y77724D03*
D240*
X47244Y77724D03*
D241*
X202387Y78029D03*
D242*
X159258Y78029D03*
D109*
X126340Y78029D03*
D25*
X94945Y78029D03*
D243*
X47549Y78029D03*
D244*
X201930Y78334D03*
D245*
X159106Y78334D03*
D88*
X126644Y78334D03*
D21*
X94640Y78334D03*
D32*
X47854Y78334D03*
D246*
X201473Y78638D03*
D247*
X159258Y78638D03*
D61*
X127102Y78638D03*
D139*
X94183Y78638D03*
D13*
X48311Y78638D03*
D248*
X200711Y78943D03*
D249*
X159258Y78943D03*
D250*
X110490Y78943D03*
D251*
X48920Y78943D03*
D10*
X121158Y79248D03*
D11*
X121158Y79553D03*
D10*
X121158Y79858D03*
X121158Y80162D03*
D11*
X121158Y80467D03*
D10*
X121158Y80772D03*
D11*
X121158Y81077D03*
D10*
X121158Y81382D03*
X121158Y81686D03*
D11*
X121158Y81991D03*
D10*
X121158Y82296D03*
D11*
X121158Y82601D03*
D10*
X121158Y82906D03*
X121158Y83210D03*
D252*
X150571Y83515D03*
D193*
X44044Y83515D03*
D253*
X151790Y83820D03*
D254*
X42824Y83820D03*
D255*
X152705Y84125D03*
D161*
X41758Y84125D03*
D256*
X153467Y84430D03*
D146*
X40996Y84430D03*
D257*
X154229Y84734D03*
D124*
X40234Y84734D03*
D258*
X154686Y85039D03*
D107*
X39624Y85039D03*
D192*
X219608Y85344D03*
D90*
X169012Y85344D03*
D136*
X104699Y85344D03*
D85*
X39014Y85344D03*
D259*
X219608Y85649D03*
D100*
X168859Y85649D03*
D260*
X105156Y85649D03*
D216*
X38557Y85649D03*
D192*
X219608Y85954D03*
D106*
X168859Y85954D03*
D261*
X105461Y85954D03*
D230*
X37948Y85954D03*
D262*
X219456Y86258D03*
D106*
X168859Y86258D03*
D263*
X105918Y86258D03*
D264*
X37490Y86258D03*
D265*
X219456Y86563D03*
D266*
X168707Y86563D03*
D267*
X106223Y86563D03*
D268*
X37033Y86563D03*
D262*
X219456Y86868D03*
D90*
X168707Y86868D03*
D269*
X106680Y86868D03*
D270*
X36576Y86868D03*
D265*
X219456Y87173D03*
D100*
X168554Y87173D03*
D271*
X106985Y87173D03*
D131*
X36271Y87173D03*
D262*
X219456Y87478D03*
D106*
X168554Y87478D03*
D30*
X107137Y87478D03*
D272*
X35814Y87478D03*
D273*
X219304Y87782D03*
D106*
X168554Y87782D03*
D34*
X107442Y87782D03*
D247*
X35509Y87782D03*
D219*
X219304Y88087D03*
D100*
X168554Y88087D03*
D274*
X107747Y88087D03*
D275*
X35052Y88087D03*
D273*
X219304Y88392D03*
D90*
X168402Y88392D03*
D48*
X108052Y88392D03*
D245*
X34747Y88392D03*
D219*
X219304Y88697D03*
D100*
X168250Y88697D03*
D54*
X108356Y88697D03*
D17*
X34442Y88697D03*
D273*
X219304Y89002D03*
D106*
X168250Y89002D03*
D61*
X108509Y89002D03*
D269*
X34138Y89002D03*
D160*
X219151Y89306D03*
D106*
X168250Y89306D03*
D74*
X108814Y89306D03*
D102*
X33833Y89306D03*
D80*
X219151Y89611D03*
D100*
X168250Y89611D03*
D98*
X109118Y89611D03*
D276*
X33528Y89611D03*
D160*
X219151Y89916D03*
D90*
X168097Y89916D03*
D29*
X109271Y89916D03*
D117*
X33223Y89916D03*
D80*
X219151Y90221D03*
D100*
X167945Y90221D03*
D143*
X109576Y90221D03*
D38*
X32918Y90221D03*
D160*
X219151Y90526D03*
D106*
X167945Y90526D03*
D23*
X109576Y90526D03*
D41*
X32766Y90526D03*
D224*
X218999Y90830D03*
D106*
X167945Y90830D03*
D47*
X109880Y90830D03*
D48*
X32461Y90830D03*
D277*
X218999Y91135D03*
D100*
X167945Y91135D03*
D27*
X110033Y91135D03*
D54*
X32156Y91135D03*
D224*
X218999Y91440D03*
D90*
X167792Y91440D03*
D31*
X110338Y91440D03*
D56*
X32004Y91440D03*
D277*
X218999Y91745D03*
D278*
X167640Y91745D03*
D45*
X110490Y91745D03*
D235*
X31699Y91745D03*
D224*
X218999Y92050D03*
D279*
X167640Y92050D03*
D190*
X110490Y92050D03*
D21*
X31547Y92050D03*
D280*
X218846Y92354D03*
D279*
X167640Y92354D03*
D202*
X110795Y92354D03*
D88*
X31242Y92354D03*
D281*
X218846Y92659D03*
D163*
X182270Y92659D03*
D282*
X152248Y92659D03*
D207*
X110947Y92659D03*
D98*
X31090Y92659D03*
D280*
X218846Y92964D03*
D23*
X182423Y92964D03*
D57*
X151943Y92964D03*
D283*
X111100Y92964D03*
D29*
X30937Y92964D03*
D281*
X218846Y93269D03*
D43*
X182270Y93269D03*
D186*
X151790Y93269D03*
D284*
X111252Y93269D03*
D18*
X30785Y93269D03*
D280*
X218846Y93574D03*
D47*
X182423Y93574D03*
D35*
X151638Y93574D03*
D285*
X111252Y93574D03*
D33*
X30785Y93574D03*
D286*
X218694Y93878D03*
D47*
X182423Y93878D03*
D35*
X151638Y93878D03*
D287*
X111404Y93878D03*
D33*
X30785Y93878D03*
D195*
X218694Y94183D03*
D27*
X182575Y94183D03*
D39*
X151486Y94183D03*
D288*
X111557Y94183D03*
D18*
X30785Y94183D03*
D286*
X218694Y94488D03*
D50*
X182575Y94488D03*
D64*
X151181Y94488D03*
D289*
X111709Y94488D03*
D33*
X30785Y94488D03*
D195*
X218694Y94793D03*
D53*
X182423Y94793D03*
D67*
X151028Y94793D03*
D290*
X111862Y94793D03*
D143*
X30632Y94793D03*
D286*
X218694Y95098D03*
D31*
X182575Y95098D03*
D72*
X151028Y95098D03*
D291*
X112014Y95098D03*
D135*
X30632Y95098D03*
D76*
X218542Y95402D03*
D31*
X182575Y95402D03*
D197*
X150876Y95402D03*
D292*
X112014Y95402D03*
D135*
X30632Y95402D03*
D293*
X218542Y95707D03*
D45*
X182728Y95707D03*
D199*
X150724Y95707D03*
D294*
X112166Y95707D03*
D143*
X30632Y95707D03*
D76*
X218542Y96012D03*
D35*
X182728Y96012D03*
D202*
X150419Y96012D03*
D295*
X112319Y96012D03*
D135*
X30632Y96012D03*
D293*
X218542Y96317D03*
D67*
X182728Y96317D03*
D207*
X150266Y96317D03*
D176*
X112471Y96317D03*
D163*
X30480Y96317D03*
D76*
X218542Y96622D03*
D72*
X182728Y96622D03*
D206*
X150266Y96622D03*
D158*
X112624Y96622D03*
D154*
X30480Y96622D03*
D222*
X218389Y96926D03*
D72*
X182728Y96926D03*
D283*
X150114Y96926D03*
D147*
X112624Y96926D03*
D154*
X30480Y96926D03*
D296*
X218389Y97231D03*
D194*
X182880Y97231D03*
D297*
X149962Y97231D03*
D208*
X112776Y97231D03*
D163*
X30480Y97231D03*
D222*
X218389Y97536D03*
D197*
X182880Y97536D03*
D298*
X149809Y97536D03*
D134*
X112928Y97536D03*
D154*
X30480Y97536D03*
D296*
X218389Y97841D03*
D207*
X182880Y97841D03*
D297*
X149657Y97841D03*
D130*
X112928Y97841D03*
D82*
X30328Y97841D03*
D222*
X218389Y98146D03*
D206*
X182880Y98146D03*
D299*
X149504Y98146D03*
D126*
X113081Y98146D03*
D23*
X30328Y98146D03*
D93*
X218237Y98450D03*
D283*
X183032Y98450D03*
D285*
X149352Y98450D03*
D118*
X113081Y98450D03*
D23*
X30328Y98450D03*
D217*
X218237Y98755D03*
D300*
X183032Y98755D03*
D301*
X149200Y98755D03*
D302*
X113233Y98755D03*
D82*
X30328Y98755D03*
D93*
X218237Y99060D03*
D283*
X183032Y99060D03*
D287*
X149200Y99060D03*
D113*
X113233Y99060D03*
D23*
X30328Y99060D03*
D217*
X218237Y99365D03*
D303*
X183032Y99365D03*
D301*
X148895Y99365D03*
D108*
X113386Y99365D03*
D43*
X30175Y99365D03*
D93*
X218237Y99670D03*
D299*
X183032Y99670D03*
D304*
X148742Y99670D03*
D203*
X113538Y99670D03*
D75*
X30175Y99670D03*
D305*
X218084Y99974D03*
D285*
X183185Y99974D03*
D306*
X148590Y99974D03*
D103*
X113386Y99974D03*
D75*
X30175Y99974D03*
D307*
X218084Y100279D03*
D308*
X183185Y100279D03*
D290*
X148438Y100279D03*
D309*
X113538Y100279D03*
D43*
X30175Y100279D03*
D305*
X218084Y100584D03*
D287*
X183337Y100584D03*
D310*
X148438Y100584D03*
D215*
X113690Y100584D03*
D75*
X30175Y100584D03*
D307*
X218084Y100889D03*
D288*
X183185Y100889D03*
D311*
X148133Y100889D03*
D97*
X113690Y100889D03*
D226*
X30023Y100889D03*
D305*
X218084Y101194D03*
D304*
X183185Y101194D03*
D291*
X147980Y101194D03*
D305*
X113843Y101194D03*
D47*
X30023Y101194D03*
D215*
X217932Y101498D03*
D289*
X183337Y101498D03*
D312*
X147828Y101498D03*
D222*
X113843Y101498D03*
D47*
X30023Y101498D03*
D97*
X217932Y101803D03*
D313*
X183337Y101803D03*
D314*
X147828Y101803D03*
D296*
X113843Y101803D03*
D226*
X30023Y101803D03*
D215*
X217932Y102108D03*
D310*
X183490Y102108D03*
D292*
X147676Y102108D03*
D76*
X113995Y102108D03*
D47*
X30023Y102108D03*
D97*
X217932Y102413D03*
D315*
X183337Y102413D03*
D316*
X147371Y102413D03*
D293*
X113995Y102413D03*
D27*
X29870Y102413D03*
D215*
X217932Y102718D03*
D312*
X183490Y102718D03*
D317*
X147218Y102718D03*
D286*
X114148Y102718D03*
D50*
X29870Y102718D03*
D318*
X217780Y103022D03*
D312*
X183490Y103022D03*
D317*
X147218Y103022D03*
D280*
X113995Y103022D03*
D50*
X29870Y103022D03*
D201*
X217780Y103327D03*
D314*
X183490Y103327D03*
D319*
X147066Y103327D03*
D277*
X114148Y103327D03*
D27*
X29870Y103327D03*
D318*
X217780Y103632D03*
D292*
X183642Y103632D03*
D179*
X146914Y103632D03*
D224*
X114148Y103632D03*
D50*
X29870Y103632D03*
D201*
X217780Y103937D03*
D294*
X183490Y103937D03*
D176*
X146609Y103937D03*
D80*
X114300Y103937D03*
D282*
X29718Y103937D03*
D318*
X217780Y104242D03*
D320*
X183642Y104242D03*
D158*
X146456Y104242D03*
D160*
X114300Y104242D03*
D183*
X29718Y104242D03*
D103*
X217627Y104546D03*
D320*
X183642Y104546D03*
D158*
X146456Y104546D03*
D262*
X114300Y104546D03*
D183*
X29718Y104546D03*
D83*
X217627Y104851D03*
D176*
X183794Y104851D03*
D151*
X146304Y104851D03*
D265*
X114300Y104851D03*
D282*
X29718Y104851D03*
D103*
X217627Y105156D03*
D179*
X183794Y105156D03*
D147*
X146152Y105156D03*
D192*
X114452Y105156D03*
D183*
X29718Y105156D03*
D83*
X217627Y105461D03*
D162*
X183642Y105461D03*
D142*
X145847Y105461D03*
D259*
X114452Y105461D03*
D186*
X29566Y105461D03*
D103*
X217627Y105766D03*
D153*
X183794Y105766D03*
D147*
X145847Y105766D03*
D321*
X114605Y105766D03*
D203*
X69952Y105766D03*
D31*
X29566Y105766D03*
D203*
X217475Y106070D03*
D153*
X183794Y106070D03*
D140*
X145694Y106070D03*
D322*
X114452Y106070D03*
D179*
X69799Y106070D03*
D31*
X29566Y106070D03*
D214*
X217475Y106375D03*
D142*
X183947Y106375D03*
D130*
X145542Y106375D03*
D323*
X114452Y106375D03*
D308*
X69799Y106375D03*
D186*
X29566Y106375D03*
D203*
X217475Y106680D03*
D147*
X183947Y106680D03*
D126*
X145390Y106680D03*
D73*
X114605Y106680D03*
D198*
X69799Y106680D03*
D31*
X29566Y106680D03*
D214*
X217475Y106985D03*
D130*
X183947Y106985D03*
X145237Y106985D03*
D324*
X114605Y106985D03*
D186*
X70104Y106985D03*
D45*
X29413Y106985D03*
D203*
X217475Y107290D03*
D134*
X183947Y107290D03*
D126*
X145085Y107290D03*
D73*
X114605Y107290D03*
D50*
X70409Y107290D03*
D35*
X29413Y107290D03*
D325*
X217322Y107594D03*
D134*
X183947Y107594D03*
D89*
X144932Y107594D03*
D326*
X114605Y107594D03*
D75*
X70714Y107594D03*
D35*
X29413Y107594D03*
D108*
X217322Y107899D03*
D213*
X184099Y107899D03*
D327*
X144780Y107899D03*
D170*
X114605Y107899D03*
D163*
X71018Y107899D03*
D45*
X29413Y107899D03*
D325*
X217322Y108204D03*
D126*
X184099Y108204D03*
D204*
X144628Y108204D03*
D326*
X114605Y108204D03*
D29*
X71171Y108204D03*
D35*
X29413Y108204D03*
D108*
X217322Y108509D03*
D210*
X184099Y108509D03*
D205*
X144628Y108509D03*
D328*
X114757Y108509D03*
D98*
X71323Y108509D03*
D39*
X29261Y108509D03*
D325*
X217322Y108814D03*
D118*
X184099Y108814D03*
D113*
X144323Y108814D03*
D329*
X114757Y108814D03*
D330*
X71628Y108814D03*
D64*
X29261Y108814D03*
D204*
X217170Y109118D03*
X184252Y109118D03*
D325*
X144170Y109118D03*
D172*
X114605Y109118D03*
D21*
X71780Y109118D03*
D64*
X29261Y109118D03*
D205*
X217170Y109423D03*
X184252Y109423D03*
D214*
X144018Y109423D03*
D331*
X114757Y109423D03*
D235*
X71933Y109423D03*
D39*
X29261Y109423D03*
D204*
X217170Y109728D03*
X184252Y109728D03*
D203*
X144018Y109728D03*
D332*
X114757Y109728D03*
D139*
X71933Y109728D03*
D64*
X29261Y109728D03*
D205*
X217170Y110033D03*
D214*
X184252Y110033D03*
D83*
X143866Y110033D03*
D331*
X114757Y110033D03*
D333*
X72238Y110033D03*
D67*
X29108Y110033D03*
D204*
X217170Y110338D03*
D203*
X184252Y110338D03*
D103*
X143561Y110338D03*
D332*
X114757Y110338D03*
D48*
X72390Y110338D03*
D72*
X29108Y110338D03*
D118*
X217018Y110642D03*
D103*
X184404Y110642D03*
D318*
X143408Y110642D03*
D125*
X72542Y110642D03*
D72*
X29108Y110642D03*
D210*
X217018Y110947D03*
D83*
X184404Y110947D03*
D201*
X143408Y110947D03*
D44*
X72542Y110947D03*
D67*
X29108Y110947D03*
D118*
X217018Y111252D03*
D318*
X184556Y111252D03*
D215*
X143256Y111252D03*
D334*
X72542Y111252D03*
D72*
X29108Y111252D03*
D210*
X217018Y111557D03*
D97*
X184404Y111557D03*
D307*
X143104Y111557D03*
D335*
X72695Y111557D03*
D194*
X28956Y111557D03*
D118*
X217018Y111862D03*
D215*
X184404Y111862D03*
D305*
X142799Y111862D03*
D117*
X72847Y111862D03*
D197*
X28956Y111862D03*
D89*
X216865Y112166D03*
D305*
X184556Y112166D03*
D93*
X142646Y112166D03*
D30*
X73000Y112166D03*
D197*
X28956Y112166D03*
D121*
X216865Y112471D03*
D307*
X184556Y112471D03*
D217*
X142646Y112471D03*
D336*
X73000Y112471D03*
D194*
X28956Y112471D03*
D89*
X216865Y112776D03*
D93*
X184709Y112776D03*
D222*
X142494Y112776D03*
D337*
X73000Y112776D03*
D197*
X28956Y112776D03*
D121*
X216865Y113081D03*
D296*
X184556Y113081D03*
D293*
X142342Y113081D03*
D271*
X73152Y113081D03*
D199*
X28804Y113081D03*
D89*
X216865Y113386D03*
D76*
X184709Y113386D03*
X142037Y113386D03*
D102*
X73152Y113386D03*
D202*
X28804Y113386D03*
D126*
X216713Y113690D03*
D76*
X184709Y113690D03*
X142037Y113690D03*
D22*
X73304Y113690D03*
D202*
X28804Y113690D03*
D213*
X216713Y113995D03*
D293*
X184709Y113995D03*
D195*
X141884Y113995D03*
D242*
X73304Y113995D03*
D199*
X28804Y113995D03*
D126*
X216713Y114300D03*
D87*
X184861Y114300D03*
D280*
X141732Y114300D03*
D92*
X73304Y114300D03*
D202*
X28804Y114300D03*
D213*
X216713Y114605D03*
D281*
X184709Y114605D03*
D277*
X141580Y114605D03*
D338*
X73304Y114605D03*
D207*
X28651Y114605D03*
D126*
X216713Y114910D03*
D224*
X184861Y114910D03*
D280*
X141427Y114910D03*
D339*
X73457Y114910D03*
D206*
X28651Y114910D03*
D134*
X216560Y115214D03*
D224*
X184861Y115214D03*
X141275Y115214D03*
D339*
X73457Y115214D03*
D206*
X28651Y115214D03*
D130*
X216560Y115519D03*
D80*
X185014Y115519D03*
X141122Y115519D03*
D267*
X73609Y115519D03*
D207*
X28651Y115519D03*
D134*
X216560Y115824D03*
D160*
X185014Y115824D03*
D340*
X140970Y115824D03*
D245*
X73457Y115824D03*
D206*
X28651Y115824D03*
D130*
X216560Y116129D03*
D219*
X184861Y116129D03*
D265*
X140818Y116129D03*
D79*
X73457Y116129D03*
D300*
X28499Y116129D03*
D134*
X216560Y116434D03*
D262*
X185014Y116434D03*
D273*
X140665Y116434D03*
D263*
X73609Y116434D03*
D283*
X28499Y116434D03*
D140*
X216408Y116738D03*
D262*
X185014Y116738D03*
D341*
X140513Y116738D03*
D263*
X73609Y116738D03*
D283*
X28499Y116738D03*
D208*
X216408Y117043D03*
D259*
X185166Y117043D03*
X140360Y117043D03*
D342*
X73609Y117043D03*
D300*
X28499Y117043D03*
D140*
X216408Y117348D03*
D192*
X185166Y117348D03*
D321*
X140208Y117348D03*
D343*
X73457Y117348D03*
D283*
X28499Y117348D03*
D208*
X216408Y117653D03*
D323*
X185166Y117653D03*
D164*
X140208Y117653D03*
D344*
X73609Y117653D03*
D297*
X28346Y117653D03*
D140*
X216408Y117958D03*
D322*
X185166Y117958D03*
X140056Y117958D03*
D94*
X73609Y117958D03*
D345*
X28346Y117958D03*
D147*
X216256Y118262D03*
D322*
X185166Y118262D03*
X139751Y118262D03*
D94*
X73609Y118262D03*
D345*
X28346Y118262D03*
D142*
X216256Y118567D03*
D324*
X185318Y118567D03*
X139598Y118567D03*
D344*
X73609Y118567D03*
D297*
X28346Y118567D03*
D147*
X216256Y118872D03*
D73*
X185318Y118872D03*
X139598Y118872D03*
D261*
X73457Y118872D03*
D345*
X28346Y118872D03*
D142*
X216256Y119177D03*
D170*
X185318Y119177D03*
D346*
X139446Y119177D03*
D347*
X73457Y119177D03*
D303*
X28194Y119177D03*
D147*
X216256Y119482D03*
D326*
X185318Y119482D03*
X139294Y119482D03*
D247*
X73609Y119482D03*
D299*
X28194Y119482D03*
D153*
X216103Y119786D03*
D329*
X185471Y119786D03*
D326*
X138989Y119786D03*
D247*
X73609Y119786D03*
D299*
X28194Y119786D03*
D151*
X216103Y120091D03*
D328*
X185471Y120091D03*
D170*
X138989Y120091D03*
D99*
X73609Y120091D03*
D303*
X28194Y120091D03*
D153*
X216103Y120396D03*
D329*
X185471Y120396D03*
X138836Y120396D03*
D105*
X73457Y120396D03*
D299*
X28194Y120396D03*
D151*
X216103Y120701D03*
D331*
X185471Y120701D03*
D69*
X138684Y120701D03*
D348*
X73457Y120701D03*
D308*
X28042Y120701D03*
D153*
X216103Y121006D03*
D332*
X185471Y121006D03*
X138532Y121006D03*
D105*
X73457Y121006D03*
D285*
X28042Y121006D03*
D158*
X215951Y121310D03*
D349*
X185623Y121310D03*
D332*
X138227Y121310D03*
D105*
X73457Y121310D03*
D285*
X28042Y121310D03*
D162*
X215951Y121615D03*
D350*
X185623Y121615D03*
D331*
X138227Y121615D03*
D348*
X73457Y121615D03*
D308*
X28042Y121615D03*
D158*
X215951Y121920D03*
D351*
X138074Y121920D03*
D272*
X73304Y121920D03*
D285*
X28042Y121920D03*
D162*
X215951Y122225D03*
D352*
X73304Y122225D03*
D301*
X27889Y122225D03*
D158*
X215951Y122530D03*
D272*
X73304Y122530D03*
D287*
X27889Y122530D03*
D179*
X215798Y122834D03*
D272*
X73304Y122834D03*
D287*
X27889Y122834D03*
D176*
X215798Y123139D03*
D352*
X73304Y123139D03*
D301*
X27889Y123139D03*
D179*
X215798Y123444D03*
D353*
X73152Y123444D03*
D287*
X27889Y123444D03*
D176*
X215798Y123749D03*
D354*
X161544Y123749D03*
D260*
X73152Y123749D03*
D288*
X27737Y123749D03*
D179*
X215798Y124054D03*
D332*
X161392Y124054D03*
D353*
X73152Y124054D03*
D304*
X27737Y124054D03*
D320*
X215646Y124358D03*
D329*
X161392Y124358D03*
D353*
X73152Y124358D03*
D304*
X27737Y124358D03*
D319*
X215646Y124663D03*
D170*
X161239Y124663D03*
D352*
X73000Y124663D03*
D288*
X27737Y124663D03*
D320*
X215646Y124968D03*
D355*
X161392Y124968D03*
D114*
X72847Y124968D03*
D304*
X27737Y124968D03*
D319*
X215646Y125273D03*
D324*
X161239Y125273D03*
D356*
X72847Y125273D03*
D313*
X27584Y125273D03*
D320*
X215646Y125578D03*
D322*
X161087Y125578D03*
D114*
X72847Y125578D03*
D289*
X27584Y125578D03*
D317*
X215494Y125882D03*
D192*
X161087Y125882D03*
D114*
X72847Y125882D03*
D289*
X27584Y125882D03*
D294*
X215494Y126187D03*
D265*
X160934Y126187D03*
D356*
X72847Y126187D03*
D313*
X27584Y126187D03*
D317*
X215494Y126492D03*
D273*
X161087Y126492D03*
D357*
X72695Y126492D03*
D289*
X27584Y126492D03*
D294*
X215494Y126797D03*
D80*
X160934Y126797D03*
D122*
X72695Y126797D03*
D290*
X27432Y126797D03*
D317*
X215494Y127102D03*
D224*
X160782Y127102D03*
D114*
X72542Y127102D03*
D310*
X27432Y127102D03*
D292*
X215341Y127406D03*
D286*
X160782Y127406D03*
D114*
X72542Y127406D03*
D310*
X27432Y127406D03*
D316*
X215341Y127711D03*
D195*
X160782Y127711D03*
D356*
X72542Y127711D03*
D290*
X27432Y127711D03*
D292*
X215341Y128016D03*
D222*
X160782Y128016D03*
D357*
X72390Y128016D03*
D310*
X27432Y128016D03*
D316*
X215341Y128321D03*
D217*
X160630Y128321D03*
D358*
X54254Y128321D03*
D292*
X215341Y128626D03*
D305*
X160477Y128626D03*
D359*
X54102Y128626D03*
D312*
X215189Y128930D03*
D318*
X160477Y128930D03*
D359*
X54102Y128930D03*
D314*
X215189Y129235D03*
D201*
X160477Y129235D03*
D360*
X54102Y129235D03*
D312*
X215189Y129540D03*
D203*
X160477Y129540D03*
D359*
X54102Y129540D03*
D314*
X215189Y129845D03*
D108*
X160325Y129845D03*
D361*
X53950Y129845D03*
D312*
X215189Y130150D03*
D118*
X160325Y130150D03*
D362*
X53950Y130150D03*
D291*
X215036Y130454D03*
D89*
X160172Y130454D03*
D362*
X53950Y130454D03*
D315*
X215036Y130759D03*
D121*
X160172Y130759D03*
D363*
X53797Y130759D03*
D291*
X215036Y131064D03*
D134*
X160172Y131064D03*
D364*
X53797Y131064D03*
D315*
X215036Y131369D03*
D208*
X160020Y131369D03*
D363*
X53797Y131369D03*
D291*
X215036Y131674D03*
D153*
X160020Y131674D03*
D365*
X53645Y131674D03*
D310*
X214884Y131978D03*
D158*
X159868Y131978D03*
D365*
X53645Y131978D03*
D290*
X214884Y132283D03*
D162*
X159868Y132283D03*
D366*
X53645Y132283D03*
D310*
X214884Y132588D03*
D320*
X159868Y132588D03*
D367*
X53492Y132588D03*
D290*
X214884Y132893D03*
D294*
X159715Y132893D03*
D368*
X53492Y132893D03*
D310*
X214884Y133198D03*
D312*
X159715Y133198D03*
D369*
X53340Y133198D03*
D289*
X214732Y133502D03*
D312*
X159715Y133502D03*
D369*
X53340Y133502D03*
D313*
X214732Y133807D03*
D315*
X159563Y133807D03*
D370*
X53340Y133807D03*
D289*
X214732Y134112D03*
X159563Y134112D03*
D371*
X53188Y134112D03*
D313*
X214732Y134417D03*
D288*
X159410Y134417D03*
D372*
X53188Y134417D03*
D289*
X214732Y134722D03*
D285*
X159410Y134722D03*
D373*
X53035Y134722D03*
D304*
X214579Y135026D03*
D285*
X159410Y135026D03*
D373*
X53035Y135026D03*
D288*
X214579Y135331D03*
D303*
X159258Y135331D03*
D374*
X52883Y135331D03*
D304*
X214579Y135636D03*
D283*
X159258Y135636D03*
D375*
X52730Y135636D03*
D288*
X214579Y135941D03*
D207*
X159106Y135941D03*
D376*
X52730Y135941D03*
D304*
X214579Y136246D03*
D197*
X159106Y136246D03*
D377*
X52578Y136246D03*
D287*
X214427Y136550D03*
D197*
X159106Y136550D03*
D377*
X52578Y136550D03*
D301*
X214427Y136855D03*
D39*
X159106Y136855D03*
D378*
X52426Y136855D03*
D287*
X214427Y137160D03*
D35*
X158953Y137160D03*
D379*
X52273Y137160D03*
D301*
X214427Y137465D03*
D186*
X158801Y137465D03*
D380*
X52273Y137465D03*
D287*
X214427Y137770D03*
D57*
X158953Y137770D03*
D112*
X64465Y137770D03*
D117*
X33223Y137770D03*
D285*
X214274Y138074D03*
D50*
X158801Y138074D03*
D101*
X64465Y138074D03*
D34*
X33071Y138074D03*
D308*
X214274Y138379D03*
D43*
X158801Y138379D03*
D212*
X64465Y138379D03*
D38*
X32918Y138379D03*
D285*
X214274Y138684D03*
D23*
X158648Y138684D03*
D85*
X64618Y138684D03*
D125*
X32614Y138684D03*
D308*
X214274Y138989D03*
D163*
X158496Y138989D03*
D234*
X64618Y138989D03*
D129*
X32461Y138989D03*
D285*
X214274Y139294D03*
D135*
X158648Y139294D03*
D381*
X64465Y139294D03*
D51*
X32309Y139294D03*
D299*
X214122Y139598D03*
D33*
X158496Y139598D03*
D63*
X64465Y139598D03*
D159*
X32156Y139598D03*
D303*
X214122Y139903D03*
D98*
X158496Y139903D03*
D229*
X64465Y139903D03*
D59*
X31852Y139903D03*
D299*
X214122Y140208D03*
D88*
X158344Y140208D03*
D223*
X64465Y140208D03*
D61*
X31699Y140208D03*
D303*
X214122Y140513D03*
D81*
X158191Y140513D03*
D382*
X64465Y140513D03*
D68*
X31547Y140513D03*
D299*
X214122Y140818D03*
D21*
X158344Y140818D03*
D383*
X64465Y140818D03*
D88*
X31242Y140818D03*
D345*
X213970Y141122D03*
D61*
X158191Y141122D03*
D155*
X64465Y141122D03*
D104*
X31090Y141122D03*
D297*
X213970Y141427D03*
D16*
X158191Y141427D03*
D131*
X64618Y141427D03*
D109*
X30937Y141427D03*
D345*
X213970Y141732D03*
D159*
X158039Y141732D03*
D384*
X64465Y141732D03*
D135*
X30632Y141732D03*
D297*
X213970Y142037D03*
D54*
X158039Y142037D03*
D99*
X64465Y142037D03*
D163*
X30480Y142037D03*
D345*
X213970Y142342D03*
D48*
X158039Y142342D03*
D94*
X64465Y142342D03*
D23*
X30328Y142342D03*
D283*
X213817Y142646D03*
D125*
X157886Y142646D03*
D385*
X64465Y142646D03*
D75*
X30175Y142646D03*
D300*
X213817Y142951D03*
D38*
X157886Y142951D03*
D386*
X64465Y142951D03*
D27*
X29870Y142951D03*
D283*
X213817Y143256D03*
D34*
X157734Y143256D03*
D337*
X64465Y143256D03*
D183*
X29718Y143256D03*
D300*
X213817Y143561D03*
D335*
X157734Y143561D03*
D387*
X64313Y143561D03*
D186*
X29566Y143561D03*
D283*
X213817Y143866D03*
D30*
X157734Y143866D03*
D388*
X64465Y143866D03*
D64*
X29261Y143866D03*
D206*
X213665Y144170D03*
D239*
X157582Y144170D03*
D159*
X64465Y144170D03*
D72*
X29108Y144170D03*
D207*
X213665Y144475D03*
D271*
X157582Y144475D03*
D81*
X64313Y144475D03*
D194*
X28956Y144475D03*
D206*
X213665Y144780D03*
D22*
X157429Y144780D03*
D33*
X64313Y144780D03*
D202*
X28804Y144780D03*
D207*
X213665Y145085D03*
D96*
X157582Y145085D03*
D27*
X64313Y145085D03*
D300*
X28499Y145085D03*
D206*
X213665Y145390D03*
D389*
X157429Y145390D03*
D198*
X64313Y145390D03*
D345*
X28346Y145390D03*
D202*
X213512Y145694D03*
D339*
X157277Y145694D03*
D285*
X64313Y145694D03*
D299*
X28194Y145694D03*
D199*
X213512Y145999D03*
D79*
X157277Y145999D03*
D176*
X64313Y145999D03*
D301*
X27889Y145999D03*
D202*
X213512Y146304D03*
D245*
X157277Y146304D03*
D103*
X64313Y146304D03*
D304*
X27737Y146304D03*
D199*
X213512Y146609D03*
D390*
X157277Y146609D03*
D313*
X27584Y146609D03*
D202*
X213512Y146914D03*
D94*
X157124Y146914D03*
D310*
X27432Y146914D03*
D197*
X213360Y147218D03*
D261*
X156972Y147218D03*
D312*
X27127Y147218D03*
D194*
X213360Y147523D03*
D348*
X156972Y147523D03*
D316*
X26975Y147523D03*
D197*
X213360Y147828D03*
D105*
X156972Y147828D03*
D317*
X26822Y147828D03*
D194*
X213360Y148133D03*
D260*
X156972Y148133D03*
D354*
X107290Y148133D03*
D176*
X26518Y148133D03*
D197*
X213360Y148438D03*
D357*
X156820Y148438D03*
D332*
X107137Y148438D03*
D158*
X26365Y148438D03*
D72*
X213208Y148742D03*
D127*
X156667Y148742D03*
D332*
X107137Y148742D03*
D153*
X26213Y148742D03*
D67*
X213208Y149047D03*
D144*
X156667Y149047D03*
D69*
X106985Y149047D03*
D142*
X26060Y149047D03*
D72*
X213208Y149352D03*
D148*
X156667Y149352D03*
D172*
X106680Y149352D03*
D134*
X25756Y149352D03*
D67*
X213208Y149657D03*
D391*
X156667Y149657D03*
D328*
X106528Y149657D03*
D213*
X25603Y149657D03*
D72*
X213208Y149962D03*
D383*
X156515Y149962D03*
D329*
X106528Y149962D03*
D89*
X25451Y149962D03*
D64*
X213055Y150266D03*
D392*
X156362Y150266D03*
D326*
X106375Y150266D03*
D204*
X25146Y150266D03*
D39*
X213055Y150571D03*
D393*
X156362Y150571D03*
D394*
X106223Y150571D03*
D108*
X24994Y150571D03*
D64*
X213055Y150876D03*
D264*
X156362Y150876D03*
D355*
X105918Y150876D03*
D203*
X24841Y150876D03*
D39*
X213055Y151181D03*
D395*
X156362Y151181D03*
D324*
X105766Y151181D03*
D83*
X24689Y151181D03*
D64*
X213055Y151486D03*
D230*
X156210Y151486D03*
D322*
X105613Y151486D03*
D215*
X24384Y151486D03*
D35*
X212903Y151790D03*
D396*
X156210Y151790D03*
D322*
X105613Y151790D03*
D305*
X24232Y151790D03*
D45*
X212903Y152095D03*
D397*
X156210Y152095D03*
D164*
X105461Y152095D03*
D217*
X24079Y152095D03*
D35*
X212903Y152400D03*
D233*
X156058Y152400D03*
D192*
X105308Y152400D03*
D76*
X23774Y152400D03*
D45*
X212903Y152705D03*
D234*
X156058Y152705D03*
D259*
X105004Y152705D03*
D195*
X23622Y152705D03*
D35*
X212903Y153010D03*
D398*
X155905Y153010D03*
D341*
X104851Y153010D03*
D286*
X23622Y153010D03*
D31*
X212750Y153314D03*
D91*
X155905Y153314D03*
D273*
X104699Y153314D03*
D76*
X23774Y153314D03*
D186*
X212750Y153619D03*
D212*
X155905Y153619D03*
D80*
X104546Y153619D03*
D296*
X23927Y153619D03*
D31*
X212750Y153924D03*
D399*
X155753Y153924D03*
D224*
X104394Y153924D03*
D222*
X23927Y153924D03*
D186*
X212750Y154229D03*
D400*
X155753Y154229D03*
D277*
X104089Y154229D03*
D217*
X24079Y154229D03*
D31*
X212750Y154534D03*
D112*
X155600Y154534D03*
D280*
X103937Y154534D03*
D305*
X24232Y154534D03*
D183*
X212598Y154838D03*
D401*
X155600Y154838D03*
D286*
X103784Y154838D03*
D215*
X24384Y154838D03*
D282*
X212598Y155143D03*
D120*
X155600Y155143D03*
D402*
X103632Y155143D03*
D201*
X24536Y155143D03*
D183*
X212598Y155448D03*
D124*
X155448Y155448D03*
D222*
X103480Y155448D03*
D103*
X24689Y155448D03*
D282*
X212598Y155753D03*
D403*
X155448Y155753D03*
D296*
X103175Y155753D03*
D214*
X24841Y155753D03*
D183*
X212598Y156058D03*
D138*
X155296Y156058D03*
D93*
X103022Y156058D03*
D203*
X24841Y156058D03*
D50*
X212446Y156362D03*
D246*
X155448Y156362D03*
D215*
X102718Y156362D03*
D325*
X24994Y156362D03*
D27*
X212446Y156667D03*
D404*
X155296Y156667D03*
D201*
X102565Y156667D03*
D205*
X25146Y156667D03*
D50*
X212446Y156972D03*
D405*
X155143Y156972D03*
D103*
X102413Y156972D03*
D118*
X25298Y156972D03*
D27*
X212446Y157277D03*
D406*
X155143Y157277D03*
D83*
X102108Y157277D03*
D121*
X25451Y157277D03*
D50*
X212446Y157582D03*
D156*
X154991Y157582D03*
D203*
X101956Y157582D03*
D126*
X25603Y157582D03*
D47*
X212293Y157886D03*
D407*
X155143Y157886D03*
D113*
X101651Y157886D03*
D134*
X25756Y157886D03*
D226*
X212293Y158191D03*
D408*
X154991Y158191D03*
D210*
X101498Y158191D03*
D208*
X25908Y158191D03*
D47*
X212293Y158496D03*
D409*
X154838Y158496D03*
D89*
X101346Y158496D03*
D147*
X26060Y158496D03*
D226*
X212293Y158801D03*
D410*
X154838Y158801D03*
D213*
X100889Y158801D03*
D162*
X26365Y158801D03*
D47*
X212293Y159106D03*
D411*
X154686Y159106D03*
D134*
X100736Y159106D03*
D179*
X26518Y159106D03*
D75*
X212141Y159410D03*
D178*
X154838Y159410D03*
D140*
X100584Y159410D03*
D320*
X26670Y159410D03*
D43*
X212141Y159715D03*
D412*
X154686Y159715D03*
D151*
X100279Y159715D03*
D294*
X26822Y159715D03*
D75*
X212141Y160020D03*
D184*
X154686Y160020D03*
D158*
X100127Y160020D03*
D292*
X26975Y160020D03*
D43*
X212141Y160325D03*
D185*
X154534Y160325D03*
D176*
X99670Y160325D03*
D315*
X27280Y160325D03*
D75*
X212141Y160630D03*
D413*
X154534Y160630D03*
D317*
X99365Y160630D03*
D310*
X27432Y160630D03*
D23*
X211988Y160934D03*
D414*
X154534Y160934D03*
D292*
X99212Y160934D03*
D304*
X27737Y160934D03*
D82*
X211988Y161239D03*
D415*
X154381Y161239D03*
D315*
X98908Y161239D03*
D301*
X27889Y161239D03*
D23*
X211988Y161544D03*
D416*
X154381Y161544D03*
D289*
X98603Y161544D03*
D285*
X28042Y161544D03*
D82*
X211988Y161849D03*
D417*
X154229Y161849D03*
D418*
X98298Y161849D03*
D297*
X28346Y161849D03*
D23*
X211988Y162154D03*
D419*
X154229Y162154D03*
D287*
X97993Y162154D03*
D206*
X28651Y162154D03*
D154*
X211836Y162458D03*
D149*
X154229Y162458D03*
D299*
X97688Y162458D03*
D202*
X28804Y162458D03*
D163*
X211836Y162763D03*
D132*
X154076Y162763D03*
D300*
X97384Y162763D03*
D67*
X29108Y162763D03*
D154*
X211836Y163068D03*
D115*
X154076Y163068D03*
D202*
X97079Y163068D03*
D35*
X29413Y163068D03*
D163*
X211836Y163373D03*
D278*
X153924Y163373D03*
D194*
X96622Y163373D03*
D186*
X29566Y163373D03*
D154*
X211836Y163678D03*
D279*
X153924Y163678D03*
D64*
X96317Y163678D03*
D50*
X29870Y163678D03*
D135*
X211684Y163982D03*
D228*
X153924Y163982D03*
D31*
X96012Y163982D03*
D75*
X30175Y163982D03*
D143*
X211684Y164287D03*
D70*
X153772Y164287D03*
D27*
X95707Y164287D03*
D163*
X30480Y164287D03*
D135*
X211684Y164592D03*
D62*
X153772Y164592D03*
D23*
X95250Y164592D03*
D29*
X30937Y164592D03*
D143*
X211684Y164897D03*
D420*
X153772Y164897D03*
D37*
X94793Y164897D03*
D218*
X31242Y164897D03*
D135*
X211684Y165202D03*
D421*
X153619Y165202D03*
D29*
X94336Y165202D03*
D21*
X31547Y165202D03*
D33*
X211531Y165506D03*
D422*
X153619Y165506D03*
D74*
X93878Y165506D03*
D56*
X32004Y165506D03*
D18*
X211531Y165811D03*
D423*
X153467Y165811D03*
D59*
X93421Y165811D03*
D333*
X32309Y165811D03*
D33*
X211531Y166116D03*
D424*
X153467Y166116D03*
D51*
X92964Y166116D03*
D41*
X32766Y166116D03*
D18*
X211531Y166421D03*
D46*
X153467Y166421D03*
D44*
X92354Y166421D03*
D336*
X33376Y166421D03*
D33*
X211531Y166726D03*
D42*
X153467Y166726D03*
D117*
X91745Y166726D03*
D102*
X33833Y166726D03*
D425*
X149962Y167030D03*
D339*
X34442Y167030D03*
D426*
X149200Y167335D03*
D275*
X35052Y167335D03*
D427*
X148590Y167640D03*
D105*
X35662Y167640D03*
D428*
X147676Y167945D03*
D429*
X36576Y167945D03*
D430*
X146761Y168250D03*
D264*
X37490Y168250D03*
D431*
X145237Y168554D03*
D236*
X38862Y168554D03*
D11*
X121158Y168859D03*
D10*
X121158Y169164D03*
D11*
X121158Y169469D03*
D432*
X320040Y173990D03*
X320040Y125730D03*
D433*
X515620Y335280D03*
X515620Y309880D03*
X490220Y335280D03*
X490220Y309880D03*
X464820Y335280D03*
X464820Y309880D03*
D434*
X442522Y724408D03*
X417522Y724408D03*
X417522Y692780D03*
X442522Y692780D03*
D435*
X489966Y697738D03*
X369570Y697738D03*
D433*
X812800Y431800D03*
X838200Y431800D03*
X812800Y406400D03*
X838200Y406400D03*
X812800Y381000D03*
X838200Y381000D03*
X812800Y355600D03*
X838200Y355600D03*
X812800Y279400D03*
X838200Y279400D03*
X812800Y254000D03*
X838200Y254000D03*
X812800Y228600D03*
X838200Y228600D03*
X812800Y203200D03*
X838200Y203200D03*
X812800Y177800D03*
X838200Y177800D03*
X812800Y152400D03*
X838200Y152400D03*
X304800Y635000D03*
X304800Y609600D03*
X304800Y584200D03*
X304800Y558800D03*
X304800Y533400D03*
X304800Y508000D03*
D436*
X50800Y609600D03*
X304800Y711200D03*
X304800Y457200D03*
X812800Y50800D03*
D437*
X469900Y50800D02*
X469900Y76200D01*
D436*
X812800Y711200D03*
D437*
X431800Y76200D02*
X431800Y50800D01*
D438*
X533400Y736600D03*
X558800Y736600D03*
X584200Y736600D03*
X609600Y736600D03*
D436*
X304800Y50800D03*
D433*
X162560Y741680D03*
X187960Y741680D03*
X213360Y741680D03*
X238760Y741680D03*
X264160Y741680D03*
D439*
X403860Y452120D03*
X403860Y416560D03*
X622300Y381000D03*
X533400Y381000D03*
X157480Y568960D03*
X193040Y655320D03*
X88900Y464820D03*
X30480Y495300D03*
X134620Y711200D03*
X20320Y685800D03*
X111760Y736600D03*
X132080Y269240D03*
X33020Y233680D03*
X243840Y160020D03*
X243840Y139700D03*
X429260Y167640D03*
X429260Y254000D03*
X393700Y386080D03*
X33020Y322580D03*
D440*
X309880Y269240D03*
X297681Y279901D03*
D439*
X469900Y558800D03*
X383694Y355446D03*
X220980Y386080D03*
X215900Y467360D03*
X754380Y304800D03*
X652780Y375920D03*
X365760Y444500D03*
X652780Y485140D03*
X706120Y472440D03*
X510540Y568960D03*
X502920Y622300D03*
X106680Y372336D03*
X535940Y347980D03*
X347980Y607060D03*
X264160Y627380D03*
X449580Y368300D03*
X421640Y340360D03*
X55880Y698500D03*
X55880Y678180D03*
X109220Y553720D03*
X81280Y274320D03*
X256540Y670560D03*
X393700Y352483D03*
X388620Y518160D03*
X388620Y421640D03*
X360680Y381000D03*
X193040Y688340D03*
X218696Y510796D03*
X269240Y487680D03*
X198120Y386080D03*
X449580Y434340D03*
X259080Y482600D03*
X210820Y505460D03*
X294640Y368300D03*
X447040Y401320D03*
X513080Y388620D03*
X474980Y391160D03*
X226060Y444500D03*
X165100Y406400D03*
D440*
X71120Y322580D03*
X71120Y396240D03*
D439*
X182880Y454660D03*
X297180Y342900D03*
X655320Y439420D03*
X289560Y335280D03*
X584200Y429260D03*
X347980Y350520D03*
X327660Y370840D03*
X243840Y467360D03*
X162560Y515620D03*
X350520Y365760D03*
X337820Y378460D03*
X252250Y472440D03*
X129540Y520700D03*
X350520Y474980D03*
X350520Y419100D03*
X224310Y406400D03*
X246380Y406400D03*
X718820Y347980D03*
X670560Y383540D03*
X394439Y364520D03*
X416560Y370840D03*
X546100Y599440D03*
X576580Y596900D03*
X540940Y683260D03*
X655320Y607060D03*
X665480Y563880D03*
X706120Y609600D03*
D440*
X220980Y297180D03*
D439*
X406400Y213360D03*
X88900Y403860D03*
X119380Y386660D03*
X170180Y617220D03*
X121920Y566420D03*
X88900Y477520D03*
X345440Y629920D03*
X406400Y528320D03*
X706120Y419100D03*
X88900Y426720D03*
X447040Y241300D03*
X462280Y254000D03*
X284480Y302260D03*
X281940Y327660D03*
X398780Y271780D03*
X449580Y231140D03*
X289130Y284050D03*
X360680Y248920D03*
X398780Y243840D03*
X368300Y200660D03*
X401320Y203200D03*
X449580Y177800D03*
X401320Y177800D03*
X449580Y157480D03*
X408940Y157480D03*
X411480Y193040D03*
X154940Y358140D03*
X541020Y660400D03*
X627380Y683260D03*
X612140Y675640D03*
X604520Y683260D03*
X525780Y683260D03*
X523240Y660400D03*
X492760Y650240D03*
X546100Y650240D03*
M02*
