G04 EAGLE Gerber RS-274X export*
G75*
%MOMM*%
%FSLAX34Y34*%
%LPD*%
%INSoldermask Top*%
%IPPOS*%
%AMOC8*
5,1,8,0,0,1.08239X$1,22.5*%
G01*
%ADD10C,1.219200*%
%ADD11R,1.473200X0.762000*%
%ADD12R,0.762000X1.473200*%
%ADD13R,1.503200X1.703200*%
%ADD14R,2.438200X1.422200*%
%ADD15R,2.403200X3.803200*%
%ADD16R,0.503200X1.103200*%
%ADD17R,1.103200X0.503200*%
%ADD18R,2.303200X2.303200*%
%ADD19R,0.753200X1.003200*%
%ADD20C,2.082800*%
%ADD21R,1.603200X1.203200*%
%ADD22R,1.703200X1.503200*%
%ADD23R,1.727200X0.965200*%
%ADD24C,1.879600*%
%ADD25C,2.717800*%
%ADD26R,2.403200X0.803200*%
%ADD27R,0.400000X1.100000*%
%ADD28C,2.403200*%
%ADD29R,1.575000X1.050000*%
%ADD30C,3.003200*%
%ADD31C,2.743200*%
%ADD32R,0.803200X1.403200*%
%ADD33R,1.303200X1.203200*%
%ADD34P,2.556822X8X112.500000*%
%ADD35R,0.838200X1.473200*%
%ADD36C,0.959600*%
%ADD37C,0.863600*%


D10*
X320040Y173990D03*
X320040Y125730D03*
D11*
G36*
X303190Y301840D02*
X292774Y291424D01*
X287386Y296812D01*
X297802Y307228D01*
X303190Y301840D01*
G37*
G36*
X308847Y296183D02*
X298431Y285767D01*
X293043Y291155D01*
X303459Y301571D01*
X308847Y296183D01*
G37*
G36*
X314503Y290526D02*
X304087Y280110D01*
X298699Y285498D01*
X309115Y295914D01*
X314503Y290526D01*
G37*
G36*
X320160Y284869D02*
X309744Y274453D01*
X304356Y279841D01*
X314772Y290257D01*
X320160Y284869D01*
G37*
G36*
X325817Y279212D02*
X315401Y268796D01*
X310013Y274184D01*
X320429Y284600D01*
X325817Y279212D01*
G37*
G36*
X331474Y273555D02*
X321058Y263139D01*
X315670Y268527D01*
X326086Y278943D01*
X331474Y273555D01*
G37*
G36*
X337131Y267899D02*
X326715Y257483D01*
X321327Y262871D01*
X331743Y273287D01*
X337131Y267899D01*
G37*
G36*
X342788Y262242D02*
X332372Y251826D01*
X326984Y257214D01*
X337400Y267630D01*
X342788Y262242D01*
G37*
D12*
G36*
X363896Y257214D02*
X358508Y251826D01*
X348092Y262242D01*
X353480Y267630D01*
X363896Y257214D01*
G37*
G36*
X369553Y262871D02*
X364165Y257483D01*
X353749Y267899D01*
X359137Y273287D01*
X369553Y262871D01*
G37*
G36*
X375210Y268527D02*
X369822Y263139D01*
X359406Y273555D01*
X364794Y278943D01*
X375210Y268527D01*
G37*
G36*
X380867Y274184D02*
X375479Y268796D01*
X365063Y279212D01*
X370451Y284600D01*
X380867Y274184D01*
G37*
G36*
X386524Y279841D02*
X381136Y274453D01*
X370720Y284869D01*
X376108Y290257D01*
X386524Y279841D01*
G37*
G36*
X392181Y285498D02*
X386793Y280110D01*
X376377Y290526D01*
X381765Y295914D01*
X392181Y285498D01*
G37*
G36*
X397837Y291155D02*
X392449Y285767D01*
X382033Y296183D01*
X387421Y301571D01*
X397837Y291155D01*
G37*
G36*
X403494Y296812D02*
X398106Y291424D01*
X387690Y301840D01*
X393078Y307228D01*
X403494Y296812D01*
G37*
D11*
G36*
X403494Y322948D02*
X393078Y312532D01*
X387690Y317920D01*
X398106Y328336D01*
X403494Y322948D01*
G37*
G36*
X397837Y328605D02*
X387421Y318189D01*
X382033Y323577D01*
X392449Y333993D01*
X397837Y328605D01*
G37*
G36*
X392181Y334262D02*
X381765Y323846D01*
X376377Y329234D01*
X386793Y339650D01*
X392181Y334262D01*
G37*
G36*
X386524Y339919D02*
X376108Y329503D01*
X370720Y334891D01*
X381136Y345307D01*
X386524Y339919D01*
G37*
G36*
X380867Y345576D02*
X370451Y335160D01*
X365063Y340548D01*
X375479Y350964D01*
X380867Y345576D01*
G37*
G36*
X375210Y351233D02*
X364794Y340817D01*
X359406Y346205D01*
X369822Y356621D01*
X375210Y351233D01*
G37*
G36*
X369553Y356889D02*
X359137Y346473D01*
X353749Y351861D01*
X364165Y362277D01*
X369553Y356889D01*
G37*
G36*
X363896Y362546D02*
X353480Y352130D01*
X348092Y357518D01*
X358508Y367934D01*
X363896Y362546D01*
G37*
D12*
G36*
X342788Y357518D02*
X337400Y352130D01*
X326984Y362546D01*
X332372Y367934D01*
X342788Y357518D01*
G37*
G36*
X337131Y351861D02*
X331743Y346473D01*
X321327Y356889D01*
X326715Y362277D01*
X337131Y351861D01*
G37*
G36*
X331474Y346205D02*
X326086Y340817D01*
X315670Y351233D01*
X321058Y356621D01*
X331474Y346205D01*
G37*
G36*
X325817Y340548D02*
X320429Y335160D01*
X310013Y345576D01*
X315401Y350964D01*
X325817Y340548D01*
G37*
G36*
X320160Y334891D02*
X314772Y329503D01*
X304356Y339919D01*
X309744Y345307D01*
X320160Y334891D01*
G37*
G36*
X314503Y329234D02*
X309115Y323846D01*
X298699Y334262D01*
X304087Y339650D01*
X314503Y329234D01*
G37*
G36*
X308847Y323577D02*
X303459Y318189D01*
X293043Y328605D01*
X298431Y333993D01*
X308847Y323577D01*
G37*
G36*
X303190Y317920D02*
X297802Y312532D01*
X287386Y322948D01*
X292774Y328336D01*
X303190Y317920D01*
G37*
D13*
X278740Y139700D03*
X259740Y139700D03*
X278740Y160020D03*
X259740Y160020D03*
D14*
X450090Y558550D03*
X450090Y581660D03*
X450090Y604770D03*
D15*
X388110Y581660D03*
D16*
X574000Y693600D03*
X569000Y693600D03*
X564000Y693600D03*
X559000Y693600D03*
X579000Y693600D03*
X584000Y693600D03*
D17*
X551000Y670600D03*
X551000Y665600D03*
X551000Y660600D03*
X551000Y675600D03*
X551000Y680600D03*
X591000Y670600D03*
X591000Y665600D03*
X591000Y660600D03*
X591000Y675600D03*
X591000Y680600D03*
D16*
X574000Y652600D03*
X569000Y652600D03*
X564000Y652600D03*
X559000Y652600D03*
X579000Y652600D03*
X584000Y652600D03*
D17*
X551000Y685600D03*
X591000Y685600D03*
D18*
X571500Y673100D03*
D19*
X536600Y610300D03*
X546100Y610300D03*
X555600Y610300D03*
X555600Y634300D03*
X546100Y634300D03*
X536600Y634300D03*
D20*
X515620Y335280D03*
X515620Y309880D03*
X490220Y335280D03*
X490220Y309880D03*
X464820Y335280D03*
X464820Y309880D03*
D13*
X438760Y416560D03*
X419760Y416560D03*
X438760Y452120D03*
X419760Y452120D03*
D21*
X229440Y665480D03*
X207440Y655980D03*
X207440Y674980D03*
D22*
X157480Y676300D03*
X157480Y695300D03*
D23*
X548640Y379730D03*
X604520Y379730D03*
X548640Y341630D03*
X604520Y341630D03*
D22*
X548640Y311760D03*
X548640Y292760D03*
D24*
X442522Y724408D03*
X417522Y724408D03*
X417522Y692780D03*
X442522Y692780D03*
D25*
X489966Y697738D03*
X369570Y697738D03*
D20*
X812800Y431800D03*
X838200Y431800D03*
X812800Y406400D03*
X838200Y406400D03*
X812800Y381000D03*
X838200Y381000D03*
X812800Y355600D03*
X838200Y355600D03*
X812800Y279400D03*
X838200Y279400D03*
X812800Y254000D03*
X838200Y254000D03*
X812800Y228600D03*
X838200Y228600D03*
X812800Y203200D03*
X838200Y203200D03*
X812800Y177800D03*
X838200Y177800D03*
X812800Y152400D03*
X838200Y152400D03*
X304800Y635000D03*
X304800Y609600D03*
X304800Y584200D03*
X304800Y558800D03*
X304800Y533400D03*
X304800Y508000D03*
D26*
X158080Y439420D03*
X106080Y439420D03*
X158080Y426720D03*
X158080Y452120D03*
X158080Y464820D03*
X106080Y426720D03*
X106080Y452120D03*
X106080Y464820D03*
X158080Y490220D03*
X106080Y490220D03*
X158080Y477520D03*
X158080Y502920D03*
X106080Y477520D03*
X106080Y502920D03*
D19*
X419760Y155640D03*
X429260Y155640D03*
X438760Y155640D03*
X438760Y179640D03*
X429260Y179640D03*
X419760Y179640D03*
D27*
X117000Y335100D03*
X122000Y335100D03*
X127000Y335100D03*
X132000Y335100D03*
X137000Y335100D03*
X137000Y376100D03*
X132000Y376100D03*
X127000Y376100D03*
X122000Y376100D03*
X117000Y376100D03*
D22*
X182880Y283820D03*
X182880Y264820D03*
X162560Y271120D03*
X162560Y252120D03*
X701040Y348640D03*
X701040Y367640D03*
X665480Y367640D03*
X665480Y348640D03*
X741680Y348640D03*
X741680Y367640D03*
X741680Y308000D03*
X741680Y327000D03*
X370840Y498500D03*
X370840Y517500D03*
X370840Y457860D03*
X370840Y476860D03*
X198120Y399440D03*
X198120Y418440D03*
X198120Y440080D03*
X198120Y459080D03*
X198120Y562000D03*
X198120Y581000D03*
X198120Y499720D03*
X198120Y480720D03*
X198120Y521360D03*
X198120Y540360D03*
X134620Y601320D03*
X134620Y582320D03*
X33020Y511200D03*
X33020Y530200D03*
X198120Y313080D03*
X198120Y332080D03*
X198120Y372720D03*
X198120Y353720D03*
X134620Y630580D03*
X134620Y649580D03*
X157480Y630580D03*
X157480Y649580D03*
X157480Y582320D03*
X157480Y601320D03*
D28*
X108340Y713740D02*
X93340Y713740D01*
D29*
X71565Y728740D03*
X71565Y698740D03*
X71565Y713740D03*
D13*
X42520Y701040D03*
X23520Y701040D03*
X42520Y723900D03*
X23520Y723900D03*
X483260Y609600D03*
X502260Y609600D03*
D22*
X134620Y676300D03*
X134620Y695300D03*
D26*
X62900Y294640D03*
X114900Y294640D03*
X62900Y307340D03*
X62900Y281940D03*
X62900Y269240D03*
X114900Y307340D03*
X114900Y281940D03*
X114900Y269240D03*
X62900Y243840D03*
X114900Y243840D03*
X62900Y256540D03*
X62900Y231140D03*
X114900Y256540D03*
X114900Y231140D03*
D22*
X33020Y460400D03*
X33020Y479400D03*
X33020Y417220D03*
X33020Y436220D03*
D13*
X483260Y586740D03*
X502260Y586740D03*
D22*
X220980Y372720D03*
X220980Y353720D03*
X220980Y332080D03*
X220980Y313080D03*
X33020Y306680D03*
X33020Y287680D03*
X33020Y266040D03*
X33020Y247040D03*
D30*
X50800Y609600D03*
X304800Y711200D03*
X304800Y457200D03*
X812800Y50800D03*
D31*
X469900Y50800D02*
X469900Y76200D01*
D30*
X812800Y711200D03*
D31*
X431800Y76200D02*
X431800Y50800D01*
D19*
X419760Y242000D03*
X429260Y242000D03*
X438760Y242000D03*
X438760Y266000D03*
X429260Y266000D03*
X419760Y266000D03*
X384200Y374080D03*
X393700Y374080D03*
X403200Y374080D03*
X403200Y398080D03*
X393700Y398080D03*
X384200Y398080D03*
D13*
X512420Y274320D03*
X493420Y274320D03*
X512420Y233680D03*
X493420Y233680D03*
X512420Y254000D03*
X493420Y254000D03*
X512420Y213360D03*
X493420Y213360D03*
X512420Y193040D03*
X493420Y193040D03*
X512420Y172720D03*
X493420Y172720D03*
X512420Y152400D03*
X493420Y152400D03*
X512420Y132080D03*
X493420Y132080D03*
D22*
X33020Y354940D03*
X33020Y335940D03*
X33020Y376580D03*
X33020Y395580D03*
X55880Y395580D03*
X55880Y376580D03*
X55880Y354940D03*
X55880Y335940D03*
D32*
X698500Y553780D03*
X673100Y553780D03*
X673100Y497780D03*
X698500Y497780D03*
X627380Y497780D03*
X652780Y497780D03*
X652780Y553780D03*
X627380Y553780D03*
D22*
X706120Y596240D03*
X706120Y577240D03*
D13*
X692760Y472440D03*
X673760Y472440D03*
D33*
X673100Y666360D03*
X673100Y649360D03*
X673100Y633340D03*
X673100Y616340D03*
D34*
X533400Y736600D03*
X558800Y736600D03*
X584200Y736600D03*
X609600Y736600D03*
D13*
X622960Y652780D03*
X641960Y652780D03*
D22*
X640080Y610260D03*
X640080Y629260D03*
X617220Y629260D03*
X617220Y610260D03*
X576580Y631800D03*
X576580Y612800D03*
X576580Y559460D03*
X576580Y578460D03*
X553720Y559460D03*
X553720Y578460D03*
X586740Y457860D03*
X586740Y476860D03*
X607060Y457860D03*
X607060Y476860D03*
X627380Y457860D03*
X627380Y476860D03*
D30*
X304800Y50800D03*
D20*
X162560Y741680D03*
X187960Y741680D03*
X213360Y741680D03*
X238760Y741680D03*
X264160Y741680D03*
D35*
X117348Y398780D03*
X109220Y398780D03*
X101092Y398780D03*
D36*
X403860Y452120D03*
X403860Y416560D03*
X622300Y381000D03*
X533400Y381000D03*
X157480Y568960D03*
X193040Y655320D03*
X88900Y464820D03*
X30480Y495300D03*
X134620Y711200D03*
X20320Y685800D03*
X111760Y736600D03*
X132080Y269240D03*
X33020Y233680D03*
X243840Y160020D03*
X243840Y139700D03*
X429260Y167640D03*
X429260Y254000D03*
X393700Y386080D03*
X33020Y322580D03*
D37*
X309880Y269240D03*
X297681Y279901D03*
D36*
X469900Y558800D03*
X383694Y355446D03*
X220980Y386080D03*
X215900Y467360D03*
X754380Y304800D03*
X652780Y375920D03*
X365760Y444500D03*
X652780Y485140D03*
X706120Y472440D03*
X510540Y568960D03*
X502920Y622300D03*
X106680Y372336D03*
X535940Y347980D03*
X347980Y607060D03*
X264160Y627380D03*
X449580Y368300D03*
X421640Y340360D03*
X55880Y698500D03*
X55880Y678180D03*
X109220Y553720D03*
X81280Y274320D03*
X256540Y670560D03*
X393700Y352483D03*
X388620Y518160D03*
X388620Y421640D03*
X360680Y381000D03*
X193040Y688340D03*
X218696Y510796D03*
X269240Y487680D03*
X198120Y386080D03*
X449580Y434340D03*
X259080Y482600D03*
X210820Y505460D03*
X294640Y368300D03*
X447040Y401320D03*
X513080Y388620D03*
X474980Y391160D03*
X226060Y444500D03*
X165100Y406400D03*
D37*
X71120Y322580D03*
X71120Y396240D03*
D36*
X182880Y454660D03*
X297180Y342900D03*
X655320Y439420D03*
X289560Y335280D03*
X584200Y429260D03*
X347980Y350520D03*
X327660Y370840D03*
X243840Y467360D03*
X162560Y515620D03*
X350520Y365760D03*
X337820Y378460D03*
X252250Y472440D03*
X129540Y520700D03*
X350520Y474980D03*
X350520Y419100D03*
X224310Y406400D03*
X246380Y406400D03*
X718820Y347980D03*
X670560Y383540D03*
X394439Y364520D03*
X416560Y370840D03*
X546100Y599440D03*
X576580Y596900D03*
X540940Y683260D03*
X655320Y607060D03*
X665480Y563880D03*
X706120Y609600D03*
D37*
X220980Y297180D03*
D36*
X406400Y213360D03*
X88900Y403860D03*
X119380Y386660D03*
X170180Y617220D03*
X121920Y566420D03*
X88900Y477520D03*
X345440Y629920D03*
X406400Y528320D03*
X706120Y419100D03*
X88900Y426720D03*
X447040Y241300D03*
X462280Y254000D03*
X284480Y302260D03*
X281940Y327660D03*
X398780Y271780D03*
X449580Y231140D03*
X289130Y284050D03*
X360680Y248920D03*
X398780Y243840D03*
X368300Y200660D03*
X401320Y203200D03*
X449580Y177800D03*
X401320Y177800D03*
X449580Y157480D03*
X408940Y157480D03*
X411480Y193040D03*
X154940Y358140D03*
X541020Y660400D03*
X627380Y683260D03*
X612140Y675640D03*
X604520Y683260D03*
X525780Y683260D03*
X523240Y660400D03*
X492760Y650240D03*
X546100Y650240D03*
M02*
