G04 EAGLE Gerber X2 export*
%TF.Part,Single*%
%TF.FileFunction,Profile,NP*%
%TF.FilePolarity,Positive*%
%TF.GenerationSoftware,Autodesk,EAGLE,9.1.2*%
%TF.CreationDate,2019-11-04T22:46:01Z*%
G75*
%MOMM*%
%FSLAX34Y34*%
%LPD*%
%AMOC8*
5,1,8,0,0,1.08239X$1,22.5*%
G01*
%ADD10C,0.254000*%


D10*
X0Y0D02*
X1139700Y0D01*
X1139700Y761900D01*
X0Y761900D01*
X0Y0D01*
X61200Y506800D02*
X91200Y506800D01*
X91200Y514800D01*
X61200Y514800D01*
X61200Y506800D01*
X42200Y543800D02*
X50200Y543800D01*
X50200Y573800D01*
X42200Y573800D01*
X42200Y543800D01*
X101200Y541300D02*
X111200Y541300D01*
X111200Y576300D01*
X101200Y576300D01*
X101200Y541300D01*
X409280Y550840D02*
X425280Y550840D01*
X425280Y571840D01*
X409280Y571840D01*
X409280Y550840D01*
X499280Y550840D02*
X515280Y550840D01*
X515280Y571840D01*
X499280Y571840D01*
X499280Y550840D01*
X346880Y550840D02*
X362880Y550840D01*
X362880Y571840D01*
X346880Y571840D01*
X346880Y550840D01*
X256880Y550840D02*
X272880Y550840D01*
X272880Y571840D01*
X256880Y571840D01*
X256880Y550840D01*
X64800Y50300D02*
X64729Y49303D01*
X64586Y48313D01*
X64374Y47336D01*
X64092Y46376D01*
X63743Y45439D01*
X63327Y44529D01*
X62848Y43652D01*
X62307Y42810D01*
X61708Y42010D01*
X61053Y41254D01*
X60346Y40547D01*
X59590Y39892D01*
X58790Y39293D01*
X57948Y38752D01*
X57071Y38273D01*
X56161Y37857D01*
X55224Y37508D01*
X54265Y37226D01*
X53287Y37014D01*
X52298Y36871D01*
X51300Y36800D01*
X50300Y36800D01*
X49303Y36871D01*
X48313Y37014D01*
X47336Y37226D01*
X46376Y37508D01*
X45439Y37857D01*
X44529Y38273D01*
X43652Y38752D01*
X42810Y39293D01*
X42010Y39892D01*
X41254Y40547D01*
X40547Y41254D01*
X39892Y42010D01*
X39293Y42810D01*
X38752Y43652D01*
X38273Y44529D01*
X37857Y45439D01*
X37508Y46376D01*
X37226Y47336D01*
X37014Y48313D01*
X36871Y49303D01*
X36800Y50300D01*
X36800Y51300D01*
X36871Y52298D01*
X37014Y53287D01*
X37226Y54265D01*
X37508Y55224D01*
X37857Y56161D01*
X38273Y57071D01*
X38752Y57948D01*
X39293Y58790D01*
X39892Y59590D01*
X40547Y60346D01*
X41254Y61053D01*
X42010Y61708D01*
X42810Y62307D01*
X43652Y62848D01*
X44529Y63327D01*
X45439Y63743D01*
X46376Y64092D01*
X47336Y64374D01*
X48313Y64586D01*
X49303Y64729D01*
X50300Y64800D01*
X51300Y64800D01*
X52298Y64729D01*
X53287Y64586D01*
X54265Y64374D01*
X55224Y64092D01*
X56161Y63743D01*
X57071Y63327D01*
X57948Y62848D01*
X58790Y62307D01*
X59590Y61708D01*
X60346Y61053D01*
X61053Y60346D01*
X61708Y59590D01*
X62307Y58790D01*
X62848Y57948D01*
X63327Y57071D01*
X63743Y56161D01*
X64092Y55224D01*
X64374Y54265D01*
X64586Y53287D01*
X64729Y52298D01*
X64800Y51300D01*
X64800Y50300D01*
X1106200Y710700D02*
X1106129Y709703D01*
X1105986Y708713D01*
X1105774Y707736D01*
X1105492Y706776D01*
X1105143Y705839D01*
X1104727Y704929D01*
X1104248Y704052D01*
X1103707Y703210D01*
X1103108Y702410D01*
X1102453Y701654D01*
X1101746Y700947D01*
X1100990Y700292D01*
X1100190Y699693D01*
X1099348Y699152D01*
X1098471Y698673D01*
X1097561Y698257D01*
X1096624Y697908D01*
X1095665Y697626D01*
X1094687Y697414D01*
X1093698Y697271D01*
X1092700Y697200D01*
X1091700Y697200D01*
X1090703Y697271D01*
X1089713Y697414D01*
X1088736Y697626D01*
X1087776Y697908D01*
X1086839Y698257D01*
X1085929Y698673D01*
X1085052Y699152D01*
X1084210Y699693D01*
X1083410Y700292D01*
X1082654Y700947D01*
X1081947Y701654D01*
X1081292Y702410D01*
X1080693Y703210D01*
X1080152Y704052D01*
X1079673Y704929D01*
X1079257Y705839D01*
X1078908Y706776D01*
X1078626Y707736D01*
X1078414Y708713D01*
X1078271Y709703D01*
X1078200Y710700D01*
X1078200Y711700D01*
X1078271Y712698D01*
X1078414Y713687D01*
X1078626Y714665D01*
X1078908Y715624D01*
X1079257Y716561D01*
X1079673Y717471D01*
X1080152Y718348D01*
X1080693Y719190D01*
X1081292Y719990D01*
X1081947Y720746D01*
X1082654Y721453D01*
X1083410Y722108D01*
X1084210Y722707D01*
X1085052Y723248D01*
X1085929Y723727D01*
X1086839Y724143D01*
X1087776Y724492D01*
X1088736Y724774D01*
X1089713Y724986D01*
X1090703Y725129D01*
X1091700Y725200D01*
X1092700Y725200D01*
X1093698Y725129D01*
X1094687Y724986D01*
X1095665Y724774D01*
X1096624Y724492D01*
X1097561Y724143D01*
X1098471Y723727D01*
X1099348Y723248D01*
X1100190Y722707D01*
X1100990Y722108D01*
X1101746Y721453D01*
X1102453Y720746D01*
X1103108Y719990D01*
X1103707Y719190D01*
X1104248Y718348D01*
X1104727Y717471D01*
X1105143Y716561D01*
X1105492Y715624D01*
X1105774Y714665D01*
X1105986Y713687D01*
X1106129Y712698D01*
X1106200Y711700D01*
X1106200Y710700D01*
X1106200Y50300D02*
X1106129Y49303D01*
X1105986Y48313D01*
X1105774Y47336D01*
X1105492Y46376D01*
X1105143Y45439D01*
X1104727Y44529D01*
X1104248Y43652D01*
X1103707Y42810D01*
X1103108Y42010D01*
X1102453Y41254D01*
X1101746Y40547D01*
X1100990Y39892D01*
X1100190Y39293D01*
X1099348Y38752D01*
X1098471Y38273D01*
X1097561Y37857D01*
X1096624Y37508D01*
X1095665Y37226D01*
X1094687Y37014D01*
X1093698Y36871D01*
X1092700Y36800D01*
X1091700Y36800D01*
X1090703Y36871D01*
X1089713Y37014D01*
X1088736Y37226D01*
X1087776Y37508D01*
X1086839Y37857D01*
X1085929Y38273D01*
X1085052Y38752D01*
X1084210Y39293D01*
X1083410Y39892D01*
X1082654Y40547D01*
X1081947Y41254D01*
X1081292Y42010D01*
X1080693Y42810D01*
X1080152Y43652D01*
X1079673Y44529D01*
X1079257Y45439D01*
X1078908Y46376D01*
X1078626Y47336D01*
X1078414Y48313D01*
X1078271Y49303D01*
X1078200Y50300D01*
X1078200Y51300D01*
X1078271Y52298D01*
X1078414Y53287D01*
X1078626Y54265D01*
X1078908Y55224D01*
X1079257Y56161D01*
X1079673Y57071D01*
X1080152Y57948D01*
X1080693Y58790D01*
X1081292Y59590D01*
X1081947Y60346D01*
X1082654Y61053D01*
X1083410Y61708D01*
X1084210Y62307D01*
X1085052Y62848D01*
X1085929Y63327D01*
X1086839Y63743D01*
X1087776Y64092D01*
X1088736Y64374D01*
X1089713Y64586D01*
X1090703Y64729D01*
X1091700Y64800D01*
X1092700Y64800D01*
X1093698Y64729D01*
X1094687Y64586D01*
X1095665Y64374D01*
X1096624Y64092D01*
X1097561Y63743D01*
X1098471Y63327D01*
X1099348Y62848D01*
X1100190Y62307D01*
X1100990Y61708D01*
X1101746Y61053D01*
X1102453Y60346D01*
X1103108Y59590D01*
X1103707Y58790D01*
X1104248Y57948D01*
X1104727Y57071D01*
X1105143Y56161D01*
X1105492Y55224D01*
X1105774Y54265D01*
X1105986Y53287D01*
X1106129Y52298D01*
X1106200Y51300D01*
X1106200Y50300D01*
X64800Y710700D02*
X64729Y709703D01*
X64586Y708713D01*
X64374Y707736D01*
X64092Y706776D01*
X63743Y705839D01*
X63327Y704929D01*
X62848Y704052D01*
X62307Y703210D01*
X61708Y702410D01*
X61053Y701654D01*
X60346Y700947D01*
X59590Y700292D01*
X58790Y699693D01*
X57948Y699152D01*
X57071Y698673D01*
X56161Y698257D01*
X55224Y697908D01*
X54265Y697626D01*
X53287Y697414D01*
X52298Y697271D01*
X51300Y697200D01*
X50300Y697200D01*
X49303Y697271D01*
X48313Y697414D01*
X47336Y697626D01*
X46376Y697908D01*
X45439Y698257D01*
X44529Y698673D01*
X43652Y699152D01*
X42810Y699693D01*
X42010Y700292D01*
X41254Y700947D01*
X40547Y701654D01*
X39892Y702410D01*
X39293Y703210D01*
X38752Y704052D01*
X38273Y704929D01*
X37857Y705839D01*
X37508Y706776D01*
X37226Y707736D01*
X37014Y708713D01*
X36871Y709703D01*
X36800Y710700D01*
X36800Y711700D01*
X36871Y712698D01*
X37014Y713687D01*
X37226Y714665D01*
X37508Y715624D01*
X37857Y716561D01*
X38273Y717471D01*
X38752Y718348D01*
X39293Y719190D01*
X39892Y719990D01*
X40547Y720746D01*
X41254Y721453D01*
X42010Y722108D01*
X42810Y722707D01*
X43652Y723248D01*
X44529Y723727D01*
X45439Y724143D01*
X46376Y724492D01*
X47336Y724774D01*
X48313Y724986D01*
X49303Y725129D01*
X50300Y725200D01*
X51300Y725200D01*
X52298Y725129D01*
X53287Y724986D01*
X54265Y724774D01*
X55224Y724492D01*
X56161Y724143D01*
X57071Y723727D01*
X57948Y723248D01*
X58790Y722707D01*
X59590Y722108D01*
X60346Y721453D01*
X61053Y720746D01*
X61708Y719990D01*
X62307Y719190D01*
X62848Y718348D01*
X63327Y717471D01*
X63743Y716561D01*
X64092Y715624D01*
X64374Y714665D01*
X64586Y713687D01*
X64729Y712698D01*
X64800Y711700D01*
X64800Y710700D01*
X565350Y710921D02*
X565277Y710369D01*
X565133Y709831D01*
X564920Y709316D01*
X564641Y708834D01*
X564302Y708392D01*
X563908Y707998D01*
X563466Y707659D01*
X562984Y707380D01*
X562469Y707167D01*
X561931Y707023D01*
X561379Y706950D01*
X560821Y706950D01*
X560269Y707023D01*
X559731Y707167D01*
X559216Y707380D01*
X558734Y707659D01*
X558292Y707998D01*
X557898Y708392D01*
X557559Y708834D01*
X557280Y709316D01*
X557067Y709831D01*
X556923Y710369D01*
X556850Y710921D01*
X556850Y711479D01*
X556923Y712031D01*
X557067Y712569D01*
X557280Y713084D01*
X557559Y713566D01*
X557898Y714008D01*
X558292Y714402D01*
X558734Y714741D01*
X559216Y715020D01*
X559731Y715233D01*
X560269Y715377D01*
X560821Y715450D01*
X561379Y715450D01*
X561931Y715377D01*
X562469Y715233D01*
X562984Y715020D01*
X563466Y714741D01*
X563908Y714402D01*
X564302Y714008D01*
X564641Y713566D01*
X564920Y713084D01*
X565133Y712569D01*
X565277Y712031D01*
X565350Y711479D01*
X565350Y710921D01*
X535350Y710921D02*
X535277Y710369D01*
X535133Y709831D01*
X534920Y709316D01*
X534641Y708834D01*
X534302Y708392D01*
X533908Y707998D01*
X533466Y707659D01*
X532984Y707380D01*
X532469Y707167D01*
X531931Y707023D01*
X531379Y706950D01*
X530821Y706950D01*
X530269Y707023D01*
X529731Y707167D01*
X529216Y707380D01*
X528734Y707659D01*
X528292Y707998D01*
X527898Y708392D01*
X527559Y708834D01*
X527280Y709316D01*
X527067Y709831D01*
X526923Y710369D01*
X526850Y710921D01*
X526850Y711479D01*
X526923Y712031D01*
X527067Y712569D01*
X527280Y713084D01*
X527559Y713566D01*
X527898Y714008D01*
X528292Y714402D01*
X528734Y714741D01*
X529216Y715020D01*
X529731Y715233D01*
X530269Y715377D01*
X530821Y715450D01*
X531379Y715450D01*
X531931Y715377D01*
X532469Y715233D01*
X532984Y715020D01*
X533466Y714741D01*
X533908Y714402D01*
X534302Y714008D01*
X534641Y713566D01*
X534920Y713084D01*
X535133Y712569D01*
X535277Y712031D01*
X535350Y711479D01*
X535350Y710921D01*
X412950Y710921D02*
X412877Y710369D01*
X412733Y709831D01*
X412520Y709316D01*
X412241Y708834D01*
X411902Y708392D01*
X411508Y707998D01*
X411066Y707659D01*
X410584Y707380D01*
X410069Y707167D01*
X409531Y707023D01*
X408979Y706950D01*
X408421Y706950D01*
X407869Y707023D01*
X407331Y707167D01*
X406816Y707380D01*
X406334Y707659D01*
X405892Y707998D01*
X405498Y708392D01*
X405159Y708834D01*
X404880Y709316D01*
X404667Y709831D01*
X404523Y710369D01*
X404450Y710921D01*
X404450Y711479D01*
X404523Y712031D01*
X404667Y712569D01*
X404880Y713084D01*
X405159Y713566D01*
X405498Y714008D01*
X405892Y714402D01*
X406334Y714741D01*
X406816Y715020D01*
X407331Y715233D01*
X407869Y715377D01*
X408421Y715450D01*
X408979Y715450D01*
X409531Y715377D01*
X410069Y715233D01*
X410584Y715020D01*
X411066Y714741D01*
X411508Y714402D01*
X411902Y714008D01*
X412241Y713566D01*
X412520Y713084D01*
X412733Y712569D01*
X412877Y712031D01*
X412950Y711479D01*
X412950Y710921D01*
X382950Y710921D02*
X382877Y710369D01*
X382733Y709831D01*
X382520Y709316D01*
X382241Y708834D01*
X381902Y708392D01*
X381508Y707998D01*
X381066Y707659D01*
X380584Y707380D01*
X380069Y707167D01*
X379531Y707023D01*
X378979Y706950D01*
X378421Y706950D01*
X377869Y707023D01*
X377331Y707167D01*
X376816Y707380D01*
X376334Y707659D01*
X375892Y707998D01*
X375498Y708392D01*
X375159Y708834D01*
X374880Y709316D01*
X374667Y709831D01*
X374523Y710369D01*
X374450Y710921D01*
X374450Y711479D01*
X374523Y712031D01*
X374667Y712569D01*
X374880Y713084D01*
X375159Y713566D01*
X375498Y714008D01*
X375892Y714402D01*
X376334Y714741D01*
X376816Y715020D01*
X377331Y715233D01*
X377869Y715377D01*
X378421Y715450D01*
X378979Y715450D01*
X379531Y715377D01*
X380069Y715233D01*
X380584Y715020D01*
X381066Y714741D01*
X381508Y714402D01*
X381902Y714008D01*
X382241Y713566D01*
X382520Y713084D01*
X382733Y712569D01*
X382877Y712031D01*
X382950Y711479D01*
X382950Y710921D01*
X717750Y710921D02*
X717677Y710369D01*
X717533Y709831D01*
X717320Y709316D01*
X717041Y708834D01*
X716702Y708392D01*
X716308Y707998D01*
X715866Y707659D01*
X715384Y707380D01*
X714869Y707167D01*
X714331Y707023D01*
X713779Y706950D01*
X713221Y706950D01*
X712669Y707023D01*
X712131Y707167D01*
X711616Y707380D01*
X711134Y707659D01*
X710692Y707998D01*
X710298Y708392D01*
X709959Y708834D01*
X709680Y709316D01*
X709467Y709831D01*
X709323Y710369D01*
X709250Y710921D01*
X709250Y711479D01*
X709323Y712031D01*
X709467Y712569D01*
X709680Y713084D01*
X709959Y713566D01*
X710298Y714008D01*
X710692Y714402D01*
X711134Y714741D01*
X711616Y715020D01*
X712131Y715233D01*
X712669Y715377D01*
X713221Y715450D01*
X713779Y715450D01*
X714331Y715377D01*
X714869Y715233D01*
X715384Y715020D01*
X715866Y714741D01*
X716308Y714402D01*
X716702Y714008D01*
X717041Y713566D01*
X717320Y713084D01*
X717533Y712569D01*
X717677Y712031D01*
X717750Y711479D01*
X717750Y710921D01*
X687750Y710921D02*
X687677Y710369D01*
X687533Y709831D01*
X687320Y709316D01*
X687041Y708834D01*
X686702Y708392D01*
X686308Y707998D01*
X685866Y707659D01*
X685384Y707380D01*
X684869Y707167D01*
X684331Y707023D01*
X683779Y706950D01*
X683221Y706950D01*
X682669Y707023D01*
X682131Y707167D01*
X681616Y707380D01*
X681134Y707659D01*
X680692Y707998D01*
X680298Y708392D01*
X679959Y708834D01*
X679680Y709316D01*
X679467Y709831D01*
X679323Y710369D01*
X679250Y710921D01*
X679250Y711479D01*
X679323Y712031D01*
X679467Y712569D01*
X679680Y713084D01*
X679959Y713566D01*
X680298Y714008D01*
X680692Y714402D01*
X681134Y714741D01*
X681616Y715020D01*
X682131Y715233D01*
X682669Y715377D01*
X683221Y715450D01*
X683779Y715450D01*
X684331Y715377D01*
X684869Y715233D01*
X685384Y715020D01*
X685866Y714741D01*
X686308Y714402D01*
X686702Y714008D01*
X687041Y713566D01*
X687320Y713084D01*
X687533Y712569D01*
X687677Y712031D01*
X687750Y711479D01*
X687750Y710921D01*
X224750Y736196D02*
X224680Y735391D01*
X224539Y734596D01*
X224330Y733816D01*
X224054Y733057D01*
X223713Y732325D01*
X223309Y731625D01*
X222846Y730964D01*
X222326Y730345D01*
X221755Y729774D01*
X221136Y729255D01*
X220475Y728791D01*
X219775Y728387D01*
X219043Y728046D01*
X218284Y727770D01*
X217504Y727561D01*
X216709Y727420D01*
X215904Y727350D01*
X215096Y727350D01*
X214291Y727420D01*
X213496Y727561D01*
X212716Y727770D01*
X211957Y728046D01*
X211225Y728387D01*
X210525Y728791D01*
X209864Y729255D01*
X209245Y729774D01*
X208674Y730345D01*
X208155Y730964D01*
X207691Y731625D01*
X207287Y732325D01*
X206946Y733057D01*
X206670Y733816D01*
X206461Y734596D01*
X206320Y735391D01*
X206250Y736196D01*
X206250Y737004D01*
X206320Y737809D01*
X206461Y738604D01*
X206670Y739384D01*
X206946Y740143D01*
X207287Y740875D01*
X207691Y741575D01*
X208155Y742236D01*
X208674Y742855D01*
X209245Y743426D01*
X209864Y743946D01*
X210525Y744409D01*
X211225Y744813D01*
X211957Y745154D01*
X212716Y745430D01*
X213496Y745639D01*
X214291Y745780D01*
X215096Y745850D01*
X215904Y745850D01*
X216709Y745780D01*
X217504Y745639D01*
X218284Y745430D01*
X219043Y745154D01*
X219775Y744813D01*
X220475Y744409D01*
X221136Y743946D01*
X221755Y743426D01*
X222326Y742855D01*
X222846Y742236D01*
X223309Y741575D01*
X223713Y740875D01*
X224054Y740143D01*
X224330Y739384D01*
X224539Y738604D01*
X224680Y737809D01*
X224750Y737004D01*
X224750Y736196D01*
X174750Y736196D02*
X174680Y735391D01*
X174539Y734596D01*
X174330Y733816D01*
X174054Y733057D01*
X173713Y732325D01*
X173309Y731625D01*
X172846Y730964D01*
X172326Y730345D01*
X171755Y729774D01*
X171136Y729255D01*
X170475Y728791D01*
X169775Y728387D01*
X169043Y728046D01*
X168284Y727770D01*
X167504Y727561D01*
X166709Y727420D01*
X165904Y727350D01*
X165096Y727350D01*
X164291Y727420D01*
X163496Y727561D01*
X162716Y727770D01*
X161957Y728046D01*
X161225Y728387D01*
X160525Y728791D01*
X159864Y729255D01*
X159245Y729774D01*
X158674Y730345D01*
X158155Y730964D01*
X157691Y731625D01*
X157287Y732325D01*
X156946Y733057D01*
X156670Y733816D01*
X156461Y734596D01*
X156320Y735391D01*
X156250Y736196D01*
X156250Y737004D01*
X156320Y737809D01*
X156461Y738604D01*
X156670Y739384D01*
X156946Y740143D01*
X157287Y740875D01*
X157691Y741575D01*
X158155Y742236D01*
X158674Y742855D01*
X159245Y743426D01*
X159864Y743946D01*
X160525Y744409D01*
X161225Y744813D01*
X161957Y745154D01*
X162716Y745430D01*
X163496Y745639D01*
X164291Y745780D01*
X165096Y745850D01*
X165904Y745850D01*
X166709Y745780D01*
X167504Y745639D01*
X168284Y745430D01*
X169043Y745154D01*
X169775Y744813D01*
X170475Y744409D01*
X171136Y743946D01*
X171755Y743426D01*
X172326Y742855D01*
X172846Y742236D01*
X173309Y741575D01*
X173713Y740875D01*
X174054Y740143D01*
X174330Y739384D01*
X174539Y738604D01*
X174680Y737809D01*
X174750Y737004D01*
X174750Y736196D01*
X1106200Y456700D02*
X1106129Y455703D01*
X1105986Y454713D01*
X1105774Y453736D01*
X1105492Y452776D01*
X1105143Y451839D01*
X1104727Y450929D01*
X1104248Y450052D01*
X1103707Y449210D01*
X1103108Y448410D01*
X1102453Y447654D01*
X1101746Y446947D01*
X1100990Y446292D01*
X1100190Y445693D01*
X1099348Y445152D01*
X1098471Y444673D01*
X1097561Y444257D01*
X1096624Y443908D01*
X1095665Y443626D01*
X1094687Y443414D01*
X1093698Y443271D01*
X1092700Y443200D01*
X1091700Y443200D01*
X1090703Y443271D01*
X1089713Y443414D01*
X1088736Y443626D01*
X1087776Y443908D01*
X1086839Y444257D01*
X1085929Y444673D01*
X1085052Y445152D01*
X1084210Y445693D01*
X1083410Y446292D01*
X1082654Y446947D01*
X1081947Y447654D01*
X1081292Y448410D01*
X1080693Y449210D01*
X1080152Y450052D01*
X1079673Y450929D01*
X1079257Y451839D01*
X1078908Y452776D01*
X1078626Y453736D01*
X1078414Y454713D01*
X1078271Y455703D01*
X1078200Y456700D01*
X1078200Y457700D01*
X1078271Y458698D01*
X1078414Y459687D01*
X1078626Y460665D01*
X1078908Y461624D01*
X1079257Y462561D01*
X1079673Y463471D01*
X1080152Y464348D01*
X1080693Y465190D01*
X1081292Y465990D01*
X1081947Y466746D01*
X1082654Y467453D01*
X1083410Y468108D01*
X1084210Y468707D01*
X1085052Y469248D01*
X1085929Y469727D01*
X1086839Y470143D01*
X1087776Y470492D01*
X1088736Y470774D01*
X1089713Y470986D01*
X1090703Y471129D01*
X1091700Y471200D01*
X1092700Y471200D01*
X1093698Y471129D01*
X1094687Y470986D01*
X1095665Y470774D01*
X1096624Y470492D01*
X1097561Y470143D01*
X1098471Y469727D01*
X1099348Y469248D01*
X1100190Y468707D01*
X1100990Y468108D01*
X1101746Y467453D01*
X1102453Y466746D01*
X1103108Y465990D01*
X1103707Y465190D01*
X1104248Y464348D01*
X1104727Y463471D01*
X1105143Y462561D01*
X1105492Y461624D01*
X1105774Y460665D01*
X1105986Y459687D01*
X1106129Y458698D01*
X1106200Y457700D01*
X1106200Y456700D01*
X852200Y609100D02*
X852129Y608103D01*
X851986Y607113D01*
X851774Y606136D01*
X851492Y605176D01*
X851143Y604239D01*
X850727Y603329D01*
X850248Y602452D01*
X849707Y601610D01*
X849108Y600810D01*
X848453Y600054D01*
X847746Y599347D01*
X846990Y598692D01*
X846190Y598093D01*
X845348Y597552D01*
X844471Y597073D01*
X843561Y596657D01*
X842624Y596308D01*
X841665Y596026D01*
X840687Y595814D01*
X839698Y595671D01*
X838700Y595600D01*
X837700Y595600D01*
X836703Y595671D01*
X835713Y595814D01*
X834736Y596026D01*
X833776Y596308D01*
X832839Y596657D01*
X831929Y597073D01*
X831052Y597552D01*
X830210Y598093D01*
X829410Y598692D01*
X828654Y599347D01*
X827947Y600054D01*
X827292Y600810D01*
X826693Y601610D01*
X826152Y602452D01*
X825673Y603329D01*
X825257Y604239D01*
X824908Y605176D01*
X824626Y606136D01*
X824414Y607113D01*
X824271Y608103D01*
X824200Y609100D01*
X824200Y610100D01*
X824271Y611098D01*
X824414Y612087D01*
X824626Y613065D01*
X824908Y614024D01*
X825257Y614961D01*
X825673Y615871D01*
X826152Y616748D01*
X826693Y617590D01*
X827292Y618390D01*
X827947Y619146D01*
X828654Y619853D01*
X829410Y620508D01*
X830210Y621107D01*
X831052Y621648D01*
X831929Y622127D01*
X832839Y622543D01*
X833776Y622892D01*
X834736Y623174D01*
X835713Y623386D01*
X836703Y623529D01*
X837700Y623600D01*
X838700Y623600D01*
X839698Y623529D01*
X840687Y623386D01*
X841665Y623174D01*
X842624Y622892D01*
X843561Y622543D01*
X844471Y622127D01*
X845348Y621648D01*
X846190Y621107D01*
X846990Y620508D01*
X847746Y619853D01*
X848453Y619146D01*
X849108Y618390D01*
X849707Y617590D01*
X850248Y616748D01*
X850727Y615871D01*
X851143Y614961D01*
X851492Y614024D01*
X851774Y613065D01*
X851986Y612087D01*
X852129Y611098D01*
X852200Y610100D01*
X852200Y609100D01*
M02*
