G04 EAGLE Gerber X2 export*
%TF.Part,Single*%
%TF.FileFunction,Legend,Bot,1*%
%TF.FilePolarity,Positive*%
%TF.GenerationSoftware,Autodesk,EAGLE,9.1.2*%
%TF.CreationDate,2019-11-04T22:46:01Z*%
G75*
%MOMM*%
%FSLAX34Y34*%
%LPD*%
%AMOC8*
5,1,8,0,0,1.08239X$1,22.5*%
G01*
%ADD10C,0.152400*%
%ADD11C,0.025400*%
%ADD12C,0.254000*%


D10*
X1002030Y749300D02*
X1002030Y698500D01*
X1002030Y588010D01*
X889000Y588010D01*
X889000Y698500D01*
X889000Y749300D01*
X1002030Y749300D01*
X1002030Y698500D02*
X889000Y698500D01*
X916940Y723900D02*
X916943Y724149D01*
X916952Y724399D01*
X916968Y724647D01*
X916989Y724896D01*
X917016Y725144D01*
X917050Y725391D01*
X917090Y725637D01*
X917135Y725882D01*
X917187Y726126D01*
X917244Y726369D01*
X917308Y726610D01*
X917377Y726849D01*
X917453Y727087D01*
X917534Y727323D01*
X917621Y727557D01*
X917713Y727788D01*
X917812Y728017D01*
X917915Y728244D01*
X918025Y728468D01*
X918140Y728689D01*
X918260Y728908D01*
X918385Y729123D01*
X918516Y729336D01*
X918652Y729545D01*
X918793Y729750D01*
X918939Y729952D01*
X919090Y730151D01*
X919246Y730345D01*
X919407Y730536D01*
X919572Y730723D01*
X919742Y730906D01*
X919916Y731084D01*
X920094Y731258D01*
X920277Y731428D01*
X920464Y731593D01*
X920655Y731754D01*
X920849Y731910D01*
X921048Y732061D01*
X921250Y732207D01*
X921455Y732348D01*
X921664Y732484D01*
X921877Y732615D01*
X922092Y732740D01*
X922311Y732860D01*
X922532Y732975D01*
X922756Y733085D01*
X922983Y733188D01*
X923212Y733287D01*
X923443Y733379D01*
X923677Y733466D01*
X923913Y733547D01*
X924151Y733623D01*
X924390Y733692D01*
X924631Y733756D01*
X924874Y733813D01*
X925118Y733865D01*
X925363Y733910D01*
X925609Y733950D01*
X925856Y733984D01*
X926104Y734011D01*
X926353Y734032D01*
X926601Y734048D01*
X926851Y734057D01*
X927100Y734060D01*
X927349Y734057D01*
X927599Y734048D01*
X927847Y734032D01*
X928096Y734011D01*
X928344Y733984D01*
X928591Y733950D01*
X928837Y733910D01*
X929082Y733865D01*
X929326Y733813D01*
X929569Y733756D01*
X929810Y733692D01*
X930049Y733623D01*
X930287Y733547D01*
X930523Y733466D01*
X930757Y733379D01*
X930988Y733287D01*
X931217Y733188D01*
X931444Y733085D01*
X931668Y732975D01*
X931889Y732860D01*
X932108Y732740D01*
X932323Y732615D01*
X932536Y732484D01*
X932745Y732348D01*
X932950Y732207D01*
X933152Y732061D01*
X933351Y731910D01*
X933545Y731754D01*
X933736Y731593D01*
X933923Y731428D01*
X934106Y731258D01*
X934284Y731084D01*
X934458Y730906D01*
X934628Y730723D01*
X934793Y730536D01*
X934954Y730345D01*
X935110Y730151D01*
X935261Y729952D01*
X935407Y729750D01*
X935548Y729545D01*
X935684Y729336D01*
X935815Y729123D01*
X935940Y728908D01*
X936060Y728689D01*
X936175Y728468D01*
X936285Y728244D01*
X936388Y728017D01*
X936487Y727788D01*
X936579Y727557D01*
X936666Y727323D01*
X936747Y727087D01*
X936823Y726849D01*
X936892Y726610D01*
X936956Y726369D01*
X937013Y726126D01*
X937065Y725882D01*
X937110Y725637D01*
X937150Y725391D01*
X937184Y725144D01*
X937211Y724896D01*
X937232Y724647D01*
X937248Y724399D01*
X937257Y724149D01*
X937260Y723900D01*
X937257Y723651D01*
X937248Y723401D01*
X937232Y723153D01*
X937211Y722904D01*
X937184Y722656D01*
X937150Y722409D01*
X937110Y722163D01*
X937065Y721918D01*
X937013Y721674D01*
X936956Y721431D01*
X936892Y721190D01*
X936823Y720951D01*
X936747Y720713D01*
X936666Y720477D01*
X936579Y720243D01*
X936487Y720012D01*
X936388Y719783D01*
X936285Y719556D01*
X936175Y719332D01*
X936060Y719111D01*
X935940Y718892D01*
X935815Y718677D01*
X935684Y718464D01*
X935548Y718255D01*
X935407Y718050D01*
X935261Y717848D01*
X935110Y717649D01*
X934954Y717455D01*
X934793Y717264D01*
X934628Y717077D01*
X934458Y716894D01*
X934284Y716716D01*
X934106Y716542D01*
X933923Y716372D01*
X933736Y716207D01*
X933545Y716046D01*
X933351Y715890D01*
X933152Y715739D01*
X932950Y715593D01*
X932745Y715452D01*
X932536Y715316D01*
X932323Y715185D01*
X932108Y715060D01*
X931889Y714940D01*
X931668Y714825D01*
X931444Y714715D01*
X931217Y714612D01*
X930988Y714513D01*
X930757Y714421D01*
X930523Y714334D01*
X930287Y714253D01*
X930049Y714177D01*
X929810Y714108D01*
X929569Y714044D01*
X929326Y713987D01*
X929082Y713935D01*
X928837Y713890D01*
X928591Y713850D01*
X928344Y713816D01*
X928096Y713789D01*
X927847Y713768D01*
X927599Y713752D01*
X927349Y713743D01*
X927100Y713740D01*
X926851Y713743D01*
X926601Y713752D01*
X926353Y713768D01*
X926104Y713789D01*
X925856Y713816D01*
X925609Y713850D01*
X925363Y713890D01*
X925118Y713935D01*
X924874Y713987D01*
X924631Y714044D01*
X924390Y714108D01*
X924151Y714177D01*
X923913Y714253D01*
X923677Y714334D01*
X923443Y714421D01*
X923212Y714513D01*
X922983Y714612D01*
X922756Y714715D01*
X922532Y714825D01*
X922311Y714940D01*
X922092Y715060D01*
X921877Y715185D01*
X921664Y715316D01*
X921455Y715452D01*
X921250Y715593D01*
X921048Y715739D01*
X920849Y715890D01*
X920655Y716046D01*
X920464Y716207D01*
X920277Y716372D01*
X920094Y716542D01*
X919916Y716716D01*
X919742Y716894D01*
X919572Y717077D01*
X919407Y717264D01*
X919246Y717455D01*
X919090Y717649D01*
X918939Y717848D01*
X918793Y718050D01*
X918652Y718255D01*
X918516Y718464D01*
X918385Y718677D01*
X918260Y718892D01*
X918140Y719111D01*
X918025Y719332D01*
X917915Y719556D01*
X917812Y719783D01*
X917713Y720012D01*
X917621Y720243D01*
X917534Y720477D01*
X917453Y720713D01*
X917377Y720951D01*
X917308Y721190D01*
X917244Y721431D01*
X917187Y721674D01*
X917135Y721918D01*
X917090Y722163D01*
X917050Y722409D01*
X917016Y722656D01*
X916989Y722904D01*
X916968Y723153D01*
X916952Y723401D01*
X916943Y723651D01*
X916940Y723900D01*
X967740Y723900D02*
X967743Y724149D01*
X967752Y724399D01*
X967768Y724647D01*
X967789Y724896D01*
X967816Y725144D01*
X967850Y725391D01*
X967890Y725637D01*
X967935Y725882D01*
X967987Y726126D01*
X968044Y726369D01*
X968108Y726610D01*
X968177Y726849D01*
X968253Y727087D01*
X968334Y727323D01*
X968421Y727557D01*
X968513Y727788D01*
X968612Y728017D01*
X968715Y728244D01*
X968825Y728468D01*
X968940Y728689D01*
X969060Y728908D01*
X969185Y729123D01*
X969316Y729336D01*
X969452Y729545D01*
X969593Y729750D01*
X969739Y729952D01*
X969890Y730151D01*
X970046Y730345D01*
X970207Y730536D01*
X970372Y730723D01*
X970542Y730906D01*
X970716Y731084D01*
X970894Y731258D01*
X971077Y731428D01*
X971264Y731593D01*
X971455Y731754D01*
X971649Y731910D01*
X971848Y732061D01*
X972050Y732207D01*
X972255Y732348D01*
X972464Y732484D01*
X972677Y732615D01*
X972892Y732740D01*
X973111Y732860D01*
X973332Y732975D01*
X973556Y733085D01*
X973783Y733188D01*
X974012Y733287D01*
X974243Y733379D01*
X974477Y733466D01*
X974713Y733547D01*
X974951Y733623D01*
X975190Y733692D01*
X975431Y733756D01*
X975674Y733813D01*
X975918Y733865D01*
X976163Y733910D01*
X976409Y733950D01*
X976656Y733984D01*
X976904Y734011D01*
X977153Y734032D01*
X977401Y734048D01*
X977651Y734057D01*
X977900Y734060D01*
X978149Y734057D01*
X978399Y734048D01*
X978647Y734032D01*
X978896Y734011D01*
X979144Y733984D01*
X979391Y733950D01*
X979637Y733910D01*
X979882Y733865D01*
X980126Y733813D01*
X980369Y733756D01*
X980610Y733692D01*
X980849Y733623D01*
X981087Y733547D01*
X981323Y733466D01*
X981557Y733379D01*
X981788Y733287D01*
X982017Y733188D01*
X982244Y733085D01*
X982468Y732975D01*
X982689Y732860D01*
X982908Y732740D01*
X983123Y732615D01*
X983336Y732484D01*
X983545Y732348D01*
X983750Y732207D01*
X983952Y732061D01*
X984151Y731910D01*
X984345Y731754D01*
X984536Y731593D01*
X984723Y731428D01*
X984906Y731258D01*
X985084Y731084D01*
X985258Y730906D01*
X985428Y730723D01*
X985593Y730536D01*
X985754Y730345D01*
X985910Y730151D01*
X986061Y729952D01*
X986207Y729750D01*
X986348Y729545D01*
X986484Y729336D01*
X986615Y729123D01*
X986740Y728908D01*
X986860Y728689D01*
X986975Y728468D01*
X987085Y728244D01*
X987188Y728017D01*
X987287Y727788D01*
X987379Y727557D01*
X987466Y727323D01*
X987547Y727087D01*
X987623Y726849D01*
X987692Y726610D01*
X987756Y726369D01*
X987813Y726126D01*
X987865Y725882D01*
X987910Y725637D01*
X987950Y725391D01*
X987984Y725144D01*
X988011Y724896D01*
X988032Y724647D01*
X988048Y724399D01*
X988057Y724149D01*
X988060Y723900D01*
X988057Y723651D01*
X988048Y723401D01*
X988032Y723153D01*
X988011Y722904D01*
X987984Y722656D01*
X987950Y722409D01*
X987910Y722163D01*
X987865Y721918D01*
X987813Y721674D01*
X987756Y721431D01*
X987692Y721190D01*
X987623Y720951D01*
X987547Y720713D01*
X987466Y720477D01*
X987379Y720243D01*
X987287Y720012D01*
X987188Y719783D01*
X987085Y719556D01*
X986975Y719332D01*
X986860Y719111D01*
X986740Y718892D01*
X986615Y718677D01*
X986484Y718464D01*
X986348Y718255D01*
X986207Y718050D01*
X986061Y717848D01*
X985910Y717649D01*
X985754Y717455D01*
X985593Y717264D01*
X985428Y717077D01*
X985258Y716894D01*
X985084Y716716D01*
X984906Y716542D01*
X984723Y716372D01*
X984536Y716207D01*
X984345Y716046D01*
X984151Y715890D01*
X983952Y715739D01*
X983750Y715593D01*
X983545Y715452D01*
X983336Y715316D01*
X983123Y715185D01*
X982908Y715060D01*
X982689Y714940D01*
X982468Y714825D01*
X982244Y714715D01*
X982017Y714612D01*
X981788Y714513D01*
X981557Y714421D01*
X981323Y714334D01*
X981087Y714253D01*
X980849Y714177D01*
X980610Y714108D01*
X980369Y714044D01*
X980126Y713987D01*
X979882Y713935D01*
X979637Y713890D01*
X979391Y713850D01*
X979144Y713816D01*
X978896Y713789D01*
X978647Y713768D01*
X978399Y713752D01*
X978149Y713743D01*
X977900Y713740D01*
X977651Y713743D01*
X977401Y713752D01*
X977153Y713768D01*
X976904Y713789D01*
X976656Y713816D01*
X976409Y713850D01*
X976163Y713890D01*
X975918Y713935D01*
X975674Y713987D01*
X975431Y714044D01*
X975190Y714108D01*
X974951Y714177D01*
X974713Y714253D01*
X974477Y714334D01*
X974243Y714421D01*
X974012Y714513D01*
X973783Y714612D01*
X973556Y714715D01*
X973332Y714825D01*
X973111Y714940D01*
X972892Y715060D01*
X972677Y715185D01*
X972464Y715316D01*
X972255Y715452D01*
X972050Y715593D01*
X971848Y715739D01*
X971649Y715890D01*
X971455Y716046D01*
X971264Y716207D01*
X971077Y716372D01*
X970894Y716542D01*
X970716Y716716D01*
X970542Y716894D01*
X970372Y717077D01*
X970207Y717264D01*
X970046Y717455D01*
X969890Y717649D01*
X969739Y717848D01*
X969593Y718050D01*
X969452Y718255D01*
X969316Y718464D01*
X969185Y718677D01*
X969060Y718892D01*
X968940Y719111D01*
X968825Y719332D01*
X968715Y719556D01*
X968612Y719783D01*
X968513Y720012D01*
X968421Y720243D01*
X968334Y720477D01*
X968253Y720713D01*
X968177Y720951D01*
X968108Y721190D01*
X968044Y721431D01*
X967987Y721674D01*
X967935Y721918D01*
X967890Y722163D01*
X967850Y722409D01*
X967816Y722656D01*
X967789Y722904D01*
X967768Y723153D01*
X967752Y723401D01*
X967743Y723651D01*
X967740Y723900D01*
D11*
X829206Y204338D02*
X827450Y202874D01*
X827450Y202875D02*
X827149Y203222D01*
X826840Y203562D01*
X826523Y203895D01*
X826198Y204220D01*
X825866Y204537D01*
X825526Y204846D01*
X825178Y205147D01*
X824824Y205440D01*
X824462Y205723D01*
X824094Y205998D01*
X823719Y206265D01*
X823338Y206522D01*
X822951Y206770D01*
X822559Y207008D01*
X822160Y207237D01*
X821756Y207457D01*
X821348Y207667D01*
X820934Y207867D01*
X820515Y208057D01*
X820092Y208236D01*
X819665Y208406D01*
X819234Y208565D01*
X818799Y208714D01*
X818361Y208853D01*
X817920Y208981D01*
X817475Y209098D01*
X817028Y209205D01*
X816579Y209301D01*
X816127Y209386D01*
X815674Y209460D01*
X815218Y209524D01*
X814762Y209576D01*
X814304Y209618D01*
X813846Y209648D01*
X813386Y209668D01*
X812927Y209677D01*
X812926Y211962D01*
X812927Y211963D01*
X813442Y211953D01*
X813957Y211932D01*
X814471Y211898D01*
X814984Y211852D01*
X815496Y211793D01*
X816006Y211722D01*
X816515Y211639D01*
X817021Y211544D01*
X817525Y211436D01*
X818026Y211317D01*
X818524Y211186D01*
X819019Y211042D01*
X819510Y210887D01*
X819998Y210720D01*
X820481Y210541D01*
X820960Y210351D01*
X821434Y210150D01*
X821903Y209937D01*
X822367Y209713D01*
X822826Y209478D01*
X823278Y209231D01*
X823725Y208975D01*
X824165Y208707D01*
X824599Y208429D01*
X825026Y208141D01*
X825446Y207842D01*
X825858Y207533D01*
X826264Y207215D01*
X826661Y206887D01*
X827050Y206550D01*
X827431Y206203D01*
X827804Y205847D01*
X828168Y205483D01*
X828523Y205110D01*
X828869Y204728D01*
X829206Y204338D01*
X829022Y204184D01*
X828689Y204570D01*
X828347Y204947D01*
X827995Y205316D01*
X827635Y205676D01*
X827267Y206028D01*
X826890Y206371D01*
X826505Y206704D01*
X826112Y207029D01*
X825712Y207343D01*
X825304Y207648D01*
X824889Y207944D01*
X824467Y208229D01*
X824038Y208504D01*
X823602Y208768D01*
X823161Y209022D01*
X822713Y209265D01*
X822260Y209498D01*
X821802Y209719D01*
X821338Y209930D01*
X820869Y210129D01*
X820395Y210317D01*
X819918Y210494D01*
X819436Y210659D01*
X818950Y210812D01*
X818461Y210954D01*
X817968Y211084D01*
X817473Y211202D01*
X816975Y211308D01*
X816474Y211403D01*
X815971Y211485D01*
X815467Y211555D01*
X814961Y211613D01*
X814453Y211658D01*
X813945Y211692D01*
X813436Y211713D01*
X812927Y211723D01*
X812927Y211483D01*
X813430Y211474D01*
X813933Y211452D01*
X814436Y211419D01*
X814937Y211374D01*
X815438Y211317D01*
X815936Y211247D01*
X816433Y211166D01*
X816928Y211073D01*
X817421Y210968D01*
X817910Y210851D01*
X818397Y210723D01*
X818881Y210583D01*
X819361Y210431D01*
X819837Y210268D01*
X820310Y210093D01*
X820778Y209907D01*
X821241Y209710D01*
X821700Y209502D01*
X822153Y209283D01*
X822601Y209053D01*
X823044Y208813D01*
X823480Y208562D01*
X823910Y208300D01*
X824334Y208028D01*
X824752Y207747D01*
X825162Y207455D01*
X825565Y207153D01*
X825961Y206842D01*
X826350Y206522D01*
X826730Y206192D01*
X827103Y205853D01*
X827467Y205506D01*
X827823Y205149D01*
X828170Y204785D01*
X828508Y204412D01*
X828838Y204031D01*
X828653Y203877D01*
X828328Y204254D01*
X827993Y204622D01*
X827650Y204983D01*
X827298Y205335D01*
X826938Y205678D01*
X826570Y206013D01*
X826194Y206339D01*
X825810Y206656D01*
X825419Y206963D01*
X825020Y207261D01*
X824614Y207550D01*
X824202Y207828D01*
X823783Y208097D01*
X823358Y208355D01*
X822926Y208603D01*
X822489Y208841D01*
X822046Y209068D01*
X821598Y209285D01*
X821145Y209490D01*
X820687Y209685D01*
X820224Y209869D01*
X819757Y210041D01*
X819286Y210203D01*
X818812Y210353D01*
X818334Y210491D01*
X817853Y210618D01*
X817369Y210734D01*
X816882Y210837D01*
X816393Y210930D01*
X815901Y211010D01*
X815409Y211078D01*
X814914Y211135D01*
X814418Y211180D01*
X813922Y211213D01*
X813424Y211234D01*
X812927Y211243D01*
X812927Y211003D01*
X813419Y210994D01*
X813910Y210973D01*
X814401Y210940D01*
X814891Y210896D01*
X815379Y210840D01*
X815867Y210772D01*
X816352Y210693D01*
X816835Y210602D01*
X817316Y210499D01*
X817795Y210385D01*
X818270Y210260D01*
X818743Y210123D01*
X819212Y209975D01*
X819677Y209815D01*
X820138Y209645D01*
X820596Y209463D01*
X821048Y209271D01*
X821496Y209067D01*
X821939Y208854D01*
X822377Y208629D01*
X822809Y208394D01*
X823235Y208149D01*
X823655Y207893D01*
X824070Y207628D01*
X824477Y207353D01*
X824878Y207068D01*
X825272Y206773D01*
X825659Y206469D01*
X826038Y206156D01*
X826410Y205834D01*
X826774Y205503D01*
X827130Y205164D01*
X827477Y204816D01*
X827817Y204460D01*
X828147Y204096D01*
X828469Y203723D01*
X828284Y203570D01*
X827967Y203937D01*
X827640Y204297D01*
X827305Y204649D01*
X826961Y204993D01*
X826610Y205329D01*
X826250Y205655D01*
X825883Y205974D01*
X825508Y206283D01*
X825125Y206583D01*
X824736Y206874D01*
X824340Y207156D01*
X823937Y207428D01*
X823528Y207690D01*
X823113Y207942D01*
X822691Y208185D01*
X822264Y208417D01*
X821832Y208639D01*
X821394Y208850D01*
X820952Y209051D01*
X820504Y209241D01*
X820053Y209421D01*
X819597Y209589D01*
X819137Y209747D01*
X818674Y209893D01*
X818207Y210028D01*
X817737Y210152D01*
X817264Y210265D01*
X816789Y210367D01*
X816311Y210456D01*
X815832Y210535D01*
X815350Y210602D01*
X814867Y210657D01*
X814383Y210701D01*
X813898Y210733D01*
X813413Y210754D01*
X812927Y210763D01*
X812927Y210523D01*
X813407Y210514D01*
X813887Y210493D01*
X814366Y210462D01*
X814844Y210418D01*
X815321Y210364D01*
X815797Y210297D01*
X816271Y210220D01*
X816742Y210131D01*
X817212Y210031D01*
X817679Y209919D01*
X818143Y209797D01*
X818605Y209663D01*
X819062Y209518D01*
X819517Y209363D01*
X819967Y209196D01*
X820413Y209019D01*
X820855Y208831D01*
X821293Y208633D01*
X821725Y208424D01*
X822152Y208205D01*
X822574Y207975D01*
X822990Y207736D01*
X823401Y207487D01*
X823805Y207228D01*
X824203Y206959D01*
X824594Y206681D01*
X824979Y206393D01*
X825357Y206097D01*
X825727Y205791D01*
X826090Y205477D01*
X826445Y205154D01*
X826793Y204822D01*
X827132Y204483D01*
X827463Y204135D01*
X827786Y203779D01*
X828100Y203416D01*
X827916Y203263D01*
X827605Y203621D01*
X827287Y203972D01*
X826959Y204316D01*
X826624Y204651D01*
X826281Y204979D01*
X825930Y205298D01*
X825571Y205608D01*
X825205Y205910D01*
X824832Y206203D01*
X824452Y206487D01*
X824066Y206762D01*
X823673Y207027D01*
X823273Y207283D01*
X822868Y207530D01*
X822457Y207766D01*
X822040Y207993D01*
X821618Y208209D01*
X821191Y208415D01*
X820759Y208611D01*
X820322Y208797D01*
X819881Y208972D01*
X819437Y209137D01*
X818988Y209290D01*
X818536Y209433D01*
X818080Y209565D01*
X817621Y209687D01*
X817160Y209797D01*
X816696Y209896D01*
X816230Y209983D01*
X815762Y210060D01*
X815292Y210125D01*
X814821Y210180D01*
X814348Y210222D01*
X813875Y210254D01*
X813401Y210274D01*
X812927Y210283D01*
X812927Y210043D01*
X813395Y210034D01*
X813863Y210014D01*
X814331Y209983D01*
X814797Y209941D01*
X815263Y209887D01*
X815727Y209823D01*
X816189Y209747D01*
X816650Y209660D01*
X817108Y209562D01*
X817564Y209454D01*
X818016Y209334D01*
X818466Y209203D01*
X818913Y209062D01*
X819356Y208910D01*
X819796Y208748D01*
X820231Y208575D01*
X820662Y208392D01*
X821089Y208198D01*
X821511Y207994D01*
X821928Y207780D01*
X822339Y207557D01*
X822745Y207323D01*
X823146Y207080D01*
X823540Y206827D01*
X823929Y206565D01*
X824310Y206294D01*
X824686Y206013D01*
X825054Y205724D01*
X825416Y205426D01*
X825770Y205119D01*
X826116Y204804D01*
X826456Y204481D01*
X826787Y204149D01*
X827110Y203810D01*
X827425Y203463D01*
X827731Y203109D01*
X827547Y202955D01*
X827244Y203305D01*
X826933Y203648D01*
X826614Y203983D01*
X826287Y204310D01*
X825952Y204629D01*
X825610Y204940D01*
X825260Y205243D01*
X824903Y205537D01*
X824539Y205823D01*
X824169Y206100D01*
X823791Y206368D01*
X823408Y206627D01*
X823018Y206877D01*
X822623Y207117D01*
X822222Y207347D01*
X821815Y207568D01*
X821404Y207779D01*
X820987Y207981D01*
X820566Y208172D01*
X820140Y208353D01*
X819710Y208524D01*
X819276Y208684D01*
X818838Y208834D01*
X818397Y208974D01*
X817953Y209102D01*
X817506Y209221D01*
X817056Y209328D01*
X816603Y209425D01*
X816149Y209510D01*
X815692Y209585D01*
X815234Y209649D01*
X814774Y209702D01*
X814313Y209744D01*
X813852Y209774D01*
X813389Y209794D01*
X812927Y209803D01*
X812674Y211962D02*
X812674Y209676D01*
X812673Y209677D02*
X812208Y209668D01*
X811743Y209648D01*
X811279Y209617D01*
X810816Y209574D01*
X810354Y209520D01*
X809893Y209455D01*
X809434Y209379D01*
X808977Y209292D01*
X808522Y209194D01*
X808070Y209084D01*
X807620Y208964D01*
X807174Y208833D01*
X806731Y208691D01*
X806291Y208538D01*
X805856Y208375D01*
X805424Y208201D01*
X804997Y208017D01*
X804574Y207823D01*
X804156Y207618D01*
X803743Y207403D01*
X803336Y207178D01*
X802934Y206944D01*
X802538Y206700D01*
X802148Y206446D01*
X801764Y206183D01*
X801387Y205910D01*
X801017Y205629D01*
X800653Y205339D01*
X800297Y205040D01*
X799948Y204732D01*
X799606Y204416D01*
X799272Y204092D01*
X798947Y203759D01*
X798629Y203419D01*
X798320Y203072D01*
X798019Y202717D01*
X797727Y202355D01*
X797444Y201985D01*
X797170Y201609D01*
X796905Y201227D01*
X796649Y200838D01*
X796403Y200443D01*
X796167Y200042D01*
X795940Y199636D01*
X793923Y200711D01*
X793923Y200712D01*
X794177Y201167D01*
X794441Y201617D01*
X794717Y202059D01*
X795003Y202495D01*
X795300Y202924D01*
X795606Y203346D01*
X795924Y203760D01*
X796251Y204166D01*
X796588Y204564D01*
X796934Y204953D01*
X797290Y205335D01*
X797655Y205707D01*
X798029Y206070D01*
X798411Y206425D01*
X798802Y206770D01*
X799202Y207105D01*
X799609Y207430D01*
X800024Y207746D01*
X800447Y208051D01*
X800877Y208346D01*
X801314Y208630D01*
X801758Y208904D01*
X802208Y209167D01*
X802665Y209419D01*
X803127Y209659D01*
X803596Y209889D01*
X804069Y210107D01*
X804548Y210313D01*
X805032Y210508D01*
X805520Y210690D01*
X806013Y210861D01*
X806510Y211020D01*
X807010Y211167D01*
X807514Y211302D01*
X808021Y211424D01*
X808530Y211534D01*
X809043Y211631D01*
X809557Y211716D01*
X810074Y211789D01*
X810591Y211849D01*
X811111Y211896D01*
X811631Y211931D01*
X812152Y211953D01*
X812673Y211963D01*
X812673Y211723D01*
X812158Y211713D01*
X811643Y211691D01*
X811128Y211657D01*
X810615Y211610D01*
X810103Y211551D01*
X809592Y211479D01*
X809084Y211395D01*
X808577Y211298D01*
X808073Y211190D01*
X807572Y211069D01*
X807074Y210936D01*
X806579Y210791D01*
X806088Y210633D01*
X805601Y210464D01*
X805119Y210284D01*
X804640Y210091D01*
X804167Y209887D01*
X803698Y209672D01*
X803235Y209445D01*
X802778Y209207D01*
X802327Y208958D01*
X801881Y208698D01*
X801443Y208428D01*
X801010Y208147D01*
X800585Y207855D01*
X800167Y207553D01*
X799757Y207241D01*
X799354Y206919D01*
X798959Y206588D01*
X798573Y206247D01*
X798194Y205897D01*
X797825Y205537D01*
X797464Y205169D01*
X797112Y204792D01*
X796769Y204407D01*
X796436Y204013D01*
X796113Y203612D01*
X795799Y203203D01*
X795496Y202786D01*
X795203Y202362D01*
X794920Y201931D01*
X794647Y201493D01*
X794386Y201049D01*
X794135Y200599D01*
X794346Y200486D01*
X794594Y200931D01*
X794853Y201370D01*
X795122Y201803D01*
X795402Y202229D01*
X795692Y202648D01*
X795992Y203060D01*
X796302Y203464D01*
X796622Y203861D01*
X796951Y204250D01*
X797290Y204631D01*
X797638Y205004D01*
X797994Y205368D01*
X798360Y205723D01*
X798734Y206069D01*
X799116Y206406D01*
X799506Y206734D01*
X799905Y207052D01*
X800310Y207360D01*
X800724Y207659D01*
X801144Y207947D01*
X801571Y208225D01*
X802005Y208493D01*
X802445Y208749D01*
X802891Y208996D01*
X803343Y209231D01*
X803801Y209455D01*
X804264Y209668D01*
X804732Y209870D01*
X805205Y210060D01*
X805682Y210239D01*
X806164Y210406D01*
X806649Y210561D01*
X807138Y210704D01*
X807631Y210836D01*
X808126Y210956D01*
X808624Y211063D01*
X809125Y211158D01*
X809628Y211242D01*
X810132Y211313D01*
X810639Y211371D01*
X811146Y211418D01*
X811655Y211452D01*
X812164Y211473D01*
X812673Y211483D01*
X812673Y211243D01*
X812170Y211233D01*
X811666Y211212D01*
X811164Y211178D01*
X810662Y211132D01*
X810162Y211074D01*
X809663Y211004D01*
X809166Y210922D01*
X808671Y210828D01*
X808179Y210721D01*
X807689Y210603D01*
X807202Y210473D01*
X806719Y210331D01*
X806239Y210178D01*
X805763Y210013D01*
X805291Y209836D01*
X804824Y209648D01*
X804362Y209449D01*
X803904Y209238D01*
X803451Y209016D01*
X803005Y208784D01*
X802563Y208541D01*
X802128Y208287D01*
X801700Y208022D01*
X801277Y207748D01*
X800862Y207463D01*
X800454Y207168D01*
X800052Y206863D01*
X799659Y206549D01*
X799273Y206225D01*
X798895Y205892D01*
X798525Y205549D01*
X798164Y205198D01*
X797812Y204838D01*
X797468Y204470D01*
X797133Y204094D01*
X796808Y203709D01*
X796492Y203317D01*
X796185Y202917D01*
X795889Y202510D01*
X795602Y202096D01*
X795325Y201675D01*
X795059Y201247D01*
X794803Y200813D01*
X794558Y200373D01*
X794770Y200260D01*
X795012Y200695D01*
X795265Y201124D01*
X795528Y201546D01*
X795802Y201963D01*
X796085Y202372D01*
X796378Y202774D01*
X796681Y203169D01*
X796993Y203557D01*
X797315Y203937D01*
X797646Y204309D01*
X797986Y204673D01*
X798334Y205029D01*
X798691Y205376D01*
X799056Y205714D01*
X799430Y206043D01*
X799811Y206363D01*
X800200Y206674D01*
X800597Y206975D01*
X801000Y207266D01*
X801411Y207548D01*
X801828Y207820D01*
X802252Y208081D01*
X802682Y208332D01*
X803118Y208572D01*
X803559Y208802D01*
X804007Y209021D01*
X804459Y209229D01*
X804916Y209426D01*
X805378Y209612D01*
X805844Y209787D01*
X806314Y209950D01*
X806789Y210102D01*
X807266Y210242D01*
X807747Y210370D01*
X808231Y210487D01*
X808718Y210592D01*
X809207Y210686D01*
X809698Y210767D01*
X810191Y210836D01*
X810686Y210894D01*
X811181Y210939D01*
X811678Y210972D01*
X812176Y210993D01*
X812673Y211003D01*
X812673Y210763D01*
X812182Y210754D01*
X811690Y210733D01*
X811199Y210700D01*
X810709Y210655D01*
X810221Y210598D01*
X809733Y210529D01*
X809248Y210449D01*
X808765Y210357D01*
X808284Y210253D01*
X807806Y210138D01*
X807330Y210011D01*
X806858Y209872D01*
X806390Y209722D01*
X805925Y209561D01*
X805464Y209388D01*
X805008Y209204D01*
X804556Y209010D01*
X804109Y208804D01*
X803667Y208588D01*
X803231Y208361D01*
X802800Y208123D01*
X802375Y207875D01*
X801957Y207617D01*
X801544Y207349D01*
X801139Y207070D01*
X800740Y206782D01*
X800348Y206485D01*
X799964Y206178D01*
X799587Y205861D01*
X799218Y205536D01*
X798857Y205202D01*
X798504Y204859D01*
X798159Y204508D01*
X797824Y204148D01*
X797497Y203780D01*
X797179Y203405D01*
X796870Y203022D01*
X796571Y202632D01*
X796281Y202234D01*
X796001Y201829D01*
X795731Y201418D01*
X795471Y201001D01*
X795221Y200577D01*
X794982Y200147D01*
X795194Y200034D01*
X795430Y200459D01*
X795677Y200877D01*
X795934Y201290D01*
X796201Y201696D01*
X796478Y202096D01*
X796764Y202489D01*
X797060Y202874D01*
X797365Y203253D01*
X797679Y203624D01*
X798002Y203987D01*
X798333Y204342D01*
X798674Y204689D01*
X799022Y205028D01*
X799379Y205358D01*
X799744Y205680D01*
X800116Y205992D01*
X800496Y206296D01*
X800883Y206590D01*
X801277Y206874D01*
X801678Y207149D01*
X802085Y207414D01*
X802499Y207669D01*
X802919Y207914D01*
X803344Y208149D01*
X803775Y208373D01*
X804212Y208587D01*
X804654Y208790D01*
X805100Y208983D01*
X805551Y209164D01*
X806006Y209335D01*
X806465Y209494D01*
X806928Y209642D01*
X807394Y209779D01*
X807864Y209905D01*
X808337Y210019D01*
X808812Y210122D01*
X809289Y210213D01*
X809769Y210292D01*
X810250Y210360D01*
X810733Y210416D01*
X811217Y210460D01*
X811702Y210493D01*
X812187Y210514D01*
X812673Y210523D01*
X812673Y210283D01*
X812193Y210274D01*
X811714Y210253D01*
X811235Y210221D01*
X810756Y210177D01*
X810279Y210122D01*
X809804Y210055D01*
X809330Y209976D01*
X808859Y209886D01*
X808389Y209785D01*
X807922Y209672D01*
X807459Y209548D01*
X806998Y209413D01*
X806541Y209266D01*
X806087Y209109D01*
X805637Y208940D01*
X805192Y208761D01*
X804751Y208571D01*
X804315Y208370D01*
X803883Y208159D01*
X803457Y207937D01*
X803037Y207706D01*
X802622Y207464D01*
X802214Y207211D01*
X801811Y206950D01*
X801415Y206678D01*
X801026Y206397D01*
X800643Y206106D01*
X800268Y205807D01*
X799900Y205498D01*
X799540Y205181D01*
X799188Y204854D01*
X798844Y204520D01*
X798507Y204177D01*
X798180Y203826D01*
X797861Y203467D01*
X797550Y203101D01*
X797249Y202727D01*
X796957Y202346D01*
X796674Y201958D01*
X796401Y201563D01*
X796137Y201162D01*
X795883Y200754D01*
X795639Y200341D01*
X795405Y199921D01*
X795617Y199808D01*
X795848Y200222D01*
X796089Y200631D01*
X796340Y201034D01*
X796600Y201430D01*
X796870Y201820D01*
X797150Y202203D01*
X797438Y202579D01*
X797736Y202949D01*
X798042Y203311D01*
X798358Y203665D01*
X798681Y204012D01*
X799013Y204350D01*
X799354Y204681D01*
X799702Y205003D01*
X800057Y205317D01*
X800421Y205621D01*
X800791Y205917D01*
X801169Y206204D01*
X801553Y206482D01*
X801945Y206750D01*
X802342Y207009D01*
X802746Y207258D01*
X803155Y207497D01*
X803571Y207726D01*
X803991Y207945D01*
X804417Y208153D01*
X804848Y208352D01*
X805284Y208539D01*
X805724Y208717D01*
X806168Y208883D01*
X806616Y209038D01*
X807068Y209183D01*
X807523Y209317D01*
X807981Y209439D01*
X808442Y209551D01*
X808905Y209651D01*
X809371Y209740D01*
X809839Y209817D01*
X810309Y209883D01*
X810780Y209938D01*
X811252Y209982D01*
X811725Y210013D01*
X812199Y210034D01*
X812673Y210043D01*
X812673Y209803D01*
X812205Y209794D01*
X811737Y209774D01*
X811270Y209742D01*
X810803Y209699D01*
X810338Y209645D01*
X809874Y209580D01*
X809412Y209503D01*
X808952Y209415D01*
X808494Y209316D01*
X808039Y209206D01*
X807587Y209085D01*
X807137Y208953D01*
X806691Y208811D01*
X806249Y208657D01*
X805810Y208493D01*
X805376Y208318D01*
X804946Y208132D01*
X804520Y207937D01*
X804099Y207730D01*
X803684Y207514D01*
X803274Y207288D01*
X802869Y207052D01*
X802471Y206806D01*
X802078Y206551D01*
X801692Y206286D01*
X801312Y206012D01*
X800939Y205728D01*
X800573Y205436D01*
X800214Y205135D01*
X799863Y204825D01*
X799519Y204507D01*
X799183Y204181D01*
X798855Y203846D01*
X798536Y203504D01*
X798224Y203154D01*
X797921Y202797D01*
X797628Y202432D01*
X797342Y202060D01*
X797067Y201682D01*
X796800Y201297D01*
X796543Y200905D01*
X796295Y200508D01*
X796057Y200104D01*
X795829Y199695D01*
X812926Y169038D02*
X812926Y171324D01*
X812927Y171323D02*
X813395Y171332D01*
X813863Y171353D01*
X814331Y171384D01*
X814798Y171427D01*
X815263Y171482D01*
X815727Y171548D01*
X816189Y171625D01*
X816649Y171713D01*
X817107Y171813D01*
X817563Y171924D01*
X818015Y172046D01*
X818464Y172179D01*
X818910Y172323D01*
X819353Y172477D01*
X819791Y172643D01*
X820225Y172819D01*
X820655Y173006D01*
X821080Y173203D01*
X821500Y173410D01*
X821915Y173628D01*
X822325Y173856D01*
X822729Y174093D01*
X823127Y174341D01*
X823518Y174598D01*
X823904Y174865D01*
X824283Y175141D01*
X824654Y175426D01*
X825019Y175720D01*
X825377Y176023D01*
X825727Y176335D01*
X826069Y176655D01*
X826403Y176983D01*
X826729Y177319D01*
X827047Y177664D01*
X827357Y178016D01*
X829101Y176539D01*
X829102Y176539D01*
X828755Y176144D01*
X828399Y175758D01*
X828034Y175381D01*
X827659Y175012D01*
X827276Y174653D01*
X826883Y174304D01*
X826483Y173964D01*
X826074Y173634D01*
X825657Y173314D01*
X825233Y173005D01*
X824801Y172706D01*
X824362Y172417D01*
X823916Y172140D01*
X823463Y171873D01*
X823004Y171618D01*
X822539Y171374D01*
X822068Y171141D01*
X821591Y170920D01*
X821109Y170711D01*
X820622Y170513D01*
X820131Y170328D01*
X819635Y170154D01*
X819135Y169993D01*
X818631Y169844D01*
X818124Y169708D01*
X817613Y169584D01*
X817100Y169472D01*
X816584Y169373D01*
X816066Y169287D01*
X815546Y169213D01*
X815024Y169153D01*
X814501Y169105D01*
X813977Y169069D01*
X813452Y169047D01*
X812927Y169037D01*
X812927Y169277D01*
X813446Y169287D01*
X813965Y169309D01*
X814483Y169344D01*
X815000Y169391D01*
X815516Y169452D01*
X816030Y169524D01*
X816543Y169610D01*
X817053Y169707D01*
X817560Y169818D01*
X818065Y169940D01*
X818567Y170075D01*
X819065Y170223D01*
X819559Y170382D01*
X820049Y170553D01*
X820535Y170737D01*
X821016Y170932D01*
X821493Y171139D01*
X821964Y171357D01*
X822430Y171587D01*
X822890Y171829D01*
X823343Y172081D01*
X823791Y172345D01*
X824232Y172619D01*
X824666Y172904D01*
X825093Y173200D01*
X825513Y173506D01*
X825925Y173822D01*
X826329Y174148D01*
X826725Y174484D01*
X827113Y174830D01*
X827492Y175185D01*
X827862Y175549D01*
X828224Y175922D01*
X828576Y176304D01*
X828919Y176694D01*
X828735Y176849D01*
X828397Y176463D01*
X828049Y176086D01*
X827691Y175717D01*
X827325Y175357D01*
X826950Y175006D01*
X826567Y174665D01*
X826175Y174333D01*
X825776Y174010D01*
X825369Y173698D01*
X824954Y173395D01*
X824532Y173103D01*
X824102Y172821D01*
X823666Y172550D01*
X823224Y172289D01*
X822775Y172040D01*
X822321Y171801D01*
X821860Y171574D01*
X821395Y171358D01*
X820924Y171153D01*
X820448Y170960D01*
X819967Y170779D01*
X819483Y170610D01*
X818994Y170452D01*
X818502Y170307D01*
X818006Y170173D01*
X817507Y170052D01*
X817005Y169943D01*
X816501Y169846D01*
X815995Y169762D01*
X815486Y169690D01*
X814976Y169630D01*
X814465Y169583D01*
X813953Y169549D01*
X813440Y169527D01*
X812927Y169517D01*
X812927Y169757D01*
X813434Y169767D01*
X813941Y169788D01*
X814447Y169823D01*
X814953Y169869D01*
X815457Y169928D01*
X815959Y169999D01*
X816460Y170082D01*
X816958Y170178D01*
X817454Y170286D01*
X817947Y170406D01*
X818437Y170538D01*
X818924Y170682D01*
X819407Y170837D01*
X819886Y171005D01*
X820361Y171184D01*
X820831Y171375D01*
X821296Y171577D01*
X821757Y171790D01*
X822212Y172015D01*
X822661Y172251D01*
X823105Y172498D01*
X823542Y172755D01*
X823973Y173023D01*
X824397Y173302D01*
X824814Y173590D01*
X825224Y173889D01*
X825627Y174198D01*
X826022Y174517D01*
X826409Y174845D01*
X826788Y175183D01*
X827158Y175530D01*
X827520Y175885D01*
X827873Y176250D01*
X828217Y176623D01*
X828552Y177004D01*
X828369Y177159D01*
X828038Y176782D01*
X827698Y176414D01*
X827349Y176054D01*
X826991Y175702D01*
X826625Y175359D01*
X826251Y175026D01*
X825868Y174701D01*
X825478Y174386D01*
X825080Y174081D01*
X824675Y173786D01*
X824262Y173500D01*
X823843Y173225D01*
X823417Y172960D01*
X822985Y172706D01*
X822547Y172462D01*
X822103Y172229D01*
X821653Y172007D01*
X821198Y171796D01*
X820738Y171596D01*
X820273Y171408D01*
X819804Y171230D01*
X819331Y171065D01*
X818853Y170911D01*
X818372Y170769D01*
X817888Y170638D01*
X817401Y170520D01*
X816911Y170413D01*
X816418Y170319D01*
X815924Y170236D01*
X815427Y170166D01*
X814929Y170108D01*
X814429Y170062D01*
X813929Y170028D01*
X813428Y170007D01*
X812927Y169997D01*
X812927Y170237D01*
X813422Y170247D01*
X813917Y170268D01*
X814412Y170301D01*
X814905Y170347D01*
X815397Y170404D01*
X815888Y170474D01*
X816377Y170555D01*
X816863Y170649D01*
X817348Y170754D01*
X817829Y170871D01*
X818308Y171000D01*
X818783Y171140D01*
X819255Y171293D01*
X819722Y171456D01*
X820186Y171631D01*
X820645Y171817D01*
X821100Y172015D01*
X821549Y172223D01*
X821994Y172443D01*
X822432Y172673D01*
X822866Y172914D01*
X823293Y173165D01*
X823713Y173427D01*
X824128Y173699D01*
X824535Y173981D01*
X824936Y174273D01*
X825329Y174575D01*
X825714Y174886D01*
X826092Y175206D01*
X826462Y175536D01*
X826824Y175874D01*
X827178Y176222D01*
X827523Y176578D01*
X827859Y176942D01*
X828186Y177314D01*
X828003Y177469D01*
X827679Y177101D01*
X827347Y176742D01*
X827007Y176390D01*
X826657Y176047D01*
X826300Y175712D01*
X825934Y175387D01*
X825561Y175070D01*
X825180Y174763D01*
X824791Y174465D01*
X824396Y174176D01*
X823993Y173898D01*
X823584Y173629D01*
X823168Y173370D01*
X822746Y173122D01*
X822318Y172884D01*
X821885Y172657D01*
X821446Y172440D01*
X821001Y172234D01*
X820552Y172039D01*
X820099Y171855D01*
X819641Y171682D01*
X819179Y171520D01*
X818713Y171370D01*
X818243Y171231D01*
X817770Y171104D01*
X817295Y170988D01*
X816816Y170884D01*
X816335Y170792D01*
X815852Y170711D01*
X815368Y170642D01*
X814881Y170585D01*
X814394Y170541D01*
X813905Y170508D01*
X813416Y170486D01*
X812927Y170477D01*
X812927Y170717D01*
X813410Y170726D01*
X813893Y170747D01*
X814376Y170780D01*
X814858Y170824D01*
X815338Y170880D01*
X815817Y170948D01*
X816294Y171028D01*
X816769Y171119D01*
X817241Y171222D01*
X817711Y171336D01*
X818178Y171462D01*
X818642Y171599D01*
X819102Y171748D01*
X819559Y171907D01*
X820011Y172078D01*
X820460Y172260D01*
X820903Y172453D01*
X821342Y172656D01*
X821776Y172870D01*
X822204Y173095D01*
X822627Y173330D01*
X823043Y173575D01*
X823454Y173831D01*
X823858Y174096D01*
X824256Y174372D01*
X824647Y174656D01*
X825031Y174951D01*
X825407Y175254D01*
X825776Y175567D01*
X826137Y175889D01*
X826490Y176219D01*
X826835Y176558D01*
X827172Y176905D01*
X827500Y177261D01*
X827819Y177624D01*
X827636Y177779D01*
X827321Y177420D01*
X826997Y177069D01*
X826664Y176726D01*
X826323Y176392D01*
X825975Y176065D01*
X825618Y175748D01*
X825253Y175439D01*
X824882Y175139D01*
X824503Y174848D01*
X824117Y174567D01*
X823724Y174295D01*
X823324Y174033D01*
X822919Y173781D01*
X822507Y173538D01*
X822090Y173306D01*
X821667Y173084D01*
X821238Y172873D01*
X820805Y172672D01*
X820367Y172481D01*
X819924Y172302D01*
X819477Y172133D01*
X819026Y171975D01*
X818572Y171829D01*
X818114Y171693D01*
X817652Y171569D01*
X817188Y171456D01*
X816721Y171354D01*
X816252Y171264D01*
X815781Y171186D01*
X815308Y171119D01*
X814834Y171063D01*
X814358Y171019D01*
X813881Y170987D01*
X813404Y170966D01*
X812927Y170957D01*
X812927Y171197D01*
X813398Y171206D01*
X813870Y171227D01*
X814340Y171259D01*
X814810Y171302D01*
X815279Y171357D01*
X815746Y171423D01*
X816211Y171501D01*
X816674Y171590D01*
X817135Y171690D01*
X817593Y171802D01*
X818049Y171924D01*
X818501Y172058D01*
X818950Y172203D01*
X819396Y172359D01*
X819837Y172525D01*
X820274Y172703D01*
X820707Y172891D01*
X821135Y173089D01*
X821558Y173298D01*
X821975Y173517D01*
X822388Y173746D01*
X822794Y173986D01*
X823195Y174235D01*
X823589Y174494D01*
X823977Y174762D01*
X824358Y175040D01*
X824733Y175327D01*
X825100Y175623D01*
X825460Y175928D01*
X825812Y176242D01*
X826157Y176564D01*
X826493Y176895D01*
X826821Y177233D01*
X827141Y177580D01*
X827453Y177934D01*
X794228Y179741D02*
X796213Y180876D01*
X796212Y180875D02*
X796450Y180477D01*
X796696Y180085D01*
X796953Y179700D01*
X797218Y179320D01*
X797492Y178947D01*
X797776Y178581D01*
X798068Y178222D01*
X798369Y177870D01*
X798678Y177525D01*
X798995Y177188D01*
X799321Y176858D01*
X799654Y176537D01*
X799995Y176223D01*
X800344Y175918D01*
X800699Y175622D01*
X801062Y175334D01*
X801432Y175055D01*
X801808Y174785D01*
X802191Y174524D01*
X802580Y174273D01*
X802974Y174031D01*
X803375Y173798D01*
X803781Y173576D01*
X804192Y173363D01*
X804609Y173160D01*
X805030Y172967D01*
X805455Y172785D01*
X805885Y172613D01*
X806319Y172451D01*
X806757Y172300D01*
X807198Y172159D01*
X807643Y172029D01*
X808090Y171910D01*
X808540Y171802D01*
X808993Y171704D01*
X809448Y171618D01*
X809905Y171543D01*
X810364Y171478D01*
X810824Y171425D01*
X811285Y171383D01*
X811747Y171352D01*
X812210Y171332D01*
X812673Y171323D01*
X812673Y169038D01*
X812673Y169037D01*
X812154Y169047D01*
X811635Y169069D01*
X811117Y169103D01*
X810600Y169150D01*
X810085Y169209D01*
X809571Y169281D01*
X809059Y169365D01*
X808549Y169462D01*
X808041Y169571D01*
X807537Y169692D01*
X807035Y169825D01*
X806537Y169971D01*
X806042Y170128D01*
X805552Y170298D01*
X805065Y170479D01*
X804583Y170672D01*
X804106Y170876D01*
X803635Y171092D01*
X803168Y171319D01*
X802707Y171558D01*
X802252Y171807D01*
X801803Y172068D01*
X801361Y172339D01*
X800925Y172621D01*
X800496Y172913D01*
X800074Y173216D01*
X799660Y173529D01*
X799254Y173851D01*
X798855Y174184D01*
X798464Y174526D01*
X798082Y174877D01*
X797709Y175237D01*
X797344Y175607D01*
X796989Y175985D01*
X796642Y176371D01*
X796305Y176766D01*
X795978Y177169D01*
X795661Y177579D01*
X795353Y177998D01*
X795056Y178423D01*
X794769Y178856D01*
X794493Y179295D01*
X794228Y179741D01*
X794436Y179860D01*
X794698Y179419D01*
X794972Y178985D01*
X795255Y178557D01*
X795549Y178136D01*
X795853Y177723D01*
X796167Y177317D01*
X796491Y176919D01*
X796824Y176528D01*
X797166Y176146D01*
X797518Y175773D01*
X797878Y175407D01*
X798247Y175051D01*
X798625Y174704D01*
X799011Y174366D01*
X799405Y174037D01*
X799807Y173718D01*
X800217Y173409D01*
X800634Y173110D01*
X801058Y172821D01*
X801489Y172542D01*
X801926Y172274D01*
X802370Y172016D01*
X802820Y171770D01*
X803275Y171534D01*
X803737Y171309D01*
X804203Y171096D01*
X804675Y170893D01*
X805151Y170703D01*
X805632Y170524D01*
X806117Y170356D01*
X806606Y170201D01*
X807099Y170057D01*
X807595Y169925D01*
X808094Y169805D01*
X808595Y169697D01*
X809100Y169602D01*
X809606Y169519D01*
X810114Y169448D01*
X810624Y169389D01*
X811135Y169342D01*
X811647Y169308D01*
X812160Y169287D01*
X812673Y169277D01*
X812673Y169517D01*
X812165Y169527D01*
X811659Y169548D01*
X811152Y169582D01*
X810647Y169628D01*
X810143Y169686D01*
X809641Y169756D01*
X809140Y169838D01*
X808642Y169933D01*
X808146Y170039D01*
X807653Y170158D01*
X807163Y170288D01*
X806676Y170430D01*
X806192Y170584D01*
X805713Y170750D01*
X805237Y170927D01*
X804767Y171115D01*
X804300Y171315D01*
X803839Y171526D01*
X803383Y171748D01*
X802932Y171981D01*
X802488Y172225D01*
X802049Y172480D01*
X801616Y172745D01*
X801191Y173021D01*
X800771Y173306D01*
X800359Y173602D01*
X799954Y173908D01*
X799557Y174223D01*
X799168Y174548D01*
X798786Y174882D01*
X798412Y175225D01*
X798047Y175578D01*
X797691Y175939D01*
X797343Y176308D01*
X797005Y176686D01*
X796676Y177072D01*
X796356Y177465D01*
X796045Y177867D01*
X795745Y178275D01*
X795454Y178691D01*
X795174Y179114D01*
X794904Y179543D01*
X794644Y179979D01*
X794853Y180098D01*
X795109Y179667D01*
X795376Y179243D01*
X795653Y178825D01*
X795941Y178414D01*
X796238Y178010D01*
X796544Y177614D01*
X796861Y177224D01*
X797186Y176843D01*
X797521Y176470D01*
X797864Y176105D01*
X798217Y175748D01*
X798577Y175400D01*
X798947Y175060D01*
X799324Y174730D01*
X799709Y174409D01*
X800102Y174097D01*
X800502Y173795D01*
X800909Y173503D01*
X801323Y173220D01*
X801744Y172948D01*
X802172Y172686D01*
X802606Y172434D01*
X803045Y172193D01*
X803491Y171963D01*
X803941Y171743D01*
X804397Y171535D01*
X804858Y171337D01*
X805324Y171151D01*
X805793Y170976D01*
X806267Y170812D01*
X806745Y170660D01*
X807226Y170520D01*
X807711Y170391D01*
X808199Y170274D01*
X808689Y170168D01*
X809181Y170075D01*
X809676Y169993D01*
X810173Y169924D01*
X810671Y169866D01*
X811170Y169821D01*
X811670Y169788D01*
X812171Y169767D01*
X812673Y169757D01*
X812673Y169997D01*
X812177Y170006D01*
X811682Y170027D01*
X811188Y170060D01*
X810694Y170105D01*
X810202Y170162D01*
X809711Y170231D01*
X809222Y170311D01*
X808735Y170404D01*
X808251Y170508D01*
X807769Y170624D01*
X807290Y170751D01*
X806815Y170890D01*
X806342Y171040D01*
X805874Y171202D01*
X805410Y171375D01*
X804950Y171559D01*
X804494Y171754D01*
X804044Y171960D01*
X803598Y172177D01*
X803158Y172405D01*
X802724Y172643D01*
X802295Y172892D01*
X801872Y173151D01*
X801456Y173420D01*
X801047Y173699D01*
X800644Y173988D01*
X800249Y174287D01*
X799861Y174595D01*
X799480Y174912D01*
X799107Y175239D01*
X798743Y175574D01*
X798386Y175918D01*
X798038Y176271D01*
X797698Y176631D01*
X797367Y177000D01*
X797046Y177377D01*
X796733Y177762D01*
X796430Y178154D01*
X796136Y178553D01*
X795853Y178959D01*
X795579Y179372D01*
X795315Y179791D01*
X795061Y180217D01*
X795269Y180336D01*
X795520Y179916D01*
X795781Y179501D01*
X796052Y179093D01*
X796332Y178692D01*
X796622Y178297D01*
X796922Y177910D01*
X797231Y177530D01*
X797549Y177158D01*
X797875Y176793D01*
X798211Y176437D01*
X798555Y176088D01*
X798908Y175748D01*
X799268Y175417D01*
X799636Y175094D01*
X800013Y174781D01*
X800396Y174476D01*
X800787Y174181D01*
X801185Y173896D01*
X801589Y173620D01*
X802000Y173354D01*
X802418Y173098D01*
X802841Y172852D01*
X803271Y172617D01*
X803706Y172392D01*
X804146Y172178D01*
X804591Y171974D01*
X805041Y171781D01*
X805496Y171599D01*
X805955Y171428D01*
X806417Y171268D01*
X806884Y171120D01*
X807354Y170982D01*
X807827Y170856D01*
X808303Y170742D01*
X808782Y170639D01*
X809263Y170548D01*
X809746Y170468D01*
X810231Y170400D01*
X810718Y170344D01*
X811205Y170300D01*
X811694Y170267D01*
X812183Y170246D01*
X812673Y170237D01*
X812673Y170477D01*
X812189Y170486D01*
X811706Y170507D01*
X811223Y170539D01*
X810741Y170583D01*
X810260Y170639D01*
X809781Y170706D01*
X809304Y170784D01*
X808829Y170875D01*
X808356Y170976D01*
X807885Y171089D01*
X807418Y171214D01*
X806953Y171349D01*
X806492Y171496D01*
X806035Y171654D01*
X805582Y171823D01*
X805133Y172003D01*
X804688Y172193D01*
X804248Y172395D01*
X803813Y172607D01*
X803384Y172829D01*
X802959Y173061D01*
X802541Y173304D01*
X802128Y173557D01*
X801722Y173820D01*
X801322Y174092D01*
X800929Y174374D01*
X800543Y174666D01*
X800164Y174967D01*
X799793Y175276D01*
X799429Y175595D01*
X799073Y175922D01*
X798724Y176258D01*
X798384Y176603D01*
X798053Y176955D01*
X797730Y177315D01*
X797416Y177683D01*
X797111Y178058D01*
X796815Y178441D01*
X796528Y178831D01*
X796251Y179227D01*
X795983Y179630D01*
X795726Y180040D01*
X795478Y180455D01*
X795686Y180574D01*
X795931Y180164D01*
X796186Y179759D01*
X796450Y179361D01*
X796724Y178970D01*
X797007Y178585D01*
X797299Y178207D01*
X797601Y177836D01*
X797911Y177472D01*
X798230Y177117D01*
X798558Y176769D01*
X798894Y176429D01*
X799238Y176097D01*
X799589Y175773D01*
X799949Y175459D01*
X800316Y175153D01*
X800691Y174855D01*
X801072Y174568D01*
X801460Y174289D01*
X801855Y174020D01*
X802256Y173760D01*
X802664Y173510D01*
X803077Y173271D01*
X803496Y173041D01*
X803921Y172821D01*
X804350Y172612D01*
X804785Y172413D01*
X805224Y172225D01*
X805668Y172047D01*
X806116Y171880D01*
X806567Y171724D01*
X807023Y171579D01*
X807482Y171445D01*
X807943Y171322D01*
X808408Y171210D01*
X808875Y171110D01*
X809345Y171021D01*
X809816Y170943D01*
X810290Y170877D01*
X810764Y170822D01*
X811240Y170778D01*
X811717Y170747D01*
X812195Y170726D01*
X812673Y170717D01*
X812673Y170957D01*
X812201Y170966D01*
X811729Y170986D01*
X811258Y171018D01*
X810788Y171061D01*
X810319Y171115D01*
X809851Y171181D01*
X809386Y171257D01*
X808922Y171345D01*
X808460Y171445D01*
X808002Y171555D01*
X807545Y171676D01*
X807092Y171809D01*
X806642Y171952D01*
X806196Y172106D01*
X805754Y172271D01*
X805316Y172446D01*
X804882Y172632D01*
X804453Y172829D01*
X804028Y173036D01*
X803609Y173253D01*
X803195Y173480D01*
X802787Y173716D01*
X802384Y173963D01*
X801988Y174220D01*
X801598Y174485D01*
X801214Y174761D01*
X800838Y175045D01*
X800468Y175338D01*
X800105Y175641D01*
X799750Y175952D01*
X799403Y176271D01*
X799063Y176599D01*
X798731Y176935D01*
X798408Y177278D01*
X798092Y177630D01*
X797786Y177989D01*
X797488Y178355D01*
X797199Y178728D01*
X796919Y179108D01*
X796649Y179495D01*
X796388Y179889D01*
X796136Y180288D01*
X795895Y180693D01*
X796103Y180813D01*
X796342Y180412D01*
X796590Y180018D01*
X796848Y179629D01*
X797115Y179247D01*
X797391Y178872D01*
X797677Y178503D01*
X797971Y178141D01*
X798274Y177787D01*
X798585Y177440D01*
X798904Y177101D01*
X799232Y176769D01*
X799568Y176445D01*
X799911Y176130D01*
X800262Y175823D01*
X800620Y175524D01*
X800985Y175235D01*
X801357Y174954D01*
X801736Y174682D01*
X802121Y174419D01*
X802512Y174166D01*
X802910Y173923D01*
X803313Y173689D01*
X803722Y173464D01*
X804136Y173250D01*
X804555Y173046D01*
X804979Y172852D01*
X805407Y172668D01*
X805840Y172495D01*
X806277Y172332D01*
X806717Y172180D01*
X807162Y172039D01*
X807609Y171908D01*
X808060Y171788D01*
X808513Y171679D01*
X808969Y171581D01*
X809427Y171494D01*
X809887Y171418D01*
X810348Y171353D01*
X810811Y171300D01*
X811276Y171257D01*
X811741Y171226D01*
X812206Y171206D01*
X812673Y171197D01*
D12*
X828548Y198374D02*
X828548Y203454D01*
X828548Y182118D02*
X828548Y177546D01*
D11*
X753006Y204338D02*
X751250Y202874D01*
X751250Y202875D02*
X750949Y203222D01*
X750640Y203562D01*
X750323Y203895D01*
X749998Y204220D01*
X749666Y204537D01*
X749326Y204846D01*
X748978Y205147D01*
X748624Y205440D01*
X748262Y205723D01*
X747894Y205998D01*
X747519Y206265D01*
X747138Y206522D01*
X746751Y206770D01*
X746359Y207008D01*
X745960Y207237D01*
X745556Y207457D01*
X745148Y207667D01*
X744734Y207867D01*
X744315Y208057D01*
X743892Y208236D01*
X743465Y208406D01*
X743034Y208565D01*
X742599Y208714D01*
X742161Y208853D01*
X741720Y208981D01*
X741275Y209098D01*
X740828Y209205D01*
X740379Y209301D01*
X739927Y209386D01*
X739474Y209460D01*
X739018Y209524D01*
X738562Y209576D01*
X738104Y209618D01*
X737646Y209648D01*
X737186Y209668D01*
X736727Y209677D01*
X736726Y211962D01*
X736727Y211963D01*
X737242Y211953D01*
X737757Y211932D01*
X738271Y211898D01*
X738784Y211852D01*
X739296Y211793D01*
X739806Y211722D01*
X740315Y211639D01*
X740821Y211544D01*
X741325Y211436D01*
X741826Y211317D01*
X742324Y211186D01*
X742819Y211042D01*
X743310Y210887D01*
X743798Y210720D01*
X744281Y210541D01*
X744760Y210351D01*
X745234Y210150D01*
X745703Y209937D01*
X746167Y209713D01*
X746626Y209478D01*
X747078Y209231D01*
X747525Y208975D01*
X747965Y208707D01*
X748399Y208429D01*
X748826Y208141D01*
X749246Y207842D01*
X749658Y207533D01*
X750064Y207215D01*
X750461Y206887D01*
X750850Y206550D01*
X751231Y206203D01*
X751604Y205847D01*
X751968Y205483D01*
X752323Y205110D01*
X752669Y204728D01*
X753006Y204338D01*
X752822Y204184D01*
X752489Y204570D01*
X752147Y204947D01*
X751795Y205316D01*
X751435Y205676D01*
X751067Y206028D01*
X750690Y206371D01*
X750305Y206704D01*
X749912Y207029D01*
X749512Y207343D01*
X749104Y207648D01*
X748689Y207944D01*
X748267Y208229D01*
X747838Y208504D01*
X747402Y208768D01*
X746961Y209022D01*
X746513Y209265D01*
X746060Y209498D01*
X745602Y209719D01*
X745138Y209930D01*
X744669Y210129D01*
X744195Y210317D01*
X743718Y210494D01*
X743236Y210659D01*
X742750Y210812D01*
X742261Y210954D01*
X741768Y211084D01*
X741273Y211202D01*
X740775Y211308D01*
X740274Y211403D01*
X739771Y211485D01*
X739267Y211555D01*
X738761Y211613D01*
X738253Y211658D01*
X737745Y211692D01*
X737236Y211713D01*
X736727Y211723D01*
X736727Y211483D01*
X737230Y211474D01*
X737733Y211452D01*
X738236Y211419D01*
X738737Y211374D01*
X739238Y211317D01*
X739736Y211247D01*
X740233Y211166D01*
X740728Y211073D01*
X741221Y210968D01*
X741710Y210851D01*
X742197Y210723D01*
X742681Y210583D01*
X743161Y210431D01*
X743637Y210268D01*
X744110Y210093D01*
X744578Y209907D01*
X745041Y209710D01*
X745500Y209502D01*
X745953Y209283D01*
X746401Y209053D01*
X746844Y208813D01*
X747280Y208562D01*
X747710Y208300D01*
X748134Y208028D01*
X748552Y207747D01*
X748962Y207455D01*
X749365Y207153D01*
X749761Y206842D01*
X750150Y206522D01*
X750530Y206192D01*
X750903Y205853D01*
X751267Y205506D01*
X751623Y205149D01*
X751970Y204785D01*
X752308Y204412D01*
X752638Y204031D01*
X752453Y203877D01*
X752128Y204254D01*
X751793Y204622D01*
X751450Y204983D01*
X751098Y205335D01*
X750738Y205678D01*
X750370Y206013D01*
X749994Y206339D01*
X749610Y206656D01*
X749219Y206963D01*
X748820Y207261D01*
X748414Y207550D01*
X748002Y207828D01*
X747583Y208097D01*
X747158Y208355D01*
X746726Y208603D01*
X746289Y208841D01*
X745846Y209068D01*
X745398Y209285D01*
X744945Y209490D01*
X744487Y209685D01*
X744024Y209869D01*
X743557Y210041D01*
X743086Y210203D01*
X742612Y210353D01*
X742134Y210491D01*
X741653Y210618D01*
X741169Y210734D01*
X740682Y210837D01*
X740193Y210930D01*
X739701Y211010D01*
X739209Y211078D01*
X738714Y211135D01*
X738218Y211180D01*
X737722Y211213D01*
X737224Y211234D01*
X736727Y211243D01*
X736727Y211003D01*
X737219Y210994D01*
X737710Y210973D01*
X738201Y210940D01*
X738691Y210896D01*
X739179Y210840D01*
X739667Y210772D01*
X740152Y210693D01*
X740635Y210602D01*
X741116Y210499D01*
X741595Y210385D01*
X742070Y210260D01*
X742543Y210123D01*
X743012Y209975D01*
X743477Y209815D01*
X743938Y209645D01*
X744396Y209463D01*
X744848Y209271D01*
X745296Y209067D01*
X745739Y208854D01*
X746177Y208629D01*
X746609Y208394D01*
X747035Y208149D01*
X747455Y207893D01*
X747870Y207628D01*
X748277Y207353D01*
X748678Y207068D01*
X749072Y206773D01*
X749459Y206469D01*
X749838Y206156D01*
X750210Y205834D01*
X750574Y205503D01*
X750930Y205164D01*
X751277Y204816D01*
X751617Y204460D01*
X751947Y204096D01*
X752269Y203723D01*
X752084Y203570D01*
X751767Y203937D01*
X751440Y204297D01*
X751105Y204649D01*
X750761Y204993D01*
X750410Y205329D01*
X750050Y205655D01*
X749683Y205974D01*
X749308Y206283D01*
X748925Y206583D01*
X748536Y206874D01*
X748140Y207156D01*
X747737Y207428D01*
X747328Y207690D01*
X746913Y207942D01*
X746491Y208185D01*
X746064Y208417D01*
X745632Y208639D01*
X745194Y208850D01*
X744752Y209051D01*
X744304Y209241D01*
X743853Y209421D01*
X743397Y209589D01*
X742937Y209747D01*
X742474Y209893D01*
X742007Y210028D01*
X741537Y210152D01*
X741064Y210265D01*
X740589Y210367D01*
X740111Y210456D01*
X739632Y210535D01*
X739150Y210602D01*
X738667Y210657D01*
X738183Y210701D01*
X737698Y210733D01*
X737213Y210754D01*
X736727Y210763D01*
X736727Y210523D01*
X737207Y210514D01*
X737687Y210493D01*
X738166Y210462D01*
X738644Y210418D01*
X739121Y210364D01*
X739597Y210297D01*
X740071Y210220D01*
X740542Y210131D01*
X741012Y210031D01*
X741479Y209919D01*
X741943Y209797D01*
X742405Y209663D01*
X742862Y209518D01*
X743317Y209363D01*
X743767Y209196D01*
X744213Y209019D01*
X744655Y208831D01*
X745093Y208633D01*
X745525Y208424D01*
X745952Y208205D01*
X746374Y207975D01*
X746790Y207736D01*
X747201Y207487D01*
X747605Y207228D01*
X748003Y206959D01*
X748394Y206681D01*
X748779Y206393D01*
X749157Y206097D01*
X749527Y205791D01*
X749890Y205477D01*
X750245Y205154D01*
X750593Y204822D01*
X750932Y204483D01*
X751263Y204135D01*
X751586Y203779D01*
X751900Y203416D01*
X751716Y203263D01*
X751405Y203621D01*
X751087Y203972D01*
X750759Y204316D01*
X750424Y204651D01*
X750081Y204979D01*
X749730Y205298D01*
X749371Y205608D01*
X749005Y205910D01*
X748632Y206203D01*
X748252Y206487D01*
X747866Y206762D01*
X747473Y207027D01*
X747073Y207283D01*
X746668Y207530D01*
X746257Y207766D01*
X745840Y207993D01*
X745418Y208209D01*
X744991Y208415D01*
X744559Y208611D01*
X744122Y208797D01*
X743681Y208972D01*
X743237Y209137D01*
X742788Y209290D01*
X742336Y209433D01*
X741880Y209565D01*
X741421Y209687D01*
X740960Y209797D01*
X740496Y209896D01*
X740030Y209983D01*
X739562Y210060D01*
X739092Y210125D01*
X738621Y210180D01*
X738148Y210222D01*
X737675Y210254D01*
X737201Y210274D01*
X736727Y210283D01*
X736727Y210043D01*
X737195Y210034D01*
X737663Y210014D01*
X738131Y209983D01*
X738597Y209941D01*
X739063Y209887D01*
X739527Y209823D01*
X739989Y209747D01*
X740450Y209660D01*
X740908Y209562D01*
X741364Y209454D01*
X741816Y209334D01*
X742266Y209203D01*
X742713Y209062D01*
X743156Y208910D01*
X743596Y208748D01*
X744031Y208575D01*
X744462Y208392D01*
X744889Y208198D01*
X745311Y207994D01*
X745728Y207780D01*
X746139Y207557D01*
X746545Y207323D01*
X746946Y207080D01*
X747340Y206827D01*
X747729Y206565D01*
X748110Y206294D01*
X748486Y206013D01*
X748854Y205724D01*
X749216Y205426D01*
X749570Y205119D01*
X749916Y204804D01*
X750256Y204481D01*
X750587Y204149D01*
X750910Y203810D01*
X751225Y203463D01*
X751531Y203109D01*
X751347Y202955D01*
X751044Y203305D01*
X750733Y203648D01*
X750414Y203983D01*
X750087Y204310D01*
X749752Y204629D01*
X749410Y204940D01*
X749060Y205243D01*
X748703Y205537D01*
X748339Y205823D01*
X747969Y206100D01*
X747591Y206368D01*
X747208Y206627D01*
X746818Y206877D01*
X746423Y207117D01*
X746022Y207347D01*
X745615Y207568D01*
X745204Y207779D01*
X744787Y207981D01*
X744366Y208172D01*
X743940Y208353D01*
X743510Y208524D01*
X743076Y208684D01*
X742638Y208834D01*
X742197Y208974D01*
X741753Y209102D01*
X741306Y209221D01*
X740856Y209328D01*
X740403Y209425D01*
X739949Y209510D01*
X739492Y209585D01*
X739034Y209649D01*
X738574Y209702D01*
X738113Y209744D01*
X737652Y209774D01*
X737189Y209794D01*
X736727Y209803D01*
X736474Y211962D02*
X736474Y209676D01*
X736473Y209677D02*
X736008Y209668D01*
X735543Y209648D01*
X735079Y209617D01*
X734616Y209574D01*
X734154Y209520D01*
X733693Y209455D01*
X733234Y209379D01*
X732777Y209292D01*
X732322Y209194D01*
X731870Y209084D01*
X731420Y208964D01*
X730974Y208833D01*
X730531Y208691D01*
X730091Y208538D01*
X729656Y208375D01*
X729224Y208201D01*
X728797Y208017D01*
X728374Y207823D01*
X727956Y207618D01*
X727543Y207403D01*
X727136Y207178D01*
X726734Y206944D01*
X726338Y206700D01*
X725948Y206446D01*
X725564Y206183D01*
X725187Y205910D01*
X724817Y205629D01*
X724453Y205339D01*
X724097Y205040D01*
X723748Y204732D01*
X723406Y204416D01*
X723072Y204092D01*
X722747Y203759D01*
X722429Y203419D01*
X722120Y203072D01*
X721819Y202717D01*
X721527Y202355D01*
X721244Y201985D01*
X720970Y201609D01*
X720705Y201227D01*
X720449Y200838D01*
X720203Y200443D01*
X719967Y200042D01*
X719740Y199636D01*
X717723Y200711D01*
X717723Y200712D01*
X717977Y201167D01*
X718241Y201617D01*
X718517Y202059D01*
X718803Y202495D01*
X719100Y202924D01*
X719406Y203346D01*
X719724Y203760D01*
X720051Y204166D01*
X720388Y204564D01*
X720734Y204953D01*
X721090Y205335D01*
X721455Y205707D01*
X721829Y206070D01*
X722211Y206425D01*
X722602Y206770D01*
X723002Y207105D01*
X723409Y207430D01*
X723824Y207746D01*
X724247Y208051D01*
X724677Y208346D01*
X725114Y208630D01*
X725558Y208904D01*
X726008Y209167D01*
X726465Y209419D01*
X726927Y209659D01*
X727396Y209889D01*
X727869Y210107D01*
X728348Y210313D01*
X728832Y210508D01*
X729320Y210690D01*
X729813Y210861D01*
X730310Y211020D01*
X730810Y211167D01*
X731314Y211302D01*
X731821Y211424D01*
X732330Y211534D01*
X732843Y211631D01*
X733357Y211716D01*
X733874Y211789D01*
X734391Y211849D01*
X734911Y211896D01*
X735431Y211931D01*
X735952Y211953D01*
X736473Y211963D01*
X736473Y211723D01*
X735958Y211713D01*
X735443Y211691D01*
X734928Y211657D01*
X734415Y211610D01*
X733903Y211551D01*
X733392Y211479D01*
X732884Y211395D01*
X732377Y211298D01*
X731873Y211190D01*
X731372Y211069D01*
X730874Y210936D01*
X730379Y210791D01*
X729888Y210633D01*
X729401Y210464D01*
X728919Y210284D01*
X728440Y210091D01*
X727967Y209887D01*
X727498Y209672D01*
X727035Y209445D01*
X726578Y209207D01*
X726127Y208958D01*
X725681Y208698D01*
X725243Y208428D01*
X724810Y208147D01*
X724385Y207855D01*
X723967Y207553D01*
X723557Y207241D01*
X723154Y206919D01*
X722759Y206588D01*
X722373Y206247D01*
X721994Y205897D01*
X721625Y205537D01*
X721264Y205169D01*
X720912Y204792D01*
X720569Y204407D01*
X720236Y204013D01*
X719913Y203612D01*
X719599Y203203D01*
X719296Y202786D01*
X719003Y202362D01*
X718720Y201931D01*
X718447Y201493D01*
X718186Y201049D01*
X717935Y200599D01*
X718146Y200486D01*
X718394Y200931D01*
X718653Y201370D01*
X718922Y201803D01*
X719202Y202229D01*
X719492Y202648D01*
X719792Y203060D01*
X720102Y203464D01*
X720422Y203861D01*
X720751Y204250D01*
X721090Y204631D01*
X721438Y205004D01*
X721794Y205368D01*
X722160Y205723D01*
X722534Y206069D01*
X722916Y206406D01*
X723306Y206734D01*
X723705Y207052D01*
X724110Y207360D01*
X724524Y207659D01*
X724944Y207947D01*
X725371Y208225D01*
X725805Y208493D01*
X726245Y208749D01*
X726691Y208996D01*
X727143Y209231D01*
X727601Y209455D01*
X728064Y209668D01*
X728532Y209870D01*
X729005Y210060D01*
X729482Y210239D01*
X729964Y210406D01*
X730449Y210561D01*
X730938Y210704D01*
X731431Y210836D01*
X731926Y210956D01*
X732424Y211063D01*
X732925Y211158D01*
X733428Y211242D01*
X733932Y211313D01*
X734439Y211371D01*
X734946Y211418D01*
X735455Y211452D01*
X735964Y211473D01*
X736473Y211483D01*
X736473Y211243D01*
X735970Y211233D01*
X735466Y211212D01*
X734964Y211178D01*
X734462Y211132D01*
X733962Y211074D01*
X733463Y211004D01*
X732966Y210922D01*
X732471Y210828D01*
X731979Y210721D01*
X731489Y210603D01*
X731002Y210473D01*
X730519Y210331D01*
X730039Y210178D01*
X729563Y210013D01*
X729091Y209836D01*
X728624Y209648D01*
X728162Y209449D01*
X727704Y209238D01*
X727251Y209016D01*
X726805Y208784D01*
X726363Y208541D01*
X725928Y208287D01*
X725500Y208022D01*
X725077Y207748D01*
X724662Y207463D01*
X724254Y207168D01*
X723852Y206863D01*
X723459Y206549D01*
X723073Y206225D01*
X722695Y205892D01*
X722325Y205549D01*
X721964Y205198D01*
X721612Y204838D01*
X721268Y204470D01*
X720933Y204094D01*
X720608Y203709D01*
X720292Y203317D01*
X719985Y202917D01*
X719689Y202510D01*
X719402Y202096D01*
X719125Y201675D01*
X718859Y201247D01*
X718603Y200813D01*
X718358Y200373D01*
X718570Y200260D01*
X718812Y200695D01*
X719065Y201124D01*
X719328Y201546D01*
X719602Y201963D01*
X719885Y202372D01*
X720178Y202774D01*
X720481Y203169D01*
X720793Y203557D01*
X721115Y203937D01*
X721446Y204309D01*
X721786Y204673D01*
X722134Y205029D01*
X722491Y205376D01*
X722856Y205714D01*
X723230Y206043D01*
X723611Y206363D01*
X724000Y206674D01*
X724397Y206975D01*
X724800Y207266D01*
X725211Y207548D01*
X725628Y207820D01*
X726052Y208081D01*
X726482Y208332D01*
X726918Y208572D01*
X727359Y208802D01*
X727807Y209021D01*
X728259Y209229D01*
X728716Y209426D01*
X729178Y209612D01*
X729644Y209787D01*
X730114Y209950D01*
X730589Y210102D01*
X731066Y210242D01*
X731547Y210370D01*
X732031Y210487D01*
X732518Y210592D01*
X733007Y210686D01*
X733498Y210767D01*
X733991Y210836D01*
X734486Y210894D01*
X734981Y210939D01*
X735478Y210972D01*
X735976Y210993D01*
X736473Y211003D01*
X736473Y210763D01*
X735982Y210754D01*
X735490Y210733D01*
X734999Y210700D01*
X734509Y210655D01*
X734021Y210598D01*
X733533Y210529D01*
X733048Y210449D01*
X732565Y210357D01*
X732084Y210253D01*
X731606Y210138D01*
X731130Y210011D01*
X730658Y209872D01*
X730190Y209722D01*
X729725Y209561D01*
X729264Y209388D01*
X728808Y209204D01*
X728356Y209010D01*
X727909Y208804D01*
X727467Y208588D01*
X727031Y208361D01*
X726600Y208123D01*
X726175Y207875D01*
X725757Y207617D01*
X725344Y207349D01*
X724939Y207070D01*
X724540Y206782D01*
X724148Y206485D01*
X723764Y206178D01*
X723387Y205861D01*
X723018Y205536D01*
X722657Y205202D01*
X722304Y204859D01*
X721959Y204508D01*
X721624Y204148D01*
X721297Y203780D01*
X720979Y203405D01*
X720670Y203022D01*
X720371Y202632D01*
X720081Y202234D01*
X719801Y201829D01*
X719531Y201418D01*
X719271Y201001D01*
X719021Y200577D01*
X718782Y200147D01*
X718994Y200034D01*
X719230Y200459D01*
X719477Y200877D01*
X719734Y201290D01*
X720001Y201696D01*
X720278Y202096D01*
X720564Y202489D01*
X720860Y202874D01*
X721165Y203253D01*
X721479Y203624D01*
X721802Y203987D01*
X722133Y204342D01*
X722474Y204689D01*
X722822Y205028D01*
X723179Y205358D01*
X723544Y205680D01*
X723916Y205992D01*
X724296Y206296D01*
X724683Y206590D01*
X725077Y206874D01*
X725478Y207149D01*
X725885Y207414D01*
X726299Y207669D01*
X726719Y207914D01*
X727144Y208149D01*
X727575Y208373D01*
X728012Y208587D01*
X728454Y208790D01*
X728900Y208983D01*
X729351Y209164D01*
X729806Y209335D01*
X730265Y209494D01*
X730728Y209642D01*
X731194Y209779D01*
X731664Y209905D01*
X732137Y210019D01*
X732612Y210122D01*
X733089Y210213D01*
X733569Y210292D01*
X734050Y210360D01*
X734533Y210416D01*
X735017Y210460D01*
X735502Y210493D01*
X735987Y210514D01*
X736473Y210523D01*
X736473Y210283D01*
X735993Y210274D01*
X735514Y210253D01*
X735035Y210221D01*
X734556Y210177D01*
X734079Y210122D01*
X733604Y210055D01*
X733130Y209976D01*
X732659Y209886D01*
X732189Y209785D01*
X731722Y209672D01*
X731259Y209548D01*
X730798Y209413D01*
X730341Y209266D01*
X729887Y209109D01*
X729437Y208940D01*
X728992Y208761D01*
X728551Y208571D01*
X728115Y208370D01*
X727683Y208159D01*
X727257Y207937D01*
X726837Y207706D01*
X726422Y207464D01*
X726014Y207211D01*
X725611Y206950D01*
X725215Y206678D01*
X724826Y206397D01*
X724443Y206106D01*
X724068Y205807D01*
X723700Y205498D01*
X723340Y205181D01*
X722988Y204854D01*
X722644Y204520D01*
X722307Y204177D01*
X721980Y203826D01*
X721661Y203467D01*
X721350Y203101D01*
X721049Y202727D01*
X720757Y202346D01*
X720474Y201958D01*
X720201Y201563D01*
X719937Y201162D01*
X719683Y200754D01*
X719439Y200341D01*
X719205Y199921D01*
X719417Y199808D01*
X719648Y200222D01*
X719889Y200631D01*
X720140Y201034D01*
X720400Y201430D01*
X720670Y201820D01*
X720950Y202203D01*
X721238Y202579D01*
X721536Y202949D01*
X721842Y203311D01*
X722158Y203665D01*
X722481Y204012D01*
X722813Y204350D01*
X723154Y204681D01*
X723502Y205003D01*
X723857Y205317D01*
X724221Y205621D01*
X724591Y205917D01*
X724969Y206204D01*
X725353Y206482D01*
X725745Y206750D01*
X726142Y207009D01*
X726546Y207258D01*
X726955Y207497D01*
X727371Y207726D01*
X727791Y207945D01*
X728217Y208153D01*
X728648Y208352D01*
X729084Y208539D01*
X729524Y208717D01*
X729968Y208883D01*
X730416Y209038D01*
X730868Y209183D01*
X731323Y209317D01*
X731781Y209439D01*
X732242Y209551D01*
X732705Y209651D01*
X733171Y209740D01*
X733639Y209817D01*
X734109Y209883D01*
X734580Y209938D01*
X735052Y209982D01*
X735525Y210013D01*
X735999Y210034D01*
X736473Y210043D01*
X736473Y209803D01*
X736005Y209794D01*
X735537Y209774D01*
X735070Y209742D01*
X734603Y209699D01*
X734138Y209645D01*
X733674Y209580D01*
X733212Y209503D01*
X732752Y209415D01*
X732294Y209316D01*
X731839Y209206D01*
X731387Y209085D01*
X730937Y208953D01*
X730491Y208811D01*
X730049Y208657D01*
X729610Y208493D01*
X729176Y208318D01*
X728746Y208132D01*
X728320Y207937D01*
X727899Y207730D01*
X727484Y207514D01*
X727074Y207288D01*
X726669Y207052D01*
X726271Y206806D01*
X725878Y206551D01*
X725492Y206286D01*
X725112Y206012D01*
X724739Y205728D01*
X724373Y205436D01*
X724014Y205135D01*
X723663Y204825D01*
X723319Y204507D01*
X722983Y204181D01*
X722655Y203846D01*
X722336Y203504D01*
X722024Y203154D01*
X721721Y202797D01*
X721428Y202432D01*
X721142Y202060D01*
X720867Y201682D01*
X720600Y201297D01*
X720343Y200905D01*
X720095Y200508D01*
X719857Y200104D01*
X719629Y199695D01*
X736726Y169038D02*
X736726Y171324D01*
X736727Y171323D02*
X737195Y171332D01*
X737663Y171353D01*
X738131Y171384D01*
X738598Y171427D01*
X739063Y171482D01*
X739527Y171548D01*
X739989Y171625D01*
X740449Y171713D01*
X740907Y171813D01*
X741363Y171924D01*
X741815Y172046D01*
X742264Y172179D01*
X742710Y172323D01*
X743153Y172477D01*
X743591Y172643D01*
X744025Y172819D01*
X744455Y173006D01*
X744880Y173203D01*
X745300Y173410D01*
X745715Y173628D01*
X746125Y173856D01*
X746529Y174093D01*
X746927Y174341D01*
X747318Y174598D01*
X747704Y174865D01*
X748083Y175141D01*
X748454Y175426D01*
X748819Y175720D01*
X749177Y176023D01*
X749527Y176335D01*
X749869Y176655D01*
X750203Y176983D01*
X750529Y177319D01*
X750847Y177664D01*
X751157Y178016D01*
X752901Y176539D01*
X752902Y176539D01*
X752555Y176144D01*
X752199Y175758D01*
X751834Y175381D01*
X751459Y175012D01*
X751076Y174653D01*
X750683Y174304D01*
X750283Y173964D01*
X749874Y173634D01*
X749457Y173314D01*
X749033Y173005D01*
X748601Y172706D01*
X748162Y172417D01*
X747716Y172140D01*
X747263Y171873D01*
X746804Y171618D01*
X746339Y171374D01*
X745868Y171141D01*
X745391Y170920D01*
X744909Y170711D01*
X744422Y170513D01*
X743931Y170328D01*
X743435Y170154D01*
X742935Y169993D01*
X742431Y169844D01*
X741924Y169708D01*
X741413Y169584D01*
X740900Y169472D01*
X740384Y169373D01*
X739866Y169287D01*
X739346Y169213D01*
X738824Y169153D01*
X738301Y169105D01*
X737777Y169069D01*
X737252Y169047D01*
X736727Y169037D01*
X736727Y169277D01*
X737246Y169287D01*
X737765Y169309D01*
X738283Y169344D01*
X738800Y169391D01*
X739316Y169452D01*
X739830Y169524D01*
X740343Y169610D01*
X740853Y169707D01*
X741360Y169818D01*
X741865Y169940D01*
X742367Y170075D01*
X742865Y170223D01*
X743359Y170382D01*
X743849Y170553D01*
X744335Y170737D01*
X744816Y170932D01*
X745293Y171139D01*
X745764Y171357D01*
X746230Y171587D01*
X746690Y171829D01*
X747143Y172081D01*
X747591Y172345D01*
X748032Y172619D01*
X748466Y172904D01*
X748893Y173200D01*
X749313Y173506D01*
X749725Y173822D01*
X750129Y174148D01*
X750525Y174484D01*
X750913Y174830D01*
X751292Y175185D01*
X751662Y175549D01*
X752024Y175922D01*
X752376Y176304D01*
X752719Y176694D01*
X752535Y176849D01*
X752197Y176463D01*
X751849Y176086D01*
X751491Y175717D01*
X751125Y175357D01*
X750750Y175006D01*
X750367Y174665D01*
X749975Y174333D01*
X749576Y174010D01*
X749169Y173698D01*
X748754Y173395D01*
X748332Y173103D01*
X747902Y172821D01*
X747466Y172550D01*
X747024Y172289D01*
X746575Y172040D01*
X746121Y171801D01*
X745660Y171574D01*
X745195Y171358D01*
X744724Y171153D01*
X744248Y170960D01*
X743767Y170779D01*
X743283Y170610D01*
X742794Y170452D01*
X742302Y170307D01*
X741806Y170173D01*
X741307Y170052D01*
X740805Y169943D01*
X740301Y169846D01*
X739795Y169762D01*
X739286Y169690D01*
X738776Y169630D01*
X738265Y169583D01*
X737753Y169549D01*
X737240Y169527D01*
X736727Y169517D01*
X736727Y169757D01*
X737234Y169767D01*
X737741Y169788D01*
X738247Y169823D01*
X738753Y169869D01*
X739257Y169928D01*
X739759Y169999D01*
X740260Y170082D01*
X740758Y170178D01*
X741254Y170286D01*
X741747Y170406D01*
X742237Y170538D01*
X742724Y170682D01*
X743207Y170837D01*
X743686Y171005D01*
X744161Y171184D01*
X744631Y171375D01*
X745096Y171577D01*
X745557Y171790D01*
X746012Y172015D01*
X746461Y172251D01*
X746905Y172498D01*
X747342Y172755D01*
X747773Y173023D01*
X748197Y173302D01*
X748614Y173590D01*
X749024Y173889D01*
X749427Y174198D01*
X749822Y174517D01*
X750209Y174845D01*
X750588Y175183D01*
X750958Y175530D01*
X751320Y175885D01*
X751673Y176250D01*
X752017Y176623D01*
X752352Y177004D01*
X752169Y177159D01*
X751838Y176782D01*
X751498Y176414D01*
X751149Y176054D01*
X750791Y175702D01*
X750425Y175359D01*
X750051Y175026D01*
X749668Y174701D01*
X749278Y174386D01*
X748880Y174081D01*
X748475Y173786D01*
X748062Y173500D01*
X747643Y173225D01*
X747217Y172960D01*
X746785Y172706D01*
X746347Y172462D01*
X745903Y172229D01*
X745453Y172007D01*
X744998Y171796D01*
X744538Y171596D01*
X744073Y171408D01*
X743604Y171230D01*
X743131Y171065D01*
X742653Y170911D01*
X742172Y170769D01*
X741688Y170638D01*
X741201Y170520D01*
X740711Y170413D01*
X740218Y170319D01*
X739724Y170236D01*
X739227Y170166D01*
X738729Y170108D01*
X738229Y170062D01*
X737729Y170028D01*
X737228Y170007D01*
X736727Y169997D01*
X736727Y170237D01*
X737222Y170247D01*
X737717Y170268D01*
X738212Y170301D01*
X738705Y170347D01*
X739197Y170404D01*
X739688Y170474D01*
X740177Y170555D01*
X740663Y170649D01*
X741148Y170754D01*
X741629Y170871D01*
X742108Y171000D01*
X742583Y171140D01*
X743055Y171293D01*
X743522Y171456D01*
X743986Y171631D01*
X744445Y171817D01*
X744900Y172015D01*
X745349Y172223D01*
X745794Y172443D01*
X746232Y172673D01*
X746666Y172914D01*
X747093Y173165D01*
X747513Y173427D01*
X747928Y173699D01*
X748335Y173981D01*
X748736Y174273D01*
X749129Y174575D01*
X749514Y174886D01*
X749892Y175206D01*
X750262Y175536D01*
X750624Y175874D01*
X750978Y176222D01*
X751323Y176578D01*
X751659Y176942D01*
X751986Y177314D01*
X751803Y177469D01*
X751479Y177101D01*
X751147Y176742D01*
X750807Y176390D01*
X750457Y176047D01*
X750100Y175712D01*
X749734Y175387D01*
X749361Y175070D01*
X748980Y174763D01*
X748591Y174465D01*
X748196Y174176D01*
X747793Y173898D01*
X747384Y173629D01*
X746968Y173370D01*
X746546Y173122D01*
X746118Y172884D01*
X745685Y172657D01*
X745246Y172440D01*
X744801Y172234D01*
X744352Y172039D01*
X743899Y171855D01*
X743441Y171682D01*
X742979Y171520D01*
X742513Y171370D01*
X742043Y171231D01*
X741570Y171104D01*
X741095Y170988D01*
X740616Y170884D01*
X740135Y170792D01*
X739652Y170711D01*
X739168Y170642D01*
X738681Y170585D01*
X738194Y170541D01*
X737705Y170508D01*
X737216Y170486D01*
X736727Y170477D01*
X736727Y170717D01*
X737210Y170726D01*
X737693Y170747D01*
X738176Y170780D01*
X738658Y170824D01*
X739138Y170880D01*
X739617Y170948D01*
X740094Y171028D01*
X740569Y171119D01*
X741041Y171222D01*
X741511Y171336D01*
X741978Y171462D01*
X742442Y171599D01*
X742902Y171748D01*
X743359Y171907D01*
X743811Y172078D01*
X744260Y172260D01*
X744703Y172453D01*
X745142Y172656D01*
X745576Y172870D01*
X746004Y173095D01*
X746427Y173330D01*
X746843Y173575D01*
X747254Y173831D01*
X747658Y174096D01*
X748056Y174372D01*
X748447Y174656D01*
X748831Y174951D01*
X749207Y175254D01*
X749576Y175567D01*
X749937Y175889D01*
X750290Y176219D01*
X750635Y176558D01*
X750972Y176905D01*
X751300Y177261D01*
X751619Y177624D01*
X751436Y177779D01*
X751121Y177420D01*
X750797Y177069D01*
X750464Y176726D01*
X750123Y176392D01*
X749775Y176065D01*
X749418Y175748D01*
X749053Y175439D01*
X748682Y175139D01*
X748303Y174848D01*
X747917Y174567D01*
X747524Y174295D01*
X747124Y174033D01*
X746719Y173781D01*
X746307Y173538D01*
X745890Y173306D01*
X745467Y173084D01*
X745038Y172873D01*
X744605Y172672D01*
X744167Y172481D01*
X743724Y172302D01*
X743277Y172133D01*
X742826Y171975D01*
X742372Y171829D01*
X741914Y171693D01*
X741452Y171569D01*
X740988Y171456D01*
X740521Y171354D01*
X740052Y171264D01*
X739581Y171186D01*
X739108Y171119D01*
X738634Y171063D01*
X738158Y171019D01*
X737681Y170987D01*
X737204Y170966D01*
X736727Y170957D01*
X736727Y171197D01*
X737198Y171206D01*
X737670Y171227D01*
X738140Y171259D01*
X738610Y171302D01*
X739079Y171357D01*
X739546Y171423D01*
X740011Y171501D01*
X740474Y171590D01*
X740935Y171690D01*
X741393Y171802D01*
X741849Y171924D01*
X742301Y172058D01*
X742750Y172203D01*
X743196Y172359D01*
X743637Y172525D01*
X744074Y172703D01*
X744507Y172891D01*
X744935Y173089D01*
X745358Y173298D01*
X745775Y173517D01*
X746188Y173746D01*
X746594Y173986D01*
X746995Y174235D01*
X747389Y174494D01*
X747777Y174762D01*
X748158Y175040D01*
X748533Y175327D01*
X748900Y175623D01*
X749260Y175928D01*
X749612Y176242D01*
X749957Y176564D01*
X750293Y176895D01*
X750621Y177233D01*
X750941Y177580D01*
X751253Y177934D01*
X718028Y179741D02*
X720013Y180876D01*
X720012Y180875D02*
X720250Y180477D01*
X720496Y180085D01*
X720753Y179700D01*
X721018Y179320D01*
X721292Y178947D01*
X721576Y178581D01*
X721868Y178222D01*
X722169Y177870D01*
X722478Y177525D01*
X722795Y177188D01*
X723121Y176858D01*
X723454Y176537D01*
X723795Y176223D01*
X724144Y175918D01*
X724499Y175622D01*
X724862Y175334D01*
X725232Y175055D01*
X725608Y174785D01*
X725991Y174524D01*
X726380Y174273D01*
X726774Y174031D01*
X727175Y173798D01*
X727581Y173576D01*
X727992Y173363D01*
X728409Y173160D01*
X728830Y172967D01*
X729255Y172785D01*
X729685Y172613D01*
X730119Y172451D01*
X730557Y172300D01*
X730998Y172159D01*
X731443Y172029D01*
X731890Y171910D01*
X732340Y171802D01*
X732793Y171704D01*
X733248Y171618D01*
X733705Y171543D01*
X734164Y171478D01*
X734624Y171425D01*
X735085Y171383D01*
X735547Y171352D01*
X736010Y171332D01*
X736473Y171323D01*
X736473Y169038D01*
X736473Y169037D01*
X735954Y169047D01*
X735435Y169069D01*
X734917Y169103D01*
X734400Y169150D01*
X733885Y169209D01*
X733371Y169281D01*
X732859Y169365D01*
X732349Y169462D01*
X731841Y169571D01*
X731337Y169692D01*
X730835Y169825D01*
X730337Y169971D01*
X729842Y170128D01*
X729352Y170298D01*
X728865Y170479D01*
X728383Y170672D01*
X727906Y170876D01*
X727435Y171092D01*
X726968Y171319D01*
X726507Y171558D01*
X726052Y171807D01*
X725603Y172068D01*
X725161Y172339D01*
X724725Y172621D01*
X724296Y172913D01*
X723874Y173216D01*
X723460Y173529D01*
X723054Y173851D01*
X722655Y174184D01*
X722264Y174526D01*
X721882Y174877D01*
X721509Y175237D01*
X721144Y175607D01*
X720789Y175985D01*
X720442Y176371D01*
X720105Y176766D01*
X719778Y177169D01*
X719461Y177579D01*
X719153Y177998D01*
X718856Y178423D01*
X718569Y178856D01*
X718293Y179295D01*
X718028Y179741D01*
X718236Y179860D01*
X718498Y179419D01*
X718772Y178985D01*
X719055Y178557D01*
X719349Y178136D01*
X719653Y177723D01*
X719967Y177317D01*
X720291Y176919D01*
X720624Y176528D01*
X720966Y176146D01*
X721318Y175773D01*
X721678Y175407D01*
X722047Y175051D01*
X722425Y174704D01*
X722811Y174366D01*
X723205Y174037D01*
X723607Y173718D01*
X724017Y173409D01*
X724434Y173110D01*
X724858Y172821D01*
X725289Y172542D01*
X725726Y172274D01*
X726170Y172016D01*
X726620Y171770D01*
X727075Y171534D01*
X727537Y171309D01*
X728003Y171096D01*
X728475Y170893D01*
X728951Y170703D01*
X729432Y170524D01*
X729917Y170356D01*
X730406Y170201D01*
X730899Y170057D01*
X731395Y169925D01*
X731894Y169805D01*
X732395Y169697D01*
X732900Y169602D01*
X733406Y169519D01*
X733914Y169448D01*
X734424Y169389D01*
X734935Y169342D01*
X735447Y169308D01*
X735960Y169287D01*
X736473Y169277D01*
X736473Y169517D01*
X735965Y169527D01*
X735459Y169548D01*
X734952Y169582D01*
X734447Y169628D01*
X733943Y169686D01*
X733441Y169756D01*
X732940Y169838D01*
X732442Y169933D01*
X731946Y170039D01*
X731453Y170158D01*
X730963Y170288D01*
X730476Y170430D01*
X729992Y170584D01*
X729513Y170750D01*
X729037Y170927D01*
X728567Y171115D01*
X728100Y171315D01*
X727639Y171526D01*
X727183Y171748D01*
X726732Y171981D01*
X726288Y172225D01*
X725849Y172480D01*
X725416Y172745D01*
X724991Y173021D01*
X724571Y173306D01*
X724159Y173602D01*
X723754Y173908D01*
X723357Y174223D01*
X722968Y174548D01*
X722586Y174882D01*
X722212Y175225D01*
X721847Y175578D01*
X721491Y175939D01*
X721143Y176308D01*
X720805Y176686D01*
X720476Y177072D01*
X720156Y177465D01*
X719845Y177867D01*
X719545Y178275D01*
X719254Y178691D01*
X718974Y179114D01*
X718704Y179543D01*
X718444Y179979D01*
X718653Y180098D01*
X718909Y179667D01*
X719176Y179243D01*
X719453Y178825D01*
X719741Y178414D01*
X720038Y178010D01*
X720344Y177614D01*
X720661Y177224D01*
X720986Y176843D01*
X721321Y176470D01*
X721664Y176105D01*
X722017Y175748D01*
X722377Y175400D01*
X722747Y175060D01*
X723124Y174730D01*
X723509Y174409D01*
X723902Y174097D01*
X724302Y173795D01*
X724709Y173503D01*
X725123Y173220D01*
X725544Y172948D01*
X725972Y172686D01*
X726406Y172434D01*
X726845Y172193D01*
X727291Y171963D01*
X727741Y171743D01*
X728197Y171535D01*
X728658Y171337D01*
X729124Y171151D01*
X729593Y170976D01*
X730067Y170812D01*
X730545Y170660D01*
X731026Y170520D01*
X731511Y170391D01*
X731999Y170274D01*
X732489Y170168D01*
X732981Y170075D01*
X733476Y169993D01*
X733973Y169924D01*
X734471Y169866D01*
X734970Y169821D01*
X735470Y169788D01*
X735971Y169767D01*
X736473Y169757D01*
X736473Y169997D01*
X735977Y170006D01*
X735482Y170027D01*
X734988Y170060D01*
X734494Y170105D01*
X734002Y170162D01*
X733511Y170231D01*
X733022Y170311D01*
X732535Y170404D01*
X732051Y170508D01*
X731569Y170624D01*
X731090Y170751D01*
X730615Y170890D01*
X730142Y171040D01*
X729674Y171202D01*
X729210Y171375D01*
X728750Y171559D01*
X728294Y171754D01*
X727844Y171960D01*
X727398Y172177D01*
X726958Y172405D01*
X726524Y172643D01*
X726095Y172892D01*
X725672Y173151D01*
X725256Y173420D01*
X724847Y173699D01*
X724444Y173988D01*
X724049Y174287D01*
X723661Y174595D01*
X723280Y174912D01*
X722907Y175239D01*
X722543Y175574D01*
X722186Y175918D01*
X721838Y176271D01*
X721498Y176631D01*
X721167Y177000D01*
X720846Y177377D01*
X720533Y177762D01*
X720230Y178154D01*
X719936Y178553D01*
X719653Y178959D01*
X719379Y179372D01*
X719115Y179791D01*
X718861Y180217D01*
X719069Y180336D01*
X719320Y179916D01*
X719581Y179501D01*
X719852Y179093D01*
X720132Y178692D01*
X720422Y178297D01*
X720722Y177910D01*
X721031Y177530D01*
X721349Y177158D01*
X721675Y176793D01*
X722011Y176437D01*
X722355Y176088D01*
X722708Y175748D01*
X723068Y175417D01*
X723436Y175094D01*
X723813Y174781D01*
X724196Y174476D01*
X724587Y174181D01*
X724985Y173896D01*
X725389Y173620D01*
X725800Y173354D01*
X726218Y173098D01*
X726641Y172852D01*
X727071Y172617D01*
X727506Y172392D01*
X727946Y172178D01*
X728391Y171974D01*
X728841Y171781D01*
X729296Y171599D01*
X729755Y171428D01*
X730217Y171268D01*
X730684Y171120D01*
X731154Y170982D01*
X731627Y170856D01*
X732103Y170742D01*
X732582Y170639D01*
X733063Y170548D01*
X733546Y170468D01*
X734031Y170400D01*
X734518Y170344D01*
X735005Y170300D01*
X735494Y170267D01*
X735983Y170246D01*
X736473Y170237D01*
X736473Y170477D01*
X735989Y170486D01*
X735506Y170507D01*
X735023Y170539D01*
X734541Y170583D01*
X734060Y170639D01*
X733581Y170706D01*
X733104Y170784D01*
X732629Y170875D01*
X732156Y170976D01*
X731685Y171089D01*
X731218Y171214D01*
X730753Y171349D01*
X730292Y171496D01*
X729835Y171654D01*
X729382Y171823D01*
X728933Y172003D01*
X728488Y172193D01*
X728048Y172395D01*
X727613Y172607D01*
X727184Y172829D01*
X726759Y173061D01*
X726341Y173304D01*
X725928Y173557D01*
X725522Y173820D01*
X725122Y174092D01*
X724729Y174374D01*
X724343Y174666D01*
X723964Y174967D01*
X723593Y175276D01*
X723229Y175595D01*
X722873Y175922D01*
X722524Y176258D01*
X722184Y176603D01*
X721853Y176955D01*
X721530Y177315D01*
X721216Y177683D01*
X720911Y178058D01*
X720615Y178441D01*
X720328Y178831D01*
X720051Y179227D01*
X719783Y179630D01*
X719526Y180040D01*
X719278Y180455D01*
X719486Y180574D01*
X719731Y180164D01*
X719986Y179759D01*
X720250Y179361D01*
X720524Y178970D01*
X720807Y178585D01*
X721099Y178207D01*
X721401Y177836D01*
X721711Y177472D01*
X722030Y177117D01*
X722358Y176769D01*
X722694Y176429D01*
X723038Y176097D01*
X723389Y175773D01*
X723749Y175459D01*
X724116Y175153D01*
X724491Y174855D01*
X724872Y174568D01*
X725260Y174289D01*
X725655Y174020D01*
X726056Y173760D01*
X726464Y173510D01*
X726877Y173271D01*
X727296Y173041D01*
X727721Y172821D01*
X728150Y172612D01*
X728585Y172413D01*
X729024Y172225D01*
X729468Y172047D01*
X729916Y171880D01*
X730367Y171724D01*
X730823Y171579D01*
X731282Y171445D01*
X731743Y171322D01*
X732208Y171210D01*
X732675Y171110D01*
X733145Y171021D01*
X733616Y170943D01*
X734090Y170877D01*
X734564Y170822D01*
X735040Y170778D01*
X735517Y170747D01*
X735995Y170726D01*
X736473Y170717D01*
X736473Y170957D01*
X736001Y170966D01*
X735529Y170986D01*
X735058Y171018D01*
X734588Y171061D01*
X734119Y171115D01*
X733651Y171181D01*
X733186Y171257D01*
X732722Y171345D01*
X732260Y171445D01*
X731802Y171555D01*
X731345Y171676D01*
X730892Y171809D01*
X730442Y171952D01*
X729996Y172106D01*
X729554Y172271D01*
X729116Y172446D01*
X728682Y172632D01*
X728253Y172829D01*
X727828Y173036D01*
X727409Y173253D01*
X726995Y173480D01*
X726587Y173716D01*
X726184Y173963D01*
X725788Y174220D01*
X725398Y174485D01*
X725014Y174761D01*
X724638Y175045D01*
X724268Y175338D01*
X723905Y175641D01*
X723550Y175952D01*
X723203Y176271D01*
X722863Y176599D01*
X722531Y176935D01*
X722208Y177278D01*
X721892Y177630D01*
X721586Y177989D01*
X721288Y178355D01*
X720999Y178728D01*
X720719Y179108D01*
X720449Y179495D01*
X720188Y179889D01*
X719936Y180288D01*
X719695Y180693D01*
X719903Y180813D01*
X720142Y180412D01*
X720390Y180018D01*
X720648Y179629D01*
X720915Y179247D01*
X721191Y178872D01*
X721477Y178503D01*
X721771Y178141D01*
X722074Y177787D01*
X722385Y177440D01*
X722704Y177101D01*
X723032Y176769D01*
X723368Y176445D01*
X723711Y176130D01*
X724062Y175823D01*
X724420Y175524D01*
X724785Y175235D01*
X725157Y174954D01*
X725536Y174682D01*
X725921Y174419D01*
X726312Y174166D01*
X726710Y173923D01*
X727113Y173689D01*
X727522Y173464D01*
X727936Y173250D01*
X728355Y173046D01*
X728779Y172852D01*
X729207Y172668D01*
X729640Y172495D01*
X730077Y172332D01*
X730517Y172180D01*
X730962Y172039D01*
X731409Y171908D01*
X731860Y171788D01*
X732313Y171679D01*
X732769Y171581D01*
X733227Y171494D01*
X733687Y171418D01*
X734148Y171353D01*
X734611Y171300D01*
X735076Y171257D01*
X735541Y171226D01*
X736006Y171206D01*
X736473Y171197D01*
D12*
X752348Y198374D02*
X752348Y203454D01*
X752348Y182118D02*
X752348Y177546D01*
D11*
X676806Y204338D02*
X675050Y202874D01*
X675050Y202875D02*
X674749Y203222D01*
X674440Y203562D01*
X674123Y203895D01*
X673798Y204220D01*
X673466Y204537D01*
X673126Y204846D01*
X672778Y205147D01*
X672424Y205440D01*
X672062Y205723D01*
X671694Y205998D01*
X671319Y206265D01*
X670938Y206522D01*
X670551Y206770D01*
X670159Y207008D01*
X669760Y207237D01*
X669356Y207457D01*
X668948Y207667D01*
X668534Y207867D01*
X668115Y208057D01*
X667692Y208236D01*
X667265Y208406D01*
X666834Y208565D01*
X666399Y208714D01*
X665961Y208853D01*
X665520Y208981D01*
X665075Y209098D01*
X664628Y209205D01*
X664179Y209301D01*
X663727Y209386D01*
X663274Y209460D01*
X662818Y209524D01*
X662362Y209576D01*
X661904Y209618D01*
X661446Y209648D01*
X660986Y209668D01*
X660527Y209677D01*
X660526Y211962D01*
X660527Y211963D01*
X661042Y211953D01*
X661557Y211932D01*
X662071Y211898D01*
X662584Y211852D01*
X663096Y211793D01*
X663606Y211722D01*
X664115Y211639D01*
X664621Y211544D01*
X665125Y211436D01*
X665626Y211317D01*
X666124Y211186D01*
X666619Y211042D01*
X667110Y210887D01*
X667598Y210720D01*
X668081Y210541D01*
X668560Y210351D01*
X669034Y210150D01*
X669503Y209937D01*
X669967Y209713D01*
X670426Y209478D01*
X670878Y209231D01*
X671325Y208975D01*
X671765Y208707D01*
X672199Y208429D01*
X672626Y208141D01*
X673046Y207842D01*
X673458Y207533D01*
X673864Y207215D01*
X674261Y206887D01*
X674650Y206550D01*
X675031Y206203D01*
X675404Y205847D01*
X675768Y205483D01*
X676123Y205110D01*
X676469Y204728D01*
X676806Y204338D01*
X676622Y204184D01*
X676289Y204570D01*
X675947Y204947D01*
X675595Y205316D01*
X675235Y205676D01*
X674867Y206028D01*
X674490Y206371D01*
X674105Y206704D01*
X673712Y207029D01*
X673312Y207343D01*
X672904Y207648D01*
X672489Y207944D01*
X672067Y208229D01*
X671638Y208504D01*
X671202Y208768D01*
X670761Y209022D01*
X670313Y209265D01*
X669860Y209498D01*
X669402Y209719D01*
X668938Y209930D01*
X668469Y210129D01*
X667995Y210317D01*
X667518Y210494D01*
X667036Y210659D01*
X666550Y210812D01*
X666061Y210954D01*
X665568Y211084D01*
X665073Y211202D01*
X664575Y211308D01*
X664074Y211403D01*
X663571Y211485D01*
X663067Y211555D01*
X662561Y211613D01*
X662053Y211658D01*
X661545Y211692D01*
X661036Y211713D01*
X660527Y211723D01*
X660527Y211483D01*
X661030Y211474D01*
X661533Y211452D01*
X662036Y211419D01*
X662537Y211374D01*
X663038Y211317D01*
X663536Y211247D01*
X664033Y211166D01*
X664528Y211073D01*
X665021Y210968D01*
X665510Y210851D01*
X665997Y210723D01*
X666481Y210583D01*
X666961Y210431D01*
X667437Y210268D01*
X667910Y210093D01*
X668378Y209907D01*
X668841Y209710D01*
X669300Y209502D01*
X669753Y209283D01*
X670201Y209053D01*
X670644Y208813D01*
X671080Y208562D01*
X671510Y208300D01*
X671934Y208028D01*
X672352Y207747D01*
X672762Y207455D01*
X673165Y207153D01*
X673561Y206842D01*
X673950Y206522D01*
X674330Y206192D01*
X674703Y205853D01*
X675067Y205506D01*
X675423Y205149D01*
X675770Y204785D01*
X676108Y204412D01*
X676438Y204031D01*
X676253Y203877D01*
X675928Y204254D01*
X675593Y204622D01*
X675250Y204983D01*
X674898Y205335D01*
X674538Y205678D01*
X674170Y206013D01*
X673794Y206339D01*
X673410Y206656D01*
X673019Y206963D01*
X672620Y207261D01*
X672214Y207550D01*
X671802Y207828D01*
X671383Y208097D01*
X670958Y208355D01*
X670526Y208603D01*
X670089Y208841D01*
X669646Y209068D01*
X669198Y209285D01*
X668745Y209490D01*
X668287Y209685D01*
X667824Y209869D01*
X667357Y210041D01*
X666886Y210203D01*
X666412Y210353D01*
X665934Y210491D01*
X665453Y210618D01*
X664969Y210734D01*
X664482Y210837D01*
X663993Y210930D01*
X663501Y211010D01*
X663009Y211078D01*
X662514Y211135D01*
X662018Y211180D01*
X661522Y211213D01*
X661024Y211234D01*
X660527Y211243D01*
X660527Y211003D01*
X661019Y210994D01*
X661510Y210973D01*
X662001Y210940D01*
X662491Y210896D01*
X662979Y210840D01*
X663467Y210772D01*
X663952Y210693D01*
X664435Y210602D01*
X664916Y210499D01*
X665395Y210385D01*
X665870Y210260D01*
X666343Y210123D01*
X666812Y209975D01*
X667277Y209815D01*
X667738Y209645D01*
X668196Y209463D01*
X668648Y209271D01*
X669096Y209067D01*
X669539Y208854D01*
X669977Y208629D01*
X670409Y208394D01*
X670835Y208149D01*
X671255Y207893D01*
X671670Y207628D01*
X672077Y207353D01*
X672478Y207068D01*
X672872Y206773D01*
X673259Y206469D01*
X673638Y206156D01*
X674010Y205834D01*
X674374Y205503D01*
X674730Y205164D01*
X675077Y204816D01*
X675417Y204460D01*
X675747Y204096D01*
X676069Y203723D01*
X675884Y203570D01*
X675567Y203937D01*
X675240Y204297D01*
X674905Y204649D01*
X674561Y204993D01*
X674210Y205329D01*
X673850Y205655D01*
X673483Y205974D01*
X673108Y206283D01*
X672725Y206583D01*
X672336Y206874D01*
X671940Y207156D01*
X671537Y207428D01*
X671128Y207690D01*
X670713Y207942D01*
X670291Y208185D01*
X669864Y208417D01*
X669432Y208639D01*
X668994Y208850D01*
X668552Y209051D01*
X668104Y209241D01*
X667653Y209421D01*
X667197Y209589D01*
X666737Y209747D01*
X666274Y209893D01*
X665807Y210028D01*
X665337Y210152D01*
X664864Y210265D01*
X664389Y210367D01*
X663911Y210456D01*
X663432Y210535D01*
X662950Y210602D01*
X662467Y210657D01*
X661983Y210701D01*
X661498Y210733D01*
X661013Y210754D01*
X660527Y210763D01*
X660527Y210523D01*
X661007Y210514D01*
X661487Y210493D01*
X661966Y210462D01*
X662444Y210418D01*
X662921Y210364D01*
X663397Y210297D01*
X663871Y210220D01*
X664342Y210131D01*
X664812Y210031D01*
X665279Y209919D01*
X665743Y209797D01*
X666205Y209663D01*
X666662Y209518D01*
X667117Y209363D01*
X667567Y209196D01*
X668013Y209019D01*
X668455Y208831D01*
X668893Y208633D01*
X669325Y208424D01*
X669752Y208205D01*
X670174Y207975D01*
X670590Y207736D01*
X671001Y207487D01*
X671405Y207228D01*
X671803Y206959D01*
X672194Y206681D01*
X672579Y206393D01*
X672957Y206097D01*
X673327Y205791D01*
X673690Y205477D01*
X674045Y205154D01*
X674393Y204822D01*
X674732Y204483D01*
X675063Y204135D01*
X675386Y203779D01*
X675700Y203416D01*
X675516Y203263D01*
X675205Y203621D01*
X674887Y203972D01*
X674559Y204316D01*
X674224Y204651D01*
X673881Y204979D01*
X673530Y205298D01*
X673171Y205608D01*
X672805Y205910D01*
X672432Y206203D01*
X672052Y206487D01*
X671666Y206762D01*
X671273Y207027D01*
X670873Y207283D01*
X670468Y207530D01*
X670057Y207766D01*
X669640Y207993D01*
X669218Y208209D01*
X668791Y208415D01*
X668359Y208611D01*
X667922Y208797D01*
X667481Y208972D01*
X667037Y209137D01*
X666588Y209290D01*
X666136Y209433D01*
X665680Y209565D01*
X665221Y209687D01*
X664760Y209797D01*
X664296Y209896D01*
X663830Y209983D01*
X663362Y210060D01*
X662892Y210125D01*
X662421Y210180D01*
X661948Y210222D01*
X661475Y210254D01*
X661001Y210274D01*
X660527Y210283D01*
X660527Y210043D01*
X660995Y210034D01*
X661463Y210014D01*
X661931Y209983D01*
X662397Y209941D01*
X662863Y209887D01*
X663327Y209823D01*
X663789Y209747D01*
X664250Y209660D01*
X664708Y209562D01*
X665164Y209454D01*
X665616Y209334D01*
X666066Y209203D01*
X666513Y209062D01*
X666956Y208910D01*
X667396Y208748D01*
X667831Y208575D01*
X668262Y208392D01*
X668689Y208198D01*
X669111Y207994D01*
X669528Y207780D01*
X669939Y207557D01*
X670345Y207323D01*
X670746Y207080D01*
X671140Y206827D01*
X671529Y206565D01*
X671910Y206294D01*
X672286Y206013D01*
X672654Y205724D01*
X673016Y205426D01*
X673370Y205119D01*
X673716Y204804D01*
X674056Y204481D01*
X674387Y204149D01*
X674710Y203810D01*
X675025Y203463D01*
X675331Y203109D01*
X675147Y202955D01*
X674844Y203305D01*
X674533Y203648D01*
X674214Y203983D01*
X673887Y204310D01*
X673552Y204629D01*
X673210Y204940D01*
X672860Y205243D01*
X672503Y205537D01*
X672139Y205823D01*
X671769Y206100D01*
X671391Y206368D01*
X671008Y206627D01*
X670618Y206877D01*
X670223Y207117D01*
X669822Y207347D01*
X669415Y207568D01*
X669004Y207779D01*
X668587Y207981D01*
X668166Y208172D01*
X667740Y208353D01*
X667310Y208524D01*
X666876Y208684D01*
X666438Y208834D01*
X665997Y208974D01*
X665553Y209102D01*
X665106Y209221D01*
X664656Y209328D01*
X664203Y209425D01*
X663749Y209510D01*
X663292Y209585D01*
X662834Y209649D01*
X662374Y209702D01*
X661913Y209744D01*
X661452Y209774D01*
X660989Y209794D01*
X660527Y209803D01*
X660274Y211962D02*
X660274Y209676D01*
X660273Y209677D02*
X659808Y209668D01*
X659343Y209648D01*
X658879Y209617D01*
X658416Y209574D01*
X657954Y209520D01*
X657493Y209455D01*
X657034Y209379D01*
X656577Y209292D01*
X656122Y209194D01*
X655670Y209084D01*
X655220Y208964D01*
X654774Y208833D01*
X654331Y208691D01*
X653891Y208538D01*
X653456Y208375D01*
X653024Y208201D01*
X652597Y208017D01*
X652174Y207823D01*
X651756Y207618D01*
X651343Y207403D01*
X650936Y207178D01*
X650534Y206944D01*
X650138Y206700D01*
X649748Y206446D01*
X649364Y206183D01*
X648987Y205910D01*
X648617Y205629D01*
X648253Y205339D01*
X647897Y205040D01*
X647548Y204732D01*
X647206Y204416D01*
X646872Y204092D01*
X646547Y203759D01*
X646229Y203419D01*
X645920Y203072D01*
X645619Y202717D01*
X645327Y202355D01*
X645044Y201985D01*
X644770Y201609D01*
X644505Y201227D01*
X644249Y200838D01*
X644003Y200443D01*
X643767Y200042D01*
X643540Y199636D01*
X641523Y200711D01*
X641523Y200712D01*
X641777Y201167D01*
X642041Y201617D01*
X642317Y202059D01*
X642603Y202495D01*
X642900Y202924D01*
X643206Y203346D01*
X643524Y203760D01*
X643851Y204166D01*
X644188Y204564D01*
X644534Y204953D01*
X644890Y205335D01*
X645255Y205707D01*
X645629Y206070D01*
X646011Y206425D01*
X646402Y206770D01*
X646802Y207105D01*
X647209Y207430D01*
X647624Y207746D01*
X648047Y208051D01*
X648477Y208346D01*
X648914Y208630D01*
X649358Y208904D01*
X649808Y209167D01*
X650265Y209419D01*
X650727Y209659D01*
X651196Y209889D01*
X651669Y210107D01*
X652148Y210313D01*
X652632Y210508D01*
X653120Y210690D01*
X653613Y210861D01*
X654110Y211020D01*
X654610Y211167D01*
X655114Y211302D01*
X655621Y211424D01*
X656130Y211534D01*
X656643Y211631D01*
X657157Y211716D01*
X657674Y211789D01*
X658191Y211849D01*
X658711Y211896D01*
X659231Y211931D01*
X659752Y211953D01*
X660273Y211963D01*
X660273Y211723D01*
X659758Y211713D01*
X659243Y211691D01*
X658728Y211657D01*
X658215Y211610D01*
X657703Y211551D01*
X657192Y211479D01*
X656684Y211395D01*
X656177Y211298D01*
X655673Y211190D01*
X655172Y211069D01*
X654674Y210936D01*
X654179Y210791D01*
X653688Y210633D01*
X653201Y210464D01*
X652719Y210284D01*
X652240Y210091D01*
X651767Y209887D01*
X651298Y209672D01*
X650835Y209445D01*
X650378Y209207D01*
X649927Y208958D01*
X649481Y208698D01*
X649043Y208428D01*
X648610Y208147D01*
X648185Y207855D01*
X647767Y207553D01*
X647357Y207241D01*
X646954Y206919D01*
X646559Y206588D01*
X646173Y206247D01*
X645794Y205897D01*
X645425Y205537D01*
X645064Y205169D01*
X644712Y204792D01*
X644369Y204407D01*
X644036Y204013D01*
X643713Y203612D01*
X643399Y203203D01*
X643096Y202786D01*
X642803Y202362D01*
X642520Y201931D01*
X642247Y201493D01*
X641986Y201049D01*
X641735Y200599D01*
X641946Y200486D01*
X642194Y200931D01*
X642453Y201370D01*
X642722Y201803D01*
X643002Y202229D01*
X643292Y202648D01*
X643592Y203060D01*
X643902Y203464D01*
X644222Y203861D01*
X644551Y204250D01*
X644890Y204631D01*
X645238Y205004D01*
X645594Y205368D01*
X645960Y205723D01*
X646334Y206069D01*
X646716Y206406D01*
X647106Y206734D01*
X647505Y207052D01*
X647910Y207360D01*
X648324Y207659D01*
X648744Y207947D01*
X649171Y208225D01*
X649605Y208493D01*
X650045Y208749D01*
X650491Y208996D01*
X650943Y209231D01*
X651401Y209455D01*
X651864Y209668D01*
X652332Y209870D01*
X652805Y210060D01*
X653282Y210239D01*
X653764Y210406D01*
X654249Y210561D01*
X654738Y210704D01*
X655231Y210836D01*
X655726Y210956D01*
X656224Y211063D01*
X656725Y211158D01*
X657228Y211242D01*
X657732Y211313D01*
X658239Y211371D01*
X658746Y211418D01*
X659255Y211452D01*
X659764Y211473D01*
X660273Y211483D01*
X660273Y211243D01*
X659770Y211233D01*
X659266Y211212D01*
X658764Y211178D01*
X658262Y211132D01*
X657762Y211074D01*
X657263Y211004D01*
X656766Y210922D01*
X656271Y210828D01*
X655779Y210721D01*
X655289Y210603D01*
X654802Y210473D01*
X654319Y210331D01*
X653839Y210178D01*
X653363Y210013D01*
X652891Y209836D01*
X652424Y209648D01*
X651962Y209449D01*
X651504Y209238D01*
X651051Y209016D01*
X650605Y208784D01*
X650163Y208541D01*
X649728Y208287D01*
X649300Y208022D01*
X648877Y207748D01*
X648462Y207463D01*
X648054Y207168D01*
X647652Y206863D01*
X647259Y206549D01*
X646873Y206225D01*
X646495Y205892D01*
X646125Y205549D01*
X645764Y205198D01*
X645412Y204838D01*
X645068Y204470D01*
X644733Y204094D01*
X644408Y203709D01*
X644092Y203317D01*
X643785Y202917D01*
X643489Y202510D01*
X643202Y202096D01*
X642925Y201675D01*
X642659Y201247D01*
X642403Y200813D01*
X642158Y200373D01*
X642370Y200260D01*
X642612Y200695D01*
X642865Y201124D01*
X643128Y201546D01*
X643402Y201963D01*
X643685Y202372D01*
X643978Y202774D01*
X644281Y203169D01*
X644593Y203557D01*
X644915Y203937D01*
X645246Y204309D01*
X645586Y204673D01*
X645934Y205029D01*
X646291Y205376D01*
X646656Y205714D01*
X647030Y206043D01*
X647411Y206363D01*
X647800Y206674D01*
X648197Y206975D01*
X648600Y207266D01*
X649011Y207548D01*
X649428Y207820D01*
X649852Y208081D01*
X650282Y208332D01*
X650718Y208572D01*
X651159Y208802D01*
X651607Y209021D01*
X652059Y209229D01*
X652516Y209426D01*
X652978Y209612D01*
X653444Y209787D01*
X653914Y209950D01*
X654389Y210102D01*
X654866Y210242D01*
X655347Y210370D01*
X655831Y210487D01*
X656318Y210592D01*
X656807Y210686D01*
X657298Y210767D01*
X657791Y210836D01*
X658286Y210894D01*
X658781Y210939D01*
X659278Y210972D01*
X659776Y210993D01*
X660273Y211003D01*
X660273Y210763D01*
X659782Y210754D01*
X659290Y210733D01*
X658799Y210700D01*
X658309Y210655D01*
X657821Y210598D01*
X657333Y210529D01*
X656848Y210449D01*
X656365Y210357D01*
X655884Y210253D01*
X655406Y210138D01*
X654930Y210011D01*
X654458Y209872D01*
X653990Y209722D01*
X653525Y209561D01*
X653064Y209388D01*
X652608Y209204D01*
X652156Y209010D01*
X651709Y208804D01*
X651267Y208588D01*
X650831Y208361D01*
X650400Y208123D01*
X649975Y207875D01*
X649557Y207617D01*
X649144Y207349D01*
X648739Y207070D01*
X648340Y206782D01*
X647948Y206485D01*
X647564Y206178D01*
X647187Y205861D01*
X646818Y205536D01*
X646457Y205202D01*
X646104Y204859D01*
X645759Y204508D01*
X645424Y204148D01*
X645097Y203780D01*
X644779Y203405D01*
X644470Y203022D01*
X644171Y202632D01*
X643881Y202234D01*
X643601Y201829D01*
X643331Y201418D01*
X643071Y201001D01*
X642821Y200577D01*
X642582Y200147D01*
X642794Y200034D01*
X643030Y200459D01*
X643277Y200877D01*
X643534Y201290D01*
X643801Y201696D01*
X644078Y202096D01*
X644364Y202489D01*
X644660Y202874D01*
X644965Y203253D01*
X645279Y203624D01*
X645602Y203987D01*
X645933Y204342D01*
X646274Y204689D01*
X646622Y205028D01*
X646979Y205358D01*
X647344Y205680D01*
X647716Y205992D01*
X648096Y206296D01*
X648483Y206590D01*
X648877Y206874D01*
X649278Y207149D01*
X649685Y207414D01*
X650099Y207669D01*
X650519Y207914D01*
X650944Y208149D01*
X651375Y208373D01*
X651812Y208587D01*
X652254Y208790D01*
X652700Y208983D01*
X653151Y209164D01*
X653606Y209335D01*
X654065Y209494D01*
X654528Y209642D01*
X654994Y209779D01*
X655464Y209905D01*
X655937Y210019D01*
X656412Y210122D01*
X656889Y210213D01*
X657369Y210292D01*
X657850Y210360D01*
X658333Y210416D01*
X658817Y210460D01*
X659302Y210493D01*
X659787Y210514D01*
X660273Y210523D01*
X660273Y210283D01*
X659793Y210274D01*
X659314Y210253D01*
X658835Y210221D01*
X658356Y210177D01*
X657879Y210122D01*
X657404Y210055D01*
X656930Y209976D01*
X656459Y209886D01*
X655989Y209785D01*
X655522Y209672D01*
X655059Y209548D01*
X654598Y209413D01*
X654141Y209266D01*
X653687Y209109D01*
X653237Y208940D01*
X652792Y208761D01*
X652351Y208571D01*
X651915Y208370D01*
X651483Y208159D01*
X651057Y207937D01*
X650637Y207706D01*
X650222Y207464D01*
X649814Y207211D01*
X649411Y206950D01*
X649015Y206678D01*
X648626Y206397D01*
X648243Y206106D01*
X647868Y205807D01*
X647500Y205498D01*
X647140Y205181D01*
X646788Y204854D01*
X646444Y204520D01*
X646107Y204177D01*
X645780Y203826D01*
X645461Y203467D01*
X645150Y203101D01*
X644849Y202727D01*
X644557Y202346D01*
X644274Y201958D01*
X644001Y201563D01*
X643737Y201162D01*
X643483Y200754D01*
X643239Y200341D01*
X643005Y199921D01*
X643217Y199808D01*
X643448Y200222D01*
X643689Y200631D01*
X643940Y201034D01*
X644200Y201430D01*
X644470Y201820D01*
X644750Y202203D01*
X645038Y202579D01*
X645336Y202949D01*
X645642Y203311D01*
X645958Y203665D01*
X646281Y204012D01*
X646613Y204350D01*
X646954Y204681D01*
X647302Y205003D01*
X647657Y205317D01*
X648021Y205621D01*
X648391Y205917D01*
X648769Y206204D01*
X649153Y206482D01*
X649545Y206750D01*
X649942Y207009D01*
X650346Y207258D01*
X650755Y207497D01*
X651171Y207726D01*
X651591Y207945D01*
X652017Y208153D01*
X652448Y208352D01*
X652884Y208539D01*
X653324Y208717D01*
X653768Y208883D01*
X654216Y209038D01*
X654668Y209183D01*
X655123Y209317D01*
X655581Y209439D01*
X656042Y209551D01*
X656505Y209651D01*
X656971Y209740D01*
X657439Y209817D01*
X657909Y209883D01*
X658380Y209938D01*
X658852Y209982D01*
X659325Y210013D01*
X659799Y210034D01*
X660273Y210043D01*
X660273Y209803D01*
X659805Y209794D01*
X659337Y209774D01*
X658870Y209742D01*
X658403Y209699D01*
X657938Y209645D01*
X657474Y209580D01*
X657012Y209503D01*
X656552Y209415D01*
X656094Y209316D01*
X655639Y209206D01*
X655187Y209085D01*
X654737Y208953D01*
X654291Y208811D01*
X653849Y208657D01*
X653410Y208493D01*
X652976Y208318D01*
X652546Y208132D01*
X652120Y207937D01*
X651699Y207730D01*
X651284Y207514D01*
X650874Y207288D01*
X650469Y207052D01*
X650071Y206806D01*
X649678Y206551D01*
X649292Y206286D01*
X648912Y206012D01*
X648539Y205728D01*
X648173Y205436D01*
X647814Y205135D01*
X647463Y204825D01*
X647119Y204507D01*
X646783Y204181D01*
X646455Y203846D01*
X646136Y203504D01*
X645824Y203154D01*
X645521Y202797D01*
X645228Y202432D01*
X644942Y202060D01*
X644667Y201682D01*
X644400Y201297D01*
X644143Y200905D01*
X643895Y200508D01*
X643657Y200104D01*
X643429Y199695D01*
X660526Y169038D02*
X660526Y171324D01*
X660527Y171323D02*
X660995Y171332D01*
X661463Y171353D01*
X661931Y171384D01*
X662398Y171427D01*
X662863Y171482D01*
X663327Y171548D01*
X663789Y171625D01*
X664249Y171713D01*
X664707Y171813D01*
X665163Y171924D01*
X665615Y172046D01*
X666064Y172179D01*
X666510Y172323D01*
X666953Y172477D01*
X667391Y172643D01*
X667825Y172819D01*
X668255Y173006D01*
X668680Y173203D01*
X669100Y173410D01*
X669515Y173628D01*
X669925Y173856D01*
X670329Y174093D01*
X670727Y174341D01*
X671118Y174598D01*
X671504Y174865D01*
X671883Y175141D01*
X672254Y175426D01*
X672619Y175720D01*
X672977Y176023D01*
X673327Y176335D01*
X673669Y176655D01*
X674003Y176983D01*
X674329Y177319D01*
X674647Y177664D01*
X674957Y178016D01*
X676701Y176539D01*
X676702Y176539D01*
X676355Y176144D01*
X675999Y175758D01*
X675634Y175381D01*
X675259Y175012D01*
X674876Y174653D01*
X674483Y174304D01*
X674083Y173964D01*
X673674Y173634D01*
X673257Y173314D01*
X672833Y173005D01*
X672401Y172706D01*
X671962Y172417D01*
X671516Y172140D01*
X671063Y171873D01*
X670604Y171618D01*
X670139Y171374D01*
X669668Y171141D01*
X669191Y170920D01*
X668709Y170711D01*
X668222Y170513D01*
X667731Y170328D01*
X667235Y170154D01*
X666735Y169993D01*
X666231Y169844D01*
X665724Y169708D01*
X665213Y169584D01*
X664700Y169472D01*
X664184Y169373D01*
X663666Y169287D01*
X663146Y169213D01*
X662624Y169153D01*
X662101Y169105D01*
X661577Y169069D01*
X661052Y169047D01*
X660527Y169037D01*
X660527Y169277D01*
X661046Y169287D01*
X661565Y169309D01*
X662083Y169344D01*
X662600Y169391D01*
X663116Y169452D01*
X663630Y169524D01*
X664143Y169610D01*
X664653Y169707D01*
X665160Y169818D01*
X665665Y169940D01*
X666167Y170075D01*
X666665Y170223D01*
X667159Y170382D01*
X667649Y170553D01*
X668135Y170737D01*
X668616Y170932D01*
X669093Y171139D01*
X669564Y171357D01*
X670030Y171587D01*
X670490Y171829D01*
X670943Y172081D01*
X671391Y172345D01*
X671832Y172619D01*
X672266Y172904D01*
X672693Y173200D01*
X673113Y173506D01*
X673525Y173822D01*
X673929Y174148D01*
X674325Y174484D01*
X674713Y174830D01*
X675092Y175185D01*
X675462Y175549D01*
X675824Y175922D01*
X676176Y176304D01*
X676519Y176694D01*
X676335Y176849D01*
X675997Y176463D01*
X675649Y176086D01*
X675291Y175717D01*
X674925Y175357D01*
X674550Y175006D01*
X674167Y174665D01*
X673775Y174333D01*
X673376Y174010D01*
X672969Y173698D01*
X672554Y173395D01*
X672132Y173103D01*
X671702Y172821D01*
X671266Y172550D01*
X670824Y172289D01*
X670375Y172040D01*
X669921Y171801D01*
X669460Y171574D01*
X668995Y171358D01*
X668524Y171153D01*
X668048Y170960D01*
X667567Y170779D01*
X667083Y170610D01*
X666594Y170452D01*
X666102Y170307D01*
X665606Y170173D01*
X665107Y170052D01*
X664605Y169943D01*
X664101Y169846D01*
X663595Y169762D01*
X663086Y169690D01*
X662576Y169630D01*
X662065Y169583D01*
X661553Y169549D01*
X661040Y169527D01*
X660527Y169517D01*
X660527Y169757D01*
X661034Y169767D01*
X661541Y169788D01*
X662047Y169823D01*
X662553Y169869D01*
X663057Y169928D01*
X663559Y169999D01*
X664060Y170082D01*
X664558Y170178D01*
X665054Y170286D01*
X665547Y170406D01*
X666037Y170538D01*
X666524Y170682D01*
X667007Y170837D01*
X667486Y171005D01*
X667961Y171184D01*
X668431Y171375D01*
X668896Y171577D01*
X669357Y171790D01*
X669812Y172015D01*
X670261Y172251D01*
X670705Y172498D01*
X671142Y172755D01*
X671573Y173023D01*
X671997Y173302D01*
X672414Y173590D01*
X672824Y173889D01*
X673227Y174198D01*
X673622Y174517D01*
X674009Y174845D01*
X674388Y175183D01*
X674758Y175530D01*
X675120Y175885D01*
X675473Y176250D01*
X675817Y176623D01*
X676152Y177004D01*
X675969Y177159D01*
X675638Y176782D01*
X675298Y176414D01*
X674949Y176054D01*
X674591Y175702D01*
X674225Y175359D01*
X673851Y175026D01*
X673468Y174701D01*
X673078Y174386D01*
X672680Y174081D01*
X672275Y173786D01*
X671862Y173500D01*
X671443Y173225D01*
X671017Y172960D01*
X670585Y172706D01*
X670147Y172462D01*
X669703Y172229D01*
X669253Y172007D01*
X668798Y171796D01*
X668338Y171596D01*
X667873Y171408D01*
X667404Y171230D01*
X666931Y171065D01*
X666453Y170911D01*
X665972Y170769D01*
X665488Y170638D01*
X665001Y170520D01*
X664511Y170413D01*
X664018Y170319D01*
X663524Y170236D01*
X663027Y170166D01*
X662529Y170108D01*
X662029Y170062D01*
X661529Y170028D01*
X661028Y170007D01*
X660527Y169997D01*
X660527Y170237D01*
X661022Y170247D01*
X661517Y170268D01*
X662012Y170301D01*
X662505Y170347D01*
X662997Y170404D01*
X663488Y170474D01*
X663977Y170555D01*
X664463Y170649D01*
X664948Y170754D01*
X665429Y170871D01*
X665908Y171000D01*
X666383Y171140D01*
X666855Y171293D01*
X667322Y171456D01*
X667786Y171631D01*
X668245Y171817D01*
X668700Y172015D01*
X669149Y172223D01*
X669594Y172443D01*
X670032Y172673D01*
X670466Y172914D01*
X670893Y173165D01*
X671313Y173427D01*
X671728Y173699D01*
X672135Y173981D01*
X672536Y174273D01*
X672929Y174575D01*
X673314Y174886D01*
X673692Y175206D01*
X674062Y175536D01*
X674424Y175874D01*
X674778Y176222D01*
X675123Y176578D01*
X675459Y176942D01*
X675786Y177314D01*
X675603Y177469D01*
X675279Y177101D01*
X674947Y176742D01*
X674607Y176390D01*
X674257Y176047D01*
X673900Y175712D01*
X673534Y175387D01*
X673161Y175070D01*
X672780Y174763D01*
X672391Y174465D01*
X671996Y174176D01*
X671593Y173898D01*
X671184Y173629D01*
X670768Y173370D01*
X670346Y173122D01*
X669918Y172884D01*
X669485Y172657D01*
X669046Y172440D01*
X668601Y172234D01*
X668152Y172039D01*
X667699Y171855D01*
X667241Y171682D01*
X666779Y171520D01*
X666313Y171370D01*
X665843Y171231D01*
X665370Y171104D01*
X664895Y170988D01*
X664416Y170884D01*
X663935Y170792D01*
X663452Y170711D01*
X662968Y170642D01*
X662481Y170585D01*
X661994Y170541D01*
X661505Y170508D01*
X661016Y170486D01*
X660527Y170477D01*
X660527Y170717D01*
X661010Y170726D01*
X661493Y170747D01*
X661976Y170780D01*
X662458Y170824D01*
X662938Y170880D01*
X663417Y170948D01*
X663894Y171028D01*
X664369Y171119D01*
X664841Y171222D01*
X665311Y171336D01*
X665778Y171462D01*
X666242Y171599D01*
X666702Y171748D01*
X667159Y171907D01*
X667611Y172078D01*
X668060Y172260D01*
X668503Y172453D01*
X668942Y172656D01*
X669376Y172870D01*
X669804Y173095D01*
X670227Y173330D01*
X670643Y173575D01*
X671054Y173831D01*
X671458Y174096D01*
X671856Y174372D01*
X672247Y174656D01*
X672631Y174951D01*
X673007Y175254D01*
X673376Y175567D01*
X673737Y175889D01*
X674090Y176219D01*
X674435Y176558D01*
X674772Y176905D01*
X675100Y177261D01*
X675419Y177624D01*
X675236Y177779D01*
X674921Y177420D01*
X674597Y177069D01*
X674264Y176726D01*
X673923Y176392D01*
X673575Y176065D01*
X673218Y175748D01*
X672853Y175439D01*
X672482Y175139D01*
X672103Y174848D01*
X671717Y174567D01*
X671324Y174295D01*
X670924Y174033D01*
X670519Y173781D01*
X670107Y173538D01*
X669690Y173306D01*
X669267Y173084D01*
X668838Y172873D01*
X668405Y172672D01*
X667967Y172481D01*
X667524Y172302D01*
X667077Y172133D01*
X666626Y171975D01*
X666172Y171829D01*
X665714Y171693D01*
X665252Y171569D01*
X664788Y171456D01*
X664321Y171354D01*
X663852Y171264D01*
X663381Y171186D01*
X662908Y171119D01*
X662434Y171063D01*
X661958Y171019D01*
X661481Y170987D01*
X661004Y170966D01*
X660527Y170957D01*
X660527Y171197D01*
X660998Y171206D01*
X661470Y171227D01*
X661940Y171259D01*
X662410Y171302D01*
X662879Y171357D01*
X663346Y171423D01*
X663811Y171501D01*
X664274Y171590D01*
X664735Y171690D01*
X665193Y171802D01*
X665649Y171924D01*
X666101Y172058D01*
X666550Y172203D01*
X666996Y172359D01*
X667437Y172525D01*
X667874Y172703D01*
X668307Y172891D01*
X668735Y173089D01*
X669158Y173298D01*
X669575Y173517D01*
X669988Y173746D01*
X670394Y173986D01*
X670795Y174235D01*
X671189Y174494D01*
X671577Y174762D01*
X671958Y175040D01*
X672333Y175327D01*
X672700Y175623D01*
X673060Y175928D01*
X673412Y176242D01*
X673757Y176564D01*
X674093Y176895D01*
X674421Y177233D01*
X674741Y177580D01*
X675053Y177934D01*
X641828Y179741D02*
X643813Y180876D01*
X643812Y180875D02*
X644050Y180477D01*
X644296Y180085D01*
X644553Y179700D01*
X644818Y179320D01*
X645092Y178947D01*
X645376Y178581D01*
X645668Y178222D01*
X645969Y177870D01*
X646278Y177525D01*
X646595Y177188D01*
X646921Y176858D01*
X647254Y176537D01*
X647595Y176223D01*
X647944Y175918D01*
X648299Y175622D01*
X648662Y175334D01*
X649032Y175055D01*
X649408Y174785D01*
X649791Y174524D01*
X650180Y174273D01*
X650574Y174031D01*
X650975Y173798D01*
X651381Y173576D01*
X651792Y173363D01*
X652209Y173160D01*
X652630Y172967D01*
X653055Y172785D01*
X653485Y172613D01*
X653919Y172451D01*
X654357Y172300D01*
X654798Y172159D01*
X655243Y172029D01*
X655690Y171910D01*
X656140Y171802D01*
X656593Y171704D01*
X657048Y171618D01*
X657505Y171543D01*
X657964Y171478D01*
X658424Y171425D01*
X658885Y171383D01*
X659347Y171352D01*
X659810Y171332D01*
X660273Y171323D01*
X660273Y169038D01*
X660273Y169037D01*
X659754Y169047D01*
X659235Y169069D01*
X658717Y169103D01*
X658200Y169150D01*
X657685Y169209D01*
X657171Y169281D01*
X656659Y169365D01*
X656149Y169462D01*
X655641Y169571D01*
X655137Y169692D01*
X654635Y169825D01*
X654137Y169971D01*
X653642Y170128D01*
X653152Y170298D01*
X652665Y170479D01*
X652183Y170672D01*
X651706Y170876D01*
X651235Y171092D01*
X650768Y171319D01*
X650307Y171558D01*
X649852Y171807D01*
X649403Y172068D01*
X648961Y172339D01*
X648525Y172621D01*
X648096Y172913D01*
X647674Y173216D01*
X647260Y173529D01*
X646854Y173851D01*
X646455Y174184D01*
X646064Y174526D01*
X645682Y174877D01*
X645309Y175237D01*
X644944Y175607D01*
X644589Y175985D01*
X644242Y176371D01*
X643905Y176766D01*
X643578Y177169D01*
X643261Y177579D01*
X642953Y177998D01*
X642656Y178423D01*
X642369Y178856D01*
X642093Y179295D01*
X641828Y179741D01*
X642036Y179860D01*
X642298Y179419D01*
X642572Y178985D01*
X642855Y178557D01*
X643149Y178136D01*
X643453Y177723D01*
X643767Y177317D01*
X644091Y176919D01*
X644424Y176528D01*
X644766Y176146D01*
X645118Y175773D01*
X645478Y175407D01*
X645847Y175051D01*
X646225Y174704D01*
X646611Y174366D01*
X647005Y174037D01*
X647407Y173718D01*
X647817Y173409D01*
X648234Y173110D01*
X648658Y172821D01*
X649089Y172542D01*
X649526Y172274D01*
X649970Y172016D01*
X650420Y171770D01*
X650875Y171534D01*
X651337Y171309D01*
X651803Y171096D01*
X652275Y170893D01*
X652751Y170703D01*
X653232Y170524D01*
X653717Y170356D01*
X654206Y170201D01*
X654699Y170057D01*
X655195Y169925D01*
X655694Y169805D01*
X656195Y169697D01*
X656700Y169602D01*
X657206Y169519D01*
X657714Y169448D01*
X658224Y169389D01*
X658735Y169342D01*
X659247Y169308D01*
X659760Y169287D01*
X660273Y169277D01*
X660273Y169517D01*
X659765Y169527D01*
X659259Y169548D01*
X658752Y169582D01*
X658247Y169628D01*
X657743Y169686D01*
X657241Y169756D01*
X656740Y169838D01*
X656242Y169933D01*
X655746Y170039D01*
X655253Y170158D01*
X654763Y170288D01*
X654276Y170430D01*
X653792Y170584D01*
X653313Y170750D01*
X652837Y170927D01*
X652367Y171115D01*
X651900Y171315D01*
X651439Y171526D01*
X650983Y171748D01*
X650532Y171981D01*
X650088Y172225D01*
X649649Y172480D01*
X649216Y172745D01*
X648791Y173021D01*
X648371Y173306D01*
X647959Y173602D01*
X647554Y173908D01*
X647157Y174223D01*
X646768Y174548D01*
X646386Y174882D01*
X646012Y175225D01*
X645647Y175578D01*
X645291Y175939D01*
X644943Y176308D01*
X644605Y176686D01*
X644276Y177072D01*
X643956Y177465D01*
X643645Y177867D01*
X643345Y178275D01*
X643054Y178691D01*
X642774Y179114D01*
X642504Y179543D01*
X642244Y179979D01*
X642453Y180098D01*
X642709Y179667D01*
X642976Y179243D01*
X643253Y178825D01*
X643541Y178414D01*
X643838Y178010D01*
X644144Y177614D01*
X644461Y177224D01*
X644786Y176843D01*
X645121Y176470D01*
X645464Y176105D01*
X645817Y175748D01*
X646177Y175400D01*
X646547Y175060D01*
X646924Y174730D01*
X647309Y174409D01*
X647702Y174097D01*
X648102Y173795D01*
X648509Y173503D01*
X648923Y173220D01*
X649344Y172948D01*
X649772Y172686D01*
X650206Y172434D01*
X650645Y172193D01*
X651091Y171963D01*
X651541Y171743D01*
X651997Y171535D01*
X652458Y171337D01*
X652924Y171151D01*
X653393Y170976D01*
X653867Y170812D01*
X654345Y170660D01*
X654826Y170520D01*
X655311Y170391D01*
X655799Y170274D01*
X656289Y170168D01*
X656781Y170075D01*
X657276Y169993D01*
X657773Y169924D01*
X658271Y169866D01*
X658770Y169821D01*
X659270Y169788D01*
X659771Y169767D01*
X660273Y169757D01*
X660273Y169997D01*
X659777Y170006D01*
X659282Y170027D01*
X658788Y170060D01*
X658294Y170105D01*
X657802Y170162D01*
X657311Y170231D01*
X656822Y170311D01*
X656335Y170404D01*
X655851Y170508D01*
X655369Y170624D01*
X654890Y170751D01*
X654415Y170890D01*
X653942Y171040D01*
X653474Y171202D01*
X653010Y171375D01*
X652550Y171559D01*
X652094Y171754D01*
X651644Y171960D01*
X651198Y172177D01*
X650758Y172405D01*
X650324Y172643D01*
X649895Y172892D01*
X649472Y173151D01*
X649056Y173420D01*
X648647Y173699D01*
X648244Y173988D01*
X647849Y174287D01*
X647461Y174595D01*
X647080Y174912D01*
X646707Y175239D01*
X646343Y175574D01*
X645986Y175918D01*
X645638Y176271D01*
X645298Y176631D01*
X644967Y177000D01*
X644646Y177377D01*
X644333Y177762D01*
X644030Y178154D01*
X643736Y178553D01*
X643453Y178959D01*
X643179Y179372D01*
X642915Y179791D01*
X642661Y180217D01*
X642869Y180336D01*
X643120Y179916D01*
X643381Y179501D01*
X643652Y179093D01*
X643932Y178692D01*
X644222Y178297D01*
X644522Y177910D01*
X644831Y177530D01*
X645149Y177158D01*
X645475Y176793D01*
X645811Y176437D01*
X646155Y176088D01*
X646508Y175748D01*
X646868Y175417D01*
X647236Y175094D01*
X647613Y174781D01*
X647996Y174476D01*
X648387Y174181D01*
X648785Y173896D01*
X649189Y173620D01*
X649600Y173354D01*
X650018Y173098D01*
X650441Y172852D01*
X650871Y172617D01*
X651306Y172392D01*
X651746Y172178D01*
X652191Y171974D01*
X652641Y171781D01*
X653096Y171599D01*
X653555Y171428D01*
X654017Y171268D01*
X654484Y171120D01*
X654954Y170982D01*
X655427Y170856D01*
X655903Y170742D01*
X656382Y170639D01*
X656863Y170548D01*
X657346Y170468D01*
X657831Y170400D01*
X658318Y170344D01*
X658805Y170300D01*
X659294Y170267D01*
X659783Y170246D01*
X660273Y170237D01*
X660273Y170477D01*
X659789Y170486D01*
X659306Y170507D01*
X658823Y170539D01*
X658341Y170583D01*
X657860Y170639D01*
X657381Y170706D01*
X656904Y170784D01*
X656429Y170875D01*
X655956Y170976D01*
X655485Y171089D01*
X655018Y171214D01*
X654553Y171349D01*
X654092Y171496D01*
X653635Y171654D01*
X653182Y171823D01*
X652733Y172003D01*
X652288Y172193D01*
X651848Y172395D01*
X651413Y172607D01*
X650984Y172829D01*
X650559Y173061D01*
X650141Y173304D01*
X649728Y173557D01*
X649322Y173820D01*
X648922Y174092D01*
X648529Y174374D01*
X648143Y174666D01*
X647764Y174967D01*
X647393Y175276D01*
X647029Y175595D01*
X646673Y175922D01*
X646324Y176258D01*
X645984Y176603D01*
X645653Y176955D01*
X645330Y177315D01*
X645016Y177683D01*
X644711Y178058D01*
X644415Y178441D01*
X644128Y178831D01*
X643851Y179227D01*
X643583Y179630D01*
X643326Y180040D01*
X643078Y180455D01*
X643286Y180574D01*
X643531Y180164D01*
X643786Y179759D01*
X644050Y179361D01*
X644324Y178970D01*
X644607Y178585D01*
X644899Y178207D01*
X645201Y177836D01*
X645511Y177472D01*
X645830Y177117D01*
X646158Y176769D01*
X646494Y176429D01*
X646838Y176097D01*
X647189Y175773D01*
X647549Y175459D01*
X647916Y175153D01*
X648291Y174855D01*
X648672Y174568D01*
X649060Y174289D01*
X649455Y174020D01*
X649856Y173760D01*
X650264Y173510D01*
X650677Y173271D01*
X651096Y173041D01*
X651521Y172821D01*
X651950Y172612D01*
X652385Y172413D01*
X652824Y172225D01*
X653268Y172047D01*
X653716Y171880D01*
X654167Y171724D01*
X654623Y171579D01*
X655082Y171445D01*
X655543Y171322D01*
X656008Y171210D01*
X656475Y171110D01*
X656945Y171021D01*
X657416Y170943D01*
X657890Y170877D01*
X658364Y170822D01*
X658840Y170778D01*
X659317Y170747D01*
X659795Y170726D01*
X660273Y170717D01*
X660273Y170957D01*
X659801Y170966D01*
X659329Y170986D01*
X658858Y171018D01*
X658388Y171061D01*
X657919Y171115D01*
X657451Y171181D01*
X656986Y171257D01*
X656522Y171345D01*
X656060Y171445D01*
X655602Y171555D01*
X655145Y171676D01*
X654692Y171809D01*
X654242Y171952D01*
X653796Y172106D01*
X653354Y172271D01*
X652916Y172446D01*
X652482Y172632D01*
X652053Y172829D01*
X651628Y173036D01*
X651209Y173253D01*
X650795Y173480D01*
X650387Y173716D01*
X649984Y173963D01*
X649588Y174220D01*
X649198Y174485D01*
X648814Y174761D01*
X648438Y175045D01*
X648068Y175338D01*
X647705Y175641D01*
X647350Y175952D01*
X647003Y176271D01*
X646663Y176599D01*
X646331Y176935D01*
X646008Y177278D01*
X645692Y177630D01*
X645386Y177989D01*
X645088Y178355D01*
X644799Y178728D01*
X644519Y179108D01*
X644249Y179495D01*
X643988Y179889D01*
X643736Y180288D01*
X643495Y180693D01*
X643703Y180813D01*
X643942Y180412D01*
X644190Y180018D01*
X644448Y179629D01*
X644715Y179247D01*
X644991Y178872D01*
X645277Y178503D01*
X645571Y178141D01*
X645874Y177787D01*
X646185Y177440D01*
X646504Y177101D01*
X646832Y176769D01*
X647168Y176445D01*
X647511Y176130D01*
X647862Y175823D01*
X648220Y175524D01*
X648585Y175235D01*
X648957Y174954D01*
X649336Y174682D01*
X649721Y174419D01*
X650112Y174166D01*
X650510Y173923D01*
X650913Y173689D01*
X651322Y173464D01*
X651736Y173250D01*
X652155Y173046D01*
X652579Y172852D01*
X653007Y172668D01*
X653440Y172495D01*
X653877Y172332D01*
X654317Y172180D01*
X654762Y172039D01*
X655209Y171908D01*
X655660Y171788D01*
X656113Y171679D01*
X656569Y171581D01*
X657027Y171494D01*
X657487Y171418D01*
X657948Y171353D01*
X658411Y171300D01*
X658876Y171257D01*
X659341Y171226D01*
X659806Y171206D01*
X660273Y171197D01*
D12*
X676148Y198374D02*
X676148Y203454D01*
X676148Y182118D02*
X676148Y177546D01*
M02*
