G04 EAGLE Gerber X2 export*
%TF.Part,Single*%
%TF.FileFunction,Soldermask,Bot,1*%
%TF.FilePolarity,Negative*%
%TF.GenerationSoftware,Autodesk,EAGLE,9.1.2*%
%TF.CreationDate,2019-11-04T22:46:01Z*%
G75*
%MOMM*%
%FSLAX34Y34*%
%LPD*%
%AMOC8*
5,1,8,0,0,1.08239X$1,22.5*%
G01*
%ADD10R,18.514056X0.028450*%
%ADD11R,18.514056X0.028194*%
%ADD12R,7.170419X0.028450*%
%ADD13R,5.021575X0.028450*%
%ADD14R,5.275575X0.028450*%
%ADD15R,3.134356X0.028194*%
%ADD16R,2.004063X0.028194*%
%ADD17R,2.456181X0.028194*%
%ADD18R,1.778000X0.028194*%
%ADD19R,5.163819X0.028194*%
%ADD20R,1.920238X0.028194*%
%ADD21R,2.372356X0.028194*%
%ADD22R,1.691638X0.028194*%
%ADD23R,5.052056X0.028194*%
%ADD24R,1.864363X0.028194*%
%ADD25R,2.316481X0.028194*%
%ADD26R,1.607819X0.028194*%
%ADD27R,4.993638X0.028194*%
%ADD28R,1.805938X0.028194*%
%ADD29R,2.258056X0.028194*%
%ADD30R,1.551937X0.028194*%
%ADD31R,4.937756X0.028194*%
%ADD32R,2.202181X0.028194*%
%ADD33R,1.524000X0.028194*%
%ADD34R,4.881875X0.028194*%
%ADD35R,1.722119X0.028194*%
%ADD36R,2.174238X0.028194*%
%ADD37R,1.496063X0.028194*%
%ADD38R,4.826000X0.028194*%
%ADD39R,1.694181X0.028194*%
%ADD40R,2.146300X0.028194*%
%ADD41R,4.798056X0.028194*%
%ADD42R,1.666238X0.028194*%
%ADD43R,2.118356X0.028194*%
%ADD44R,4.739638X0.028194*%
%ADD45R,3.134356X0.028450*%
%ADD46R,1.638300X0.028450*%
%ADD47R,2.090419X0.028450*%
%ADD48R,1.551937X0.028450*%
%ADD49R,4.711700X0.028450*%
%ADD50R,1.610363X0.028194*%
%ADD51R,2.062481X0.028194*%
%ADD52R,4.683756X0.028194*%
%ADD53R,1.582419X0.028194*%
%ADD54R,2.032000X0.028194*%
%ADD55R,1.579881X0.028194*%
%ADD56R,4.655819X0.028194*%
%ADD57R,2.004056X0.028194*%
%ADD58R,4.627875X0.028194*%
%ADD59R,1.976119X0.028194*%
%ADD60R,4.599938X0.028194*%
%ADD61R,1.948181X0.028194*%
%ADD62R,1.635763X0.028194*%
%ADD63R,4.572000X0.028194*%
%ADD64R,3.162300X0.028194*%
%ADD65R,4.544056X0.028194*%
%ADD66R,3.190238X0.028194*%
%ADD67R,1.468119X0.028194*%
%ADD68R,1.663700X0.028194*%
%ADD69R,0.086356X0.028194*%
%ADD70R,4.513575X0.028194*%
%ADD71R,3.246119X0.028194*%
%ADD72R,0.198119X0.028194*%
%ADD73R,1.892300X0.028194*%
%ADD74R,0.480056X0.028194*%
%ADD75R,3.274056X0.028450*%
%ADD76R,2.512056X0.028450*%
%ADD77R,0.365756X0.028450*%
%ADD78R,1.892300X0.028450*%
%ADD79R,1.691638X0.028450*%
%ADD80R,0.650238X0.028450*%
%ADD81R,4.485638X0.028450*%
%ADD82R,3.302000X0.028194*%
%ADD83R,2.456175X0.028194*%
%ADD84R,0.449575X0.028194*%
%ADD85R,1.864356X0.028194*%
%ADD86R,0.789938X0.028194*%
%ADD87R,4.457700X0.028194*%
%ADD88R,3.332481X0.028194*%
%ADD89R,2.428238X0.028194*%
%ADD90R,0.535938X0.028194*%
%ADD91R,2.595881X0.028194*%
%ADD92R,3.360419X0.028194*%
%ADD93R,2.400300X0.028194*%
%ADD94R,0.594356X0.028194*%
%ADD95R,1.836419X0.028194*%
%ADD96R,2.651763X0.028194*%
%ADD97R,4.429756X0.028194*%
%ADD98R,3.388356X0.028194*%
%ADD99R,2.341875X0.028194*%
%ADD100R,0.650238X0.028194*%
%ADD101R,2.679700X0.028194*%
%ADD102R,3.416300X0.028194*%
%ADD103R,2.313938X0.028194*%
%ADD104R,0.706119X0.028194*%
%ADD105R,1.808481X0.028194*%
%ADD106R,2.707638X0.028194*%
%ADD107R,4.401819X0.028194*%
%ADD108R,3.444238X0.028194*%
%ADD109R,2.258063X0.028194*%
%ADD110R,0.734056X0.028194*%
%ADD111R,2.738119X0.028194*%
%ADD112R,3.472181X0.028194*%
%ADD113R,2.230119X0.028194*%
%ADD114R,0.762000X0.028194*%
%ADD115R,4.373875X0.028194*%
%ADD116R,3.500119X0.028194*%
%ADD117R,2.766063X0.028194*%
%ADD118R,3.528056X0.028450*%
%ADD119R,2.118356X0.028450*%
%ADD120R,0.817881X0.028450*%
%ADD121R,1.778000X0.028450*%
%ADD122R,2.794000X0.028450*%
%ADD123R,4.373875X0.028450*%
%ADD124R,3.556000X0.028194*%
%ADD125R,2.090419X0.028194*%
%ADD126R,0.845819X0.028194*%
%ADD127R,2.794000X0.028194*%
%ADD128R,4.345937X0.028194*%
%ADD129R,3.586481X0.028194*%
%ADD130R,1.750056X0.028194*%
%ADD131R,2.821938X0.028194*%
%ADD132R,3.614419X0.028194*%
%ADD133R,2.001519X0.028194*%
%ADD134R,0.873756X0.028194*%
%ADD135R,3.642356X0.028194*%
%ADD136R,1.973575X0.028194*%
%ADD137R,0.901700X0.028194*%
%ADD138R,2.849881X0.028194*%
%ADD139R,4.318000X0.028194*%
%ADD140R,3.670300X0.028194*%
%ADD141R,1.945638X0.028194*%
%ADD142R,3.698238X0.028194*%
%ADD143R,1.917700X0.028194*%
%ADD144R,0.929638X0.028194*%
%ADD145R,3.726181X0.028194*%
%ADD146R,1.889756X0.028194*%
%ADD147R,2.877819X0.028194*%
%ADD148R,3.782056X0.028194*%
%ADD149R,1.861819X0.028194*%
%ADD150R,0.957575X0.028194*%
%ADD151R,0.365756X0.028194*%
%ADD152R,3.810000X0.028450*%
%ADD153R,1.805938X0.028450*%
%ADD154R,0.957575X0.028450*%
%ADD155R,1.722119X0.028450*%
%ADD156R,1.917700X0.028450*%
%ADD157R,0.254000X0.028450*%
%ADD158R,4.290056X0.028450*%
%ADD159R,3.840481X0.028194*%
%ADD160R,4.290056X0.028194*%
%ADD161R,3.868419X0.028194*%
%ADD162R,0.139700X0.028194*%
%ADD163R,3.896356X0.028194*%
%ADD164R,1.719575X0.028194*%
%ADD165R,1.750063X0.028194*%
%ADD166R,0.083819X0.028194*%
%ADD167R,3.924300X0.028194*%
%ADD168R,3.952238X0.028194*%
%ADD169R,0.988056X0.028194*%
%ADD170R,0.055881X0.028194*%
%ADD171R,3.980181X0.028194*%
%ADD172R,1.635756X0.028194*%
%ADD173R,4.008119X0.028194*%
%ADD174R,4.036056X0.028194*%
%ADD175R,1.579875X0.028194*%
%ADD176R,4.064000X0.028450*%
%ADD177R,0.988056X0.028450*%
%ADD178R,4.094481X0.028194*%
%ADD179R,4.122419X0.028194*%
%ADD180R,4.150356X0.028194*%
%ADD181R,1.496056X0.028194*%
%ADD182R,4.178300X0.028194*%
%ADD183R,1.465575X0.028194*%
%ADD184R,4.206238X0.028194*%
%ADD185R,0.281938X0.028194*%
%ADD186R,4.234181X0.028194*%
%ADD187R,1.437638X0.028194*%
%ADD188R,0.452119X0.028194*%
%ADD189R,4.262119X0.028194*%
%ADD190R,1.409700X0.028194*%
%ADD191R,0.619756X0.028194*%
%ADD192R,1.409700X0.028450*%
%ADD193R,1.437638X0.028450*%
%ADD194R,0.678181X0.028450*%
%ADD195R,0.734063X0.028194*%
%ADD196R,4.348481X0.028194*%
%ADD197R,4.376419X0.028194*%
%ADD198R,1.381756X0.028194*%
%ADD199R,1.412238X0.028194*%
%ADD200R,4.376419X0.028450*%
%ADD201R,1.412238X0.028450*%
%ADD202R,0.845819X0.028450*%
%ADD203R,4.318000X0.028450*%
%ADD204R,0.817881X0.028194*%
%ADD205R,1.440181X0.028194*%
%ADD206R,0.904238X0.028194*%
%ADD207R,0.876300X0.028194*%
%ADD208R,0.820419X0.028194*%
%ADD209R,0.678175X0.028194*%
%ADD210R,0.792481X0.028194*%
%ADD211R,0.731519X0.028194*%
%ADD212R,3.218181X0.028194*%
%ADD213R,0.675638X0.028194*%
%ADD214R,3.162300X0.028450*%
%ADD215R,0.591819X0.028450*%
%ADD216R,0.449575X0.028450*%
%ADD217R,1.864356X0.028450*%
%ADD218R,4.401819X0.028450*%
%ADD219R,0.337819X0.028194*%
%ADD220R,3.078481X0.028194*%
%ADD221R,0.170175X0.028194*%
%ADD222R,1.384300X0.028194*%
%ADD223R,0.508000X0.028194*%
%ADD224R,3.048000X0.028194*%
%ADD225R,0.396238X0.028194*%
%ADD226R,4.485638X0.028194*%
%ADD227R,3.106419X0.028194*%
%ADD228R,1.747519X0.028194*%
%ADD229R,1.836419X0.028450*%
%ADD230R,1.554481X0.028450*%
%ADD231R,1.607819X0.028450*%
%ADD232R,4.599938X0.028450*%
%ADD233R,1.948175X0.028194*%
%ADD234R,1.610356X0.028194*%
%ADD235R,3.274056X0.028194*%
%ADD236R,1.638300X0.028194*%
%ADD237R,2.115819X0.028194*%
%ADD238R,4.711700X0.028194*%
%ADD239R,2.171700X0.028194*%
%ADD240R,4.767575X0.028194*%
%ADD241R,2.286000X0.028194*%
%ADD242R,2.372362X0.028194*%
%ADD243R,2.512056X0.028194*%
%ADD244R,3.642356X0.028450*%
%ADD245R,2.651763X0.028450*%
%ADD246R,1.948181X0.028450*%
%ADD247R,2.004063X0.028450*%
%ADD248R,2.880362X0.028194*%
%ADD249R,5.250181X0.028194*%
%ADD250R,5.135875X0.028194*%
%ADD251R,13.068300X0.028194*%
%ADD252R,4.231638X0.028194*%
%ADD253R,12.842238X0.028194*%
%ADD254R,4.005575X0.028194*%
%ADD255R,12.672056X0.028450*%
%ADD256R,12.532356X0.028194*%
%ADD257R,3.667756X0.028194*%
%ADD258R,12.390119X0.028194*%
%ADD259R,3.528056X0.028194*%
%ADD260R,12.306300X0.028194*%
%ADD261R,3.413756X0.028194*%
%ADD262R,0.284481X0.028194*%
%ADD263R,4.429762X0.028194*%
%ADD264R,3.215638X0.028194*%
%ADD265R,2.626356X0.028194*%
%ADD266R,3.103875X0.028194*%
%ADD267R,0.312419X0.028194*%
%ADD268R,2.540000X0.028194*%
%ADD269R,3.020056X0.028194*%
%ADD270R,2.484119X0.028194*%
%ADD271R,2.933700X0.028194*%
%ADD272R,0.312419X0.028450*%
%ADD273R,4.457700X0.028450*%
%ADD274R,2.400300X0.028450*%
%ADD275R,2.849875X0.028450*%
%ADD276R,2.344419X0.028194*%
%ADD277R,2.255519X0.028194*%
%ADD278R,0.340356X0.028194*%
%ADD279R,2.199638X0.028194*%
%ADD280R,2.651756X0.028194*%
%ADD281R,2.143756X0.028194*%
%ADD282R,2.567938X0.028194*%
%ADD283R,2.087875X0.028194*%
%ADD284R,2.453638X0.028194*%
%ADD285R,2.397756X0.028194*%
%ADD286R,0.368300X0.028194*%
%ADD287R,0.368300X0.028450*%
%ADD288R,4.429756X0.028450*%
%ADD289R,1.833875X0.028450*%
%ADD290R,2.286000X0.028450*%
%ADD291R,4.460237X0.028194*%
%ADD292R,2.227575X0.028194*%
%ADD293R,4.432300X0.028194*%
%ADD294R,0.424181X0.028450*%
%ADD295R,4.432300X0.028450*%
%ADD296R,1.861819X0.028450*%
%ADD297R,0.424181X0.028194*%
%ADD298R,1.833875X0.028194*%
%ADD299R,1.694175X0.028194*%
%ADD300R,1.353819X0.028194*%
%ADD301R,1.325881X0.028194*%
%ADD302R,1.270000X0.028194*%
%ADD303R,1.242056X0.028194*%
%ADD304R,1.214119X0.028194*%
%ADD305R,1.186181X0.028194*%
%ADD306R,1.158238X0.028194*%
%ADD307R,0.452119X0.028450*%
%ADD308R,1.468119X0.028450*%
%ADD309R,1.127756X0.028450*%
%ADD310R,1.750056X0.028450*%
%ADD311R,1.554481X0.028194*%
%ADD312R,1.440175X0.028194*%
%ADD313R,1.071875X0.028194*%
%ADD314R,1.043937X0.028194*%
%ADD315R,1.016000X0.028194*%
%ADD316R,0.960119X0.028194*%
%ADD317R,1.297937X0.028194*%
%ADD318R,0.848356X0.028194*%
%ADD319R,0.508000X0.028450*%
%ADD320R,1.381756X0.028450*%
%ADD321R,1.325881X0.028450*%
%ADD322R,0.848356X0.028450*%
%ADD323R,0.817875X0.028194*%
%ADD324R,0.538481X0.028194*%
%ADD325R,1.242063X0.028194*%
%ADD326R,0.678181X0.028194*%
%ADD327R,0.566419X0.028194*%
%ADD328R,1.183638X0.028194*%
%ADD329R,1.155700X0.028194*%
%ADD330R,0.622300X0.028194*%
%ADD331R,0.566419X0.028450*%
%ADD332R,1.242063X0.028450*%
%ADD333R,1.155700X0.028450*%
%ADD334R,0.594356X0.028450*%
%ADD335R,1.663700X0.028450*%
%ADD336R,1.127756X0.028194*%
%ADD337R,1.099819X0.028194*%
%ADD338R,0.477519X0.028194*%
%ADD339R,0.421637X0.028194*%
%ADD340R,0.622300X0.028450*%
%ADD341R,1.099819X0.028450*%
%ADD342R,1.016000X0.028450*%
%ADD343R,0.393700X0.028450*%
%ADD344R,1.071881X0.028194*%
%ADD345R,0.985519X0.028194*%
%ADD346R,0.393700X0.028194*%
%ADD347R,0.309881X0.028194*%
%ADD348R,0.932181X0.028194*%
%ADD349R,0.932175X0.028194*%
%ADD350R,0.254000X0.028194*%
%ADD351R,0.932175X0.028450*%
%ADD352R,0.876300X0.028450*%
%ADD353R,0.226056X0.028450*%
%ADD354R,0.848363X0.028194*%
%ADD355R,0.226056X0.028194*%
%ADD356R,0.142238X0.028194*%
%ADD357R,0.111756X0.028194*%
%ADD358R,0.706119X0.028450*%
%ADD359R,0.762000X0.028450*%
%ADD360R,0.734056X0.028450*%
%ADD361R,0.111756X0.028450*%
%ADD362R,1.496056X0.028450*%
%ADD363R,0.055875X0.028194*%
%ADD364R,2.059938X0.028194*%
%ADD365R,0.647700X0.028194*%
%ADD366R,0.591819X0.028194*%
%ADD367R,0.563881X0.028450*%
%ADD368R,2.202175X0.028450*%
%ADD369R,0.563881X0.028194*%
%ADD370R,0.563875X0.028194*%
%ADD371R,2.341881X0.028194*%
%ADD372R,0.480063X0.028194*%
%ADD373R,2.369819X0.028194*%
%ADD374R,0.820419X0.028450*%
%ADD375R,0.421637X0.028450*%
%ADD376R,2.425700X0.028450*%
%ADD377R,2.425700X0.028194*%
%ADD378R,2.512063X0.028194*%
%ADD379R,0.309875X0.028194*%
%ADD380R,0.281938X0.028450*%
%ADD381R,2.540000X0.028450*%
%ADD382R,1.353819X0.028450*%
%ADD383R,2.595875X0.028194*%
%ADD384R,1.325875X0.028194*%
%ADD385R,0.223519X0.028194*%
%ADD386R,2.623819X0.028194*%
%ADD387R,0.170181X0.028194*%
%ADD388R,0.932181X0.028450*%
%ADD389R,0.114300X0.028450*%
%ADD390R,0.142238X0.028450*%
%ADD391R,2.651756X0.028450*%
%ADD392R,1.297937X0.028450*%
%ADD393R,0.114300X0.028194*%
%ADD394R,2.682238X0.028194*%
%ADD395R,0.058419X0.028194*%
%ADD396R,0.086363X0.028194*%
%ADD397R,0.027938X0.028194*%
%ADD398R,2.710181X0.028194*%
%ADD399R,0.960119X0.028450*%
%ADD400R,2.710181X0.028450*%
%ADD401R,1.242056X0.028450*%
%ADD402R,1.211575X0.028194*%
%ADD403R,2.710175X0.028194*%
%ADD404R,0.198119X0.028450*%
%ADD405R,2.738119X0.028450*%
%ADD406R,1.183638X0.028450*%
%ADD407R,1.046481X0.028194*%
%ADD408R,2.766056X0.028194*%
%ADD409R,1.074419X0.028194*%
%ADD410R,1.074419X0.028450*%
%ADD411R,2.766056X0.028450*%
%ADD412R,6.123938X0.028194*%
%ADD413R,6.096000X0.028194*%
%ADD414R,1.102356X0.028194*%
%ADD415R,6.068056X0.028194*%
%ADD416R,1.130300X0.028194*%
%ADD417R,1.130300X0.028450*%
%ADD418R,0.789938X0.028450*%
%ADD419R,6.037575X0.028450*%
%ADD420R,6.037575X0.028194*%
%ADD421R,6.009638X0.028194*%
%ADD422R,5.981700X0.028194*%
%ADD423R,5.953756X0.028194*%
%ADD424R,1.186181X0.028450*%
%ADD425R,5.953756X0.028450*%
%ADD426R,5.925819X0.028194*%
%ADD427R,5.897875X0.028194*%
%ADD428R,1.300481X0.028194*%
%ADD429R,5.869938X0.028194*%
%ADD430R,1.356363X0.028194*%
%ADD431R,5.842000X0.028194*%
%ADD432R,1.214119X0.028450*%
%ADD433R,1.440175X0.028450*%
%ADD434R,5.814056X0.028450*%
%ADD435R,5.814056X0.028194*%
%ADD436R,5.783575X0.028194*%
%ADD437R,5.755638X0.028194*%
%ADD438R,3.441700X0.028194*%
%ADD439R,3.385819X0.028194*%
%ADD440R,3.329938X0.028194*%
%ADD441R,1.270000X0.028450*%
%ADD442R,3.246119X0.028450*%
%ADD443R,2.087875X0.028450*%
%ADD444R,3.218175X0.028194*%
%ADD445R,2.989575X0.028194*%
%ADD446R,1.328419X0.028194*%
%ADD447R,1.328419X0.028450*%
%ADD448R,2.032000X0.028450*%
%ADD449R,2.710175X0.028450*%
%ADD450R,2.654300X0.028194*%
%ADD451R,2.598419X0.028194*%
%ADD452R,1.356356X0.028194*%
%ADD453R,2.118362X0.028194*%
%ADD454R,2.481575X0.028194*%
%ADD455R,2.202175X0.028194*%
%ADD456R,1.384300X0.028450*%
%ADD457R,2.341881X0.028450*%
%ADD458R,1.889756X0.028450*%
%ADD459R,1.440181X0.028450*%
%ADD460R,2.623819X0.028450*%
%ADD461R,2.852419X0.028194*%
%ADD462R,2.908300X0.028194*%
%ADD463R,2.936238X0.028450*%
%ADD464R,2.964175X0.028194*%
%ADD465R,0.703575X0.028194*%
%ADD466R,3.075938X0.028194*%
%ADD467R,3.103881X0.028194*%
%ADD468R,3.159756X0.028194*%
%ADD469R,3.187700X0.028194*%
%ADD470R,1.524000X0.028450*%
%ADD471R,3.274063X0.028194*%
%ADD472R,3.357875X0.028194*%
%ADD473R,1.582419X0.028450*%
%ADD474R,0.647700X0.028450*%
%ADD475R,3.583938X0.028194*%
%ADD476R,3.754119X0.028194*%
%ADD477R,3.810000X0.028194*%
%ADD478R,3.837938X0.028450*%
%ADD479R,0.873756X0.028450*%
%ADD480R,3.865881X0.028194*%
%ADD481R,3.921756X0.028194*%
%ADD482R,3.949700X0.028194*%
%ADD483R,3.977638X0.028194*%
%ADD484R,4.064000X0.028194*%
%ADD485R,4.091938X0.028194*%
%ADD486R,0.988063X0.028194*%
%ADD487R,1.694181X0.028450*%
%ADD488R,4.147819X0.028450*%
%ADD489R,1.071881X0.028450*%
%ADD490R,1.211575X0.028450*%
%ADD491R,4.175756X0.028194*%
%ADD492R,1.127763X0.028194*%
%ADD493R,4.404356X0.028194*%
%ADD494R,4.488175X0.028194*%
%ADD495R,4.516119X0.028194*%
%ADD496R,4.739638X0.028450*%
%ADD497R,2.258056X0.028450*%
%ADD498R,13.180056X0.028194*%
%ADD499R,13.322300X0.028194*%
%ADD500R,13.434056X0.028194*%
%ADD501R,13.604237X0.028194*%
%ADD502R,2.849875X0.028194*%
%ADD503R,13.774419X0.028194*%
%ADD504R,14.056356X0.028194*%
%ADD505C,3.003200*%
%ADD506P,1.319650X8X112.500000*%
%ADD507C,1.320800*%
%ADD508C,1.422400*%
%ADD509C,4.013200*%
%ADD510P,1.429621X8X292.500000*%
%ADD511C,1.879600*%
%ADD512R,3.003200X3.003200*%
%ADD513C,1.053200*%
%ADD514C,1.879600*%
%ADD515R,2.256400X2.256400*%
%ADD516C,2.053200*%
%ADD517C,1.727200*%
%ADD518R,1.406400X1.406400*%
%ADD519C,1.406400*%
%ADD520C,2.082800*%
%ADD521C,5.283200*%
%ADD522C,3.505200*%
%ADD523C,2.387600*%
%ADD524C,0.959600*%
%ADD525C,1.703200*%


D10*
X921407Y424984D03*
D11*
X921407Y425267D03*
X921407Y425549D03*
X921407Y425831D03*
X921407Y426113D03*
X921407Y426395D03*
X921407Y426677D03*
X921407Y426959D03*
X921407Y427241D03*
D10*
X921407Y427524D03*
D11*
X921407Y427807D03*
X921407Y428089D03*
X921407Y428371D03*
X921407Y428653D03*
X921407Y428935D03*
X921407Y429217D03*
X921407Y429499D03*
X921407Y429781D03*
D12*
X978126Y430064D03*
D13*
X912365Y430064D03*
D14*
X855215Y430064D03*
D15*
X998306Y430347D03*
D16*
X953437Y430347D03*
D17*
X924354Y430347D03*
D18*
X897544Y430347D03*
D19*
X854656Y430347D03*
D15*
X998306Y430629D03*
D20*
X953856Y430629D03*
D21*
X923935Y430629D03*
D22*
X897976Y430629D03*
D23*
X854097Y430629D03*
D15*
X998306Y430911D03*
D24*
X954135Y430911D03*
D25*
X923655Y430911D03*
D26*
X898395Y430911D03*
D27*
X853805Y430911D03*
D15*
X998306Y431193D03*
D28*
X954427Y431193D03*
D29*
X923363Y431193D03*
D30*
X898674Y431193D03*
D31*
X853526Y431193D03*
D15*
X998306Y431475D03*
D18*
X954567Y431475D03*
D32*
X923084Y431475D03*
D33*
X898814Y431475D03*
D34*
X853246Y431475D03*
D15*
X998306Y431757D03*
D35*
X954846Y431757D03*
D36*
X922944Y431757D03*
D37*
X898954Y431757D03*
D38*
X852967Y431757D03*
D15*
X998306Y432039D03*
D39*
X954986Y432039D03*
D40*
X922804Y432039D03*
D33*
X898814Y432039D03*
D41*
X852827Y432039D03*
D15*
X998306Y432321D03*
D42*
X955126Y432321D03*
D43*
X922665Y432321D03*
D33*
X898814Y432321D03*
D44*
X852535Y432321D03*
D45*
X998306Y432604D03*
D46*
X955266Y432604D03*
D47*
X922525Y432604D03*
D48*
X898674Y432604D03*
D49*
X852396Y432604D03*
D15*
X998306Y432887D03*
D50*
X955405Y432887D03*
D51*
X922385Y432887D03*
D30*
X898674Y432887D03*
D52*
X852256Y432887D03*
D15*
X998306Y433169D03*
D53*
X955545Y433169D03*
D54*
X922233Y433169D03*
D55*
X898535Y433169D03*
D56*
X852116Y433169D03*
D15*
X998306Y433451D03*
D30*
X955697Y433451D03*
D57*
X922093Y433451D03*
D55*
X898535Y433451D03*
D58*
X851976Y433451D03*
D15*
X998306Y433733D03*
D33*
X955837Y433733D03*
D59*
X921953Y433733D03*
D26*
X898395Y433733D03*
D60*
X851837Y433733D03*
D15*
X998306Y434015D03*
D33*
X955837Y434015D03*
D61*
X921814Y434015D03*
D62*
X898255Y434015D03*
D63*
X851697Y434015D03*
D64*
X998166Y434297D03*
D37*
X955977Y434297D03*
D61*
X921814Y434297D03*
D62*
X898255Y434297D03*
D65*
X851557Y434297D03*
D66*
X998026Y434579D03*
D67*
X956116Y434579D03*
D20*
X921674Y434579D03*
D68*
X898116Y434579D03*
D69*
X884565Y434579D03*
D70*
X851405Y434579D03*
D71*
X997747Y434861D03*
D67*
X956116Y434861D03*
D72*
X939886Y434861D03*
D73*
X921534Y434861D03*
D68*
X898116Y434861D03*
D74*
X884577Y434861D03*
D70*
X851405Y434861D03*
D75*
X997607Y435144D03*
D76*
X961616Y435144D03*
D77*
X939886Y435144D03*
D78*
X921534Y435144D03*
D79*
X897976Y435144D03*
D80*
X884844Y435144D03*
D81*
X851265Y435144D03*
D82*
X997468Y435427D03*
D83*
X961616Y435427D03*
D84*
X940026Y435427D03*
D85*
X921395Y435427D03*
D22*
X897976Y435427D03*
D86*
X884704Y435427D03*
D87*
X851126Y435427D03*
D88*
X997315Y435709D03*
D89*
X961476Y435709D03*
D90*
X939873Y435709D03*
D85*
X921395Y435709D03*
D91*
X893455Y435709D03*
D87*
X851126Y435709D03*
D92*
X997176Y435991D03*
D93*
X961336Y435991D03*
D94*
X939886Y435991D03*
D95*
X921255Y435991D03*
D96*
X893175Y435991D03*
D97*
X850986Y435991D03*
D98*
X997036Y436273D03*
D99*
X961323Y436273D03*
D100*
X939886Y436273D03*
D95*
X921255Y436273D03*
D101*
X893036Y436273D03*
D97*
X850986Y436273D03*
D102*
X996896Y436555D03*
D103*
X961184Y436555D03*
D104*
X939886Y436555D03*
D105*
X921115Y436555D03*
D106*
X892896Y436555D03*
D107*
X850846Y436555D03*
D108*
X996756Y436837D03*
D109*
X961184Y436837D03*
D110*
X940026Y436837D03*
D105*
X921115Y436837D03*
D111*
X892743Y436837D03*
D107*
X850846Y436837D03*
D112*
X996617Y437119D03*
D113*
X961044Y437119D03*
D114*
X939886Y437119D03*
D105*
X921115Y437119D03*
D111*
X892743Y437119D03*
D115*
X850706Y437119D03*
D116*
X996477Y437401D03*
D36*
X960765Y437401D03*
D86*
X940026Y437401D03*
D18*
X920963Y437401D03*
D117*
X892604Y437401D03*
D115*
X850706Y437401D03*
D118*
X996337Y437684D03*
D119*
X960765Y437684D03*
D120*
X939886Y437684D03*
D121*
X920963Y437684D03*
D122*
X892464Y437684D03*
D123*
X850706Y437684D03*
D124*
X996198Y437967D03*
D125*
X960625Y437967D03*
D126*
X940026Y437967D03*
D18*
X920963Y437967D03*
D127*
X892464Y437967D03*
D128*
X850567Y437967D03*
D129*
X996045Y438249D03*
D51*
X960485Y438249D03*
D126*
X940026Y438249D03*
D130*
X920823Y438249D03*
D131*
X892324Y438249D03*
D128*
X850567Y438249D03*
D132*
X995906Y438531D03*
D133*
X960485Y438531D03*
D134*
X939886Y438531D03*
D130*
X920823Y438531D03*
D131*
X892324Y438531D03*
D128*
X850567Y438531D03*
D135*
X995766Y438813D03*
D136*
X960346Y438813D03*
D137*
X940026Y438813D03*
D130*
X920823Y438813D03*
D138*
X892185Y438813D03*
D139*
X850427Y438813D03*
D140*
X995626Y439095D03*
D141*
X960206Y439095D03*
D137*
X940026Y439095D03*
D130*
X920823Y439095D03*
D138*
X892185Y439095D03*
D139*
X850427Y439095D03*
D142*
X995486Y439377D03*
D143*
X960066Y439377D03*
D144*
X939886Y439377D03*
D130*
X920823Y439377D03*
D138*
X892185Y439377D03*
D139*
X850427Y439377D03*
D145*
X995347Y439659D03*
D146*
X959926Y439659D03*
D144*
X939886Y439659D03*
D35*
X920683Y439659D03*
D147*
X892045Y439659D03*
D139*
X850427Y439659D03*
D148*
X995067Y439941D03*
D149*
X959787Y439941D03*
D150*
X940026Y439941D03*
D35*
X920683Y439941D03*
D54*
X896274Y439941D03*
D151*
X879485Y439941D03*
D139*
X850427Y439941D03*
D152*
X994928Y440224D03*
D153*
X959787Y440224D03*
D154*
X940026Y440224D03*
D155*
X920683Y440224D03*
D156*
X896846Y440224D03*
D157*
X878926Y440224D03*
D158*
X850287Y440224D03*
D159*
X994775Y440507D03*
D18*
X959647Y440507D03*
D150*
X940026Y440507D03*
D35*
X920683Y440507D03*
D149*
X897125Y440507D03*
D72*
X878646Y440507D03*
D160*
X850287Y440507D03*
D161*
X994636Y440789D03*
D130*
X959507Y440789D03*
D150*
X940026Y440789D03*
D35*
X920683Y440789D03*
D28*
X897404Y440789D03*
D162*
X878354Y440789D03*
D160*
X850287Y440789D03*
D163*
X994496Y441071D03*
D164*
X959355Y441071D03*
D150*
X940026Y441071D03*
D35*
X920683Y441071D03*
D165*
X897684Y441071D03*
D166*
X878075Y441071D03*
D160*
X850287Y441071D03*
D167*
X994356Y441353D03*
D22*
X959215Y441353D03*
D150*
X940026Y441353D03*
D35*
X920683Y441353D03*
X897823Y441353D03*
D166*
X877796Y441353D03*
D160*
X850287Y441353D03*
D168*
X994216Y441635D03*
D68*
X959076Y441635D03*
D169*
X939873Y441635D03*
D35*
X920683Y441635D03*
D68*
X898116Y441635D03*
D170*
X877656Y441635D03*
D160*
X850287Y441635D03*
D171*
X994077Y441917D03*
D172*
X958936Y441917D03*
D169*
X939873Y441917D03*
D35*
X920683Y441917D03*
D62*
X898255Y441917D03*
D160*
X850287Y441917D03*
D173*
X993937Y442199D03*
D26*
X958796Y442199D03*
D169*
X939873Y442199D03*
D35*
X920683Y442199D03*
D26*
X898395Y442199D03*
D160*
X850287Y442199D03*
D174*
X993797Y442481D03*
D175*
X958656Y442481D03*
D169*
X939873Y442481D03*
D35*
X920683Y442481D03*
D55*
X898535Y442481D03*
D160*
X850287Y442481D03*
D176*
X993658Y442764D03*
D48*
X958517Y442764D03*
D177*
X939873Y442764D03*
D155*
X920683Y442764D03*
D48*
X898674Y442764D03*
D158*
X850287Y442764D03*
D178*
X993505Y443047D03*
D33*
X958377Y443047D03*
D169*
X939873Y443047D03*
D35*
X920683Y443047D03*
D30*
X898674Y443047D03*
D160*
X850287Y443047D03*
D179*
X993366Y443329D03*
D33*
X958377Y443329D03*
D169*
X939873Y443329D03*
D35*
X920683Y443329D03*
D33*
X898814Y443329D03*
D160*
X850287Y443329D03*
D180*
X993226Y443611D03*
D181*
X958237Y443611D03*
D169*
X939873Y443611D03*
D35*
X920683Y443611D03*
D37*
X898954Y443611D03*
D160*
X850287Y443611D03*
D182*
X993086Y443893D03*
D183*
X958085Y443893D03*
D169*
X939873Y443893D03*
D35*
X920683Y443893D03*
D37*
X898954Y443893D03*
D160*
X850287Y443893D03*
D184*
X992946Y444175D03*
D183*
X958085Y444175D03*
D169*
X939873Y444175D03*
D35*
X920683Y444175D03*
D67*
X899093Y444175D03*
D185*
X882444Y444175D03*
D160*
X850287Y444175D03*
D186*
X992807Y444457D03*
D187*
X957945Y444457D03*
D150*
X940026Y444457D03*
D35*
X920683Y444457D03*
D67*
X899093Y444457D03*
D188*
X882456Y444457D03*
D160*
X850287Y444457D03*
D189*
X992667Y444739D03*
D187*
X957945Y444739D03*
D150*
X940026Y444739D03*
D35*
X920683Y444739D03*
D187*
X899246Y444739D03*
D90*
X882596Y444739D03*
D160*
X850287Y444739D03*
X992527Y445021D03*
D190*
X957806Y445021D03*
D150*
X940026Y445021D03*
D35*
X920683Y445021D03*
D187*
X899246Y445021D03*
D191*
X882456Y445021D03*
D160*
X850287Y445021D03*
D158*
X992527Y445304D03*
D192*
X957806Y445304D03*
D154*
X940026Y445304D03*
D155*
X920683Y445304D03*
D193*
X899246Y445304D03*
D194*
X882444Y445304D03*
D158*
X850287Y445304D03*
D139*
X992388Y445587D03*
D190*
X957806Y445587D03*
D150*
X940026Y445587D03*
D35*
X920683Y445587D03*
D190*
X899386Y445587D03*
D195*
X882444Y445587D03*
D160*
X850287Y445587D03*
D196*
X992235Y445869D03*
D190*
X957526Y445869D03*
D144*
X939886Y445869D03*
D35*
X920683Y445869D03*
D190*
X899386Y445869D03*
D195*
X882444Y445869D03*
D160*
X850287Y445869D03*
D196*
X992235Y446151D03*
D190*
X957526Y446151D03*
D144*
X939886Y446151D03*
D35*
X920683Y446151D03*
D190*
X899386Y446151D03*
D86*
X882444Y446151D03*
D160*
X850287Y446151D03*
D196*
X992235Y446433D03*
D190*
X957526Y446433D03*
D144*
X939886Y446433D03*
D130*
X920823Y446433D03*
D190*
X899386Y446433D03*
D86*
X882444Y446433D03*
D160*
X850287Y446433D03*
D197*
X992096Y446715D03*
D190*
X957526Y446715D03*
D137*
X940026Y446715D03*
D130*
X920823Y446715D03*
D190*
X899386Y446715D03*
D126*
X882444Y446715D03*
D160*
X850287Y446715D03*
D197*
X992096Y446997D03*
D198*
X957386Y446997D03*
D137*
X940026Y446997D03*
D130*
X920823Y446997D03*
D190*
X899386Y446997D03*
D126*
X882444Y446997D03*
D139*
X850427Y446997D03*
D197*
X992096Y447279D03*
D198*
X957386Y447279D03*
D134*
X939886Y447279D03*
D130*
X920823Y447279D03*
D190*
X899386Y447279D03*
D126*
X882444Y447279D03*
D139*
X850427Y447279D03*
D197*
X992096Y447561D03*
D199*
X957234Y447561D03*
D126*
X940026Y447561D03*
D130*
X920823Y447561D03*
D190*
X899386Y447561D03*
D126*
X882444Y447561D03*
D139*
X850427Y447561D03*
D200*
X992096Y447844D03*
D201*
X957234Y447844D03*
D202*
X940026Y447844D03*
D121*
X920963Y447844D03*
D192*
X899386Y447844D03*
D202*
X882444Y447844D03*
D203*
X850427Y447844D03*
D197*
X992096Y448127D03*
D199*
X957234Y448127D03*
D204*
X939886Y448127D03*
D18*
X920963Y448127D03*
D190*
X899386Y448127D03*
D126*
X882444Y448127D03*
D139*
X850427Y448127D03*
D197*
X992096Y448409D03*
D205*
X957094Y448409D03*
D86*
X940026Y448409D03*
D18*
X920963Y448409D03*
D190*
X899386Y448409D03*
D126*
X882444Y448409D03*
D128*
X850567Y448409D03*
D108*
X996756Y448691D03*
D206*
X974735Y448691D03*
D205*
X957094Y448691D03*
D114*
X939886Y448691D03*
D105*
X921115Y448691D03*
D190*
X899386Y448691D03*
D126*
X882444Y448691D03*
D128*
X850567Y448691D03*
D98*
X997036Y448973D03*
D207*
X974595Y448973D03*
D205*
X957094Y448973D03*
D110*
X940026Y448973D03*
D105*
X921115Y448973D03*
D190*
X899386Y448973D03*
D126*
X882444Y448973D03*
D128*
X850567Y448973D03*
D88*
X997315Y449255D03*
D208*
X974595Y449255D03*
D67*
X956955Y449255D03*
D209*
X940026Y449255D03*
D105*
X921115Y449255D03*
D190*
X899386Y449255D03*
D86*
X882444Y449255D03*
D115*
X850706Y449255D03*
D82*
X997468Y449537D03*
D210*
X974455Y449537D03*
D67*
X956955Y449537D03*
D100*
X939886Y449537D03*
D95*
X921255Y449537D03*
D190*
X899386Y449537D03*
D86*
X882444Y449537D03*
D115*
X850706Y449537D03*
D71*
X997747Y449819D03*
D211*
X974455Y449819D03*
D181*
X956815Y449819D03*
D94*
X939886Y449819D03*
D95*
X921255Y449819D03*
D187*
X899246Y449819D03*
D195*
X882444Y449819D03*
D107*
X850846Y449819D03*
D212*
X997887Y450101D03*
D213*
X974455Y450101D03*
D181*
X956815Y450101D03*
D90*
X939873Y450101D03*
D85*
X921395Y450101D03*
D187*
X899246Y450101D03*
D195*
X882444Y450101D03*
D107*
X850846Y450101D03*
D214*
X998166Y450384D03*
D215*
X974316Y450384D03*
D48*
X956815Y450384D03*
D216*
X940026Y450384D03*
D217*
X921395Y450384D03*
D193*
X899246Y450384D03*
D194*
X882444Y450384D03*
D218*
X850846Y450384D03*
D15*
X998306Y450667D03*
D188*
X974176Y450667D03*
D30*
X956815Y450667D03*
D219*
X940026Y450667D03*
D73*
X921534Y450667D03*
D67*
X899093Y450667D03*
D191*
X882456Y450667D03*
D97*
X850986Y450667D03*
D220*
X998585Y450949D03*
D185*
X974163Y450949D03*
D55*
X956675Y450949D03*
D221*
X940026Y450949D03*
D222*
X924074Y450949D03*
D67*
X899093Y450949D03*
D223*
X882456Y450949D03*
D87*
X851126Y450949D03*
D224*
X998738Y451231D03*
D26*
X956815Y451231D03*
D199*
X924214Y451231D03*
D37*
X898954Y451231D03*
D225*
X882456Y451231D03*
D87*
X851126Y451231D03*
D224*
X998738Y451513D03*
D62*
X956675Y451513D03*
D205*
X924354Y451513D03*
D37*
X898954Y451513D03*
D72*
X882583Y451513D03*
D226*
X851265Y451513D03*
D220*
X998585Y451795D03*
D22*
X956675Y451795D03*
D205*
X924354Y451795D03*
D33*
X898814Y451795D03*
D226*
X851265Y451795D03*
D227*
X998446Y452077D03*
D22*
X956675Y452077D03*
D67*
X924493Y452077D03*
D33*
X898814Y452077D03*
D70*
X851405Y452077D03*
D227*
X998446Y452359D03*
D228*
X956675Y452359D03*
D181*
X924633Y452359D03*
D30*
X898674Y452359D03*
D65*
X851557Y452359D03*
D15*
X998306Y452641D03*
D105*
X956675Y452641D03*
D33*
X924773Y452641D03*
D55*
X898535Y452641D03*
D63*
X851697Y452641D03*
D214*
X998166Y452924D03*
D229*
X956536Y452924D03*
D230*
X924925Y452924D03*
D231*
X898395Y452924D03*
D232*
X851837Y452924D03*
D66*
X998026Y453207D03*
D73*
X956536Y453207D03*
D53*
X925065Y453207D03*
D62*
X898255Y453207D03*
D58*
X851976Y453207D03*
D71*
X997747Y453489D03*
D233*
X956536Y453489D03*
D234*
X925205Y453489D03*
D68*
X898116Y453489D03*
D56*
X852116Y453489D03*
D235*
X997607Y453771D03*
D57*
X956536Y453771D03*
D236*
X925344Y453771D03*
D22*
X897976Y453771D03*
D52*
X852256Y453771D03*
D88*
X997315Y454053D03*
D237*
X956536Y454053D03*
D42*
X925484Y454053D03*
D35*
X897823Y454053D03*
D238*
X852396Y454053D03*
D92*
X997176Y454335D03*
D239*
X956536Y454335D03*
D35*
X925763Y454335D03*
D18*
X897544Y454335D03*
D240*
X852675Y454335D03*
D102*
X996896Y454617D03*
D241*
X956523Y454617D03*
D130*
X925903Y454617D03*
D28*
X897404Y454617D03*
D38*
X852967Y454617D03*
D112*
X996617Y454899D03*
D242*
X956675Y454899D03*
D105*
X926195Y454899D03*
D149*
X897125Y454899D03*
D34*
X853246Y454899D03*
D124*
X996198Y455181D03*
D243*
X956536Y455181D03*
D85*
X926475Y455181D03*
D143*
X896846Y455181D03*
D31*
X853526Y455181D03*
D244*
X995766Y455464D03*
D245*
X956675Y455464D03*
D246*
X926894Y455464D03*
D247*
X896414Y455464D03*
D13*
X853945Y455464D03*
D148*
X995067Y455747D03*
D248*
X956675Y455747D03*
D249*
X911527Y455747D03*
D250*
X854516Y455747D03*
D11*
X921407Y456029D03*
X921407Y456311D03*
X921407Y456593D03*
X921407Y456875D03*
X921407Y457157D03*
X921407Y457439D03*
X921407Y457721D03*
D10*
X921407Y458004D03*
D11*
X921407Y458287D03*
X921407Y458569D03*
X921407Y458851D03*
X921407Y459133D03*
X921407Y459415D03*
X921407Y459697D03*
D251*
X948636Y459979D03*
D252*
X849995Y459979D03*
D253*
X949766Y460261D03*
D254*
X848865Y460261D03*
D255*
X950617Y460544D03*
D152*
X847887Y460544D03*
D256*
X951316Y460827D03*
D257*
X847176Y460827D03*
D258*
X952027Y461109D03*
D259*
X846477Y461109D03*
D260*
X952446Y461391D03*
D261*
X845906Y461391D03*
D262*
X1012555Y461673D03*
D87*
X965705Y461673D03*
D131*
X906167Y461673D03*
D82*
X845347Y461673D03*
D262*
X1012555Y461955D03*
D263*
X965565Y461955D03*
D111*
X906586Y461955D03*
D264*
X844915Y461955D03*
D262*
X1012555Y462237D03*
D263*
X965565Y462237D03*
D265*
X906866Y462237D03*
D266*
X844356Y462237D03*
D267*
X1012416Y462519D03*
D263*
X965565Y462519D03*
D268*
X907298Y462519D03*
D269*
X843937Y462519D03*
D267*
X1012416Y462801D03*
D87*
X965426Y462801D03*
D270*
X907577Y462801D03*
D271*
X843506Y462801D03*
D272*
X1012416Y463084D03*
D273*
X965426Y463084D03*
D274*
X907996Y463084D03*
D275*
X843086Y463084D03*
D267*
X1012416Y463367D03*
D97*
X965286Y463367D03*
D276*
X908276Y463367D03*
D127*
X842807Y463367D03*
D267*
X1012416Y463649D03*
D97*
X965286Y463649D03*
D277*
X908415Y463649D03*
D106*
X842375Y463649D03*
D278*
X1012276Y463931D03*
D97*
X965286Y463931D03*
D279*
X908695Y463931D03*
D280*
X842096Y463931D03*
D278*
X1012276Y464213D03*
D97*
X965286Y464213D03*
D281*
X908974Y464213D03*
D282*
X841677Y464213D03*
D278*
X1012276Y464495D03*
D87*
X965146Y464495D03*
D283*
X909253Y464495D03*
D243*
X841397Y464495D03*
D278*
X1012276Y464777D03*
D97*
X965006Y464777D03*
D54*
X909533Y464777D03*
D284*
X841105Y464777D03*
D278*
X1012276Y465059D03*
D97*
X965006Y465059D03*
D141*
X909685Y465059D03*
D285*
X840826Y465059D03*
D286*
X1012136Y465341D03*
D97*
X965006Y465341D03*
D146*
X909965Y465341D03*
D99*
X840546Y465341D03*
D287*
X1012136Y465624D03*
D288*
X965006Y465624D03*
D289*
X910244Y465624D03*
D290*
X840267Y465624D03*
D286*
X1012136Y465907D03*
D291*
X964854Y465907D03*
D28*
X910384Y465907D03*
D292*
X839975Y465907D03*
D286*
X1012136Y466189D03*
D293*
X964714Y466189D03*
D130*
X910663Y466189D03*
D239*
X839696Y466189D03*
D286*
X1012136Y466471D03*
D293*
X964714Y466471D03*
D22*
X910676Y466471D03*
D281*
X839556Y466471D03*
D225*
X1011996Y466753D03*
D293*
X964714Y466753D03*
D62*
X910955Y466753D03*
D283*
X839276Y466753D03*
D225*
X1011996Y467035D03*
D293*
X964714Y467035D03*
D26*
X911095Y467035D03*
D54*
X838997Y467035D03*
D225*
X1011996Y467317D03*
D291*
X964575Y467317D03*
D30*
X911374Y467317D03*
D57*
X838857Y467317D03*
D225*
X1011996Y467599D03*
D293*
X964435Y467599D03*
D33*
X911514Y467599D03*
D141*
X838565Y467599D03*
D225*
X1011996Y467881D03*
D293*
X964435Y467881D03*
D67*
X911514Y467881D03*
D143*
X838426Y467881D03*
D294*
X1011857Y468164D03*
D295*
X964435Y468164D03*
D192*
X911806Y468164D03*
D296*
X838146Y468164D03*
D297*
X1011857Y468447D03*
D35*
X977986Y468447D03*
D53*
X950186Y468447D03*
D198*
X911946Y468447D03*
D298*
X838006Y468447D03*
D297*
X1011857Y468729D03*
D299*
X978126Y468729D03*
D175*
X949893Y468729D03*
D300*
X912086Y468729D03*
D28*
X837867Y468729D03*
D297*
X1011857Y469011D03*
D42*
X977986Y469011D03*
D30*
X949754Y469011D03*
D301*
X912225Y469011D03*
D18*
X837727Y469011D03*
D297*
X1011857Y469293D03*
D236*
X978126Y469293D03*
D33*
X949614Y469293D03*
D302*
X912225Y469293D03*
D18*
X837727Y469293D03*
D188*
X1011717Y469575D03*
D236*
X978126Y469575D03*
D33*
X949614Y469575D03*
D303*
X912365Y469575D03*
D18*
X837727Y469575D03*
D188*
X1011717Y469857D03*
D50*
X978265Y469857D03*
D181*
X949474Y469857D03*
D304*
X912505Y469857D03*
D18*
X837727Y469857D03*
D188*
X1011717Y470139D03*
D50*
X978265Y470139D03*
D181*
X949195Y470139D03*
D305*
X912644Y470139D03*
D18*
X837727Y470139D03*
D188*
X1011717Y470421D03*
D53*
X978126Y470421D03*
D67*
X949055Y470421D03*
D306*
X912784Y470421D03*
D130*
X837587Y470421D03*
D307*
X1011717Y470704D03*
D230*
X978265Y470704D03*
D308*
X949055Y470704D03*
D309*
X912936Y470704D03*
D310*
X837587Y470704D03*
D74*
X1011577Y470987D03*
D311*
X978265Y470987D03*
D312*
X948916Y470987D03*
D313*
X912936Y470987D03*
D130*
X837587Y470987D03*
D74*
X1011577Y471269D03*
D33*
X978418Y471269D03*
D199*
X948776Y471269D03*
D314*
X913076Y471269D03*
D130*
X837587Y471269D03*
D74*
X1011577Y471551D03*
D33*
X978418Y471551D03*
D199*
X948496Y471551D03*
D315*
X913216Y471551D03*
D130*
X837587Y471551D03*
D74*
X1011577Y471833D03*
D183*
X978405Y471833D03*
D198*
X948344Y471833D03*
D169*
X913356Y471833D03*
D164*
X837435Y471833D03*
D74*
X1011577Y472115D03*
D183*
X978405Y472115D03*
D198*
X948344Y472115D03*
D316*
X913495Y472115D03*
D164*
X837435Y472115D03*
D223*
X1011438Y472397D03*
D183*
X978405Y472397D03*
D300*
X948204Y472397D03*
D206*
X913495Y472397D03*
D164*
X837435Y472397D03*
D223*
X1011438Y472679D03*
D187*
X978545Y472679D03*
D301*
X948065Y472679D03*
D207*
X913635Y472679D03*
D164*
X837435Y472679D03*
D223*
X1011438Y472961D03*
D187*
X978545Y472961D03*
D317*
X947925Y472961D03*
D318*
X913775Y472961D03*
D164*
X837435Y472961D03*
D319*
X1011438Y473244D03*
D320*
X978545Y473244D03*
D321*
X947785Y473244D03*
D322*
X913775Y473244D03*
D79*
X837295Y473244D03*
D223*
X1011438Y473527D03*
D198*
X978545Y473527D03*
D317*
X947646Y473527D03*
D323*
X913927Y473527D03*
D22*
X837295Y473527D03*
D324*
X1011285Y473809D03*
D300*
X978684Y473809D03*
D302*
X947506Y473809D03*
D114*
X913927Y473809D03*
D22*
X837295Y473809D03*
D324*
X1011285Y474091D03*
D300*
X978684Y474091D03*
D303*
X947366Y474091D03*
D195*
X914067Y474091D03*
D22*
X837295Y474091D03*
D324*
X1011285Y474373D03*
D300*
X978684Y474373D03*
D303*
X947366Y474373D03*
D195*
X914067Y474373D03*
D22*
X837295Y474373D03*
D324*
X1011285Y474655D03*
D317*
X978684Y474655D03*
D325*
X947087Y474655D03*
D104*
X914206Y474655D03*
D68*
X837156Y474655D03*
D324*
X1011285Y474937D03*
D317*
X978684Y474937D03*
D304*
X946947Y474937D03*
D326*
X914346Y474937D03*
D68*
X837156Y474937D03*
D327*
X1011146Y475219D03*
D302*
X978824Y475219D03*
D328*
X946795Y475219D03*
D100*
X914206Y475219D03*
D68*
X837156Y475219D03*
D327*
X1011146Y475501D03*
D302*
X978824Y475501D03*
D329*
X946655Y475501D03*
D330*
X914346Y475501D03*
D68*
X837156Y475501D03*
D331*
X1011146Y475784D03*
D332*
X978964Y475784D03*
D333*
X946655Y475784D03*
D334*
X914486Y475784D03*
D335*
X837156Y475784D03*
D327*
X1011146Y476067D03*
D304*
X978824Y476067D03*
D329*
X946376Y476067D03*
D94*
X914486Y476067D03*
D172*
X837016Y476067D03*
D327*
X1011146Y476349D03*
D304*
X978824Y476349D03*
D336*
X946236Y476349D03*
D327*
X914626Y476349D03*
D172*
X837016Y476349D03*
D94*
X1011006Y476631D03*
D305*
X978964Y476631D03*
D337*
X946096Y476631D03*
D223*
X914613Y476631D03*
D172*
X837016Y476631D03*
D94*
X1011006Y476913D03*
D305*
X978964Y476913D03*
D337*
X946096Y476913D03*
D223*
X914613Y476913D03*
D172*
X837016Y476913D03*
D94*
X1011006Y477195D03*
D329*
X979116Y477195D03*
D313*
X945956Y477195D03*
D338*
X914765Y477195D03*
D172*
X837016Y477195D03*
D94*
X1011006Y477477D03*
D336*
X978976Y477477D03*
D313*
X945677Y477477D03*
D338*
X914765Y477477D03*
D26*
X836876Y477477D03*
D94*
X1011006Y477759D03*
D337*
X979116Y477759D03*
D314*
X945537Y477759D03*
D84*
X914905Y477759D03*
D26*
X836876Y477759D03*
D330*
X1010866Y478041D03*
D337*
X979116Y478041D03*
D314*
X945537Y478041D03*
D339*
X914765Y478041D03*
D26*
X836876Y478041D03*
D340*
X1010866Y478324D03*
D341*
X979116Y478324D03*
D342*
X945398Y478324D03*
D343*
X914905Y478324D03*
D231*
X836876Y478324D03*
D330*
X1010866Y478607D03*
D344*
X979256Y478607D03*
D345*
X945245Y478607D03*
D346*
X914905Y478607D03*
D26*
X836876Y478607D03*
D330*
X1010866Y478889D03*
D314*
X979116Y478889D03*
D169*
X944953Y478889D03*
D151*
X915045Y478889D03*
D175*
X836736Y478889D03*
D330*
X1010866Y479171D03*
D315*
X979256Y479171D03*
D316*
X944813Y479171D03*
D151*
X915045Y479171D03*
D175*
X836736Y479171D03*
D100*
X1010726Y479453D03*
D315*
X979256Y479453D03*
D316*
X944813Y479453D03*
D347*
X915045Y479453D03*
D175*
X836736Y479453D03*
D100*
X1010726Y479735D03*
D169*
X979396Y479735D03*
D348*
X944674Y479735D03*
D347*
X915045Y479735D03*
D175*
X836736Y479735D03*
D100*
X1010726Y480017D03*
D169*
X979396Y480017D03*
D206*
X944534Y480017D03*
D185*
X915184Y480017D03*
D175*
X836736Y480017D03*
D100*
X1010726Y480299D03*
D316*
X979256Y480299D03*
D206*
X944255Y480299D03*
D185*
X915184Y480299D03*
D30*
X836597Y480299D03*
D100*
X1010726Y480581D03*
D349*
X979396Y480581D03*
D206*
X944255Y480581D03*
D350*
X915324Y480581D03*
D209*
X873986Y480581D03*
D30*
X836597Y480581D03*
D194*
X1010587Y480864D03*
D351*
X979396Y480864D03*
D352*
X944115Y480864D03*
D353*
X915184Y480864D03*
D177*
X873833Y480864D03*
D48*
X836597Y480864D03*
D326*
X1010587Y481147D03*
D206*
X979535Y481147D03*
D354*
X943975Y481147D03*
D355*
X915184Y481147D03*
D302*
X873846Y481147D03*
D30*
X836597Y481147D03*
D326*
X1010587Y481429D03*
D206*
X979535Y481429D03*
D208*
X943836Y481429D03*
D72*
X915324Y481429D03*
D187*
X873846Y481429D03*
D30*
X836597Y481429D03*
D326*
X1010587Y481711D03*
D354*
X979535Y481711D03*
D318*
X943696Y481711D03*
D72*
X915324Y481711D03*
D311*
X874125Y481711D03*
D33*
X836457Y481711D03*
D326*
X1010587Y481993D03*
D354*
X979535Y481993D03*
D323*
X943543Y481993D03*
D72*
X915324Y481993D03*
D234*
X874405Y481993D03*
D33*
X836457Y481993D03*
D104*
X1010447Y482275D03*
D354*
X979535Y482275D03*
D86*
X943404Y482275D03*
D356*
X915324Y482275D03*
D42*
X874684Y482275D03*
D33*
X836457Y482275D03*
D104*
X1010447Y482557D03*
D208*
X979675Y482557D03*
D114*
X943264Y482557D03*
D356*
X915324Y482557D03*
D35*
X874963Y482557D03*
D33*
X836457Y482557D03*
D104*
X1010447Y482839D03*
D208*
X979675Y482839D03*
D110*
X943124Y482839D03*
D356*
X915324Y482839D03*
D28*
X875103Y482839D03*
D33*
X836457Y482839D03*
D104*
X1010447Y483121D03*
D114*
X979688Y483121D03*
D110*
X943124Y483121D03*
D357*
X915476Y483121D03*
D95*
X875256Y483121D03*
D181*
X836317Y483121D03*
D358*
X1010447Y483404D03*
D359*
X979688Y483404D03*
D360*
X942845Y483404D03*
D361*
X915476Y483404D03*
D78*
X875535Y483404D03*
D362*
X836317Y483404D03*
D110*
X1010307Y483687D03*
X979827Y483687D03*
D104*
X942705Y483687D03*
D166*
X915337Y483687D03*
D20*
X875675Y483687D03*
D181*
X836317Y483687D03*
D110*
X1010307Y483969D03*
X979827Y483969D03*
D209*
X942566Y483969D03*
D363*
X915476Y483969D03*
D61*
X875814Y483969D03*
D181*
X836317Y483969D03*
D110*
X1010307Y484251D03*
X979827Y484251D03*
D209*
X942566Y484251D03*
D363*
X915476Y484251D03*
D57*
X875814Y484251D03*
D181*
X836317Y484251D03*
D110*
X1010307Y484533D03*
D213*
X979815Y484533D03*
D100*
X942426Y484533D03*
D363*
X915476Y484533D03*
D364*
X876094Y484533D03*
D183*
X836165Y484533D03*
D110*
X1010307Y484815D03*
D213*
X979815Y484815D03*
D100*
X942146Y484815D03*
D363*
X915476Y484815D03*
D283*
X876233Y484815D03*
D183*
X836165Y484815D03*
D114*
X1010168Y485097D03*
D365*
X979954Y485097D03*
D191*
X941994Y485097D03*
D43*
X876386Y485097D03*
D183*
X836165Y485097D03*
D114*
X1010168Y485379D03*
D365*
X979954Y485379D03*
D191*
X941994Y485379D03*
D43*
X876386Y485379D03*
D183*
X836165Y485379D03*
D114*
X1010168Y485661D03*
D191*
X980094Y485661D03*
D366*
X941854Y485661D03*
D36*
X876386Y485661D03*
D183*
X836165Y485661D03*
D359*
X1010168Y485944D03*
D215*
X979954Y485944D03*
D367*
X941715Y485944D03*
D368*
X876526Y485944D03*
D193*
X836025Y485944D03*
D114*
X1010168Y486227D03*
D366*
X979954Y486227D03*
D369*
X941435Y486227D03*
D113*
X876665Y486227D03*
D187*
X836025Y486227D03*
D210*
X1010015Y486509D03*
D370*
X980094Y486509D03*
D90*
X941296Y486509D03*
D29*
X876805Y486509D03*
D187*
X836025Y486509D03*
D210*
X1010015Y486791D03*
D370*
X980094Y486791D03*
D90*
X941296Y486791D03*
D29*
X876805Y486791D03*
D187*
X836025Y486791D03*
D210*
X1010015Y487073D03*
D90*
X980234Y487073D03*
D223*
X941156Y487073D03*
D103*
X876805Y487073D03*
D187*
X836025Y487073D03*
D210*
X1010015Y487355D03*
D223*
X980094Y487355D03*
D74*
X941016Y487355D03*
D371*
X876945Y487355D03*
D190*
X835886Y487355D03*
D210*
X1010015Y487637D03*
D372*
X980234Y487637D03*
X940737Y487637D03*
D371*
X876945Y487637D03*
D190*
X835886Y487637D03*
D208*
X1009876Y487919D03*
D372*
X980234Y487919D03*
X940737Y487919D03*
D373*
X877084Y487919D03*
D190*
X835886Y487919D03*
D208*
X1009876Y488201D03*
D372*
X980234Y488201D03*
D188*
X940597Y488201D03*
D373*
X877084Y488201D03*
D190*
X835886Y488201D03*
D374*
X1009876Y488484D03*
D307*
X980373Y488484D03*
D375*
X940445Y488484D03*
D376*
X877084Y488484D03*
D192*
X835886Y488484D03*
D208*
X1009876Y488767D03*
D297*
X980234Y488767D03*
D346*
X940305Y488767D03*
D377*
X877084Y488767D03*
D198*
X835746Y488767D03*
D208*
X1009876Y489049D03*
D346*
X980386Y489049D03*
D339*
X940165Y489049D03*
D17*
X877237Y489049D03*
D198*
X835746Y489049D03*
D318*
X1009736Y489331D03*
D346*
X980386Y489331D03*
X940026Y489331D03*
D17*
X877237Y489331D03*
D198*
X835746Y489331D03*
D318*
X1009736Y489613D03*
D151*
X980526Y489613D03*
X939886Y489613D03*
D270*
X877376Y489613D03*
D198*
X835746Y489613D03*
D318*
X1009736Y489895D03*
D151*
X980526Y489895D03*
D219*
X939746Y489895D03*
D378*
X877237Y489895D03*
D198*
X835746Y489895D03*
D318*
X1009736Y490177D03*
D219*
X980386Y490177D03*
D379*
X939606Y490177D03*
D378*
X877237Y490177D03*
D300*
X835606Y490177D03*
D318*
X1009736Y490459D03*
D347*
X980526Y490459D03*
D219*
X939467Y490459D03*
D268*
X877376Y490459D03*
D300*
X835606Y490459D03*
D207*
X1009596Y490741D03*
D347*
X980526Y490741D03*
D379*
X939327Y490741D03*
D268*
X877376Y490741D03*
D300*
X835606Y490741D03*
D352*
X1009596Y491024D03*
D380*
X980666Y491024D03*
X939187Y491024D03*
D381*
X877376Y491024D03*
D382*
X835606Y491024D03*
D207*
X1009596Y491307D03*
D185*
X980666Y491307D03*
D350*
X939048Y491307D03*
D282*
X877237Y491307D03*
D300*
X835606Y491307D03*
D207*
X1009596Y491589D03*
D355*
X980666Y491589D03*
D350*
X939048Y491589D03*
D383*
X877376Y491589D03*
D384*
X835466Y491589D03*
D207*
X1009596Y491871D03*
D355*
X980666Y491871D03*
D385*
X938895Y491871D03*
D383*
X877376Y491871D03*
D384*
X835466Y491871D03*
D206*
X1009456Y492153D03*
D355*
X980666Y492153D03*
X938603Y492153D03*
D383*
X877376Y492153D03*
D384*
X835466Y492153D03*
D206*
X1009456Y492435D03*
D72*
X980805Y492435D03*
X938463Y492435D03*
D383*
X877376Y492435D03*
D384*
X835466Y492435D03*
D206*
X1009456Y492717D03*
D72*
X980805Y492717D03*
X938463Y492717D03*
D386*
X877237Y492717D03*
D384*
X835466Y492717D03*
D206*
X1009456Y492999D03*
D356*
X980805Y492999D03*
D387*
X938324Y492999D03*
D386*
X877237Y492999D03*
D317*
X835327Y492999D03*
D206*
X1009456Y493281D03*
D356*
X980805Y493281D03*
X938184Y493281D03*
D280*
X877376Y493281D03*
D317*
X835327Y493281D03*
D388*
X1009317Y493564D03*
D389*
X980945Y493564D03*
D390*
X937905Y493564D03*
D391*
X877376Y493564D03*
D392*
X835327Y493564D03*
D348*
X1009317Y493847D03*
D393*
X980945Y493847D03*
D356*
X937905Y493847D03*
D280*
X877376Y493847D03*
D317*
X835327Y493847D03*
D348*
X1009317Y494129D03*
D393*
X980945Y494129D03*
X937765Y494129D03*
D394*
X877224Y494129D03*
D317*
X835327Y494129D03*
D348*
X1009317Y494411D03*
D395*
X980945Y494411D03*
D396*
X937625Y494411D03*
D394*
X877224Y494411D03*
D302*
X835187Y494411D03*
D348*
X1009317Y494693D03*
D395*
X980945Y494693D03*
X937486Y494693D03*
D394*
X877224Y494693D03*
D302*
X835187Y494693D03*
D316*
X1009177Y494975D03*
D397*
X981097Y494975D03*
D363*
X937193Y494975D03*
D394*
X877224Y494975D03*
D302*
X835187Y494975D03*
D316*
X1009177Y495257D03*
D397*
X981097Y495257D03*
D363*
X937193Y495257D03*
D394*
X877224Y495257D03*
D302*
X835187Y495257D03*
D316*
X1009177Y495539D03*
D397*
X937054Y495539D03*
D398*
X877084Y495539D03*
D302*
X835187Y495539D03*
D316*
X1009177Y495821D03*
D398*
X877084Y495821D03*
D303*
X835047Y495821D03*
D399*
X1009177Y496104D03*
D400*
X877084Y496104D03*
D401*
X835047Y496104D03*
D169*
X1009037Y496387D03*
D398*
X877084Y496387D03*
D303*
X835047Y496387D03*
D169*
X1009037Y496669D03*
D398*
X877084Y496669D03*
D303*
X835047Y496669D03*
D169*
X1009037Y496951D03*
D111*
X876945Y496951D03*
D303*
X835047Y496951D03*
D169*
X1009037Y497233D03*
D397*
X958796Y497233D03*
D111*
X876945Y497233D03*
D402*
X834895Y497233D03*
D169*
X1009037Y497515D03*
D363*
X958656Y497515D03*
D111*
X876945Y497515D03*
D402*
X834895Y497515D03*
D315*
X1008898Y497797D03*
D357*
X958656Y497797D03*
D111*
X876945Y497797D03*
D402*
X834895Y497797D03*
D315*
X1008898Y498079D03*
D356*
X958504Y498079D03*
D403*
X876805Y498079D03*
D402*
X834895Y498079D03*
D315*
X1008898Y498361D03*
D387*
X958644Y498361D03*
D111*
X876665Y498361D03*
D402*
X834895Y498361D03*
D342*
X1008898Y498644D03*
D404*
X958504Y498644D03*
D405*
X876665Y498644D03*
D406*
X834755Y498644D03*
D315*
X1008898Y498927D03*
D355*
X958364Y498927D03*
D111*
X876665Y498927D03*
D328*
X834755Y498927D03*
D407*
X1008745Y499209D03*
D185*
X958364Y499209D03*
D111*
X876665Y499209D03*
D328*
X834755Y499209D03*
D407*
X1008745Y499491D03*
D347*
X958225Y499491D03*
D111*
X876665Y499491D03*
D328*
X834755Y499491D03*
D407*
X1008745Y499773D03*
D219*
X958364Y499773D03*
D408*
X876526Y499773D03*
D328*
X834755Y499773D03*
D407*
X1008745Y500055D03*
D151*
X958225Y500055D03*
D408*
X876526Y500055D03*
D329*
X834616Y500055D03*
D407*
X1008745Y500337D03*
D346*
X958085Y500337D03*
D111*
X876386Y500337D03*
D329*
X834616Y500337D03*
D409*
X1008606Y500619D03*
D84*
X958085Y500619D03*
D111*
X876386Y500619D03*
D329*
X834616Y500619D03*
D409*
X1008606Y500901D03*
D84*
X958085Y500901D03*
D111*
X876386Y500901D03*
D329*
X834616Y500901D03*
D410*
X1008606Y501184D03*
D319*
X958098Y501184D03*
D411*
X876246Y501184D03*
D333*
X834616Y501184D03*
D409*
X1008606Y501467D03*
D324*
X957945Y501467D03*
D412*
X859457Y501467D03*
D409*
X1008606Y501749D03*
D327*
X957806Y501749D03*
D413*
X859317Y501749D03*
D414*
X1008466Y502031D03*
D330*
X957806Y502031D03*
D413*
X859317Y502031D03*
D414*
X1008466Y502313D03*
D330*
X957806Y502313D03*
D413*
X859317Y502313D03*
D414*
X1008466Y502595D03*
D209*
X957806Y502595D03*
D413*
X859317Y502595D03*
D414*
X1008466Y502877D03*
D104*
X957666Y502877D03*
D415*
X859177Y502877D03*
D414*
X1008466Y503159D03*
D114*
X957666Y503159D03*
D415*
X859177Y503159D03*
D416*
X1008326Y503441D03*
D86*
X957526Y503441D03*
D415*
X859177Y503441D03*
D417*
X1008326Y503724D03*
D418*
X957526Y503724D03*
D419*
X859025Y503724D03*
D416*
X1008326Y504007D03*
D126*
X957526Y504007D03*
D420*
X859025Y504007D03*
D416*
X1008326Y504289D03*
D134*
X957386Y504289D03*
D420*
X859025Y504289D03*
D416*
X1008326Y504571D03*
D348*
X957374Y504571D03*
D421*
X858885Y504571D03*
D306*
X1008186Y504853D03*
D316*
X957234Y504853D03*
D421*
X858885Y504853D03*
D306*
X1008186Y505135D03*
D316*
X957234Y505135D03*
D421*
X858885Y505135D03*
D306*
X1008186Y505417D03*
D315*
X957234Y505417D03*
D422*
X858746Y505417D03*
D306*
X1008186Y505699D03*
D314*
X957094Y505699D03*
D422*
X858746Y505699D03*
D306*
X1008186Y505981D03*
D337*
X957094Y505981D03*
D423*
X858606Y505981D03*
D424*
X1008047Y506264D03*
D341*
X957094Y506264D03*
D425*
X858606Y506264D03*
D305*
X1008047Y506547D03*
D336*
X956955Y506547D03*
D423*
X858606Y506547D03*
D305*
X1008047Y506829D03*
D328*
X956955Y506829D03*
D426*
X858466Y506829D03*
D305*
X1008047Y507111D03*
D402*
X956815Y507111D03*
D426*
X858466Y507111D03*
D305*
X1008047Y507393D03*
D302*
X956828Y507393D03*
D427*
X858326Y507393D03*
D304*
X1007907Y507675D03*
D302*
X956828Y507675D03*
D427*
X858326Y507675D03*
D304*
X1007907Y507957D03*
D428*
X956675Y507957D03*
D429*
X858187Y507957D03*
D304*
X1007907Y508239D03*
D430*
X956675Y508239D03*
D431*
X858047Y508239D03*
D304*
X1007907Y508521D03*
D222*
X956536Y508521D03*
D431*
X858047Y508521D03*
D432*
X1007907Y508804D03*
D433*
X956536Y508804D03*
D434*
X857907Y508804D03*
D303*
X1007767Y509087D03*
D312*
X956536Y509087D03*
D435*
X857907Y509087D03*
D303*
X1007767Y509369D03*
D181*
X956536Y509369D03*
D436*
X857755Y509369D03*
D303*
X1007767Y509651D03*
D33*
X956396Y509651D03*
D437*
X857615Y509651D03*
D303*
X1007767Y509933D03*
D30*
X956256Y509933D03*
D437*
X857615Y509933D03*
D303*
X1007767Y510215D03*
D55*
X956396Y510215D03*
D438*
X868906Y510215D03*
D292*
X839975Y510215D03*
D302*
X1007628Y510497D03*
D26*
X956256Y510497D03*
D439*
X868906Y510497D03*
D279*
X839835Y510497D03*
D302*
X1007628Y510779D03*
D68*
X956256Y510779D03*
D440*
X868906Y510779D03*
D239*
X839696Y510779D03*
D302*
X1007628Y511061D03*
D39*
X956104Y511061D03*
D82*
X869045Y511061D03*
D237*
X839416Y511061D03*
D441*
X1007628Y511344D03*
D155*
X955964Y511344D03*
D442*
X869045Y511344D03*
D443*
X839276Y511344D03*
D302*
X1007628Y511627D03*
D165*
X956104Y511627D03*
D444*
X868906Y511627D03*
D364*
X839137Y511627D03*
D428*
X1007475Y511909D03*
D18*
X955964Y511909D03*
D64*
X868906Y511909D03*
D54*
X838997Y511909D03*
D428*
X1007475Y512191D03*
D298*
X955964Y512191D03*
D227*
X868906Y512191D03*
D136*
X838705Y512191D03*
D428*
X1007475Y512473D03*
D149*
X955824Y512473D03*
D224*
X868893Y512473D03*
D141*
X838565Y512473D03*
D428*
X1007475Y512755D03*
D146*
X955685Y512755D03*
D445*
X868906Y512755D03*
D143*
X838426Y512755D03*
D428*
X1007475Y513037D03*
D143*
X955824Y513037D03*
D271*
X868906Y513037D03*
D149*
X838146Y513037D03*
D446*
X1007336Y513319D03*
D141*
X955685Y513319D03*
D147*
X868906Y513319D03*
D298*
X838006Y513319D03*
D446*
X1007336Y513601D03*
D57*
X955697Y513601D03*
D127*
X869045Y513601D03*
D28*
X837867Y513601D03*
D447*
X1007336Y513884D03*
D448*
X955558Y513884D03*
D449*
X868906Y513884D03*
D310*
X837587Y513884D03*
D446*
X1007336Y514167D03*
D54*
X955558Y514167D03*
D450*
X868906Y514167D03*
D164*
X837435Y514167D03*
D446*
X1007336Y514449D03*
D125*
X955545Y514449D03*
D451*
X868906Y514449D03*
D22*
X837295Y514449D03*
D452*
X1007196Y514731D03*
D453*
X955405Y514731D03*
D454*
X868906Y514731D03*
D68*
X837156Y514731D03*
D452*
X1007196Y515013D03*
D36*
X955405Y515013D03*
D377*
X868906Y515013D03*
D26*
X836876Y515013D03*
D452*
X1007196Y515295D03*
D455*
X955266Y515295D03*
D103*
X868906Y515295D03*
D175*
X836736Y515295D03*
D452*
X1007196Y515577D03*
D455*
X955266Y515577D03*
D113*
X868766Y515577D03*
D30*
X836597Y515577D03*
D452*
X1007196Y515859D03*
D29*
X955266Y515859D03*
D40*
X868906Y515859D03*
D181*
X836317Y515859D03*
D222*
X1007056Y516141D03*
D241*
X955126Y516141D03*
D54*
X868893Y516141D03*
D183*
X836165Y516141D03*
D456*
X1007056Y516424D03*
D457*
X955126Y516424D03*
D458*
X868766Y516424D03*
D193*
X836025Y516424D03*
D222*
X1007056Y516707D03*
D373*
X954986Y516707D03*
D18*
X868766Y516707D03*
D190*
X835886Y516707D03*
D222*
X1007056Y516989D03*
D285*
X955126Y516989D03*
D234*
X868766Y516989D03*
D300*
X835606Y516989D03*
D222*
X1007056Y517271D03*
D377*
X954986Y517271D03*
D187*
X868766Y517271D03*
D384*
X835466Y517271D03*
D199*
X1006916Y517553D03*
D17*
X954834Y517553D03*
D302*
X868766Y517553D03*
D317*
X835327Y517553D03*
D199*
X1006916Y517835D03*
D378*
X954834Y517835D03*
D169*
X868753Y517835D03*
D303*
X835047Y517835D03*
D199*
X1006916Y518117D03*
D378*
X954834Y518117D03*
D100*
X868766Y518117D03*
D402*
X834895Y518117D03*
D199*
X1006916Y518399D03*
D282*
X954834Y518399D03*
D328*
X834755Y518399D03*
D199*
X1006916Y518681D03*
D383*
X954694Y518681D03*
D329*
X834616Y518681D03*
D459*
X1006777Y518964D03*
D460*
X954554Y518964D03*
D341*
X834336Y518964D03*
D205*
X1006777Y519247D03*
D101*
X954554Y519247D03*
D313*
X834196Y519247D03*
D205*
X1006777Y519529D03*
D101*
X954554Y519529D03*
D314*
X834057Y519529D03*
D205*
X1006777Y519811D03*
D111*
X954567Y519811D03*
D397*
X908555Y519811D03*
D169*
X833777Y519811D03*
D205*
X1006777Y520093D03*
D408*
X954427Y520093D03*
D170*
X908415Y520093D03*
D150*
X833625Y520093D03*
D67*
X1006637Y520375D03*
D127*
X954288Y520375D03*
D170*
X908415Y520375D03*
D144*
X833485Y520375D03*
D67*
X1006637Y520657D03*
D461*
X954275Y520657D03*
D166*
X908276Y520657D03*
D137*
X833346Y520657D03*
D67*
X1006637Y520939D03*
D461*
X954275Y520939D03*
D166*
X907996Y520939D03*
D126*
X833066Y520939D03*
D67*
X1006637Y521221D03*
D462*
X954275Y521221D03*
D357*
X907856Y521221D03*
D323*
X832926Y521221D03*
D308*
X1006637Y521504D03*
D463*
X954135Y521504D03*
D361*
X907856Y521504D03*
D418*
X832787Y521504D03*
D181*
X1006497Y521787D03*
D464*
X953996Y521787D03*
D356*
X907704Y521787D03*
D110*
X832507Y521787D03*
D181*
X1006497Y522069D03*
D269*
X953996Y522069D03*
D387*
X907564Y522069D03*
D465*
X832355Y522069D03*
D181*
X1006497Y522351D03*
D269*
X953996Y522351D03*
D221*
X907285Y522351D03*
D213*
X832215Y522351D03*
D181*
X1006497Y522633D03*
D466*
X953996Y522633D03*
D72*
X907145Y522633D03*
D365*
X832076Y522633D03*
D181*
X1006497Y522915D03*
D467*
X953856Y522915D03*
D355*
X907006Y522915D03*
D366*
X831796Y522915D03*
D33*
X1006358Y523197D03*
D468*
X953856Y523197D03*
D355*
X907006Y523197D03*
D370*
X831656Y523197D03*
D33*
X1006358Y523479D03*
D468*
X953856Y523479D03*
D350*
X906866Y523479D03*
D90*
X831517Y523479D03*
D33*
X1006358Y523761D03*
D469*
X953716Y523761D03*
D185*
X906726Y523761D03*
D74*
X831237Y523761D03*
D470*
X1006358Y524044D03*
D442*
X953703Y524044D03*
D380*
X906447Y524044D03*
D216*
X831085Y524044D03*
D33*
X1006358Y524327D03*
D471*
X953564Y524327D03*
D379*
X906307Y524327D03*
D84*
X831085Y524327D03*
D311*
X1006205Y524609D03*
D440*
X953564Y524609D03*
D278*
X906155Y524609D03*
D74*
X831237Y524609D03*
D311*
X1006205Y524891D03*
D440*
X953564Y524891D03*
D286*
X906015Y524891D03*
D223*
X831377Y524891D03*
D311*
X1006205Y525173D03*
D472*
X953424Y525173D03*
D225*
X905875Y525173D03*
D223*
X831377Y525173D03*
D311*
X1006205Y525455D03*
D261*
X953424Y525455D03*
D225*
X905596Y525455D03*
D90*
X831517Y525455D03*
D311*
X1006205Y525737D03*
D438*
X953284Y525737D03*
D297*
X905456Y525737D03*
D370*
X831656Y525737D03*
D53*
X1006066Y526019D03*
D116*
X953297Y526019D03*
D188*
X905316Y526019D03*
D366*
X831796Y526019D03*
D53*
X1006066Y526301D03*
D116*
X953297Y526301D03*
D372*
X905177Y526301D03*
D191*
X831936Y526301D03*
D473*
X1006066Y526584D03*
D118*
X953157Y526584D03*
D319*
X905037Y526584D03*
D474*
X832076Y526584D03*
D53*
X1006066Y526867D03*
D475*
X953157Y526867D03*
D223*
X904758Y526867D03*
D213*
X832215Y526867D03*
D53*
X1006066Y527149D03*
D132*
X953005Y527149D03*
D324*
X904605Y527149D03*
D213*
X832215Y527149D03*
D234*
X1005926Y527431D03*
D135*
X953145Y527431D03*
D94*
X904326Y527431D03*
D465*
X832355Y527431D03*
D234*
X1005926Y527713D03*
D140*
X953005Y527713D03*
D330*
X904186Y527713D03*
D110*
X832507Y527713D03*
D234*
X1005926Y527995D03*
D142*
X952865Y527995D03*
D100*
X904046Y527995D03*
D114*
X832647Y527995D03*
D234*
X1005926Y528277D03*
D476*
X952865Y528277D03*
D365*
X903754Y528277D03*
D86*
X832787Y528277D03*
D234*
X1005926Y528559D03*
D148*
X952726Y528559D03*
D213*
X903615Y528559D03*
D323*
X832926Y528559D03*
D236*
X1005786Y528841D03*
D477*
X952865Y528841D03*
D211*
X903335Y528841D03*
D126*
X833066Y528841D03*
D46*
X1005786Y529124D03*
D478*
X952726Y529124D03*
D359*
X903183Y529124D03*
D479*
X833206Y529124D03*
D236*
X1005786Y529407D03*
D480*
X952586Y529407D03*
D86*
X903043Y529407D03*
D137*
X833346Y529407D03*
D236*
X1005786Y529689D03*
D481*
X952586Y529689D03*
D323*
X902624Y529689D03*
D150*
X833625Y529689D03*
D236*
X1005786Y529971D03*
D482*
X952446Y529971D03*
D126*
X902484Y529971D03*
D169*
X833777Y529971D03*
D42*
X1005646Y530253D03*
D483*
X952586Y530253D03*
D134*
X902345Y530253D03*
D315*
X833917Y530253D03*
D42*
X1005646Y530535D03*
D173*
X952433Y530535D03*
D144*
X902065Y530535D03*
D314*
X834057Y530535D03*
D42*
X1005646Y530817D03*
D484*
X952433Y530817D03*
D150*
X901926Y530817D03*
D313*
X834196Y530817D03*
D42*
X1005646Y531099D03*
D485*
X952294Y531099D03*
D486*
X901494Y531099D03*
D336*
X834476Y531099D03*
D42*
X1005646Y531381D03*
D485*
X952294Y531381D03*
D314*
X901214Y531381D03*
D329*
X834616Y531381D03*
D487*
X1005507Y531664D03*
D488*
X952294Y531664D03*
D489*
X901075Y531664D03*
D490*
X834895Y531664D03*
D39*
X1005507Y531947D03*
D491*
X952154Y531947D03*
D492*
X900795Y531947D03*
D303*
X835047Y531947D03*
D39*
X1005507Y532229D03*
D186*
X952167Y532229D03*
D328*
X900516Y532229D03*
D302*
X835187Y532229D03*
D39*
X1005507Y532511D03*
D189*
X952027Y532511D03*
D305*
X900224Y532511D03*
D384*
X835466Y532511D03*
D39*
X1005507Y532793D03*
D189*
X952027Y532793D03*
D303*
X899944Y532793D03*
D198*
X835746Y532793D03*
D35*
X1005367Y533075D03*
D139*
X952027Y533075D03*
D317*
X899665Y533075D03*
D190*
X835886Y533075D03*
D35*
X1005367Y533357D03*
D128*
X951887Y533357D03*
D300*
X899386Y533357D03*
D183*
X836165Y533357D03*
D35*
X1005367Y533639D03*
D493*
X951875Y533639D03*
D190*
X899106Y533639D03*
D33*
X836457Y533639D03*
D35*
X1005367Y533921D03*
D293*
X951735Y533921D03*
D205*
X898674Y533921D03*
D30*
X836597Y533921D03*
D155*
X1005367Y534204D03*
D295*
X951735Y534204D03*
D362*
X898395Y534204D03*
D231*
X836876Y534204D03*
D130*
X1005227Y534487D03*
D494*
X951735Y534487D03*
D30*
X898116Y534487D03*
D68*
X837156Y534487D03*
D130*
X1005227Y534769D03*
D495*
X951595Y534769D03*
D26*
X897836Y534769D03*
D164*
X837435Y534769D03*
D130*
X1005227Y535051D03*
D63*
X951595Y535051D03*
D39*
X897404Y535051D03*
D28*
X837867Y535051D03*
D130*
X1005227Y535333D03*
D63*
X951595Y535333D03*
D35*
X896985Y535333D03*
D149*
X838146Y535333D03*
D130*
X1005227Y535615D03*
D60*
X951456Y535615D03*
D28*
X896566Y535615D03*
D143*
X838426Y535615D03*
D18*
X1005088Y535897D03*
D56*
X951456Y535897D03*
D73*
X896134Y535897D03*
D57*
X838857Y535897D03*
D18*
X1005088Y536179D03*
D52*
X951316Y536179D03*
D59*
X895715Y536179D03*
D364*
X839137Y536179D03*
D18*
X1005088Y536461D03*
D44*
X951316Y536461D03*
D364*
X895296Y536461D03*
D281*
X839556Y536461D03*
D121*
X1005088Y536744D03*
D496*
X951316Y536744D03*
D119*
X894725Y536744D03*
D497*
X840127Y536744D03*
D18*
X1005088Y537027D03*
D41*
X951303Y537027D03*
D113*
X894166Y537027D03*
D99*
X840546Y537027D03*
D498*
X948077Y537309D03*
D284*
X841105Y537309D03*
D499*
X947366Y537591D03*
D282*
X841677Y537591D03*
D500*
X946807Y537873D03*
D101*
X842236Y537873D03*
D501*
X945956Y538155D03*
D502*
X843086Y538155D03*
D503*
X945106Y538437D03*
D269*
X843937Y538437D03*
D504*
X943696Y538719D03*
D235*
X845207Y538719D03*
D11*
X921407Y539001D03*
D10*
X921407Y539284D03*
D11*
X921407Y539567D03*
D505*
X50800Y50800D03*
X1092200Y711200D03*
X1092200Y50800D03*
X50800Y711200D03*
D506*
X1028700Y368300D03*
X1009650Y381000D03*
X1028700Y393700D03*
D507*
X1104392Y259080D02*
X1115568Y259080D01*
X1115568Y284480D02*
X1104392Y284480D01*
X1104392Y182880D02*
X1115568Y182880D01*
X1115568Y208280D02*
X1104392Y208280D01*
D508*
X1098296Y508000D02*
X1086104Y508000D01*
X1086104Y533400D02*
X1098296Y533400D01*
X1098296Y558800D02*
X1086104Y558800D01*
X1086104Y584200D02*
X1098296Y584200D01*
X1098296Y609600D02*
X1086104Y609600D01*
X1086104Y635000D02*
X1098296Y635000D01*
D509*
X93980Y393700D03*
X93980Y139700D03*
D510*
X190500Y520700D03*
X190500Y368300D03*
D511*
X284880Y491340D03*
X309880Y491340D03*
X334880Y491340D03*
D512*
X354880Y561340D03*
X264880Y561340D03*
D511*
X437280Y491340D03*
X462280Y491340D03*
X487280Y491340D03*
D512*
X507280Y561340D03*
X417280Y561340D03*
D513*
X561100Y711200D03*
X531100Y711200D03*
X408700Y711200D03*
X378700Y711200D03*
X713500Y711200D03*
X683500Y711200D03*
D514*
X207264Y232664D02*
X190500Y232664D01*
X169164Y249428D02*
X152400Y249428D01*
X190500Y266700D02*
X207264Y266700D01*
X169164Y283972D02*
X152400Y283972D01*
X190500Y300736D02*
X207264Y300736D01*
D515*
X190500Y609600D03*
X237500Y609600D03*
X143500Y609600D03*
D516*
X215500Y736600D03*
X165500Y736600D03*
D517*
X990600Y629920D02*
X990600Y614680D01*
X939800Y614680D02*
X939800Y629920D01*
X990600Y716280D02*
X990600Y731520D01*
X939800Y731520D02*
X939800Y716280D01*
D518*
X406400Y101600D03*
D519*
X431800Y101600D03*
X457200Y101600D03*
D518*
X241300Y101600D03*
D519*
X266700Y101600D03*
X292100Y101600D03*
D520*
X800100Y190500D03*
X825500Y190500D03*
X723900Y190500D03*
X749300Y190500D03*
X647700Y190500D03*
X673100Y190500D03*
D521*
X965200Y114300D02*
X965200Y63500D01*
X889000Y63500D02*
X889000Y114300D01*
X812800Y114300D02*
X812800Y63500D01*
X736600Y63500D02*
X736600Y114300D01*
X660400Y114300D02*
X660400Y63500D01*
X584200Y63500D02*
X584200Y114300D01*
D522*
X448310Y52070D02*
X415290Y52070D01*
X283210Y52070D02*
X250190Y52070D01*
D520*
X520700Y406400D03*
X495300Y406400D03*
X520700Y431800D03*
X495300Y431800D03*
X520700Y457200D03*
X495300Y457200D03*
D505*
X1092200Y457200D03*
X838200Y609600D03*
D523*
X87122Y510800D02*
X65278Y510800D01*
X46200Y547878D02*
X46200Y569722D01*
X106200Y569722D02*
X106200Y547878D01*
D524*
X762000Y477520D03*
X756920Y347980D03*
X254000Y312420D03*
X299720Y360680D03*
X482600Y345440D03*
X525780Y238760D03*
X965200Y558800D03*
X457200Y444500D03*
X584200Y368300D03*
X583818Y521334D03*
X609600Y469900D03*
X751840Y622300D03*
X317500Y734060D03*
X332740Y292100D03*
X579120Y419100D03*
X863600Y200660D03*
X670560Y251460D03*
X726440Y304800D03*
X751840Y269240D03*
X792480Y266700D03*
X1069340Y342900D03*
X1079500Y403860D03*
X810260Y401320D03*
X833120Y353060D03*
X347980Y375920D03*
X586740Y396622D03*
X556260Y396240D03*
X607060Y485140D03*
X619760Y454660D03*
X326926Y420620D03*
D525*
X952500Y165100D03*
X287020Y215900D03*
D524*
X1016000Y558800D03*
X558800Y739140D03*
X452120Y289560D03*
X408940Y381000D03*
X408940Y416560D03*
X652780Y739140D03*
X685800Y739140D03*
X497840Y698500D03*
X497840Y665480D03*
X330675Y703105D03*
X406400Y487680D03*
X209550Y374650D03*
X273050Y393700D03*
X751840Y683260D03*
X591820Y693420D03*
X538480Y640080D03*
X389354Y462280D03*
X332740Y452120D03*
X457200Y457200D03*
X584200Y670560D03*
X660400Y670560D03*
X419100Y393700D03*
X337820Y695960D03*
X706120Y563880D03*
X782320Y566420D03*
X406400Y739140D03*
X515620Y665480D03*
X750425Y433606D03*
X749300Y474980D03*
X743712Y344932D03*
X762000Y528320D03*
X436880Y650240D03*
X490220Y650240D03*
X617220Y609600D03*
X711200Y581660D03*
X386080Y431800D03*
X406400Y350520D03*
X266700Y256540D03*
X231140Y248920D03*
X533400Y739140D03*
X508000Y739140D03*
X584687Y586254D03*
X646917Y648484D03*
X736600Y739140D03*
X655320Y706120D03*
X353060Y528320D03*
X426720Y528320D03*
X574483Y596457D03*
X636713Y658687D03*
X845820Y167640D03*
M02*
