G04 EAGLE Gerber X2 export*
%TF.Part,Single*%
%TF.FileFunction,Paste,Top*%
%TF.FilePolarity,Positive*%
%TF.GenerationSoftware,Autodesk,EAGLE,9.1.2*%
%TF.CreationDate,2019-11-04T22:46:01Z*%
G75*
%MOMM*%
%FSLAX34Y34*%
%LPD*%
%AMOC8*
5,1,8,0,0,1.08239X$1,22.5*%
G01*
%ADD10R,2.200000X1.400000*%
%ADD11R,1.400000X2.200000*%
%ADD12R,1.800000X1.600000*%
%ADD13R,2.200000X0.600000*%
%ADD14R,0.600000X2.200000*%
%ADD15R,1.500000X1.500000*%
%ADD16R,0.900000X0.800000*%
%ADD17R,1.803000X1.600000*%
%ADD18R,1.600000X1.803000*%
%ADD19R,1.000000X1.150000*%
%ADD20R,0.965200X0.508000*%
%ADD21R,1.473200X0.558800*%
%ADD22R,2.235000X1.219000*%
%ADD23R,2.200000X3.600000*%
%ADD24R,3.150000X1.680000*%
%ADD25R,1.500000X1.300000*%
%ADD26R,1.300000X1.500000*%


D10*
X729740Y622300D03*
X697740Y622300D03*
X435100Y444500D03*
X403100Y444500D03*
D11*
X1104900Y397000D03*
X1104900Y365000D03*
D12*
X596900Y534700D03*
X596900Y506700D03*
X571500Y506700D03*
X571500Y534700D03*
X596900Y354300D03*
X596900Y382300D03*
X571500Y382300D03*
X571500Y354300D03*
D13*
X368900Y342900D03*
X316900Y342900D03*
X368900Y330200D03*
X368900Y355600D03*
X368900Y368300D03*
X316900Y330200D03*
X316900Y355600D03*
X316900Y368300D03*
X368900Y393700D03*
X316900Y393700D03*
X368900Y381000D03*
X368900Y406400D03*
X316900Y381000D03*
X316900Y406400D03*
D14*
X787400Y546700D03*
X787400Y494700D03*
X800100Y546700D03*
X774700Y546700D03*
X762000Y546700D03*
X800100Y494700D03*
X774700Y494700D03*
X762000Y494700D03*
X736600Y546700D03*
X736600Y494700D03*
X749300Y546700D03*
X723900Y546700D03*
X749300Y494700D03*
X723900Y494700D03*
X782320Y417160D03*
X782320Y365160D03*
X795020Y417160D03*
X769620Y417160D03*
X756920Y417160D03*
X795020Y365160D03*
X769620Y365160D03*
X756920Y365160D03*
X731520Y417160D03*
X731520Y365160D03*
X744220Y417160D03*
X718820Y417160D03*
X744220Y365160D03*
X718820Y365160D03*
D15*
X304800Y716000D03*
X304800Y681000D03*
X906500Y533400D03*
X871500Y533400D03*
X906500Y495300D03*
X871500Y495300D03*
X906500Y457200D03*
X871500Y457200D03*
X906500Y419100D03*
X871500Y419100D03*
X906500Y381000D03*
X871500Y381000D03*
X906500Y342900D03*
X871500Y342900D03*
X906500Y304800D03*
X871500Y304800D03*
X906500Y266700D03*
X871500Y266700D03*
D16*
X472280Y325780D03*
X472280Y344780D03*
X451280Y335280D03*
D17*
X304800Y633480D03*
X304800Y661920D03*
D18*
X661920Y431800D03*
X633480Y431800D03*
X633480Y393700D03*
X661920Y393700D03*
X661920Y355600D03*
X633480Y355600D03*
X633480Y317500D03*
X661920Y317500D03*
X661920Y279400D03*
X633480Y279400D03*
X684280Y304800D03*
X712720Y304800D03*
X484120Y370840D03*
X455680Y370840D03*
D17*
X228600Y328680D03*
X228600Y357120D03*
X228600Y420620D03*
X228600Y392180D03*
X254000Y420620D03*
X254000Y392180D03*
X254000Y328680D03*
X254000Y357120D03*
D18*
X966720Y533400D03*
X938280Y533400D03*
X966720Y495300D03*
X938280Y495300D03*
X966720Y457200D03*
X938280Y457200D03*
X966720Y419100D03*
X938280Y419100D03*
X966720Y381000D03*
X938280Y381000D03*
X966720Y342900D03*
X938280Y342900D03*
X966720Y304800D03*
X938280Y304800D03*
X1027180Y342900D03*
X1055620Y342900D03*
X966720Y266700D03*
X938280Y266700D03*
D17*
X421640Y364740D03*
X421640Y336300D03*
X421640Y313940D03*
X421640Y285500D03*
D18*
X661920Y584200D03*
X633480Y584200D03*
X633480Y546100D03*
X661920Y546100D03*
X661920Y508000D03*
X633480Y508000D03*
X633480Y469900D03*
X661920Y469900D03*
D19*
X571100Y739450D03*
X546100Y739450D03*
X521100Y739450D03*
X571100Y682950D03*
X546100Y682950D03*
X521100Y682950D03*
X418700Y739450D03*
X393700Y739450D03*
X368700Y739450D03*
X418700Y682950D03*
X393700Y682950D03*
X368700Y682950D03*
X723500Y739450D03*
X698500Y739450D03*
X673500Y739450D03*
X723500Y682950D03*
X698500Y682950D03*
X673500Y682950D03*
D20*
X595884Y460375D03*
X595884Y469900D03*
X595884Y479425D03*
X572516Y479425D03*
X572516Y460375D03*
D21*
X595376Y409600D03*
X595376Y419100D03*
X595376Y428600D03*
X573024Y428600D03*
X573024Y409600D03*
D22*
X553210Y239010D03*
X553210Y215900D03*
X553210Y192790D03*
D23*
X615190Y215900D03*
D17*
X812800Y239780D03*
X812800Y268220D03*
X774700Y239780D03*
X774700Y268220D03*
X736600Y239780D03*
X736600Y268220D03*
D24*
X317500Y239800D03*
X317500Y192000D03*
X381000Y192000D03*
X381000Y239800D03*
X101600Y631420D03*
X101600Y679220D03*
D25*
X863600Y168300D03*
X863600Y187300D03*
X889000Y168300D03*
X889000Y187300D03*
X711200Y231800D03*
X711200Y250800D03*
X685800Y231800D03*
X685800Y250800D03*
X500380Y216560D03*
X500380Y235560D03*
D26*
X365100Y292100D03*
X346100Y292100D03*
D25*
X1066800Y371500D03*
X1066800Y390500D03*
M02*
