<svg version="1.1" viewBox="0.0 0.0 738.0 507.12598425196853" fill="none" stroke="none" stroke-linecap="square" stroke-miterlimit="10" xmlns:xlink="http://www.w3.org/1999/xlink" xmlns="http://www.w3.org/2000/svg"><clipPath id="p.0"><path d="m0 0l738.0 0l0 507.12598l-738.0 0l0 -507.12598z" clip-rule="nonzero"/></clipPath><g clip-path="url(#p.0)"><path fill="#000000" fill-opacity="0.0" d="m0 0l738.0 0l0 507.12598l-738.0 0z" fill-rule="evenodd"/><path fill="#000000" fill-opacity="0.0" d="m0 0l454.77167 0l0 388.59842l-454.77167 0z" fill-rule="evenodd"/><path fill="#000000" d="m420.5303 63.642334l-52.984375 268.79688l-82.5625 0l23.8125 -122.5l-75.65625 98.3125l-39.9375 0l-41.46875 -96.765625l-24.1875 120.953125l-82.5625 0l53.765625 -268.79688l73.71875 0l58.375 142.84375l112.515625 -142.84375l77.171875 0z" fill-rule="nonzero"/><path fill="#000000" fill-opacity="0.0" d="m288.7034 0l449.29135 0l0 388.59842l-449.29135 0z" fill-rule="evenodd"/><path fill="#000000" d="m572.6698 190.73608l78.734375 0l-23.046875 115.96875q-21.5 15.359375 -49.34375 23.625q-27.84375 8.25 -59.71875 8.25q-41.078125 0 -72.375 -15.15625q-31.296875 -15.171875 -48.390625 -42.4375q-17.078125 -27.265625 -17.078125 -62.59375q0 -46.84375 21.875 -83.328125q21.890625 -36.484375 61.0625 -57.015625q39.171875 -20.546875 89.859375 -20.546875q83.703125 0 122.109375 52.59375l-64.890625 50.3125q-12.671875 -16.125 -27.265625 -22.84375q-14.59375 -6.71875 -34.1875 -6.71875q-23.421875 0 -40.890625 10.375q-17.46875 10.359375 -26.875 28.984375q-9.40625 18.625 -9.40625 42.421875q0 23.8125 15.734375 38.21875q15.75 14.390625 43.390625 14.390625q13.828125 0 26.5 -3.84375l14.203125 -70.65625z" fill-rule="nonzero"/><path fill="#000000" fill-opacity="0.0" d="m45.593174 339.27298l596.5669 0l0 115.49606l-596.5669 0z" fill-rule="evenodd"/><path fill="#000000" d="m214.40613 426.01038l0 16.890625l-67.71875 0l0 -13.4375l34.5625 -32.640625q5.5 -5.25 7.421875 -9.015625q1.921875 -3.78125 1.921875 -7.5q0 -5.375 -3.65625 -8.25q-3.640625 -2.890625 -10.671875 -2.890625q-5.890625 0 -10.625 2.25q-4.734375 2.234375 -7.9375 6.71875l-15.109375 -9.734375q5.25 -7.796875 14.46875 -12.21875q9.21875 -4.421875 21.125 -4.421875q9.984375 0 17.46875 3.265625q7.484375 3.265625 11.640625 9.21875q4.15625 5.953125 4.15625 14.015625q0 7.296875 -3.078125 13.703125q-3.0625 6.390625 -11.890625 14.578125l-20.609375 19.46875l38.53125 0zm83.19714 18.421875q-11.140625 0 -19.84375 -5.5q-8.703125 -5.5 -13.640625 -15.9375q-4.921875 -10.4375 -4.921875 -24.890625q0 -14.46875 4.921875 -24.890625q4.9375 -10.4375 13.640625 -15.9375q8.703125 -5.515625 19.84375 -5.515625q11.140625 0 19.84375 5.515625q8.703125 5.5 13.625 15.9375q4.9375 10.421875 4.9375 24.890625q0 14.453125 -4.9375 24.890625q-4.921875 10.4375 -13.625 15.9375q-8.703125 5.5 -19.84375 5.5zm0 -17.53125q8.1875 0 12.859375 -7.03125q4.671875 -7.046875 4.671875 -21.765625q0 -14.71875 -4.671875 -21.75q-4.671875 -7.046875 -12.859375 -7.046875q-8.0625 0 -12.734375 7.046875q-4.671875 7.03125 -4.671875 21.75q0 14.71875 4.671875 21.765625q4.671875 7.03125 12.734375 7.03125zm119.29227 -73.59375l0 89.59375l-20.734375 0l0 -72.953125l-17.921875 0l0 -16.640625l38.65625 0zm83.337494 -1.546875q18.8125 0 29.4375 11.46875q10.625 11.453125 10.625 32.953125q0 15.234375 -5.703125 26.109375q-5.6875 10.875 -16.0625 16.515625q-10.359375 5.625 -23.9375 5.625q-7.15625 0 -13.6875 -1.59375q-6.53125 -1.59375 -11.140625 -4.546875l7.6875 -15.234375q6.515625 4.484375 16.765625 4.484375q11.390625 0 18.046875 -6.71875q6.65625 -6.71875 7.171875 -19.390625q-8.078125 8.0625 -22.28125 8.0625q-8.578125 0 -15.625 -3.453125q-7.03125 -3.453125 -11.125 -9.78125q-4.09375 -6.34375 -4.09375 -14.671875q0 -8.953125 4.46875 -15.734375q4.484375 -6.796875 12.234375 -10.4375q7.75 -3.65625 17.21875 -3.65625zm1.53125 42.25q6.78125 0 11.0625 -3.78125q4.296875 -3.78125 4.296875 -9.671875q0 -5.875 -4.15625 -9.578125q-4.15625 -3.71875 -11.453125 -3.71875q-6.65625 0 -10.828125 3.578125q-4.15625 3.578125 -4.15625 9.71875q0 6.15625 4.15625 9.8125q4.171875 3.640625 11.078125 3.640625z" fill-rule="nonzero"/></g></svg>