G04 EAGLE Gerber RS-274X export*
G75*
%MOMM*%
%FSLAX34Y34*%
%LPD*%
%AMOC8*
5,1,8,0,0,1.08239X$1,22.5*%
G01*
%ADD10C,0.000000*%
%ADD11C,0.254000*%


D10*
X0Y0D02*
X1139700Y0D01*
X1139700Y761900D01*
X0Y761900D01*
X0Y0D01*
X36800Y50800D02*
X36804Y51144D01*
X36817Y51487D01*
X36838Y51830D01*
X36867Y52172D01*
X36905Y52514D01*
X36952Y52854D01*
X37006Y53193D01*
X37069Y53531D01*
X37140Y53867D01*
X37220Y54202D01*
X37307Y54534D01*
X37403Y54864D01*
X37507Y55192D01*
X37618Y55516D01*
X37738Y55839D01*
X37866Y56158D01*
X38001Y56473D01*
X38144Y56786D01*
X38295Y57095D01*
X38453Y57400D01*
X38619Y57701D01*
X38792Y57997D01*
X38972Y58290D01*
X39159Y58578D01*
X39354Y58861D01*
X39555Y59140D01*
X39763Y59413D01*
X39978Y59682D01*
X40199Y59944D01*
X40427Y60202D01*
X40661Y60454D01*
X40901Y60699D01*
X41146Y60939D01*
X41398Y61173D01*
X41656Y61401D01*
X41918Y61622D01*
X42187Y61837D01*
X42460Y62045D01*
X42739Y62246D01*
X43022Y62441D01*
X43310Y62628D01*
X43603Y62808D01*
X43899Y62981D01*
X44200Y63147D01*
X44505Y63305D01*
X44814Y63456D01*
X45127Y63599D01*
X45442Y63734D01*
X45761Y63862D01*
X46084Y63982D01*
X46408Y64093D01*
X46736Y64197D01*
X47066Y64293D01*
X47398Y64380D01*
X47733Y64460D01*
X48069Y64531D01*
X48407Y64594D01*
X48746Y64648D01*
X49086Y64695D01*
X49428Y64733D01*
X49770Y64762D01*
X50113Y64783D01*
X50456Y64796D01*
X50800Y64800D01*
X51144Y64796D01*
X51487Y64783D01*
X51830Y64762D01*
X52172Y64733D01*
X52514Y64695D01*
X52854Y64648D01*
X53193Y64594D01*
X53531Y64531D01*
X53867Y64460D01*
X54202Y64380D01*
X54534Y64293D01*
X54864Y64197D01*
X55192Y64093D01*
X55516Y63982D01*
X55839Y63862D01*
X56158Y63734D01*
X56473Y63599D01*
X56786Y63456D01*
X57095Y63305D01*
X57400Y63147D01*
X57701Y62981D01*
X57997Y62808D01*
X58290Y62628D01*
X58578Y62441D01*
X58861Y62246D01*
X59140Y62045D01*
X59413Y61837D01*
X59682Y61622D01*
X59944Y61401D01*
X60202Y61173D01*
X60454Y60939D01*
X60699Y60699D01*
X60939Y60454D01*
X61173Y60202D01*
X61401Y59944D01*
X61622Y59682D01*
X61837Y59413D01*
X62045Y59140D01*
X62246Y58861D01*
X62441Y58578D01*
X62628Y58290D01*
X62808Y57997D01*
X62981Y57701D01*
X63147Y57400D01*
X63305Y57095D01*
X63456Y56786D01*
X63599Y56473D01*
X63734Y56158D01*
X63862Y55839D01*
X63982Y55516D01*
X64093Y55192D01*
X64197Y54864D01*
X64293Y54534D01*
X64380Y54202D01*
X64460Y53867D01*
X64531Y53531D01*
X64594Y53193D01*
X64648Y52854D01*
X64695Y52514D01*
X64733Y52172D01*
X64762Y51830D01*
X64783Y51487D01*
X64796Y51144D01*
X64800Y50800D01*
X64796Y50456D01*
X64783Y50113D01*
X64762Y49770D01*
X64733Y49428D01*
X64695Y49086D01*
X64648Y48746D01*
X64594Y48407D01*
X64531Y48069D01*
X64460Y47733D01*
X64380Y47398D01*
X64293Y47066D01*
X64197Y46736D01*
X64093Y46408D01*
X63982Y46084D01*
X63862Y45761D01*
X63734Y45442D01*
X63599Y45127D01*
X63456Y44814D01*
X63305Y44505D01*
X63147Y44200D01*
X62981Y43899D01*
X62808Y43603D01*
X62628Y43310D01*
X62441Y43022D01*
X62246Y42739D01*
X62045Y42460D01*
X61837Y42187D01*
X61622Y41918D01*
X61401Y41656D01*
X61173Y41398D01*
X60939Y41146D01*
X60699Y40901D01*
X60454Y40661D01*
X60202Y40427D01*
X59944Y40199D01*
X59682Y39978D01*
X59413Y39763D01*
X59140Y39555D01*
X58861Y39354D01*
X58578Y39159D01*
X58290Y38972D01*
X57997Y38792D01*
X57701Y38619D01*
X57400Y38453D01*
X57095Y38295D01*
X56786Y38144D01*
X56473Y38001D01*
X56158Y37866D01*
X55839Y37738D01*
X55516Y37618D01*
X55192Y37507D01*
X54864Y37403D01*
X54534Y37307D01*
X54202Y37220D01*
X53867Y37140D01*
X53531Y37069D01*
X53193Y37006D01*
X52854Y36952D01*
X52514Y36905D01*
X52172Y36867D01*
X51830Y36838D01*
X51487Y36817D01*
X51144Y36804D01*
X50800Y36800D01*
X50456Y36804D01*
X50113Y36817D01*
X49770Y36838D01*
X49428Y36867D01*
X49086Y36905D01*
X48746Y36952D01*
X48407Y37006D01*
X48069Y37069D01*
X47733Y37140D01*
X47398Y37220D01*
X47066Y37307D01*
X46736Y37403D01*
X46408Y37507D01*
X46084Y37618D01*
X45761Y37738D01*
X45442Y37866D01*
X45127Y38001D01*
X44814Y38144D01*
X44505Y38295D01*
X44200Y38453D01*
X43899Y38619D01*
X43603Y38792D01*
X43310Y38972D01*
X43022Y39159D01*
X42739Y39354D01*
X42460Y39555D01*
X42187Y39763D01*
X41918Y39978D01*
X41656Y40199D01*
X41398Y40427D01*
X41146Y40661D01*
X40901Y40901D01*
X40661Y41146D01*
X40427Y41398D01*
X40199Y41656D01*
X39978Y41918D01*
X39763Y42187D01*
X39555Y42460D01*
X39354Y42739D01*
X39159Y43022D01*
X38972Y43310D01*
X38792Y43603D01*
X38619Y43899D01*
X38453Y44200D01*
X38295Y44505D01*
X38144Y44814D01*
X38001Y45127D01*
X37866Y45442D01*
X37738Y45761D01*
X37618Y46084D01*
X37507Y46408D01*
X37403Y46736D01*
X37307Y47066D01*
X37220Y47398D01*
X37140Y47733D01*
X37069Y48069D01*
X37006Y48407D01*
X36952Y48746D01*
X36905Y49086D01*
X36867Y49428D01*
X36838Y49770D01*
X36817Y50113D01*
X36804Y50456D01*
X36800Y50800D01*
X1078200Y711200D02*
X1078204Y711544D01*
X1078217Y711887D01*
X1078238Y712230D01*
X1078267Y712572D01*
X1078305Y712914D01*
X1078352Y713254D01*
X1078406Y713593D01*
X1078469Y713931D01*
X1078540Y714267D01*
X1078620Y714602D01*
X1078707Y714934D01*
X1078803Y715264D01*
X1078907Y715592D01*
X1079018Y715916D01*
X1079138Y716239D01*
X1079266Y716558D01*
X1079401Y716873D01*
X1079544Y717186D01*
X1079695Y717495D01*
X1079853Y717800D01*
X1080019Y718101D01*
X1080192Y718397D01*
X1080372Y718690D01*
X1080559Y718978D01*
X1080754Y719261D01*
X1080955Y719540D01*
X1081163Y719813D01*
X1081378Y720082D01*
X1081599Y720344D01*
X1081827Y720602D01*
X1082061Y720854D01*
X1082301Y721099D01*
X1082546Y721339D01*
X1082798Y721573D01*
X1083056Y721801D01*
X1083318Y722022D01*
X1083587Y722237D01*
X1083860Y722445D01*
X1084139Y722646D01*
X1084422Y722841D01*
X1084710Y723028D01*
X1085003Y723208D01*
X1085299Y723381D01*
X1085600Y723547D01*
X1085905Y723705D01*
X1086214Y723856D01*
X1086527Y723999D01*
X1086842Y724134D01*
X1087161Y724262D01*
X1087484Y724382D01*
X1087808Y724493D01*
X1088136Y724597D01*
X1088466Y724693D01*
X1088798Y724780D01*
X1089133Y724860D01*
X1089469Y724931D01*
X1089807Y724994D01*
X1090146Y725048D01*
X1090486Y725095D01*
X1090828Y725133D01*
X1091170Y725162D01*
X1091513Y725183D01*
X1091856Y725196D01*
X1092200Y725200D01*
X1092544Y725196D01*
X1092887Y725183D01*
X1093230Y725162D01*
X1093572Y725133D01*
X1093914Y725095D01*
X1094254Y725048D01*
X1094593Y724994D01*
X1094931Y724931D01*
X1095267Y724860D01*
X1095602Y724780D01*
X1095934Y724693D01*
X1096264Y724597D01*
X1096592Y724493D01*
X1096916Y724382D01*
X1097239Y724262D01*
X1097558Y724134D01*
X1097873Y723999D01*
X1098186Y723856D01*
X1098495Y723705D01*
X1098800Y723547D01*
X1099101Y723381D01*
X1099397Y723208D01*
X1099690Y723028D01*
X1099978Y722841D01*
X1100261Y722646D01*
X1100540Y722445D01*
X1100813Y722237D01*
X1101082Y722022D01*
X1101344Y721801D01*
X1101602Y721573D01*
X1101854Y721339D01*
X1102099Y721099D01*
X1102339Y720854D01*
X1102573Y720602D01*
X1102801Y720344D01*
X1103022Y720082D01*
X1103237Y719813D01*
X1103445Y719540D01*
X1103646Y719261D01*
X1103841Y718978D01*
X1104028Y718690D01*
X1104208Y718397D01*
X1104381Y718101D01*
X1104547Y717800D01*
X1104705Y717495D01*
X1104856Y717186D01*
X1104999Y716873D01*
X1105134Y716558D01*
X1105262Y716239D01*
X1105382Y715916D01*
X1105493Y715592D01*
X1105597Y715264D01*
X1105693Y714934D01*
X1105780Y714602D01*
X1105860Y714267D01*
X1105931Y713931D01*
X1105994Y713593D01*
X1106048Y713254D01*
X1106095Y712914D01*
X1106133Y712572D01*
X1106162Y712230D01*
X1106183Y711887D01*
X1106196Y711544D01*
X1106200Y711200D01*
X1106196Y710856D01*
X1106183Y710513D01*
X1106162Y710170D01*
X1106133Y709828D01*
X1106095Y709486D01*
X1106048Y709146D01*
X1105994Y708807D01*
X1105931Y708469D01*
X1105860Y708133D01*
X1105780Y707798D01*
X1105693Y707466D01*
X1105597Y707136D01*
X1105493Y706808D01*
X1105382Y706484D01*
X1105262Y706161D01*
X1105134Y705842D01*
X1104999Y705527D01*
X1104856Y705214D01*
X1104705Y704905D01*
X1104547Y704600D01*
X1104381Y704299D01*
X1104208Y704003D01*
X1104028Y703710D01*
X1103841Y703422D01*
X1103646Y703139D01*
X1103445Y702860D01*
X1103237Y702587D01*
X1103022Y702318D01*
X1102801Y702056D01*
X1102573Y701798D01*
X1102339Y701546D01*
X1102099Y701301D01*
X1101854Y701061D01*
X1101602Y700827D01*
X1101344Y700599D01*
X1101082Y700378D01*
X1100813Y700163D01*
X1100540Y699955D01*
X1100261Y699754D01*
X1099978Y699559D01*
X1099690Y699372D01*
X1099397Y699192D01*
X1099101Y699019D01*
X1098800Y698853D01*
X1098495Y698695D01*
X1098186Y698544D01*
X1097873Y698401D01*
X1097558Y698266D01*
X1097239Y698138D01*
X1096916Y698018D01*
X1096592Y697907D01*
X1096264Y697803D01*
X1095934Y697707D01*
X1095602Y697620D01*
X1095267Y697540D01*
X1094931Y697469D01*
X1094593Y697406D01*
X1094254Y697352D01*
X1093914Y697305D01*
X1093572Y697267D01*
X1093230Y697238D01*
X1092887Y697217D01*
X1092544Y697204D01*
X1092200Y697200D01*
X1091856Y697204D01*
X1091513Y697217D01*
X1091170Y697238D01*
X1090828Y697267D01*
X1090486Y697305D01*
X1090146Y697352D01*
X1089807Y697406D01*
X1089469Y697469D01*
X1089133Y697540D01*
X1088798Y697620D01*
X1088466Y697707D01*
X1088136Y697803D01*
X1087808Y697907D01*
X1087484Y698018D01*
X1087161Y698138D01*
X1086842Y698266D01*
X1086527Y698401D01*
X1086214Y698544D01*
X1085905Y698695D01*
X1085600Y698853D01*
X1085299Y699019D01*
X1085003Y699192D01*
X1084710Y699372D01*
X1084422Y699559D01*
X1084139Y699754D01*
X1083860Y699955D01*
X1083587Y700163D01*
X1083318Y700378D01*
X1083056Y700599D01*
X1082798Y700827D01*
X1082546Y701061D01*
X1082301Y701301D01*
X1082061Y701546D01*
X1081827Y701798D01*
X1081599Y702056D01*
X1081378Y702318D01*
X1081163Y702587D01*
X1080955Y702860D01*
X1080754Y703139D01*
X1080559Y703422D01*
X1080372Y703710D01*
X1080192Y704003D01*
X1080019Y704299D01*
X1079853Y704600D01*
X1079695Y704905D01*
X1079544Y705214D01*
X1079401Y705527D01*
X1079266Y705842D01*
X1079138Y706161D01*
X1079018Y706484D01*
X1078907Y706808D01*
X1078803Y707136D01*
X1078707Y707466D01*
X1078620Y707798D01*
X1078540Y708133D01*
X1078469Y708469D01*
X1078406Y708807D01*
X1078352Y709146D01*
X1078305Y709486D01*
X1078267Y709828D01*
X1078238Y710170D01*
X1078217Y710513D01*
X1078204Y710856D01*
X1078200Y711200D01*
X1078200Y50800D02*
X1078204Y51144D01*
X1078217Y51487D01*
X1078238Y51830D01*
X1078267Y52172D01*
X1078305Y52514D01*
X1078352Y52854D01*
X1078406Y53193D01*
X1078469Y53531D01*
X1078540Y53867D01*
X1078620Y54202D01*
X1078707Y54534D01*
X1078803Y54864D01*
X1078907Y55192D01*
X1079018Y55516D01*
X1079138Y55839D01*
X1079266Y56158D01*
X1079401Y56473D01*
X1079544Y56786D01*
X1079695Y57095D01*
X1079853Y57400D01*
X1080019Y57701D01*
X1080192Y57997D01*
X1080372Y58290D01*
X1080559Y58578D01*
X1080754Y58861D01*
X1080955Y59140D01*
X1081163Y59413D01*
X1081378Y59682D01*
X1081599Y59944D01*
X1081827Y60202D01*
X1082061Y60454D01*
X1082301Y60699D01*
X1082546Y60939D01*
X1082798Y61173D01*
X1083056Y61401D01*
X1083318Y61622D01*
X1083587Y61837D01*
X1083860Y62045D01*
X1084139Y62246D01*
X1084422Y62441D01*
X1084710Y62628D01*
X1085003Y62808D01*
X1085299Y62981D01*
X1085600Y63147D01*
X1085905Y63305D01*
X1086214Y63456D01*
X1086527Y63599D01*
X1086842Y63734D01*
X1087161Y63862D01*
X1087484Y63982D01*
X1087808Y64093D01*
X1088136Y64197D01*
X1088466Y64293D01*
X1088798Y64380D01*
X1089133Y64460D01*
X1089469Y64531D01*
X1089807Y64594D01*
X1090146Y64648D01*
X1090486Y64695D01*
X1090828Y64733D01*
X1091170Y64762D01*
X1091513Y64783D01*
X1091856Y64796D01*
X1092200Y64800D01*
X1092544Y64796D01*
X1092887Y64783D01*
X1093230Y64762D01*
X1093572Y64733D01*
X1093914Y64695D01*
X1094254Y64648D01*
X1094593Y64594D01*
X1094931Y64531D01*
X1095267Y64460D01*
X1095602Y64380D01*
X1095934Y64293D01*
X1096264Y64197D01*
X1096592Y64093D01*
X1096916Y63982D01*
X1097239Y63862D01*
X1097558Y63734D01*
X1097873Y63599D01*
X1098186Y63456D01*
X1098495Y63305D01*
X1098800Y63147D01*
X1099101Y62981D01*
X1099397Y62808D01*
X1099690Y62628D01*
X1099978Y62441D01*
X1100261Y62246D01*
X1100540Y62045D01*
X1100813Y61837D01*
X1101082Y61622D01*
X1101344Y61401D01*
X1101602Y61173D01*
X1101854Y60939D01*
X1102099Y60699D01*
X1102339Y60454D01*
X1102573Y60202D01*
X1102801Y59944D01*
X1103022Y59682D01*
X1103237Y59413D01*
X1103445Y59140D01*
X1103646Y58861D01*
X1103841Y58578D01*
X1104028Y58290D01*
X1104208Y57997D01*
X1104381Y57701D01*
X1104547Y57400D01*
X1104705Y57095D01*
X1104856Y56786D01*
X1104999Y56473D01*
X1105134Y56158D01*
X1105262Y55839D01*
X1105382Y55516D01*
X1105493Y55192D01*
X1105597Y54864D01*
X1105693Y54534D01*
X1105780Y54202D01*
X1105860Y53867D01*
X1105931Y53531D01*
X1105994Y53193D01*
X1106048Y52854D01*
X1106095Y52514D01*
X1106133Y52172D01*
X1106162Y51830D01*
X1106183Y51487D01*
X1106196Y51144D01*
X1106200Y50800D01*
X1106196Y50456D01*
X1106183Y50113D01*
X1106162Y49770D01*
X1106133Y49428D01*
X1106095Y49086D01*
X1106048Y48746D01*
X1105994Y48407D01*
X1105931Y48069D01*
X1105860Y47733D01*
X1105780Y47398D01*
X1105693Y47066D01*
X1105597Y46736D01*
X1105493Y46408D01*
X1105382Y46084D01*
X1105262Y45761D01*
X1105134Y45442D01*
X1104999Y45127D01*
X1104856Y44814D01*
X1104705Y44505D01*
X1104547Y44200D01*
X1104381Y43899D01*
X1104208Y43603D01*
X1104028Y43310D01*
X1103841Y43022D01*
X1103646Y42739D01*
X1103445Y42460D01*
X1103237Y42187D01*
X1103022Y41918D01*
X1102801Y41656D01*
X1102573Y41398D01*
X1102339Y41146D01*
X1102099Y40901D01*
X1101854Y40661D01*
X1101602Y40427D01*
X1101344Y40199D01*
X1101082Y39978D01*
X1100813Y39763D01*
X1100540Y39555D01*
X1100261Y39354D01*
X1099978Y39159D01*
X1099690Y38972D01*
X1099397Y38792D01*
X1099101Y38619D01*
X1098800Y38453D01*
X1098495Y38295D01*
X1098186Y38144D01*
X1097873Y38001D01*
X1097558Y37866D01*
X1097239Y37738D01*
X1096916Y37618D01*
X1096592Y37507D01*
X1096264Y37403D01*
X1095934Y37307D01*
X1095602Y37220D01*
X1095267Y37140D01*
X1094931Y37069D01*
X1094593Y37006D01*
X1094254Y36952D01*
X1093914Y36905D01*
X1093572Y36867D01*
X1093230Y36838D01*
X1092887Y36817D01*
X1092544Y36804D01*
X1092200Y36800D01*
X1091856Y36804D01*
X1091513Y36817D01*
X1091170Y36838D01*
X1090828Y36867D01*
X1090486Y36905D01*
X1090146Y36952D01*
X1089807Y37006D01*
X1089469Y37069D01*
X1089133Y37140D01*
X1088798Y37220D01*
X1088466Y37307D01*
X1088136Y37403D01*
X1087808Y37507D01*
X1087484Y37618D01*
X1087161Y37738D01*
X1086842Y37866D01*
X1086527Y38001D01*
X1086214Y38144D01*
X1085905Y38295D01*
X1085600Y38453D01*
X1085299Y38619D01*
X1085003Y38792D01*
X1084710Y38972D01*
X1084422Y39159D01*
X1084139Y39354D01*
X1083860Y39555D01*
X1083587Y39763D01*
X1083318Y39978D01*
X1083056Y40199D01*
X1082798Y40427D01*
X1082546Y40661D01*
X1082301Y40901D01*
X1082061Y41146D01*
X1081827Y41398D01*
X1081599Y41656D01*
X1081378Y41918D01*
X1081163Y42187D01*
X1080955Y42460D01*
X1080754Y42739D01*
X1080559Y43022D01*
X1080372Y43310D01*
X1080192Y43603D01*
X1080019Y43899D01*
X1079853Y44200D01*
X1079695Y44505D01*
X1079544Y44814D01*
X1079401Y45127D01*
X1079266Y45442D01*
X1079138Y45761D01*
X1079018Y46084D01*
X1078907Y46408D01*
X1078803Y46736D01*
X1078707Y47066D01*
X1078620Y47398D01*
X1078540Y47733D01*
X1078469Y48069D01*
X1078406Y48407D01*
X1078352Y48746D01*
X1078305Y49086D01*
X1078267Y49428D01*
X1078238Y49770D01*
X1078217Y50113D01*
X1078204Y50456D01*
X1078200Y50800D01*
X36800Y711200D02*
X36804Y711544D01*
X36817Y711887D01*
X36838Y712230D01*
X36867Y712572D01*
X36905Y712914D01*
X36952Y713254D01*
X37006Y713593D01*
X37069Y713931D01*
X37140Y714267D01*
X37220Y714602D01*
X37307Y714934D01*
X37403Y715264D01*
X37507Y715592D01*
X37618Y715916D01*
X37738Y716239D01*
X37866Y716558D01*
X38001Y716873D01*
X38144Y717186D01*
X38295Y717495D01*
X38453Y717800D01*
X38619Y718101D01*
X38792Y718397D01*
X38972Y718690D01*
X39159Y718978D01*
X39354Y719261D01*
X39555Y719540D01*
X39763Y719813D01*
X39978Y720082D01*
X40199Y720344D01*
X40427Y720602D01*
X40661Y720854D01*
X40901Y721099D01*
X41146Y721339D01*
X41398Y721573D01*
X41656Y721801D01*
X41918Y722022D01*
X42187Y722237D01*
X42460Y722445D01*
X42739Y722646D01*
X43022Y722841D01*
X43310Y723028D01*
X43603Y723208D01*
X43899Y723381D01*
X44200Y723547D01*
X44505Y723705D01*
X44814Y723856D01*
X45127Y723999D01*
X45442Y724134D01*
X45761Y724262D01*
X46084Y724382D01*
X46408Y724493D01*
X46736Y724597D01*
X47066Y724693D01*
X47398Y724780D01*
X47733Y724860D01*
X48069Y724931D01*
X48407Y724994D01*
X48746Y725048D01*
X49086Y725095D01*
X49428Y725133D01*
X49770Y725162D01*
X50113Y725183D01*
X50456Y725196D01*
X50800Y725200D01*
X51144Y725196D01*
X51487Y725183D01*
X51830Y725162D01*
X52172Y725133D01*
X52514Y725095D01*
X52854Y725048D01*
X53193Y724994D01*
X53531Y724931D01*
X53867Y724860D01*
X54202Y724780D01*
X54534Y724693D01*
X54864Y724597D01*
X55192Y724493D01*
X55516Y724382D01*
X55839Y724262D01*
X56158Y724134D01*
X56473Y723999D01*
X56786Y723856D01*
X57095Y723705D01*
X57400Y723547D01*
X57701Y723381D01*
X57997Y723208D01*
X58290Y723028D01*
X58578Y722841D01*
X58861Y722646D01*
X59140Y722445D01*
X59413Y722237D01*
X59682Y722022D01*
X59944Y721801D01*
X60202Y721573D01*
X60454Y721339D01*
X60699Y721099D01*
X60939Y720854D01*
X61173Y720602D01*
X61401Y720344D01*
X61622Y720082D01*
X61837Y719813D01*
X62045Y719540D01*
X62246Y719261D01*
X62441Y718978D01*
X62628Y718690D01*
X62808Y718397D01*
X62981Y718101D01*
X63147Y717800D01*
X63305Y717495D01*
X63456Y717186D01*
X63599Y716873D01*
X63734Y716558D01*
X63862Y716239D01*
X63982Y715916D01*
X64093Y715592D01*
X64197Y715264D01*
X64293Y714934D01*
X64380Y714602D01*
X64460Y714267D01*
X64531Y713931D01*
X64594Y713593D01*
X64648Y713254D01*
X64695Y712914D01*
X64733Y712572D01*
X64762Y712230D01*
X64783Y711887D01*
X64796Y711544D01*
X64800Y711200D01*
X64796Y710856D01*
X64783Y710513D01*
X64762Y710170D01*
X64733Y709828D01*
X64695Y709486D01*
X64648Y709146D01*
X64594Y708807D01*
X64531Y708469D01*
X64460Y708133D01*
X64380Y707798D01*
X64293Y707466D01*
X64197Y707136D01*
X64093Y706808D01*
X63982Y706484D01*
X63862Y706161D01*
X63734Y705842D01*
X63599Y705527D01*
X63456Y705214D01*
X63305Y704905D01*
X63147Y704600D01*
X62981Y704299D01*
X62808Y704003D01*
X62628Y703710D01*
X62441Y703422D01*
X62246Y703139D01*
X62045Y702860D01*
X61837Y702587D01*
X61622Y702318D01*
X61401Y702056D01*
X61173Y701798D01*
X60939Y701546D01*
X60699Y701301D01*
X60454Y701061D01*
X60202Y700827D01*
X59944Y700599D01*
X59682Y700378D01*
X59413Y700163D01*
X59140Y699955D01*
X58861Y699754D01*
X58578Y699559D01*
X58290Y699372D01*
X57997Y699192D01*
X57701Y699019D01*
X57400Y698853D01*
X57095Y698695D01*
X56786Y698544D01*
X56473Y698401D01*
X56158Y698266D01*
X55839Y698138D01*
X55516Y698018D01*
X55192Y697907D01*
X54864Y697803D01*
X54534Y697707D01*
X54202Y697620D01*
X53867Y697540D01*
X53531Y697469D01*
X53193Y697406D01*
X52854Y697352D01*
X52514Y697305D01*
X52172Y697267D01*
X51830Y697238D01*
X51487Y697217D01*
X51144Y697204D01*
X50800Y697200D01*
X50456Y697204D01*
X50113Y697217D01*
X49770Y697238D01*
X49428Y697267D01*
X49086Y697305D01*
X48746Y697352D01*
X48407Y697406D01*
X48069Y697469D01*
X47733Y697540D01*
X47398Y697620D01*
X47066Y697707D01*
X46736Y697803D01*
X46408Y697907D01*
X46084Y698018D01*
X45761Y698138D01*
X45442Y698266D01*
X45127Y698401D01*
X44814Y698544D01*
X44505Y698695D01*
X44200Y698853D01*
X43899Y699019D01*
X43603Y699192D01*
X43310Y699372D01*
X43022Y699559D01*
X42739Y699754D01*
X42460Y699955D01*
X42187Y700163D01*
X41918Y700378D01*
X41656Y700599D01*
X41398Y700827D01*
X41146Y701061D01*
X40901Y701301D01*
X40661Y701546D01*
X40427Y701798D01*
X40199Y702056D01*
X39978Y702318D01*
X39763Y702587D01*
X39555Y702860D01*
X39354Y703139D01*
X39159Y703422D01*
X38972Y703710D01*
X38792Y704003D01*
X38619Y704299D01*
X38453Y704600D01*
X38295Y704905D01*
X38144Y705214D01*
X38001Y705527D01*
X37866Y705842D01*
X37738Y706161D01*
X37618Y706484D01*
X37507Y706808D01*
X37403Y707136D01*
X37307Y707466D01*
X37220Y707798D01*
X37140Y708133D01*
X37069Y708469D01*
X37006Y708807D01*
X36952Y709146D01*
X36905Y709486D01*
X36867Y709828D01*
X36838Y710170D01*
X36817Y710513D01*
X36804Y710856D01*
X36800Y711200D01*
X556850Y711200D02*
X556852Y711330D01*
X556858Y711460D01*
X556868Y711590D01*
X556882Y711720D01*
X556900Y711849D01*
X556922Y711977D01*
X556947Y712105D01*
X556977Y712232D01*
X557011Y712358D01*
X557048Y712482D01*
X557089Y712606D01*
X557134Y712728D01*
X557183Y712849D01*
X557235Y712968D01*
X557291Y713086D01*
X557351Y713202D01*
X557414Y713316D01*
X557481Y713428D01*
X557551Y713537D01*
X557624Y713645D01*
X557700Y713750D01*
X557780Y713853D01*
X557863Y713954D01*
X557949Y714052D01*
X558038Y714147D01*
X558130Y714240D01*
X558224Y714329D01*
X558321Y714416D01*
X558421Y714499D01*
X558524Y714580D01*
X558628Y714657D01*
X558735Y714731D01*
X558845Y714802D01*
X558956Y714870D01*
X559070Y714934D01*
X559185Y714994D01*
X559302Y715051D01*
X559421Y715104D01*
X559542Y715154D01*
X559663Y715200D01*
X559787Y715242D01*
X559911Y715280D01*
X560037Y715315D01*
X560163Y715346D01*
X560291Y715372D01*
X560419Y715395D01*
X560548Y715414D01*
X560677Y715429D01*
X560807Y715440D01*
X560937Y715447D01*
X561067Y715450D01*
X561198Y715449D01*
X561328Y715444D01*
X561458Y715435D01*
X561587Y715422D01*
X561717Y715405D01*
X561845Y715384D01*
X561973Y715359D01*
X562100Y715331D01*
X562226Y715298D01*
X562351Y715262D01*
X562475Y715221D01*
X562598Y715177D01*
X562719Y715130D01*
X562839Y715078D01*
X562957Y715023D01*
X563073Y714964D01*
X563187Y714902D01*
X563300Y714836D01*
X563410Y714767D01*
X563518Y714695D01*
X563624Y714619D01*
X563728Y714540D01*
X563829Y714458D01*
X563928Y714373D01*
X564024Y714285D01*
X564117Y714194D01*
X564207Y714100D01*
X564294Y714003D01*
X564379Y713904D01*
X564460Y713802D01*
X564538Y713698D01*
X564613Y713592D01*
X564685Y713483D01*
X564753Y713372D01*
X564818Y713259D01*
X564879Y713144D01*
X564937Y713027D01*
X564991Y712909D01*
X565042Y712789D01*
X565089Y712667D01*
X565132Y712544D01*
X565171Y712420D01*
X565207Y712295D01*
X565238Y712168D01*
X565266Y712041D01*
X565290Y711913D01*
X565310Y711784D01*
X565326Y711655D01*
X565338Y711525D01*
X565346Y711395D01*
X565350Y711265D01*
X565350Y711135D01*
X565346Y711005D01*
X565338Y710875D01*
X565326Y710745D01*
X565310Y710616D01*
X565290Y710487D01*
X565266Y710359D01*
X565238Y710232D01*
X565207Y710105D01*
X565171Y709980D01*
X565132Y709856D01*
X565089Y709733D01*
X565042Y709611D01*
X564991Y709491D01*
X564937Y709373D01*
X564879Y709256D01*
X564818Y709141D01*
X564753Y709028D01*
X564685Y708917D01*
X564613Y708808D01*
X564538Y708702D01*
X564460Y708598D01*
X564379Y708496D01*
X564294Y708397D01*
X564207Y708300D01*
X564117Y708206D01*
X564024Y708115D01*
X563928Y708027D01*
X563829Y707942D01*
X563728Y707860D01*
X563624Y707781D01*
X563518Y707705D01*
X563410Y707633D01*
X563300Y707564D01*
X563187Y707498D01*
X563073Y707436D01*
X562957Y707377D01*
X562839Y707322D01*
X562719Y707270D01*
X562598Y707223D01*
X562475Y707179D01*
X562351Y707138D01*
X562226Y707102D01*
X562100Y707069D01*
X561973Y707041D01*
X561845Y707016D01*
X561717Y706995D01*
X561587Y706978D01*
X561458Y706965D01*
X561328Y706956D01*
X561198Y706951D01*
X561067Y706950D01*
X560937Y706953D01*
X560807Y706960D01*
X560677Y706971D01*
X560548Y706986D01*
X560419Y707005D01*
X560291Y707028D01*
X560163Y707054D01*
X560037Y707085D01*
X559911Y707120D01*
X559787Y707158D01*
X559663Y707200D01*
X559542Y707246D01*
X559421Y707296D01*
X559302Y707349D01*
X559185Y707406D01*
X559070Y707466D01*
X558956Y707530D01*
X558845Y707598D01*
X558735Y707669D01*
X558628Y707743D01*
X558524Y707820D01*
X558421Y707901D01*
X558321Y707984D01*
X558224Y708071D01*
X558130Y708160D01*
X558038Y708253D01*
X557949Y708348D01*
X557863Y708446D01*
X557780Y708547D01*
X557700Y708650D01*
X557624Y708755D01*
X557551Y708863D01*
X557481Y708972D01*
X557414Y709084D01*
X557351Y709198D01*
X557291Y709314D01*
X557235Y709432D01*
X557183Y709551D01*
X557134Y709672D01*
X557089Y709794D01*
X557048Y709918D01*
X557011Y710042D01*
X556977Y710168D01*
X556947Y710295D01*
X556922Y710423D01*
X556900Y710551D01*
X556882Y710680D01*
X556868Y710810D01*
X556858Y710940D01*
X556852Y711070D01*
X556850Y711200D01*
X526850Y711200D02*
X526852Y711330D01*
X526858Y711460D01*
X526868Y711590D01*
X526882Y711720D01*
X526900Y711849D01*
X526922Y711977D01*
X526947Y712105D01*
X526977Y712232D01*
X527011Y712358D01*
X527048Y712482D01*
X527089Y712606D01*
X527134Y712728D01*
X527183Y712849D01*
X527235Y712968D01*
X527291Y713086D01*
X527351Y713202D01*
X527414Y713316D01*
X527481Y713428D01*
X527551Y713537D01*
X527624Y713645D01*
X527700Y713750D01*
X527780Y713853D01*
X527863Y713954D01*
X527949Y714052D01*
X528038Y714147D01*
X528130Y714240D01*
X528224Y714329D01*
X528321Y714416D01*
X528421Y714499D01*
X528524Y714580D01*
X528628Y714657D01*
X528735Y714731D01*
X528845Y714802D01*
X528956Y714870D01*
X529070Y714934D01*
X529185Y714994D01*
X529302Y715051D01*
X529421Y715104D01*
X529542Y715154D01*
X529663Y715200D01*
X529787Y715242D01*
X529911Y715280D01*
X530037Y715315D01*
X530163Y715346D01*
X530291Y715372D01*
X530419Y715395D01*
X530548Y715414D01*
X530677Y715429D01*
X530807Y715440D01*
X530937Y715447D01*
X531067Y715450D01*
X531198Y715449D01*
X531328Y715444D01*
X531458Y715435D01*
X531587Y715422D01*
X531717Y715405D01*
X531845Y715384D01*
X531973Y715359D01*
X532100Y715331D01*
X532226Y715298D01*
X532351Y715262D01*
X532475Y715221D01*
X532598Y715177D01*
X532719Y715130D01*
X532839Y715078D01*
X532957Y715023D01*
X533073Y714964D01*
X533187Y714902D01*
X533300Y714836D01*
X533410Y714767D01*
X533518Y714695D01*
X533624Y714619D01*
X533728Y714540D01*
X533829Y714458D01*
X533928Y714373D01*
X534024Y714285D01*
X534117Y714194D01*
X534207Y714100D01*
X534294Y714003D01*
X534379Y713904D01*
X534460Y713802D01*
X534538Y713698D01*
X534613Y713592D01*
X534685Y713483D01*
X534753Y713372D01*
X534818Y713259D01*
X534879Y713144D01*
X534937Y713027D01*
X534991Y712909D01*
X535042Y712789D01*
X535089Y712667D01*
X535132Y712544D01*
X535171Y712420D01*
X535207Y712295D01*
X535238Y712168D01*
X535266Y712041D01*
X535290Y711913D01*
X535310Y711784D01*
X535326Y711655D01*
X535338Y711525D01*
X535346Y711395D01*
X535350Y711265D01*
X535350Y711135D01*
X535346Y711005D01*
X535338Y710875D01*
X535326Y710745D01*
X535310Y710616D01*
X535290Y710487D01*
X535266Y710359D01*
X535238Y710232D01*
X535207Y710105D01*
X535171Y709980D01*
X535132Y709856D01*
X535089Y709733D01*
X535042Y709611D01*
X534991Y709491D01*
X534937Y709373D01*
X534879Y709256D01*
X534818Y709141D01*
X534753Y709028D01*
X534685Y708917D01*
X534613Y708808D01*
X534538Y708702D01*
X534460Y708598D01*
X534379Y708496D01*
X534294Y708397D01*
X534207Y708300D01*
X534117Y708206D01*
X534024Y708115D01*
X533928Y708027D01*
X533829Y707942D01*
X533728Y707860D01*
X533624Y707781D01*
X533518Y707705D01*
X533410Y707633D01*
X533300Y707564D01*
X533187Y707498D01*
X533073Y707436D01*
X532957Y707377D01*
X532839Y707322D01*
X532719Y707270D01*
X532598Y707223D01*
X532475Y707179D01*
X532351Y707138D01*
X532226Y707102D01*
X532100Y707069D01*
X531973Y707041D01*
X531845Y707016D01*
X531717Y706995D01*
X531587Y706978D01*
X531458Y706965D01*
X531328Y706956D01*
X531198Y706951D01*
X531067Y706950D01*
X530937Y706953D01*
X530807Y706960D01*
X530677Y706971D01*
X530548Y706986D01*
X530419Y707005D01*
X530291Y707028D01*
X530163Y707054D01*
X530037Y707085D01*
X529911Y707120D01*
X529787Y707158D01*
X529663Y707200D01*
X529542Y707246D01*
X529421Y707296D01*
X529302Y707349D01*
X529185Y707406D01*
X529070Y707466D01*
X528956Y707530D01*
X528845Y707598D01*
X528735Y707669D01*
X528628Y707743D01*
X528524Y707820D01*
X528421Y707901D01*
X528321Y707984D01*
X528224Y708071D01*
X528130Y708160D01*
X528038Y708253D01*
X527949Y708348D01*
X527863Y708446D01*
X527780Y708547D01*
X527700Y708650D01*
X527624Y708755D01*
X527551Y708863D01*
X527481Y708972D01*
X527414Y709084D01*
X527351Y709198D01*
X527291Y709314D01*
X527235Y709432D01*
X527183Y709551D01*
X527134Y709672D01*
X527089Y709794D01*
X527048Y709918D01*
X527011Y710042D01*
X526977Y710168D01*
X526947Y710295D01*
X526922Y710423D01*
X526900Y710551D01*
X526882Y710680D01*
X526868Y710810D01*
X526858Y710940D01*
X526852Y711070D01*
X526850Y711200D01*
X404450Y711200D02*
X404452Y711330D01*
X404458Y711460D01*
X404468Y711590D01*
X404482Y711720D01*
X404500Y711849D01*
X404522Y711977D01*
X404547Y712105D01*
X404577Y712232D01*
X404611Y712358D01*
X404648Y712482D01*
X404689Y712606D01*
X404734Y712728D01*
X404783Y712849D01*
X404835Y712968D01*
X404891Y713086D01*
X404951Y713202D01*
X405014Y713316D01*
X405081Y713428D01*
X405151Y713537D01*
X405224Y713645D01*
X405300Y713750D01*
X405380Y713853D01*
X405463Y713954D01*
X405549Y714052D01*
X405638Y714147D01*
X405730Y714240D01*
X405824Y714329D01*
X405921Y714416D01*
X406021Y714499D01*
X406124Y714580D01*
X406228Y714657D01*
X406335Y714731D01*
X406445Y714802D01*
X406556Y714870D01*
X406670Y714934D01*
X406785Y714994D01*
X406902Y715051D01*
X407021Y715104D01*
X407142Y715154D01*
X407263Y715200D01*
X407387Y715242D01*
X407511Y715280D01*
X407637Y715315D01*
X407763Y715346D01*
X407891Y715372D01*
X408019Y715395D01*
X408148Y715414D01*
X408277Y715429D01*
X408407Y715440D01*
X408537Y715447D01*
X408667Y715450D01*
X408798Y715449D01*
X408928Y715444D01*
X409058Y715435D01*
X409187Y715422D01*
X409317Y715405D01*
X409445Y715384D01*
X409573Y715359D01*
X409700Y715331D01*
X409826Y715298D01*
X409951Y715262D01*
X410075Y715221D01*
X410198Y715177D01*
X410319Y715130D01*
X410439Y715078D01*
X410557Y715023D01*
X410673Y714964D01*
X410787Y714902D01*
X410900Y714836D01*
X411010Y714767D01*
X411118Y714695D01*
X411224Y714619D01*
X411328Y714540D01*
X411429Y714458D01*
X411528Y714373D01*
X411624Y714285D01*
X411717Y714194D01*
X411807Y714100D01*
X411894Y714003D01*
X411979Y713904D01*
X412060Y713802D01*
X412138Y713698D01*
X412213Y713592D01*
X412285Y713483D01*
X412353Y713372D01*
X412418Y713259D01*
X412479Y713144D01*
X412537Y713027D01*
X412591Y712909D01*
X412642Y712789D01*
X412689Y712667D01*
X412732Y712544D01*
X412771Y712420D01*
X412807Y712295D01*
X412838Y712168D01*
X412866Y712041D01*
X412890Y711913D01*
X412910Y711784D01*
X412926Y711655D01*
X412938Y711525D01*
X412946Y711395D01*
X412950Y711265D01*
X412950Y711135D01*
X412946Y711005D01*
X412938Y710875D01*
X412926Y710745D01*
X412910Y710616D01*
X412890Y710487D01*
X412866Y710359D01*
X412838Y710232D01*
X412807Y710105D01*
X412771Y709980D01*
X412732Y709856D01*
X412689Y709733D01*
X412642Y709611D01*
X412591Y709491D01*
X412537Y709373D01*
X412479Y709256D01*
X412418Y709141D01*
X412353Y709028D01*
X412285Y708917D01*
X412213Y708808D01*
X412138Y708702D01*
X412060Y708598D01*
X411979Y708496D01*
X411894Y708397D01*
X411807Y708300D01*
X411717Y708206D01*
X411624Y708115D01*
X411528Y708027D01*
X411429Y707942D01*
X411328Y707860D01*
X411224Y707781D01*
X411118Y707705D01*
X411010Y707633D01*
X410900Y707564D01*
X410787Y707498D01*
X410673Y707436D01*
X410557Y707377D01*
X410439Y707322D01*
X410319Y707270D01*
X410198Y707223D01*
X410075Y707179D01*
X409951Y707138D01*
X409826Y707102D01*
X409700Y707069D01*
X409573Y707041D01*
X409445Y707016D01*
X409317Y706995D01*
X409187Y706978D01*
X409058Y706965D01*
X408928Y706956D01*
X408798Y706951D01*
X408667Y706950D01*
X408537Y706953D01*
X408407Y706960D01*
X408277Y706971D01*
X408148Y706986D01*
X408019Y707005D01*
X407891Y707028D01*
X407763Y707054D01*
X407637Y707085D01*
X407511Y707120D01*
X407387Y707158D01*
X407263Y707200D01*
X407142Y707246D01*
X407021Y707296D01*
X406902Y707349D01*
X406785Y707406D01*
X406670Y707466D01*
X406556Y707530D01*
X406445Y707598D01*
X406335Y707669D01*
X406228Y707743D01*
X406124Y707820D01*
X406021Y707901D01*
X405921Y707984D01*
X405824Y708071D01*
X405730Y708160D01*
X405638Y708253D01*
X405549Y708348D01*
X405463Y708446D01*
X405380Y708547D01*
X405300Y708650D01*
X405224Y708755D01*
X405151Y708863D01*
X405081Y708972D01*
X405014Y709084D01*
X404951Y709198D01*
X404891Y709314D01*
X404835Y709432D01*
X404783Y709551D01*
X404734Y709672D01*
X404689Y709794D01*
X404648Y709918D01*
X404611Y710042D01*
X404577Y710168D01*
X404547Y710295D01*
X404522Y710423D01*
X404500Y710551D01*
X404482Y710680D01*
X404468Y710810D01*
X404458Y710940D01*
X404452Y711070D01*
X404450Y711200D01*
X374450Y711200D02*
X374452Y711330D01*
X374458Y711460D01*
X374468Y711590D01*
X374482Y711720D01*
X374500Y711849D01*
X374522Y711977D01*
X374547Y712105D01*
X374577Y712232D01*
X374611Y712358D01*
X374648Y712482D01*
X374689Y712606D01*
X374734Y712728D01*
X374783Y712849D01*
X374835Y712968D01*
X374891Y713086D01*
X374951Y713202D01*
X375014Y713316D01*
X375081Y713428D01*
X375151Y713537D01*
X375224Y713645D01*
X375300Y713750D01*
X375380Y713853D01*
X375463Y713954D01*
X375549Y714052D01*
X375638Y714147D01*
X375730Y714240D01*
X375824Y714329D01*
X375921Y714416D01*
X376021Y714499D01*
X376124Y714580D01*
X376228Y714657D01*
X376335Y714731D01*
X376445Y714802D01*
X376556Y714870D01*
X376670Y714934D01*
X376785Y714994D01*
X376902Y715051D01*
X377021Y715104D01*
X377142Y715154D01*
X377263Y715200D01*
X377387Y715242D01*
X377511Y715280D01*
X377637Y715315D01*
X377763Y715346D01*
X377891Y715372D01*
X378019Y715395D01*
X378148Y715414D01*
X378277Y715429D01*
X378407Y715440D01*
X378537Y715447D01*
X378667Y715450D01*
X378798Y715449D01*
X378928Y715444D01*
X379058Y715435D01*
X379187Y715422D01*
X379317Y715405D01*
X379445Y715384D01*
X379573Y715359D01*
X379700Y715331D01*
X379826Y715298D01*
X379951Y715262D01*
X380075Y715221D01*
X380198Y715177D01*
X380319Y715130D01*
X380439Y715078D01*
X380557Y715023D01*
X380673Y714964D01*
X380787Y714902D01*
X380900Y714836D01*
X381010Y714767D01*
X381118Y714695D01*
X381224Y714619D01*
X381328Y714540D01*
X381429Y714458D01*
X381528Y714373D01*
X381624Y714285D01*
X381717Y714194D01*
X381807Y714100D01*
X381894Y714003D01*
X381979Y713904D01*
X382060Y713802D01*
X382138Y713698D01*
X382213Y713592D01*
X382285Y713483D01*
X382353Y713372D01*
X382418Y713259D01*
X382479Y713144D01*
X382537Y713027D01*
X382591Y712909D01*
X382642Y712789D01*
X382689Y712667D01*
X382732Y712544D01*
X382771Y712420D01*
X382807Y712295D01*
X382838Y712168D01*
X382866Y712041D01*
X382890Y711913D01*
X382910Y711784D01*
X382926Y711655D01*
X382938Y711525D01*
X382946Y711395D01*
X382950Y711265D01*
X382950Y711135D01*
X382946Y711005D01*
X382938Y710875D01*
X382926Y710745D01*
X382910Y710616D01*
X382890Y710487D01*
X382866Y710359D01*
X382838Y710232D01*
X382807Y710105D01*
X382771Y709980D01*
X382732Y709856D01*
X382689Y709733D01*
X382642Y709611D01*
X382591Y709491D01*
X382537Y709373D01*
X382479Y709256D01*
X382418Y709141D01*
X382353Y709028D01*
X382285Y708917D01*
X382213Y708808D01*
X382138Y708702D01*
X382060Y708598D01*
X381979Y708496D01*
X381894Y708397D01*
X381807Y708300D01*
X381717Y708206D01*
X381624Y708115D01*
X381528Y708027D01*
X381429Y707942D01*
X381328Y707860D01*
X381224Y707781D01*
X381118Y707705D01*
X381010Y707633D01*
X380900Y707564D01*
X380787Y707498D01*
X380673Y707436D01*
X380557Y707377D01*
X380439Y707322D01*
X380319Y707270D01*
X380198Y707223D01*
X380075Y707179D01*
X379951Y707138D01*
X379826Y707102D01*
X379700Y707069D01*
X379573Y707041D01*
X379445Y707016D01*
X379317Y706995D01*
X379187Y706978D01*
X379058Y706965D01*
X378928Y706956D01*
X378798Y706951D01*
X378667Y706950D01*
X378537Y706953D01*
X378407Y706960D01*
X378277Y706971D01*
X378148Y706986D01*
X378019Y707005D01*
X377891Y707028D01*
X377763Y707054D01*
X377637Y707085D01*
X377511Y707120D01*
X377387Y707158D01*
X377263Y707200D01*
X377142Y707246D01*
X377021Y707296D01*
X376902Y707349D01*
X376785Y707406D01*
X376670Y707466D01*
X376556Y707530D01*
X376445Y707598D01*
X376335Y707669D01*
X376228Y707743D01*
X376124Y707820D01*
X376021Y707901D01*
X375921Y707984D01*
X375824Y708071D01*
X375730Y708160D01*
X375638Y708253D01*
X375549Y708348D01*
X375463Y708446D01*
X375380Y708547D01*
X375300Y708650D01*
X375224Y708755D01*
X375151Y708863D01*
X375081Y708972D01*
X375014Y709084D01*
X374951Y709198D01*
X374891Y709314D01*
X374835Y709432D01*
X374783Y709551D01*
X374734Y709672D01*
X374689Y709794D01*
X374648Y709918D01*
X374611Y710042D01*
X374577Y710168D01*
X374547Y710295D01*
X374522Y710423D01*
X374500Y710551D01*
X374482Y710680D01*
X374468Y710810D01*
X374458Y710940D01*
X374452Y711070D01*
X374450Y711200D01*
X709250Y711200D02*
X709252Y711330D01*
X709258Y711460D01*
X709268Y711590D01*
X709282Y711720D01*
X709300Y711849D01*
X709322Y711977D01*
X709347Y712105D01*
X709377Y712232D01*
X709411Y712358D01*
X709448Y712482D01*
X709489Y712606D01*
X709534Y712728D01*
X709583Y712849D01*
X709635Y712968D01*
X709691Y713086D01*
X709751Y713202D01*
X709814Y713316D01*
X709881Y713428D01*
X709951Y713537D01*
X710024Y713645D01*
X710100Y713750D01*
X710180Y713853D01*
X710263Y713954D01*
X710349Y714052D01*
X710438Y714147D01*
X710530Y714240D01*
X710624Y714329D01*
X710721Y714416D01*
X710821Y714499D01*
X710924Y714580D01*
X711028Y714657D01*
X711135Y714731D01*
X711245Y714802D01*
X711356Y714870D01*
X711470Y714934D01*
X711585Y714994D01*
X711702Y715051D01*
X711821Y715104D01*
X711942Y715154D01*
X712063Y715200D01*
X712187Y715242D01*
X712311Y715280D01*
X712437Y715315D01*
X712563Y715346D01*
X712691Y715372D01*
X712819Y715395D01*
X712948Y715414D01*
X713077Y715429D01*
X713207Y715440D01*
X713337Y715447D01*
X713467Y715450D01*
X713598Y715449D01*
X713728Y715444D01*
X713858Y715435D01*
X713987Y715422D01*
X714117Y715405D01*
X714245Y715384D01*
X714373Y715359D01*
X714500Y715331D01*
X714626Y715298D01*
X714751Y715262D01*
X714875Y715221D01*
X714998Y715177D01*
X715119Y715130D01*
X715239Y715078D01*
X715357Y715023D01*
X715473Y714964D01*
X715587Y714902D01*
X715700Y714836D01*
X715810Y714767D01*
X715918Y714695D01*
X716024Y714619D01*
X716128Y714540D01*
X716229Y714458D01*
X716328Y714373D01*
X716424Y714285D01*
X716517Y714194D01*
X716607Y714100D01*
X716694Y714003D01*
X716779Y713904D01*
X716860Y713802D01*
X716938Y713698D01*
X717013Y713592D01*
X717085Y713483D01*
X717153Y713372D01*
X717218Y713259D01*
X717279Y713144D01*
X717337Y713027D01*
X717391Y712909D01*
X717442Y712789D01*
X717489Y712667D01*
X717532Y712544D01*
X717571Y712420D01*
X717607Y712295D01*
X717638Y712168D01*
X717666Y712041D01*
X717690Y711913D01*
X717710Y711784D01*
X717726Y711655D01*
X717738Y711525D01*
X717746Y711395D01*
X717750Y711265D01*
X717750Y711135D01*
X717746Y711005D01*
X717738Y710875D01*
X717726Y710745D01*
X717710Y710616D01*
X717690Y710487D01*
X717666Y710359D01*
X717638Y710232D01*
X717607Y710105D01*
X717571Y709980D01*
X717532Y709856D01*
X717489Y709733D01*
X717442Y709611D01*
X717391Y709491D01*
X717337Y709373D01*
X717279Y709256D01*
X717218Y709141D01*
X717153Y709028D01*
X717085Y708917D01*
X717013Y708808D01*
X716938Y708702D01*
X716860Y708598D01*
X716779Y708496D01*
X716694Y708397D01*
X716607Y708300D01*
X716517Y708206D01*
X716424Y708115D01*
X716328Y708027D01*
X716229Y707942D01*
X716128Y707860D01*
X716024Y707781D01*
X715918Y707705D01*
X715810Y707633D01*
X715700Y707564D01*
X715587Y707498D01*
X715473Y707436D01*
X715357Y707377D01*
X715239Y707322D01*
X715119Y707270D01*
X714998Y707223D01*
X714875Y707179D01*
X714751Y707138D01*
X714626Y707102D01*
X714500Y707069D01*
X714373Y707041D01*
X714245Y707016D01*
X714117Y706995D01*
X713987Y706978D01*
X713858Y706965D01*
X713728Y706956D01*
X713598Y706951D01*
X713467Y706950D01*
X713337Y706953D01*
X713207Y706960D01*
X713077Y706971D01*
X712948Y706986D01*
X712819Y707005D01*
X712691Y707028D01*
X712563Y707054D01*
X712437Y707085D01*
X712311Y707120D01*
X712187Y707158D01*
X712063Y707200D01*
X711942Y707246D01*
X711821Y707296D01*
X711702Y707349D01*
X711585Y707406D01*
X711470Y707466D01*
X711356Y707530D01*
X711245Y707598D01*
X711135Y707669D01*
X711028Y707743D01*
X710924Y707820D01*
X710821Y707901D01*
X710721Y707984D01*
X710624Y708071D01*
X710530Y708160D01*
X710438Y708253D01*
X710349Y708348D01*
X710263Y708446D01*
X710180Y708547D01*
X710100Y708650D01*
X710024Y708755D01*
X709951Y708863D01*
X709881Y708972D01*
X709814Y709084D01*
X709751Y709198D01*
X709691Y709314D01*
X709635Y709432D01*
X709583Y709551D01*
X709534Y709672D01*
X709489Y709794D01*
X709448Y709918D01*
X709411Y710042D01*
X709377Y710168D01*
X709347Y710295D01*
X709322Y710423D01*
X709300Y710551D01*
X709282Y710680D01*
X709268Y710810D01*
X709258Y710940D01*
X709252Y711070D01*
X709250Y711200D01*
X679250Y711200D02*
X679252Y711330D01*
X679258Y711460D01*
X679268Y711590D01*
X679282Y711720D01*
X679300Y711849D01*
X679322Y711977D01*
X679347Y712105D01*
X679377Y712232D01*
X679411Y712358D01*
X679448Y712482D01*
X679489Y712606D01*
X679534Y712728D01*
X679583Y712849D01*
X679635Y712968D01*
X679691Y713086D01*
X679751Y713202D01*
X679814Y713316D01*
X679881Y713428D01*
X679951Y713537D01*
X680024Y713645D01*
X680100Y713750D01*
X680180Y713853D01*
X680263Y713954D01*
X680349Y714052D01*
X680438Y714147D01*
X680530Y714240D01*
X680624Y714329D01*
X680721Y714416D01*
X680821Y714499D01*
X680924Y714580D01*
X681028Y714657D01*
X681135Y714731D01*
X681245Y714802D01*
X681356Y714870D01*
X681470Y714934D01*
X681585Y714994D01*
X681702Y715051D01*
X681821Y715104D01*
X681942Y715154D01*
X682063Y715200D01*
X682187Y715242D01*
X682311Y715280D01*
X682437Y715315D01*
X682563Y715346D01*
X682691Y715372D01*
X682819Y715395D01*
X682948Y715414D01*
X683077Y715429D01*
X683207Y715440D01*
X683337Y715447D01*
X683467Y715450D01*
X683598Y715449D01*
X683728Y715444D01*
X683858Y715435D01*
X683987Y715422D01*
X684117Y715405D01*
X684245Y715384D01*
X684373Y715359D01*
X684500Y715331D01*
X684626Y715298D01*
X684751Y715262D01*
X684875Y715221D01*
X684998Y715177D01*
X685119Y715130D01*
X685239Y715078D01*
X685357Y715023D01*
X685473Y714964D01*
X685587Y714902D01*
X685700Y714836D01*
X685810Y714767D01*
X685918Y714695D01*
X686024Y714619D01*
X686128Y714540D01*
X686229Y714458D01*
X686328Y714373D01*
X686424Y714285D01*
X686517Y714194D01*
X686607Y714100D01*
X686694Y714003D01*
X686779Y713904D01*
X686860Y713802D01*
X686938Y713698D01*
X687013Y713592D01*
X687085Y713483D01*
X687153Y713372D01*
X687218Y713259D01*
X687279Y713144D01*
X687337Y713027D01*
X687391Y712909D01*
X687442Y712789D01*
X687489Y712667D01*
X687532Y712544D01*
X687571Y712420D01*
X687607Y712295D01*
X687638Y712168D01*
X687666Y712041D01*
X687690Y711913D01*
X687710Y711784D01*
X687726Y711655D01*
X687738Y711525D01*
X687746Y711395D01*
X687750Y711265D01*
X687750Y711135D01*
X687746Y711005D01*
X687738Y710875D01*
X687726Y710745D01*
X687710Y710616D01*
X687690Y710487D01*
X687666Y710359D01*
X687638Y710232D01*
X687607Y710105D01*
X687571Y709980D01*
X687532Y709856D01*
X687489Y709733D01*
X687442Y709611D01*
X687391Y709491D01*
X687337Y709373D01*
X687279Y709256D01*
X687218Y709141D01*
X687153Y709028D01*
X687085Y708917D01*
X687013Y708808D01*
X686938Y708702D01*
X686860Y708598D01*
X686779Y708496D01*
X686694Y708397D01*
X686607Y708300D01*
X686517Y708206D01*
X686424Y708115D01*
X686328Y708027D01*
X686229Y707942D01*
X686128Y707860D01*
X686024Y707781D01*
X685918Y707705D01*
X685810Y707633D01*
X685700Y707564D01*
X685587Y707498D01*
X685473Y707436D01*
X685357Y707377D01*
X685239Y707322D01*
X685119Y707270D01*
X684998Y707223D01*
X684875Y707179D01*
X684751Y707138D01*
X684626Y707102D01*
X684500Y707069D01*
X684373Y707041D01*
X684245Y707016D01*
X684117Y706995D01*
X683987Y706978D01*
X683858Y706965D01*
X683728Y706956D01*
X683598Y706951D01*
X683467Y706950D01*
X683337Y706953D01*
X683207Y706960D01*
X683077Y706971D01*
X682948Y706986D01*
X682819Y707005D01*
X682691Y707028D01*
X682563Y707054D01*
X682437Y707085D01*
X682311Y707120D01*
X682187Y707158D01*
X682063Y707200D01*
X681942Y707246D01*
X681821Y707296D01*
X681702Y707349D01*
X681585Y707406D01*
X681470Y707466D01*
X681356Y707530D01*
X681245Y707598D01*
X681135Y707669D01*
X681028Y707743D01*
X680924Y707820D01*
X680821Y707901D01*
X680721Y707984D01*
X680624Y708071D01*
X680530Y708160D01*
X680438Y708253D01*
X680349Y708348D01*
X680263Y708446D01*
X680180Y708547D01*
X680100Y708650D01*
X680024Y708755D01*
X679951Y708863D01*
X679881Y708972D01*
X679814Y709084D01*
X679751Y709198D01*
X679691Y709314D01*
X679635Y709432D01*
X679583Y709551D01*
X679534Y709672D01*
X679489Y709794D01*
X679448Y709918D01*
X679411Y710042D01*
X679377Y710168D01*
X679347Y710295D01*
X679322Y710423D01*
X679300Y710551D01*
X679282Y710680D01*
X679268Y710810D01*
X679258Y710940D01*
X679252Y711070D01*
X679250Y711200D01*
X206250Y736600D02*
X206253Y736827D01*
X206261Y737054D01*
X206275Y737280D01*
X206295Y737507D01*
X206320Y737732D01*
X206350Y737957D01*
X206386Y738181D01*
X206428Y738405D01*
X206475Y738627D01*
X206527Y738848D01*
X206585Y739067D01*
X206648Y739285D01*
X206717Y739502D01*
X206791Y739716D01*
X206870Y739929D01*
X206954Y740140D01*
X207044Y740348D01*
X207138Y740555D01*
X207238Y740759D01*
X207342Y740960D01*
X207452Y741159D01*
X207566Y741355D01*
X207685Y741549D01*
X207809Y741739D01*
X207937Y741926D01*
X208070Y742110D01*
X208208Y742291D01*
X208350Y742468D01*
X208496Y742642D01*
X208646Y742812D01*
X208801Y742978D01*
X208959Y743141D01*
X209122Y743299D01*
X209288Y743454D01*
X209458Y743604D01*
X209632Y743750D01*
X209809Y743892D01*
X209990Y744030D01*
X210174Y744163D01*
X210361Y744291D01*
X210551Y744415D01*
X210745Y744534D01*
X210941Y744648D01*
X211140Y744758D01*
X211341Y744862D01*
X211545Y744962D01*
X211752Y745056D01*
X211960Y745146D01*
X212171Y745230D01*
X212384Y745309D01*
X212598Y745383D01*
X212815Y745452D01*
X213033Y745515D01*
X213252Y745573D01*
X213473Y745625D01*
X213695Y745672D01*
X213919Y745714D01*
X214143Y745750D01*
X214368Y745780D01*
X214593Y745805D01*
X214820Y745825D01*
X215046Y745839D01*
X215273Y745847D01*
X215500Y745850D01*
X215727Y745847D01*
X215954Y745839D01*
X216180Y745825D01*
X216407Y745805D01*
X216632Y745780D01*
X216857Y745750D01*
X217081Y745714D01*
X217305Y745672D01*
X217527Y745625D01*
X217748Y745573D01*
X217967Y745515D01*
X218185Y745452D01*
X218402Y745383D01*
X218616Y745309D01*
X218829Y745230D01*
X219040Y745146D01*
X219248Y745056D01*
X219455Y744962D01*
X219659Y744862D01*
X219860Y744758D01*
X220059Y744648D01*
X220255Y744534D01*
X220449Y744415D01*
X220639Y744291D01*
X220826Y744163D01*
X221010Y744030D01*
X221191Y743892D01*
X221368Y743750D01*
X221542Y743604D01*
X221712Y743454D01*
X221878Y743299D01*
X222041Y743141D01*
X222199Y742978D01*
X222354Y742812D01*
X222504Y742642D01*
X222650Y742468D01*
X222792Y742291D01*
X222930Y742110D01*
X223063Y741926D01*
X223191Y741739D01*
X223315Y741549D01*
X223434Y741355D01*
X223548Y741159D01*
X223658Y740960D01*
X223762Y740759D01*
X223862Y740555D01*
X223956Y740348D01*
X224046Y740140D01*
X224130Y739929D01*
X224209Y739716D01*
X224283Y739502D01*
X224352Y739285D01*
X224415Y739067D01*
X224473Y738848D01*
X224525Y738627D01*
X224572Y738405D01*
X224614Y738181D01*
X224650Y737957D01*
X224680Y737732D01*
X224705Y737507D01*
X224725Y737280D01*
X224739Y737054D01*
X224747Y736827D01*
X224750Y736600D01*
X224747Y736373D01*
X224739Y736146D01*
X224725Y735920D01*
X224705Y735693D01*
X224680Y735468D01*
X224650Y735243D01*
X224614Y735019D01*
X224572Y734795D01*
X224525Y734573D01*
X224473Y734352D01*
X224415Y734133D01*
X224352Y733915D01*
X224283Y733698D01*
X224209Y733484D01*
X224130Y733271D01*
X224046Y733060D01*
X223956Y732852D01*
X223862Y732645D01*
X223762Y732441D01*
X223658Y732240D01*
X223548Y732041D01*
X223434Y731845D01*
X223315Y731651D01*
X223191Y731461D01*
X223063Y731274D01*
X222930Y731090D01*
X222792Y730909D01*
X222650Y730732D01*
X222504Y730558D01*
X222354Y730388D01*
X222199Y730222D01*
X222041Y730059D01*
X221878Y729901D01*
X221712Y729746D01*
X221542Y729596D01*
X221368Y729450D01*
X221191Y729308D01*
X221010Y729170D01*
X220826Y729037D01*
X220639Y728909D01*
X220449Y728785D01*
X220255Y728666D01*
X220059Y728552D01*
X219860Y728442D01*
X219659Y728338D01*
X219455Y728238D01*
X219248Y728144D01*
X219040Y728054D01*
X218829Y727970D01*
X218616Y727891D01*
X218402Y727817D01*
X218185Y727748D01*
X217967Y727685D01*
X217748Y727627D01*
X217527Y727575D01*
X217305Y727528D01*
X217081Y727486D01*
X216857Y727450D01*
X216632Y727420D01*
X216407Y727395D01*
X216180Y727375D01*
X215954Y727361D01*
X215727Y727353D01*
X215500Y727350D01*
X215273Y727353D01*
X215046Y727361D01*
X214820Y727375D01*
X214593Y727395D01*
X214368Y727420D01*
X214143Y727450D01*
X213919Y727486D01*
X213695Y727528D01*
X213473Y727575D01*
X213252Y727627D01*
X213033Y727685D01*
X212815Y727748D01*
X212598Y727817D01*
X212384Y727891D01*
X212171Y727970D01*
X211960Y728054D01*
X211752Y728144D01*
X211545Y728238D01*
X211341Y728338D01*
X211140Y728442D01*
X210941Y728552D01*
X210745Y728666D01*
X210551Y728785D01*
X210361Y728909D01*
X210174Y729037D01*
X209990Y729170D01*
X209809Y729308D01*
X209632Y729450D01*
X209458Y729596D01*
X209288Y729746D01*
X209122Y729901D01*
X208959Y730059D01*
X208801Y730222D01*
X208646Y730388D01*
X208496Y730558D01*
X208350Y730732D01*
X208208Y730909D01*
X208070Y731090D01*
X207937Y731274D01*
X207809Y731461D01*
X207685Y731651D01*
X207566Y731845D01*
X207452Y732041D01*
X207342Y732240D01*
X207238Y732441D01*
X207138Y732645D01*
X207044Y732852D01*
X206954Y733060D01*
X206870Y733271D01*
X206791Y733484D01*
X206717Y733698D01*
X206648Y733915D01*
X206585Y734133D01*
X206527Y734352D01*
X206475Y734573D01*
X206428Y734795D01*
X206386Y735019D01*
X206350Y735243D01*
X206320Y735468D01*
X206295Y735693D01*
X206275Y735920D01*
X206261Y736146D01*
X206253Y736373D01*
X206250Y736600D01*
X156250Y736600D02*
X156253Y736827D01*
X156261Y737054D01*
X156275Y737280D01*
X156295Y737507D01*
X156320Y737732D01*
X156350Y737957D01*
X156386Y738181D01*
X156428Y738405D01*
X156475Y738627D01*
X156527Y738848D01*
X156585Y739067D01*
X156648Y739285D01*
X156717Y739502D01*
X156791Y739716D01*
X156870Y739929D01*
X156954Y740140D01*
X157044Y740348D01*
X157138Y740555D01*
X157238Y740759D01*
X157342Y740960D01*
X157452Y741159D01*
X157566Y741355D01*
X157685Y741549D01*
X157809Y741739D01*
X157937Y741926D01*
X158070Y742110D01*
X158208Y742291D01*
X158350Y742468D01*
X158496Y742642D01*
X158646Y742812D01*
X158801Y742978D01*
X158959Y743141D01*
X159122Y743299D01*
X159288Y743454D01*
X159458Y743604D01*
X159632Y743750D01*
X159809Y743892D01*
X159990Y744030D01*
X160174Y744163D01*
X160361Y744291D01*
X160551Y744415D01*
X160745Y744534D01*
X160941Y744648D01*
X161140Y744758D01*
X161341Y744862D01*
X161545Y744962D01*
X161752Y745056D01*
X161960Y745146D01*
X162171Y745230D01*
X162384Y745309D01*
X162598Y745383D01*
X162815Y745452D01*
X163033Y745515D01*
X163252Y745573D01*
X163473Y745625D01*
X163695Y745672D01*
X163919Y745714D01*
X164143Y745750D01*
X164368Y745780D01*
X164593Y745805D01*
X164820Y745825D01*
X165046Y745839D01*
X165273Y745847D01*
X165500Y745850D01*
X165727Y745847D01*
X165954Y745839D01*
X166180Y745825D01*
X166407Y745805D01*
X166632Y745780D01*
X166857Y745750D01*
X167081Y745714D01*
X167305Y745672D01*
X167527Y745625D01*
X167748Y745573D01*
X167967Y745515D01*
X168185Y745452D01*
X168402Y745383D01*
X168616Y745309D01*
X168829Y745230D01*
X169040Y745146D01*
X169248Y745056D01*
X169455Y744962D01*
X169659Y744862D01*
X169860Y744758D01*
X170059Y744648D01*
X170255Y744534D01*
X170449Y744415D01*
X170639Y744291D01*
X170826Y744163D01*
X171010Y744030D01*
X171191Y743892D01*
X171368Y743750D01*
X171542Y743604D01*
X171712Y743454D01*
X171878Y743299D01*
X172041Y743141D01*
X172199Y742978D01*
X172354Y742812D01*
X172504Y742642D01*
X172650Y742468D01*
X172792Y742291D01*
X172930Y742110D01*
X173063Y741926D01*
X173191Y741739D01*
X173315Y741549D01*
X173434Y741355D01*
X173548Y741159D01*
X173658Y740960D01*
X173762Y740759D01*
X173862Y740555D01*
X173956Y740348D01*
X174046Y740140D01*
X174130Y739929D01*
X174209Y739716D01*
X174283Y739502D01*
X174352Y739285D01*
X174415Y739067D01*
X174473Y738848D01*
X174525Y738627D01*
X174572Y738405D01*
X174614Y738181D01*
X174650Y737957D01*
X174680Y737732D01*
X174705Y737507D01*
X174725Y737280D01*
X174739Y737054D01*
X174747Y736827D01*
X174750Y736600D01*
X174747Y736373D01*
X174739Y736146D01*
X174725Y735920D01*
X174705Y735693D01*
X174680Y735468D01*
X174650Y735243D01*
X174614Y735019D01*
X174572Y734795D01*
X174525Y734573D01*
X174473Y734352D01*
X174415Y734133D01*
X174352Y733915D01*
X174283Y733698D01*
X174209Y733484D01*
X174130Y733271D01*
X174046Y733060D01*
X173956Y732852D01*
X173862Y732645D01*
X173762Y732441D01*
X173658Y732240D01*
X173548Y732041D01*
X173434Y731845D01*
X173315Y731651D01*
X173191Y731461D01*
X173063Y731274D01*
X172930Y731090D01*
X172792Y730909D01*
X172650Y730732D01*
X172504Y730558D01*
X172354Y730388D01*
X172199Y730222D01*
X172041Y730059D01*
X171878Y729901D01*
X171712Y729746D01*
X171542Y729596D01*
X171368Y729450D01*
X171191Y729308D01*
X171010Y729170D01*
X170826Y729037D01*
X170639Y728909D01*
X170449Y728785D01*
X170255Y728666D01*
X170059Y728552D01*
X169860Y728442D01*
X169659Y728338D01*
X169455Y728238D01*
X169248Y728144D01*
X169040Y728054D01*
X168829Y727970D01*
X168616Y727891D01*
X168402Y727817D01*
X168185Y727748D01*
X167967Y727685D01*
X167748Y727627D01*
X167527Y727575D01*
X167305Y727528D01*
X167081Y727486D01*
X166857Y727450D01*
X166632Y727420D01*
X166407Y727395D01*
X166180Y727375D01*
X165954Y727361D01*
X165727Y727353D01*
X165500Y727350D01*
X165273Y727353D01*
X165046Y727361D01*
X164820Y727375D01*
X164593Y727395D01*
X164368Y727420D01*
X164143Y727450D01*
X163919Y727486D01*
X163695Y727528D01*
X163473Y727575D01*
X163252Y727627D01*
X163033Y727685D01*
X162815Y727748D01*
X162598Y727817D01*
X162384Y727891D01*
X162171Y727970D01*
X161960Y728054D01*
X161752Y728144D01*
X161545Y728238D01*
X161341Y728338D01*
X161140Y728442D01*
X160941Y728552D01*
X160745Y728666D01*
X160551Y728785D01*
X160361Y728909D01*
X160174Y729037D01*
X159990Y729170D01*
X159809Y729308D01*
X159632Y729450D01*
X159458Y729596D01*
X159288Y729746D01*
X159122Y729901D01*
X158959Y730059D01*
X158801Y730222D01*
X158646Y730388D01*
X158496Y730558D01*
X158350Y730732D01*
X158208Y730909D01*
X158070Y731090D01*
X157937Y731274D01*
X157809Y731461D01*
X157685Y731651D01*
X157566Y731845D01*
X157452Y732041D01*
X157342Y732240D01*
X157238Y732441D01*
X157138Y732645D01*
X157044Y732852D01*
X156954Y733060D01*
X156870Y733271D01*
X156791Y733484D01*
X156717Y733698D01*
X156648Y733915D01*
X156585Y734133D01*
X156527Y734352D01*
X156475Y734573D01*
X156428Y734795D01*
X156386Y735019D01*
X156350Y735243D01*
X156320Y735468D01*
X156295Y735693D01*
X156275Y735920D01*
X156261Y736146D01*
X156253Y736373D01*
X156250Y736600D01*
X1078200Y457200D02*
X1078204Y457544D01*
X1078217Y457887D01*
X1078238Y458230D01*
X1078267Y458572D01*
X1078305Y458914D01*
X1078352Y459254D01*
X1078406Y459593D01*
X1078469Y459931D01*
X1078540Y460267D01*
X1078620Y460602D01*
X1078707Y460934D01*
X1078803Y461264D01*
X1078907Y461592D01*
X1079018Y461916D01*
X1079138Y462239D01*
X1079266Y462558D01*
X1079401Y462873D01*
X1079544Y463186D01*
X1079695Y463495D01*
X1079853Y463800D01*
X1080019Y464101D01*
X1080192Y464397D01*
X1080372Y464690D01*
X1080559Y464978D01*
X1080754Y465261D01*
X1080955Y465540D01*
X1081163Y465813D01*
X1081378Y466082D01*
X1081599Y466344D01*
X1081827Y466602D01*
X1082061Y466854D01*
X1082301Y467099D01*
X1082546Y467339D01*
X1082798Y467573D01*
X1083056Y467801D01*
X1083318Y468022D01*
X1083587Y468237D01*
X1083860Y468445D01*
X1084139Y468646D01*
X1084422Y468841D01*
X1084710Y469028D01*
X1085003Y469208D01*
X1085299Y469381D01*
X1085600Y469547D01*
X1085905Y469705D01*
X1086214Y469856D01*
X1086527Y469999D01*
X1086842Y470134D01*
X1087161Y470262D01*
X1087484Y470382D01*
X1087808Y470493D01*
X1088136Y470597D01*
X1088466Y470693D01*
X1088798Y470780D01*
X1089133Y470860D01*
X1089469Y470931D01*
X1089807Y470994D01*
X1090146Y471048D01*
X1090486Y471095D01*
X1090828Y471133D01*
X1091170Y471162D01*
X1091513Y471183D01*
X1091856Y471196D01*
X1092200Y471200D01*
X1092544Y471196D01*
X1092887Y471183D01*
X1093230Y471162D01*
X1093572Y471133D01*
X1093914Y471095D01*
X1094254Y471048D01*
X1094593Y470994D01*
X1094931Y470931D01*
X1095267Y470860D01*
X1095602Y470780D01*
X1095934Y470693D01*
X1096264Y470597D01*
X1096592Y470493D01*
X1096916Y470382D01*
X1097239Y470262D01*
X1097558Y470134D01*
X1097873Y469999D01*
X1098186Y469856D01*
X1098495Y469705D01*
X1098800Y469547D01*
X1099101Y469381D01*
X1099397Y469208D01*
X1099690Y469028D01*
X1099978Y468841D01*
X1100261Y468646D01*
X1100540Y468445D01*
X1100813Y468237D01*
X1101082Y468022D01*
X1101344Y467801D01*
X1101602Y467573D01*
X1101854Y467339D01*
X1102099Y467099D01*
X1102339Y466854D01*
X1102573Y466602D01*
X1102801Y466344D01*
X1103022Y466082D01*
X1103237Y465813D01*
X1103445Y465540D01*
X1103646Y465261D01*
X1103841Y464978D01*
X1104028Y464690D01*
X1104208Y464397D01*
X1104381Y464101D01*
X1104547Y463800D01*
X1104705Y463495D01*
X1104856Y463186D01*
X1104999Y462873D01*
X1105134Y462558D01*
X1105262Y462239D01*
X1105382Y461916D01*
X1105493Y461592D01*
X1105597Y461264D01*
X1105693Y460934D01*
X1105780Y460602D01*
X1105860Y460267D01*
X1105931Y459931D01*
X1105994Y459593D01*
X1106048Y459254D01*
X1106095Y458914D01*
X1106133Y458572D01*
X1106162Y458230D01*
X1106183Y457887D01*
X1106196Y457544D01*
X1106200Y457200D01*
X1106196Y456856D01*
X1106183Y456513D01*
X1106162Y456170D01*
X1106133Y455828D01*
X1106095Y455486D01*
X1106048Y455146D01*
X1105994Y454807D01*
X1105931Y454469D01*
X1105860Y454133D01*
X1105780Y453798D01*
X1105693Y453466D01*
X1105597Y453136D01*
X1105493Y452808D01*
X1105382Y452484D01*
X1105262Y452161D01*
X1105134Y451842D01*
X1104999Y451527D01*
X1104856Y451214D01*
X1104705Y450905D01*
X1104547Y450600D01*
X1104381Y450299D01*
X1104208Y450003D01*
X1104028Y449710D01*
X1103841Y449422D01*
X1103646Y449139D01*
X1103445Y448860D01*
X1103237Y448587D01*
X1103022Y448318D01*
X1102801Y448056D01*
X1102573Y447798D01*
X1102339Y447546D01*
X1102099Y447301D01*
X1101854Y447061D01*
X1101602Y446827D01*
X1101344Y446599D01*
X1101082Y446378D01*
X1100813Y446163D01*
X1100540Y445955D01*
X1100261Y445754D01*
X1099978Y445559D01*
X1099690Y445372D01*
X1099397Y445192D01*
X1099101Y445019D01*
X1098800Y444853D01*
X1098495Y444695D01*
X1098186Y444544D01*
X1097873Y444401D01*
X1097558Y444266D01*
X1097239Y444138D01*
X1096916Y444018D01*
X1096592Y443907D01*
X1096264Y443803D01*
X1095934Y443707D01*
X1095602Y443620D01*
X1095267Y443540D01*
X1094931Y443469D01*
X1094593Y443406D01*
X1094254Y443352D01*
X1093914Y443305D01*
X1093572Y443267D01*
X1093230Y443238D01*
X1092887Y443217D01*
X1092544Y443204D01*
X1092200Y443200D01*
X1091856Y443204D01*
X1091513Y443217D01*
X1091170Y443238D01*
X1090828Y443267D01*
X1090486Y443305D01*
X1090146Y443352D01*
X1089807Y443406D01*
X1089469Y443469D01*
X1089133Y443540D01*
X1088798Y443620D01*
X1088466Y443707D01*
X1088136Y443803D01*
X1087808Y443907D01*
X1087484Y444018D01*
X1087161Y444138D01*
X1086842Y444266D01*
X1086527Y444401D01*
X1086214Y444544D01*
X1085905Y444695D01*
X1085600Y444853D01*
X1085299Y445019D01*
X1085003Y445192D01*
X1084710Y445372D01*
X1084422Y445559D01*
X1084139Y445754D01*
X1083860Y445955D01*
X1083587Y446163D01*
X1083318Y446378D01*
X1083056Y446599D01*
X1082798Y446827D01*
X1082546Y447061D01*
X1082301Y447301D01*
X1082061Y447546D01*
X1081827Y447798D01*
X1081599Y448056D01*
X1081378Y448318D01*
X1081163Y448587D01*
X1080955Y448860D01*
X1080754Y449139D01*
X1080559Y449422D01*
X1080372Y449710D01*
X1080192Y450003D01*
X1080019Y450299D01*
X1079853Y450600D01*
X1079695Y450905D01*
X1079544Y451214D01*
X1079401Y451527D01*
X1079266Y451842D01*
X1079138Y452161D01*
X1079018Y452484D01*
X1078907Y452808D01*
X1078803Y453136D01*
X1078707Y453466D01*
X1078620Y453798D01*
X1078540Y454133D01*
X1078469Y454469D01*
X1078406Y454807D01*
X1078352Y455146D01*
X1078305Y455486D01*
X1078267Y455828D01*
X1078238Y456170D01*
X1078217Y456513D01*
X1078204Y456856D01*
X1078200Y457200D01*
X824200Y609600D02*
X824204Y609944D01*
X824217Y610287D01*
X824238Y610630D01*
X824267Y610972D01*
X824305Y611314D01*
X824352Y611654D01*
X824406Y611993D01*
X824469Y612331D01*
X824540Y612667D01*
X824620Y613002D01*
X824707Y613334D01*
X824803Y613664D01*
X824907Y613992D01*
X825018Y614316D01*
X825138Y614639D01*
X825266Y614958D01*
X825401Y615273D01*
X825544Y615586D01*
X825695Y615895D01*
X825853Y616200D01*
X826019Y616501D01*
X826192Y616797D01*
X826372Y617090D01*
X826559Y617378D01*
X826754Y617661D01*
X826955Y617940D01*
X827163Y618213D01*
X827378Y618482D01*
X827599Y618744D01*
X827827Y619002D01*
X828061Y619254D01*
X828301Y619499D01*
X828546Y619739D01*
X828798Y619973D01*
X829056Y620201D01*
X829318Y620422D01*
X829587Y620637D01*
X829860Y620845D01*
X830139Y621046D01*
X830422Y621241D01*
X830710Y621428D01*
X831003Y621608D01*
X831299Y621781D01*
X831600Y621947D01*
X831905Y622105D01*
X832214Y622256D01*
X832527Y622399D01*
X832842Y622534D01*
X833161Y622662D01*
X833484Y622782D01*
X833808Y622893D01*
X834136Y622997D01*
X834466Y623093D01*
X834798Y623180D01*
X835133Y623260D01*
X835469Y623331D01*
X835807Y623394D01*
X836146Y623448D01*
X836486Y623495D01*
X836828Y623533D01*
X837170Y623562D01*
X837513Y623583D01*
X837856Y623596D01*
X838200Y623600D01*
X838544Y623596D01*
X838887Y623583D01*
X839230Y623562D01*
X839572Y623533D01*
X839914Y623495D01*
X840254Y623448D01*
X840593Y623394D01*
X840931Y623331D01*
X841267Y623260D01*
X841602Y623180D01*
X841934Y623093D01*
X842264Y622997D01*
X842592Y622893D01*
X842916Y622782D01*
X843239Y622662D01*
X843558Y622534D01*
X843873Y622399D01*
X844186Y622256D01*
X844495Y622105D01*
X844800Y621947D01*
X845101Y621781D01*
X845397Y621608D01*
X845690Y621428D01*
X845978Y621241D01*
X846261Y621046D01*
X846540Y620845D01*
X846813Y620637D01*
X847082Y620422D01*
X847344Y620201D01*
X847602Y619973D01*
X847854Y619739D01*
X848099Y619499D01*
X848339Y619254D01*
X848573Y619002D01*
X848801Y618744D01*
X849022Y618482D01*
X849237Y618213D01*
X849445Y617940D01*
X849646Y617661D01*
X849841Y617378D01*
X850028Y617090D01*
X850208Y616797D01*
X850381Y616501D01*
X850547Y616200D01*
X850705Y615895D01*
X850856Y615586D01*
X850999Y615273D01*
X851134Y614958D01*
X851262Y614639D01*
X851382Y614316D01*
X851493Y613992D01*
X851597Y613664D01*
X851693Y613334D01*
X851780Y613002D01*
X851860Y612667D01*
X851931Y612331D01*
X851994Y611993D01*
X852048Y611654D01*
X852095Y611314D01*
X852133Y610972D01*
X852162Y610630D01*
X852183Y610287D01*
X852196Y609944D01*
X852200Y609600D01*
X852196Y609256D01*
X852183Y608913D01*
X852162Y608570D01*
X852133Y608228D01*
X852095Y607886D01*
X852048Y607546D01*
X851994Y607207D01*
X851931Y606869D01*
X851860Y606533D01*
X851780Y606198D01*
X851693Y605866D01*
X851597Y605536D01*
X851493Y605208D01*
X851382Y604884D01*
X851262Y604561D01*
X851134Y604242D01*
X850999Y603927D01*
X850856Y603614D01*
X850705Y603305D01*
X850547Y603000D01*
X850381Y602699D01*
X850208Y602403D01*
X850028Y602110D01*
X849841Y601822D01*
X849646Y601539D01*
X849445Y601260D01*
X849237Y600987D01*
X849022Y600718D01*
X848801Y600456D01*
X848573Y600198D01*
X848339Y599946D01*
X848099Y599701D01*
X847854Y599461D01*
X847602Y599227D01*
X847344Y598999D01*
X847082Y598778D01*
X846813Y598563D01*
X846540Y598355D01*
X846261Y598154D01*
X845978Y597959D01*
X845690Y597772D01*
X845397Y597592D01*
X845101Y597419D01*
X844800Y597253D01*
X844495Y597095D01*
X844186Y596944D01*
X843873Y596801D01*
X843558Y596666D01*
X843239Y596538D01*
X842916Y596418D01*
X842592Y596307D01*
X842264Y596203D01*
X841934Y596107D01*
X841602Y596020D01*
X841267Y595940D01*
X840931Y595869D01*
X840593Y595806D01*
X840254Y595752D01*
X839914Y595705D01*
X839572Y595667D01*
X839230Y595638D01*
X838887Y595617D01*
X838544Y595604D01*
X838200Y595600D01*
X837856Y595604D01*
X837513Y595617D01*
X837170Y595638D01*
X836828Y595667D01*
X836486Y595705D01*
X836146Y595752D01*
X835807Y595806D01*
X835469Y595869D01*
X835133Y595940D01*
X834798Y596020D01*
X834466Y596107D01*
X834136Y596203D01*
X833808Y596307D01*
X833484Y596418D01*
X833161Y596538D01*
X832842Y596666D01*
X832527Y596801D01*
X832214Y596944D01*
X831905Y597095D01*
X831600Y597253D01*
X831299Y597419D01*
X831003Y597592D01*
X830710Y597772D01*
X830422Y597959D01*
X830139Y598154D01*
X829860Y598355D01*
X829587Y598563D01*
X829318Y598778D01*
X829056Y598999D01*
X828798Y599227D01*
X828546Y599461D01*
X828301Y599701D01*
X828061Y599946D01*
X827827Y600198D01*
X827599Y600456D01*
X827378Y600718D01*
X827163Y600987D01*
X826955Y601260D01*
X826754Y601539D01*
X826559Y601822D01*
X826372Y602110D01*
X826192Y602403D01*
X826019Y602699D01*
X825853Y603000D01*
X825695Y603305D01*
X825544Y603614D01*
X825401Y603927D01*
X825266Y604242D01*
X825138Y604561D01*
X825018Y604884D01*
X824907Y605208D01*
X824803Y605536D01*
X824707Y605866D01*
X824620Y606198D01*
X824540Y606533D01*
X824469Y606869D01*
X824406Y607207D01*
X824352Y607546D01*
X824305Y607886D01*
X824267Y608228D01*
X824238Y608570D01*
X824217Y608913D01*
X824204Y609256D01*
X824200Y609600D01*
D11*
X0Y0D02*
X1139700Y0D01*
X1139700Y761900D01*
X0Y761900D01*
X0Y0D01*
X61200Y506800D02*
X91200Y506800D01*
X91200Y514800D01*
X61200Y514800D01*
X61200Y506800D01*
X42200Y543800D02*
X50200Y543800D01*
X50200Y573800D01*
X42200Y573800D01*
X42200Y543800D01*
X101200Y541300D02*
X111200Y541300D01*
X111200Y576300D01*
X101200Y576300D01*
X101200Y541300D01*
X409280Y550840D02*
X425280Y550840D01*
X425280Y571840D01*
X409280Y571840D01*
X409280Y550840D01*
X499280Y550840D02*
X515280Y550840D01*
X515280Y571840D01*
X499280Y571840D01*
X499280Y550840D01*
X346880Y550840D02*
X362880Y550840D01*
X362880Y571840D01*
X346880Y571840D01*
X346880Y550840D01*
X256880Y550840D02*
X272880Y550840D01*
X272880Y571840D01*
X256880Y571840D01*
X256880Y550840D01*
X64800Y50300D02*
X64729Y49303D01*
X64586Y48313D01*
X64374Y47336D01*
X64092Y46376D01*
X63743Y45439D01*
X63327Y44529D01*
X62848Y43652D01*
X62307Y42810D01*
X61708Y42010D01*
X61053Y41254D01*
X60346Y40547D01*
X59590Y39892D01*
X58790Y39293D01*
X57948Y38752D01*
X57071Y38273D01*
X56161Y37857D01*
X55224Y37508D01*
X54265Y37226D01*
X53287Y37014D01*
X52298Y36871D01*
X51300Y36800D01*
X50300Y36800D01*
X49303Y36871D01*
X48313Y37014D01*
X47336Y37226D01*
X46376Y37508D01*
X45439Y37857D01*
X44529Y38273D01*
X43652Y38752D01*
X42810Y39293D01*
X42010Y39892D01*
X41254Y40547D01*
X40547Y41254D01*
X39892Y42010D01*
X39293Y42810D01*
X38752Y43652D01*
X38273Y44529D01*
X37857Y45439D01*
X37508Y46376D01*
X37226Y47336D01*
X37014Y48313D01*
X36871Y49303D01*
X36800Y50300D01*
X36800Y51300D01*
X36871Y52298D01*
X37014Y53287D01*
X37226Y54265D01*
X37508Y55224D01*
X37857Y56161D01*
X38273Y57071D01*
X38752Y57948D01*
X39293Y58790D01*
X39892Y59590D01*
X40547Y60346D01*
X41254Y61053D01*
X42010Y61708D01*
X42810Y62307D01*
X43652Y62848D01*
X44529Y63327D01*
X45439Y63743D01*
X46376Y64092D01*
X47336Y64374D01*
X48313Y64586D01*
X49303Y64729D01*
X50300Y64800D01*
X51300Y64800D01*
X52298Y64729D01*
X53287Y64586D01*
X54265Y64374D01*
X55224Y64092D01*
X56161Y63743D01*
X57071Y63327D01*
X57948Y62848D01*
X58790Y62307D01*
X59590Y61708D01*
X60346Y61053D01*
X61053Y60346D01*
X61708Y59590D01*
X62307Y58790D01*
X62848Y57948D01*
X63327Y57071D01*
X63743Y56161D01*
X64092Y55224D01*
X64374Y54265D01*
X64586Y53287D01*
X64729Y52298D01*
X64800Y51300D01*
X64800Y50300D01*
X1106200Y710700D02*
X1106129Y709703D01*
X1105986Y708713D01*
X1105774Y707736D01*
X1105492Y706776D01*
X1105143Y705839D01*
X1104727Y704929D01*
X1104248Y704052D01*
X1103707Y703210D01*
X1103108Y702410D01*
X1102453Y701654D01*
X1101746Y700947D01*
X1100990Y700292D01*
X1100190Y699693D01*
X1099348Y699152D01*
X1098471Y698673D01*
X1097561Y698257D01*
X1096624Y697908D01*
X1095665Y697626D01*
X1094687Y697414D01*
X1093698Y697271D01*
X1092700Y697200D01*
X1091700Y697200D01*
X1090703Y697271D01*
X1089713Y697414D01*
X1088736Y697626D01*
X1087776Y697908D01*
X1086839Y698257D01*
X1085929Y698673D01*
X1085052Y699152D01*
X1084210Y699693D01*
X1083410Y700292D01*
X1082654Y700947D01*
X1081947Y701654D01*
X1081292Y702410D01*
X1080693Y703210D01*
X1080152Y704052D01*
X1079673Y704929D01*
X1079257Y705839D01*
X1078908Y706776D01*
X1078626Y707736D01*
X1078414Y708713D01*
X1078271Y709703D01*
X1078200Y710700D01*
X1078200Y711700D01*
X1078271Y712698D01*
X1078414Y713687D01*
X1078626Y714665D01*
X1078908Y715624D01*
X1079257Y716561D01*
X1079673Y717471D01*
X1080152Y718348D01*
X1080693Y719190D01*
X1081292Y719990D01*
X1081947Y720746D01*
X1082654Y721453D01*
X1083410Y722108D01*
X1084210Y722707D01*
X1085052Y723248D01*
X1085929Y723727D01*
X1086839Y724143D01*
X1087776Y724492D01*
X1088736Y724774D01*
X1089713Y724986D01*
X1090703Y725129D01*
X1091700Y725200D01*
X1092700Y725200D01*
X1093698Y725129D01*
X1094687Y724986D01*
X1095665Y724774D01*
X1096624Y724492D01*
X1097561Y724143D01*
X1098471Y723727D01*
X1099348Y723248D01*
X1100190Y722707D01*
X1100990Y722108D01*
X1101746Y721453D01*
X1102453Y720746D01*
X1103108Y719990D01*
X1103707Y719190D01*
X1104248Y718348D01*
X1104727Y717471D01*
X1105143Y716561D01*
X1105492Y715624D01*
X1105774Y714665D01*
X1105986Y713687D01*
X1106129Y712698D01*
X1106200Y711700D01*
X1106200Y710700D01*
X1106200Y50300D02*
X1106129Y49303D01*
X1105986Y48313D01*
X1105774Y47336D01*
X1105492Y46376D01*
X1105143Y45439D01*
X1104727Y44529D01*
X1104248Y43652D01*
X1103707Y42810D01*
X1103108Y42010D01*
X1102453Y41254D01*
X1101746Y40547D01*
X1100990Y39892D01*
X1100190Y39293D01*
X1099348Y38752D01*
X1098471Y38273D01*
X1097561Y37857D01*
X1096624Y37508D01*
X1095665Y37226D01*
X1094687Y37014D01*
X1093698Y36871D01*
X1092700Y36800D01*
X1091700Y36800D01*
X1090703Y36871D01*
X1089713Y37014D01*
X1088736Y37226D01*
X1087776Y37508D01*
X1086839Y37857D01*
X1085929Y38273D01*
X1085052Y38752D01*
X1084210Y39293D01*
X1083410Y39892D01*
X1082654Y40547D01*
X1081947Y41254D01*
X1081292Y42010D01*
X1080693Y42810D01*
X1080152Y43652D01*
X1079673Y44529D01*
X1079257Y45439D01*
X1078908Y46376D01*
X1078626Y47336D01*
X1078414Y48313D01*
X1078271Y49303D01*
X1078200Y50300D01*
X1078200Y51300D01*
X1078271Y52298D01*
X1078414Y53287D01*
X1078626Y54265D01*
X1078908Y55224D01*
X1079257Y56161D01*
X1079673Y57071D01*
X1080152Y57948D01*
X1080693Y58790D01*
X1081292Y59590D01*
X1081947Y60346D01*
X1082654Y61053D01*
X1083410Y61708D01*
X1084210Y62307D01*
X1085052Y62848D01*
X1085929Y63327D01*
X1086839Y63743D01*
X1087776Y64092D01*
X1088736Y64374D01*
X1089713Y64586D01*
X1090703Y64729D01*
X1091700Y64800D01*
X1092700Y64800D01*
X1093698Y64729D01*
X1094687Y64586D01*
X1095665Y64374D01*
X1096624Y64092D01*
X1097561Y63743D01*
X1098471Y63327D01*
X1099348Y62848D01*
X1100190Y62307D01*
X1100990Y61708D01*
X1101746Y61053D01*
X1102453Y60346D01*
X1103108Y59590D01*
X1103707Y58790D01*
X1104248Y57948D01*
X1104727Y57071D01*
X1105143Y56161D01*
X1105492Y55224D01*
X1105774Y54265D01*
X1105986Y53287D01*
X1106129Y52298D01*
X1106200Y51300D01*
X1106200Y50300D01*
X64800Y710700D02*
X64729Y709703D01*
X64586Y708713D01*
X64374Y707736D01*
X64092Y706776D01*
X63743Y705839D01*
X63327Y704929D01*
X62848Y704052D01*
X62307Y703210D01*
X61708Y702410D01*
X61053Y701654D01*
X60346Y700947D01*
X59590Y700292D01*
X58790Y699693D01*
X57948Y699152D01*
X57071Y698673D01*
X56161Y698257D01*
X55224Y697908D01*
X54265Y697626D01*
X53287Y697414D01*
X52298Y697271D01*
X51300Y697200D01*
X50300Y697200D01*
X49303Y697271D01*
X48313Y697414D01*
X47336Y697626D01*
X46376Y697908D01*
X45439Y698257D01*
X44529Y698673D01*
X43652Y699152D01*
X42810Y699693D01*
X42010Y700292D01*
X41254Y700947D01*
X40547Y701654D01*
X39892Y702410D01*
X39293Y703210D01*
X38752Y704052D01*
X38273Y704929D01*
X37857Y705839D01*
X37508Y706776D01*
X37226Y707736D01*
X37014Y708713D01*
X36871Y709703D01*
X36800Y710700D01*
X36800Y711700D01*
X36871Y712698D01*
X37014Y713687D01*
X37226Y714665D01*
X37508Y715624D01*
X37857Y716561D01*
X38273Y717471D01*
X38752Y718348D01*
X39293Y719190D01*
X39892Y719990D01*
X40547Y720746D01*
X41254Y721453D01*
X42010Y722108D01*
X42810Y722707D01*
X43652Y723248D01*
X44529Y723727D01*
X45439Y724143D01*
X46376Y724492D01*
X47336Y724774D01*
X48313Y724986D01*
X49303Y725129D01*
X50300Y725200D01*
X51300Y725200D01*
X52298Y725129D01*
X53287Y724986D01*
X54265Y724774D01*
X55224Y724492D01*
X56161Y724143D01*
X57071Y723727D01*
X57948Y723248D01*
X58790Y722707D01*
X59590Y722108D01*
X60346Y721453D01*
X61053Y720746D01*
X61708Y719990D01*
X62307Y719190D01*
X62848Y718348D01*
X63327Y717471D01*
X63743Y716561D01*
X64092Y715624D01*
X64374Y714665D01*
X64586Y713687D01*
X64729Y712698D01*
X64800Y711700D01*
X64800Y710700D01*
X565350Y710921D02*
X565277Y710369D01*
X565133Y709831D01*
X564920Y709316D01*
X564641Y708834D01*
X564302Y708392D01*
X563908Y707998D01*
X563466Y707659D01*
X562984Y707380D01*
X562469Y707167D01*
X561931Y707023D01*
X561379Y706950D01*
X560821Y706950D01*
X560269Y707023D01*
X559731Y707167D01*
X559216Y707380D01*
X558734Y707659D01*
X558292Y707998D01*
X557898Y708392D01*
X557559Y708834D01*
X557280Y709316D01*
X557067Y709831D01*
X556923Y710369D01*
X556850Y710921D01*
X556850Y711479D01*
X556923Y712031D01*
X557067Y712569D01*
X557280Y713084D01*
X557559Y713566D01*
X557898Y714008D01*
X558292Y714402D01*
X558734Y714741D01*
X559216Y715020D01*
X559731Y715233D01*
X560269Y715377D01*
X560821Y715450D01*
X561379Y715450D01*
X561931Y715377D01*
X562469Y715233D01*
X562984Y715020D01*
X563466Y714741D01*
X563908Y714402D01*
X564302Y714008D01*
X564641Y713566D01*
X564920Y713084D01*
X565133Y712569D01*
X565277Y712031D01*
X565350Y711479D01*
X565350Y710921D01*
X535350Y710921D02*
X535277Y710369D01*
X535133Y709831D01*
X534920Y709316D01*
X534641Y708834D01*
X534302Y708392D01*
X533908Y707998D01*
X533466Y707659D01*
X532984Y707380D01*
X532469Y707167D01*
X531931Y707023D01*
X531379Y706950D01*
X530821Y706950D01*
X530269Y707023D01*
X529731Y707167D01*
X529216Y707380D01*
X528734Y707659D01*
X528292Y707998D01*
X527898Y708392D01*
X527559Y708834D01*
X527280Y709316D01*
X527067Y709831D01*
X526923Y710369D01*
X526850Y710921D01*
X526850Y711479D01*
X526923Y712031D01*
X527067Y712569D01*
X527280Y713084D01*
X527559Y713566D01*
X527898Y714008D01*
X528292Y714402D01*
X528734Y714741D01*
X529216Y715020D01*
X529731Y715233D01*
X530269Y715377D01*
X530821Y715450D01*
X531379Y715450D01*
X531931Y715377D01*
X532469Y715233D01*
X532984Y715020D01*
X533466Y714741D01*
X533908Y714402D01*
X534302Y714008D01*
X534641Y713566D01*
X534920Y713084D01*
X535133Y712569D01*
X535277Y712031D01*
X535350Y711479D01*
X535350Y710921D01*
X412950Y710921D02*
X412877Y710369D01*
X412733Y709831D01*
X412520Y709316D01*
X412241Y708834D01*
X411902Y708392D01*
X411508Y707998D01*
X411066Y707659D01*
X410584Y707380D01*
X410069Y707167D01*
X409531Y707023D01*
X408979Y706950D01*
X408421Y706950D01*
X407869Y707023D01*
X407331Y707167D01*
X406816Y707380D01*
X406334Y707659D01*
X405892Y707998D01*
X405498Y708392D01*
X405159Y708834D01*
X404880Y709316D01*
X404667Y709831D01*
X404523Y710369D01*
X404450Y710921D01*
X404450Y711479D01*
X404523Y712031D01*
X404667Y712569D01*
X404880Y713084D01*
X405159Y713566D01*
X405498Y714008D01*
X405892Y714402D01*
X406334Y714741D01*
X406816Y715020D01*
X407331Y715233D01*
X407869Y715377D01*
X408421Y715450D01*
X408979Y715450D01*
X409531Y715377D01*
X410069Y715233D01*
X410584Y715020D01*
X411066Y714741D01*
X411508Y714402D01*
X411902Y714008D01*
X412241Y713566D01*
X412520Y713084D01*
X412733Y712569D01*
X412877Y712031D01*
X412950Y711479D01*
X412950Y710921D01*
X382950Y710921D02*
X382877Y710369D01*
X382733Y709831D01*
X382520Y709316D01*
X382241Y708834D01*
X381902Y708392D01*
X381508Y707998D01*
X381066Y707659D01*
X380584Y707380D01*
X380069Y707167D01*
X379531Y707023D01*
X378979Y706950D01*
X378421Y706950D01*
X377869Y707023D01*
X377331Y707167D01*
X376816Y707380D01*
X376334Y707659D01*
X375892Y707998D01*
X375498Y708392D01*
X375159Y708834D01*
X374880Y709316D01*
X374667Y709831D01*
X374523Y710369D01*
X374450Y710921D01*
X374450Y711479D01*
X374523Y712031D01*
X374667Y712569D01*
X374880Y713084D01*
X375159Y713566D01*
X375498Y714008D01*
X375892Y714402D01*
X376334Y714741D01*
X376816Y715020D01*
X377331Y715233D01*
X377869Y715377D01*
X378421Y715450D01*
X378979Y715450D01*
X379531Y715377D01*
X380069Y715233D01*
X380584Y715020D01*
X381066Y714741D01*
X381508Y714402D01*
X381902Y714008D01*
X382241Y713566D01*
X382520Y713084D01*
X382733Y712569D01*
X382877Y712031D01*
X382950Y711479D01*
X382950Y710921D01*
X717750Y710921D02*
X717677Y710369D01*
X717533Y709831D01*
X717320Y709316D01*
X717041Y708834D01*
X716702Y708392D01*
X716308Y707998D01*
X715866Y707659D01*
X715384Y707380D01*
X714869Y707167D01*
X714331Y707023D01*
X713779Y706950D01*
X713221Y706950D01*
X712669Y707023D01*
X712131Y707167D01*
X711616Y707380D01*
X711134Y707659D01*
X710692Y707998D01*
X710298Y708392D01*
X709959Y708834D01*
X709680Y709316D01*
X709467Y709831D01*
X709323Y710369D01*
X709250Y710921D01*
X709250Y711479D01*
X709323Y712031D01*
X709467Y712569D01*
X709680Y713084D01*
X709959Y713566D01*
X710298Y714008D01*
X710692Y714402D01*
X711134Y714741D01*
X711616Y715020D01*
X712131Y715233D01*
X712669Y715377D01*
X713221Y715450D01*
X713779Y715450D01*
X714331Y715377D01*
X714869Y715233D01*
X715384Y715020D01*
X715866Y714741D01*
X716308Y714402D01*
X716702Y714008D01*
X717041Y713566D01*
X717320Y713084D01*
X717533Y712569D01*
X717677Y712031D01*
X717750Y711479D01*
X717750Y710921D01*
X687750Y710921D02*
X687677Y710369D01*
X687533Y709831D01*
X687320Y709316D01*
X687041Y708834D01*
X686702Y708392D01*
X686308Y707998D01*
X685866Y707659D01*
X685384Y707380D01*
X684869Y707167D01*
X684331Y707023D01*
X683779Y706950D01*
X683221Y706950D01*
X682669Y707023D01*
X682131Y707167D01*
X681616Y707380D01*
X681134Y707659D01*
X680692Y707998D01*
X680298Y708392D01*
X679959Y708834D01*
X679680Y709316D01*
X679467Y709831D01*
X679323Y710369D01*
X679250Y710921D01*
X679250Y711479D01*
X679323Y712031D01*
X679467Y712569D01*
X679680Y713084D01*
X679959Y713566D01*
X680298Y714008D01*
X680692Y714402D01*
X681134Y714741D01*
X681616Y715020D01*
X682131Y715233D01*
X682669Y715377D01*
X683221Y715450D01*
X683779Y715450D01*
X684331Y715377D01*
X684869Y715233D01*
X685384Y715020D01*
X685866Y714741D01*
X686308Y714402D01*
X686702Y714008D01*
X687041Y713566D01*
X687320Y713084D01*
X687533Y712569D01*
X687677Y712031D01*
X687750Y711479D01*
X687750Y710921D01*
X224750Y736196D02*
X224680Y735391D01*
X224539Y734596D01*
X224330Y733816D01*
X224054Y733057D01*
X223713Y732325D01*
X223309Y731625D01*
X222846Y730964D01*
X222326Y730345D01*
X221755Y729774D01*
X221136Y729255D01*
X220475Y728791D01*
X219775Y728387D01*
X219043Y728046D01*
X218284Y727770D01*
X217504Y727561D01*
X216709Y727420D01*
X215904Y727350D01*
X215096Y727350D01*
X214291Y727420D01*
X213496Y727561D01*
X212716Y727770D01*
X211957Y728046D01*
X211225Y728387D01*
X210525Y728791D01*
X209864Y729255D01*
X209245Y729774D01*
X208674Y730345D01*
X208155Y730964D01*
X207691Y731625D01*
X207287Y732325D01*
X206946Y733057D01*
X206670Y733816D01*
X206461Y734596D01*
X206320Y735391D01*
X206250Y736196D01*
X206250Y737004D01*
X206320Y737809D01*
X206461Y738604D01*
X206670Y739384D01*
X206946Y740143D01*
X207287Y740875D01*
X207691Y741575D01*
X208155Y742236D01*
X208674Y742855D01*
X209245Y743426D01*
X209864Y743946D01*
X210525Y744409D01*
X211225Y744813D01*
X211957Y745154D01*
X212716Y745430D01*
X213496Y745639D01*
X214291Y745780D01*
X215096Y745850D01*
X215904Y745850D01*
X216709Y745780D01*
X217504Y745639D01*
X218284Y745430D01*
X219043Y745154D01*
X219775Y744813D01*
X220475Y744409D01*
X221136Y743946D01*
X221755Y743426D01*
X222326Y742855D01*
X222846Y742236D01*
X223309Y741575D01*
X223713Y740875D01*
X224054Y740143D01*
X224330Y739384D01*
X224539Y738604D01*
X224680Y737809D01*
X224750Y737004D01*
X224750Y736196D01*
X174750Y736196D02*
X174680Y735391D01*
X174539Y734596D01*
X174330Y733816D01*
X174054Y733057D01*
X173713Y732325D01*
X173309Y731625D01*
X172846Y730964D01*
X172326Y730345D01*
X171755Y729774D01*
X171136Y729255D01*
X170475Y728791D01*
X169775Y728387D01*
X169043Y728046D01*
X168284Y727770D01*
X167504Y727561D01*
X166709Y727420D01*
X165904Y727350D01*
X165096Y727350D01*
X164291Y727420D01*
X163496Y727561D01*
X162716Y727770D01*
X161957Y728046D01*
X161225Y728387D01*
X160525Y728791D01*
X159864Y729255D01*
X159245Y729774D01*
X158674Y730345D01*
X158155Y730964D01*
X157691Y731625D01*
X157287Y732325D01*
X156946Y733057D01*
X156670Y733816D01*
X156461Y734596D01*
X156320Y735391D01*
X156250Y736196D01*
X156250Y737004D01*
X156320Y737809D01*
X156461Y738604D01*
X156670Y739384D01*
X156946Y740143D01*
X157287Y740875D01*
X157691Y741575D01*
X158155Y742236D01*
X158674Y742855D01*
X159245Y743426D01*
X159864Y743946D01*
X160525Y744409D01*
X161225Y744813D01*
X161957Y745154D01*
X162716Y745430D01*
X163496Y745639D01*
X164291Y745780D01*
X165096Y745850D01*
X165904Y745850D01*
X166709Y745780D01*
X167504Y745639D01*
X168284Y745430D01*
X169043Y745154D01*
X169775Y744813D01*
X170475Y744409D01*
X171136Y743946D01*
X171755Y743426D01*
X172326Y742855D01*
X172846Y742236D01*
X173309Y741575D01*
X173713Y740875D01*
X174054Y740143D01*
X174330Y739384D01*
X174539Y738604D01*
X174680Y737809D01*
X174750Y737004D01*
X174750Y736196D01*
X1106200Y456700D02*
X1106129Y455703D01*
X1105986Y454713D01*
X1105774Y453736D01*
X1105492Y452776D01*
X1105143Y451839D01*
X1104727Y450929D01*
X1104248Y450052D01*
X1103707Y449210D01*
X1103108Y448410D01*
X1102453Y447654D01*
X1101746Y446947D01*
X1100990Y446292D01*
X1100190Y445693D01*
X1099348Y445152D01*
X1098471Y444673D01*
X1097561Y444257D01*
X1096624Y443908D01*
X1095665Y443626D01*
X1094687Y443414D01*
X1093698Y443271D01*
X1092700Y443200D01*
X1091700Y443200D01*
X1090703Y443271D01*
X1089713Y443414D01*
X1088736Y443626D01*
X1087776Y443908D01*
X1086839Y444257D01*
X1085929Y444673D01*
X1085052Y445152D01*
X1084210Y445693D01*
X1083410Y446292D01*
X1082654Y446947D01*
X1081947Y447654D01*
X1081292Y448410D01*
X1080693Y449210D01*
X1080152Y450052D01*
X1079673Y450929D01*
X1079257Y451839D01*
X1078908Y452776D01*
X1078626Y453736D01*
X1078414Y454713D01*
X1078271Y455703D01*
X1078200Y456700D01*
X1078200Y457700D01*
X1078271Y458698D01*
X1078414Y459687D01*
X1078626Y460665D01*
X1078908Y461624D01*
X1079257Y462561D01*
X1079673Y463471D01*
X1080152Y464348D01*
X1080693Y465190D01*
X1081292Y465990D01*
X1081947Y466746D01*
X1082654Y467453D01*
X1083410Y468108D01*
X1084210Y468707D01*
X1085052Y469248D01*
X1085929Y469727D01*
X1086839Y470143D01*
X1087776Y470492D01*
X1088736Y470774D01*
X1089713Y470986D01*
X1090703Y471129D01*
X1091700Y471200D01*
X1092700Y471200D01*
X1093698Y471129D01*
X1094687Y470986D01*
X1095665Y470774D01*
X1096624Y470492D01*
X1097561Y470143D01*
X1098471Y469727D01*
X1099348Y469248D01*
X1100190Y468707D01*
X1100990Y468108D01*
X1101746Y467453D01*
X1102453Y466746D01*
X1103108Y465990D01*
X1103707Y465190D01*
X1104248Y464348D01*
X1104727Y463471D01*
X1105143Y462561D01*
X1105492Y461624D01*
X1105774Y460665D01*
X1105986Y459687D01*
X1106129Y458698D01*
X1106200Y457700D01*
X1106200Y456700D01*
X852200Y609100D02*
X852129Y608103D01*
X851986Y607113D01*
X851774Y606136D01*
X851492Y605176D01*
X851143Y604239D01*
X850727Y603329D01*
X850248Y602452D01*
X849707Y601610D01*
X849108Y600810D01*
X848453Y600054D01*
X847746Y599347D01*
X846990Y598692D01*
X846190Y598093D01*
X845348Y597552D01*
X844471Y597073D01*
X843561Y596657D01*
X842624Y596308D01*
X841665Y596026D01*
X840687Y595814D01*
X839698Y595671D01*
X838700Y595600D01*
X837700Y595600D01*
X836703Y595671D01*
X835713Y595814D01*
X834736Y596026D01*
X833776Y596308D01*
X832839Y596657D01*
X831929Y597073D01*
X831052Y597552D01*
X830210Y598093D01*
X829410Y598692D01*
X828654Y599347D01*
X827947Y600054D01*
X827292Y600810D01*
X826693Y601610D01*
X826152Y602452D01*
X825673Y603329D01*
X825257Y604239D01*
X824908Y605176D01*
X824626Y606136D01*
X824414Y607113D01*
X824271Y608103D01*
X824200Y609100D01*
X824200Y610100D01*
X824271Y611098D01*
X824414Y612087D01*
X824626Y613065D01*
X824908Y614024D01*
X825257Y614961D01*
X825673Y615871D01*
X826152Y616748D01*
X826693Y617590D01*
X827292Y618390D01*
X827947Y619146D01*
X828654Y619853D01*
X829410Y620508D01*
X830210Y621107D01*
X831052Y621648D01*
X831929Y622127D01*
X832839Y622543D01*
X833776Y622892D01*
X834736Y623174D01*
X835713Y623386D01*
X836703Y623529D01*
X837700Y623600D01*
X838700Y623600D01*
X839698Y623529D01*
X840687Y623386D01*
X841665Y623174D01*
X842624Y622892D01*
X843561Y622543D01*
X844471Y622127D01*
X845348Y621648D01*
X846190Y621107D01*
X846990Y620508D01*
X847746Y619853D01*
X848453Y619146D01*
X849108Y618390D01*
X849707Y617590D01*
X850248Y616748D01*
X850727Y615871D01*
X851143Y614961D01*
X851492Y614024D01*
X851774Y613065D01*
X851986Y612087D01*
X852129Y611098D01*
X852200Y610100D01*
X852200Y609100D01*
M02*
